M48
;DRILL file {KiCad 4.0.2-stable} date 25/02/2017 19:07:39
;FORMAT={3:3/ absolute / metric / suppress leading zeros}
FMAT,2
METRIC,TZ
T1C0.400
T2C0.500
T3C0.701
T4C0.800
T5C0.813
T6C1.001
T7C1.016
T8C0.900
T9C2.000
%
G90
G05
M71
T1
X120266Y-82850
X126966Y-86950
X132566Y-90750
X132566Y-95050
X140866Y-97450
X141666Y-92750
X141666Y-96250
X144566Y-93550
T2
X111726Y-77640
X111726Y-85440
X114266Y-80180
X114266Y-87980
X116806Y-77640
X116806Y-85440
T3
X123465Y-68950
X125467Y-68950
X142665Y-68850
X144667Y-68850
X146069Y-85551
X146069Y-95711
X153316Y-83949
X153316Y-85951
X153316Y-101699
X153316Y-103701
T4
X155566Y-76200
X155566Y-78700
T5
X134166Y-78850
X139166Y-78850
T6
X112526Y-92050
X112526Y-98050
X115066Y-92050
X115066Y-98050
T7
X119966Y-91450
X119966Y-93990
X119966Y-96530
X120266Y-102750
X120266Y-112750
X120286Y-107750
X122806Y-102750
X122806Y-112750
X122826Y-107750
X125346Y-102750
X125346Y-112750
X125366Y-107750
X152566Y-91700
X152566Y-94240
X152566Y-96780
T8
X132466Y-68520
X135466Y-68520
T9
X112596Y-70350
X112596Y-110150
X157396Y-70350
X157396Y-110150
T0
M30
