G04 #@! TF.FileFunction,Copper,L1,Top,Signal*
%FSLAX46Y46*%
G04 Gerber Fmt 4.6, Leading zero omitted, Abs format (unit mm)*
G04 Created by KiCad (PCBNEW 4.0.2-stable) date 25/02/2017 19:07:51*
%MOMM*%
G01*
G04 APERTURE LIST*
%ADD10C,0.100000*%
%ADD11C,3.000000*%
%ADD12R,1.727200X2.032000*%
%ADD13O,1.727200X2.032000*%
%ADD14R,1.200000X0.900000*%
%ADD15R,0.750000X1.200000*%
%ADD16R,0.900000X1.200000*%
%ADD17R,2.032000X1.727200*%
%ADD18O,2.032000X1.727200*%
%ADD19R,1.200000X0.750000*%
%ADD20R,1.300000X1.300000*%
%ADD21C,1.300000*%
%ADD22R,2.000000X1.600000*%
%ADD23R,1.600000X2.000000*%
%ADD24R,1.198880X1.699260*%
%ADD25O,1.198880X1.699260*%
%ADD26R,2.000000X2.000000*%
%ADD27C,2.000000*%
%ADD28C,1.699260*%
%ADD29R,1.699260X1.699260*%
%ADD30R,0.800000X0.900000*%
%ADD31R,3.650000X2.050000*%
%ADD32R,2.050000X3.650000*%
%ADD33R,1.300000X0.420000*%
%ADD34R,1.700000X2.845000*%
%ADD35R,1.699260X1.198880*%
%ADD36O,1.699260X1.198880*%
%ADD37R,1.300000X1.500000*%
%ADD38C,1.500000*%
%ADD39C,1.100000*%
%ADD40R,0.700000X1.500000*%
%ADD41R,1.000000X0.800000*%
%ADD42C,0.600000*%
%ADD43C,0.400000*%
%ADD44C,0.500000*%
%ADD45C,0.300000*%
%ADD46C,0.254000*%
G04 APERTURE END LIST*
D10*
D11*
X112596000Y-110150000D03*
X112596000Y-70350000D03*
X157396000Y-70350000D03*
X157396000Y-110150000D03*
D12*
X120266000Y-102750000D03*
D13*
X122806000Y-102750000D03*
X125346000Y-102750000D03*
D14*
X126866000Y-92850000D03*
X124666000Y-92850000D03*
X126866000Y-95350000D03*
X124666000Y-95350000D03*
D15*
X137666000Y-90800000D03*
X137666000Y-88900000D03*
D12*
X120266000Y-112750000D03*
D13*
X122806000Y-112750000D03*
X125346000Y-112750000D03*
D12*
X125366000Y-107750000D03*
D13*
X122826000Y-107750000D03*
X120286000Y-107750000D03*
D16*
X137966000Y-100450000D03*
X137966000Y-102650000D03*
X135166000Y-100450000D03*
X135166000Y-102650000D03*
X132466000Y-99650000D03*
X132466000Y-97450000D03*
D17*
X119966000Y-91450000D03*
D18*
X119966000Y-93990000D03*
X119966000Y-96530000D03*
D19*
X137916000Y-98150000D03*
X136016000Y-98150000D03*
D20*
X155566000Y-78700000D03*
D21*
X155566000Y-76200000D03*
D22*
X138266000Y-94450000D03*
X142266000Y-94450000D03*
D15*
X129166000Y-113700000D03*
X129166000Y-111800000D03*
D23*
X129666000Y-84750000D03*
X129666000Y-88750000D03*
D24*
X144666760Y-68850000D03*
D25*
X142665240Y-68850000D03*
D26*
X115066000Y-92050000D03*
D27*
X112526000Y-92050000D03*
D26*
X115066000Y-98050000D03*
D27*
X112526000Y-98050000D03*
D17*
X152566000Y-91700000D03*
D18*
X152566000Y-94240000D03*
X152566000Y-96780000D03*
D24*
X125466760Y-68950000D03*
D25*
X123465240Y-68950000D03*
D16*
X120266000Y-86450000D03*
X120266000Y-84250000D03*
X120266000Y-78750000D03*
X120266000Y-76550000D03*
D28*
X146068540Y-95710520D03*
D29*
X146068540Y-85550520D03*
D30*
X142966000Y-97450000D03*
X142016000Y-99450000D03*
X143916000Y-99450000D03*
X133666000Y-88950000D03*
X134616000Y-86950000D03*
X132716000Y-86950000D03*
X141666000Y-74750000D03*
X142616000Y-72750000D03*
X140716000Y-72750000D03*
D31*
X145966000Y-103250000D03*
X151466000Y-69550000D03*
D32*
X124066000Y-85350000D03*
D31*
X144966000Y-82000000D03*
D32*
X132566000Y-103850000D03*
X124066000Y-79350000D03*
D33*
X130308000Y-94557500D03*
X130308000Y-93907500D03*
X130308000Y-93257500D03*
X130308000Y-92607500D03*
X130308000Y-91957500D03*
X130308000Y-91307500D03*
X134819000Y-91307500D03*
X134819000Y-91957500D03*
X134819000Y-92607500D03*
X134819000Y-93257500D03*
X134819000Y-93907500D03*
X134819000Y-94557500D03*
D34*
X132558500Y-92932500D03*
D31*
X117066000Y-67950000D03*
D35*
X153316000Y-103700760D03*
D36*
X153316000Y-101699240D03*
D35*
X153316000Y-85950760D03*
D36*
X153316000Y-83949240D03*
D37*
X141166000Y-88100000D03*
X141166000Y-90800000D03*
D32*
X129066000Y-78850000D03*
D38*
X139166000Y-78850000D03*
X134166000Y-78850000D03*
D39*
X114266000Y-80180000D03*
X116806000Y-77640000D03*
X111726000Y-77640000D03*
X114266000Y-87980000D03*
X116806000Y-85440000D03*
X111726000Y-85440000D03*
D40*
X136216000Y-70280000D03*
X133216000Y-70280000D03*
X131716000Y-70280000D03*
D41*
X137616000Y-67420000D03*
X130316000Y-67420000D03*
X130316000Y-69630000D03*
X137616000Y-69630000D03*
D42*
X120266000Y-82850000D03*
X141666000Y-96250000D03*
X141666000Y-92750000D03*
X144566000Y-93550000D03*
X132566000Y-95050000D03*
X132566000Y-90750000D03*
X126966000Y-86950000D03*
X140866000Y-97450000D03*
D43*
X115066000Y-98050000D02*
X115566000Y-98050000D01*
X115566000Y-98050000D02*
X120266000Y-102750000D01*
D44*
X120266000Y-84250000D02*
X120266000Y-82850000D01*
X142266000Y-94450000D02*
X142266000Y-95650000D01*
X142266000Y-95650000D02*
X141666000Y-96250000D01*
X142266000Y-94450000D02*
X142266000Y-93350000D01*
X142266000Y-93350000D02*
X141666000Y-92750000D01*
X142266000Y-94450000D02*
X143666000Y-94450000D01*
X143666000Y-94450000D02*
X144566000Y-93550000D01*
X132578500Y-92912500D02*
X132578500Y-95037500D01*
X132578500Y-95037500D02*
X132566000Y-95050000D01*
X132578500Y-92912500D02*
X132578500Y-90762500D01*
X132578500Y-90762500D02*
X132566000Y-90750000D01*
X141666000Y-74750000D02*
X128566000Y-74750000D01*
X128566000Y-74750000D02*
X126966000Y-76350000D01*
X126966000Y-76350000D02*
X122966000Y-76350000D01*
X119566000Y-72950000D02*
X117066000Y-72950000D01*
X122966000Y-76350000D02*
X119566000Y-72950000D01*
X126966000Y-86950000D02*
X126966000Y-76350000D01*
X112526000Y-92050000D02*
X112526000Y-86240000D01*
X112526000Y-86240000D02*
X111726000Y-85440000D01*
X111726000Y-77640000D02*
X111726000Y-85440000D01*
X117066000Y-67950000D02*
X117066000Y-72950000D01*
X117066000Y-72950000D02*
X117066000Y-73050000D01*
X117066000Y-73050000D02*
X114966000Y-75150000D01*
X111726000Y-77640000D02*
X112476000Y-77640000D01*
X112476000Y-77640000D02*
X114966000Y-75150000D01*
X142966000Y-97450000D02*
X151896000Y-97450000D01*
X151896000Y-97450000D02*
X152566000Y-96780000D01*
X142966000Y-97450000D02*
X140866000Y-97450000D01*
D45*
X130553500Y-91307500D02*
X130553500Y-91262500D01*
X130553500Y-91262500D02*
X130766000Y-91050000D01*
X129866000Y-90150000D02*
X129866000Y-88950000D01*
X130766000Y-91050000D02*
X129866000Y-90150000D01*
X129866000Y-88950000D02*
X129666000Y-88750000D01*
X130553500Y-91307500D02*
X130553500Y-91137500D01*
X130553500Y-91137500D02*
X129666000Y-90250000D01*
X129666000Y-90250000D02*
X129666000Y-88750000D01*
D43*
X130553500Y-91307500D02*
X130523500Y-91307500D01*
D44*
X129666000Y-88750000D02*
X128766000Y-88750000D01*
X128766000Y-88750000D02*
X126966000Y-86950000D01*
D43*
X130308000Y-91957500D02*
X129273500Y-91957500D01*
X125966000Y-81250000D02*
X124066000Y-79350000D01*
X125966000Y-88650000D02*
X125966000Y-81250000D01*
X129273500Y-91957500D02*
X125966000Y-88650000D01*
X114266000Y-80180000D02*
X123236000Y-80180000D01*
X123236000Y-80180000D02*
X124066000Y-79350000D01*
X124066000Y-79350000D02*
X124066000Y-79450000D01*
X129973500Y-91957500D02*
X130553500Y-91957500D01*
X130308000Y-92607500D02*
X128823500Y-92607500D01*
X124066000Y-87850000D02*
X124066000Y-85350000D01*
X128823500Y-92607500D02*
X124066000Y-87850000D01*
X114266000Y-87980000D02*
X121436000Y-87980000D01*
X121436000Y-87980000D02*
X124066000Y-85350000D01*
X122806000Y-112750000D02*
X122806000Y-112110000D01*
X122806000Y-112110000D02*
X124666000Y-110250000D01*
X124666000Y-110250000D02*
X127366000Y-110250000D01*
X127366000Y-110250000D02*
X129666000Y-107950000D01*
X129666000Y-107950000D02*
X129666000Y-95445000D01*
X129666000Y-95445000D02*
X130553500Y-94557500D01*
X122806000Y-102750000D02*
X122806000Y-97210000D01*
X122806000Y-97210000D02*
X124666000Y-95350000D01*
X122826000Y-107750000D02*
X122826000Y-105270000D01*
X122826000Y-105270000D02*
X125346000Y-102750000D01*
X130553500Y-93257500D02*
X127273500Y-93257500D01*
X127273500Y-93257500D02*
X126866000Y-92850000D01*
X130553500Y-93907500D02*
X128308500Y-93907500D01*
X128308500Y-93907500D02*
X126866000Y-95350000D01*
X115066000Y-92050000D02*
X119366000Y-92050000D01*
X119366000Y-92050000D02*
X119966000Y-91450000D01*
X119966000Y-93990000D02*
X123526000Y-93990000D01*
X123526000Y-93990000D02*
X124666000Y-92850000D01*
X137966000Y-102650000D02*
X137366000Y-102650000D01*
X137366000Y-102650000D02*
X135166000Y-100450000D01*
X132466000Y-99650000D02*
X134366000Y-99650000D01*
X134366000Y-99650000D02*
X135166000Y-100450000D01*
X138266000Y-94450000D02*
X137051000Y-94450000D01*
X137051000Y-94450000D02*
X135858500Y-93257500D01*
D45*
X134819000Y-93257500D02*
X135858500Y-93257500D01*
X135858500Y-93257500D02*
X135866000Y-93250000D01*
X137866000Y-94850000D02*
X138266000Y-94450000D01*
D44*
X145966000Y-103250000D02*
X143816000Y-103250000D01*
X143816000Y-103250000D02*
X141016000Y-100450000D01*
X153316000Y-101699240D02*
X147516760Y-101699240D01*
X147516760Y-101699240D02*
X145966000Y-103250000D01*
X137916000Y-98150000D02*
X137916000Y-94800000D01*
X137916000Y-94800000D02*
X138266000Y-94450000D01*
X146068540Y-95710520D02*
X148555480Y-95710520D01*
X148555480Y-95710520D02*
X152566000Y-91700000D01*
X146068540Y-95710520D02*
X146068540Y-91852540D01*
X144916000Y-90700000D02*
X141166000Y-90700000D01*
X146068540Y-91852540D02*
X144916000Y-90700000D01*
D45*
X137916000Y-94800000D02*
X138266000Y-94450000D01*
D44*
X137966000Y-100450000D02*
X137966000Y-98200000D01*
X137966000Y-98200000D02*
X137916000Y-98150000D01*
X137966000Y-100450000D02*
X141016000Y-100450000D01*
X141016000Y-100450000D02*
X142016000Y-99450000D01*
X137916000Y-94800000D02*
X138266000Y-94450000D01*
X138266000Y-94450000D02*
X138266000Y-93600000D01*
X138266000Y-93600000D02*
X141166000Y-90700000D01*
D45*
X137916000Y-94800000D02*
X138266000Y-94450000D01*
X137916000Y-100400000D02*
X137966000Y-100450000D01*
D44*
X137666000Y-90800000D02*
X137716000Y-90800000D01*
X137716000Y-90800000D02*
X138966000Y-89550000D01*
X140366000Y-85550000D02*
X146066000Y-85550000D01*
X138966000Y-86950000D02*
X140366000Y-85550000D01*
X138966000Y-89550000D02*
X138966000Y-86950000D01*
D43*
X134653500Y-91957500D02*
X136508500Y-91957500D01*
X136508500Y-91957500D02*
X137666000Y-90800000D01*
D44*
X134166000Y-78850000D02*
X129066000Y-78850000D01*
D45*
X134653500Y-91307500D02*
X134653500Y-91262500D01*
X134653500Y-91262500D02*
X134866000Y-91050000D01*
X133866000Y-89950000D02*
X133866000Y-89150000D01*
X134866000Y-90950000D02*
X133866000Y-89950000D01*
X134866000Y-91050000D02*
X134866000Y-90950000D01*
X133866000Y-89150000D02*
X133666000Y-88950000D01*
X134653500Y-91307500D02*
X134653500Y-91037500D01*
X133666000Y-90050000D02*
X133666000Y-88950000D01*
X134653500Y-91037500D02*
X133666000Y-90050000D01*
D44*
X133666000Y-88950000D02*
X137616000Y-88950000D01*
X137616000Y-88950000D02*
X137666000Y-88900000D01*
X134166000Y-78850000D02*
X134166000Y-82450000D01*
X137666000Y-85950000D02*
X137666000Y-88900000D01*
X134166000Y-82450000D02*
X137666000Y-85950000D01*
D43*
X137616000Y-88950000D02*
X137666000Y-88900000D01*
X132566000Y-103850000D02*
X132566000Y-102850000D01*
X132566000Y-102850000D02*
X130666000Y-100950000D01*
X130666000Y-100950000D02*
X130666000Y-99250000D01*
X130666000Y-99250000D02*
X132466000Y-97450000D01*
X136016000Y-98150000D02*
X136016000Y-95920000D01*
X136016000Y-95920000D02*
X134653500Y-94557500D01*
X134653500Y-94557500D02*
X134653500Y-95262500D01*
X134653500Y-95262500D02*
X132466000Y-97450000D01*
D44*
X139166000Y-78850000D02*
X141816000Y-78850000D01*
X141816000Y-78850000D02*
X144966000Y-82000000D01*
X141166000Y-88200000D02*
X144016000Y-88200000D01*
X148066000Y-83750000D02*
X146316000Y-82000000D01*
X148066000Y-86950000D02*
X148066000Y-83750000D01*
X147466000Y-87550000D02*
X148066000Y-86950000D01*
X144666000Y-87550000D02*
X147466000Y-87550000D01*
X144016000Y-88200000D02*
X144666000Y-87550000D01*
X146316000Y-82000000D02*
X144966000Y-82000000D01*
D43*
X134653500Y-92607500D02*
X135865998Y-92607500D01*
D44*
X139266000Y-90350000D02*
X139266000Y-91250000D01*
X139266000Y-91250000D02*
X137908498Y-92607502D01*
X137908498Y-92607502D02*
X135866000Y-92607502D01*
X139266000Y-90350000D02*
X141166000Y-88450000D01*
D43*
X135865998Y-92607500D02*
X135866000Y-92607502D01*
D44*
X141166000Y-88200000D02*
X141166000Y-88450000D01*
D45*
X141166000Y-88200000D02*
X141116000Y-88200000D01*
X143766000Y-82000000D02*
X144966000Y-82000000D01*
D43*
X129166000Y-113700000D02*
X126296000Y-113700000D01*
X126296000Y-113700000D02*
X125346000Y-112750000D01*
D44*
X142616000Y-72750000D02*
X142616000Y-68899240D01*
X142616000Y-68899240D02*
X142665240Y-68850000D01*
X153316000Y-83949240D02*
X154065240Y-83949240D01*
X154065240Y-83949240D02*
X155266000Y-85150000D01*
X154776000Y-94240000D02*
X152566000Y-94240000D01*
X155266000Y-93750000D02*
X154776000Y-94240000D01*
X155266000Y-85150000D02*
X155266000Y-93750000D01*
X155566000Y-78700000D02*
X155566000Y-81699240D01*
X155566000Y-81699240D02*
X153316000Y-83949240D01*
D43*
X120266000Y-86450000D02*
X117816000Y-86450000D01*
X117816000Y-86450000D02*
X116806000Y-85440000D01*
X120266000Y-78750000D02*
X117916000Y-78750000D01*
X117916000Y-78750000D02*
X116806000Y-77640000D01*
D44*
X133216000Y-70280000D02*
X133216000Y-70000000D01*
X133216000Y-70000000D02*
X134166000Y-69050000D01*
X134166000Y-69050000D02*
X134166000Y-67350000D01*
X134166000Y-67350000D02*
X135266000Y-66250000D01*
X135266000Y-66250000D02*
X143466000Y-66250000D01*
X143466000Y-66250000D02*
X144666760Y-67450760D01*
X144666760Y-67450760D02*
X144666760Y-68850000D01*
X123465240Y-68950000D02*
X123465240Y-71349240D01*
X129246000Y-72750000D02*
X131716000Y-70280000D01*
X124866000Y-72750000D02*
X129246000Y-72750000D01*
X123465240Y-71349240D02*
X124866000Y-72750000D01*
D46*
G36*
X111053875Y-86444009D02*
X111489255Y-86624794D01*
X111641000Y-86624927D01*
X111641000Y-90646602D01*
X111601057Y-90663106D01*
X111140722Y-91122637D01*
X110891284Y-91723352D01*
X110890716Y-92373795D01*
X111139106Y-92974943D01*
X111598637Y-93435278D01*
X112199352Y-93684716D01*
X112849795Y-93685284D01*
X113450943Y-93436894D01*
X113517574Y-93370379D01*
X113601910Y-93501441D01*
X113814110Y-93646431D01*
X114066000Y-93697440D01*
X116066000Y-93697440D01*
X116301317Y-93653162D01*
X116517441Y-93514090D01*
X116662431Y-93301890D01*
X116713440Y-93050000D01*
X116713440Y-92885000D01*
X118661476Y-92885000D01*
X118698110Y-92910031D01*
X118739439Y-92918400D01*
X118721585Y-92930330D01*
X118396729Y-93416511D01*
X118282655Y-93990000D01*
X118396729Y-94563489D01*
X118721585Y-95049670D01*
X119036366Y-95260000D01*
X118721585Y-95470330D01*
X118396729Y-95956511D01*
X118282655Y-96530000D01*
X118396729Y-97103489D01*
X118721585Y-97589670D01*
X119207766Y-97914526D01*
X119781255Y-98028600D01*
X120150745Y-98028600D01*
X120724234Y-97914526D01*
X121210415Y-97589670D01*
X121535271Y-97103489D01*
X121649345Y-96530000D01*
X121535271Y-95956511D01*
X121210415Y-95470330D01*
X120895634Y-95260000D01*
X121210415Y-95049670D01*
X121360535Y-94825000D01*
X123433748Y-94825000D01*
X123418560Y-94900000D01*
X123418560Y-95416572D01*
X122215566Y-96619566D01*
X122034561Y-96890459D01*
X121971000Y-97210000D01*
X121971000Y-101355465D01*
X121746330Y-101505585D01*
X121736757Y-101519913D01*
X121732762Y-101498683D01*
X121593690Y-101282559D01*
X121381490Y-101137569D01*
X121129600Y-101086560D01*
X119783428Y-101086560D01*
X116713440Y-98016572D01*
X116713440Y-97050000D01*
X116669162Y-96814683D01*
X116530090Y-96598559D01*
X116317890Y-96453569D01*
X116066000Y-96402560D01*
X114066000Y-96402560D01*
X113830683Y-96446838D01*
X113614559Y-96585910D01*
X113517090Y-96728561D01*
X113453363Y-96664722D01*
X112852648Y-96415284D01*
X112202205Y-96414716D01*
X111601057Y-96663106D01*
X111140722Y-97122637D01*
X110891284Y-97723352D01*
X110890716Y-98373795D01*
X111139106Y-98974943D01*
X111598637Y-99435278D01*
X112199352Y-99684716D01*
X112849795Y-99685284D01*
X113450943Y-99436894D01*
X113517574Y-99370379D01*
X113601910Y-99501441D01*
X113814110Y-99646431D01*
X114066000Y-99697440D01*
X116032572Y-99697440D01*
X118754960Y-102419828D01*
X118754960Y-103766000D01*
X118799238Y-104001317D01*
X118938310Y-104217441D01*
X119150510Y-104362431D01*
X119402400Y-104413440D01*
X121129600Y-104413440D01*
X121364917Y-104369162D01*
X121581041Y-104230090D01*
X121726031Y-104017890D01*
X121734400Y-103976561D01*
X121746330Y-103994415D01*
X122232511Y-104319271D01*
X122535577Y-104379555D01*
X122235566Y-104679566D01*
X122054561Y-104950459D01*
X121991000Y-105270000D01*
X121991000Y-106355465D01*
X121766330Y-106505585D01*
X121556000Y-106820366D01*
X121345670Y-106505585D01*
X120859489Y-106180729D01*
X120286000Y-106066655D01*
X119712511Y-106180729D01*
X119226330Y-106505585D01*
X118901474Y-106991766D01*
X118787400Y-107565255D01*
X118787400Y-107934745D01*
X118901474Y-108508234D01*
X119226330Y-108994415D01*
X119712511Y-109319271D01*
X120286000Y-109433345D01*
X120859489Y-109319271D01*
X121345670Y-108994415D01*
X121556000Y-108679634D01*
X121766330Y-108994415D01*
X122252511Y-109319271D01*
X122826000Y-109433345D01*
X123399489Y-109319271D01*
X123885670Y-108994415D01*
X123895243Y-108980087D01*
X123899238Y-109001317D01*
X124038310Y-109217441D01*
X124250510Y-109362431D01*
X124502400Y-109413440D01*
X126229600Y-109413440D01*
X126464917Y-109369162D01*
X126681041Y-109230090D01*
X126826031Y-109017890D01*
X126877040Y-108766000D01*
X126877040Y-106734000D01*
X126832762Y-106498683D01*
X126693690Y-106282559D01*
X126481490Y-106137569D01*
X126229600Y-106086560D01*
X124502400Y-106086560D01*
X124267083Y-106130838D01*
X124050959Y-106269910D01*
X123905969Y-106482110D01*
X123897600Y-106523439D01*
X123885670Y-106505585D01*
X123661000Y-106355465D01*
X123661000Y-105615868D01*
X124926889Y-104349979D01*
X125346000Y-104433345D01*
X125919489Y-104319271D01*
X126405670Y-103994415D01*
X126730526Y-103508234D01*
X126844600Y-102934745D01*
X126844600Y-102565255D01*
X126730526Y-101991766D01*
X126405670Y-101505585D01*
X125919489Y-101180729D01*
X125346000Y-101066655D01*
X124772511Y-101180729D01*
X124286330Y-101505585D01*
X124076000Y-101820366D01*
X123865670Y-101505585D01*
X123641000Y-101355465D01*
X123641000Y-97555868D01*
X124749428Y-96447440D01*
X125266000Y-96447440D01*
X125501317Y-96403162D01*
X125717441Y-96264090D01*
X125765134Y-96194289D01*
X125801910Y-96251441D01*
X126014110Y-96396431D01*
X126266000Y-96447440D01*
X127466000Y-96447440D01*
X127701317Y-96403162D01*
X127917441Y-96264090D01*
X128062431Y-96051890D01*
X128113440Y-95800000D01*
X128113440Y-95283428D01*
X128654368Y-94742500D01*
X129010560Y-94742500D01*
X129010560Y-94767500D01*
X129037627Y-94911346D01*
X128894561Y-95125459D01*
X128831000Y-95445000D01*
X128831000Y-107604132D01*
X127020132Y-109415000D01*
X124666000Y-109415000D01*
X124346459Y-109478561D01*
X124075566Y-109659566D01*
X122634330Y-111100802D01*
X122232511Y-111180729D01*
X121746330Y-111505585D01*
X121731500Y-111527780D01*
X121667927Y-111374302D01*
X121489299Y-111195673D01*
X121255910Y-111099000D01*
X120551750Y-111099000D01*
X120393000Y-111257750D01*
X120393000Y-112623000D01*
X120413000Y-112623000D01*
X120413000Y-112877000D01*
X120393000Y-112877000D01*
X120393000Y-114242250D01*
X120551750Y-114401000D01*
X121255910Y-114401000D01*
X121489299Y-114304327D01*
X121667927Y-114125698D01*
X121731500Y-113972220D01*
X121746330Y-113994415D01*
X122232511Y-114319271D01*
X122806000Y-114433345D01*
X123379489Y-114319271D01*
X123865670Y-113994415D01*
X124076000Y-113679634D01*
X124286330Y-113994415D01*
X124772511Y-114319271D01*
X125346000Y-114433345D01*
X125787897Y-114345446D01*
X125929407Y-114440000D01*
X110776000Y-114440000D01*
X110776000Y-113035750D01*
X118767400Y-113035750D01*
X118767400Y-113892309D01*
X118864073Y-114125698D01*
X119042701Y-114304327D01*
X119276090Y-114401000D01*
X119980250Y-114401000D01*
X120139000Y-114242250D01*
X120139000Y-112877000D01*
X118926150Y-112877000D01*
X118767400Y-113035750D01*
X110776000Y-113035750D01*
X110776000Y-111336067D01*
X110784980Y-111357800D01*
X111385041Y-111958909D01*
X112169459Y-112284628D01*
X113018815Y-112285370D01*
X113803800Y-111961020D01*
X114157746Y-111607691D01*
X118767400Y-111607691D01*
X118767400Y-112464250D01*
X118926150Y-112623000D01*
X120139000Y-112623000D01*
X120139000Y-111257750D01*
X119980250Y-111099000D01*
X119276090Y-111099000D01*
X119042701Y-111195673D01*
X118864073Y-111374302D01*
X118767400Y-111607691D01*
X114157746Y-111607691D01*
X114404909Y-111360959D01*
X114730628Y-110576541D01*
X114731370Y-109727185D01*
X114407020Y-108942200D01*
X113806959Y-108341091D01*
X113022541Y-108015372D01*
X112173185Y-108014630D01*
X111388200Y-108338980D01*
X110787091Y-108939041D01*
X110776000Y-108965751D01*
X110776000Y-86165648D01*
X111053875Y-86444009D01*
X111053875Y-86444009D01*
G37*
X111053875Y-86444009D02*
X111489255Y-86624794D01*
X111641000Y-86624927D01*
X111641000Y-90646602D01*
X111601057Y-90663106D01*
X111140722Y-91122637D01*
X110891284Y-91723352D01*
X110890716Y-92373795D01*
X111139106Y-92974943D01*
X111598637Y-93435278D01*
X112199352Y-93684716D01*
X112849795Y-93685284D01*
X113450943Y-93436894D01*
X113517574Y-93370379D01*
X113601910Y-93501441D01*
X113814110Y-93646431D01*
X114066000Y-93697440D01*
X116066000Y-93697440D01*
X116301317Y-93653162D01*
X116517441Y-93514090D01*
X116662431Y-93301890D01*
X116713440Y-93050000D01*
X116713440Y-92885000D01*
X118661476Y-92885000D01*
X118698110Y-92910031D01*
X118739439Y-92918400D01*
X118721585Y-92930330D01*
X118396729Y-93416511D01*
X118282655Y-93990000D01*
X118396729Y-94563489D01*
X118721585Y-95049670D01*
X119036366Y-95260000D01*
X118721585Y-95470330D01*
X118396729Y-95956511D01*
X118282655Y-96530000D01*
X118396729Y-97103489D01*
X118721585Y-97589670D01*
X119207766Y-97914526D01*
X119781255Y-98028600D01*
X120150745Y-98028600D01*
X120724234Y-97914526D01*
X121210415Y-97589670D01*
X121535271Y-97103489D01*
X121649345Y-96530000D01*
X121535271Y-95956511D01*
X121210415Y-95470330D01*
X120895634Y-95260000D01*
X121210415Y-95049670D01*
X121360535Y-94825000D01*
X123433748Y-94825000D01*
X123418560Y-94900000D01*
X123418560Y-95416572D01*
X122215566Y-96619566D01*
X122034561Y-96890459D01*
X121971000Y-97210000D01*
X121971000Y-101355465D01*
X121746330Y-101505585D01*
X121736757Y-101519913D01*
X121732762Y-101498683D01*
X121593690Y-101282559D01*
X121381490Y-101137569D01*
X121129600Y-101086560D01*
X119783428Y-101086560D01*
X116713440Y-98016572D01*
X116713440Y-97050000D01*
X116669162Y-96814683D01*
X116530090Y-96598559D01*
X116317890Y-96453569D01*
X116066000Y-96402560D01*
X114066000Y-96402560D01*
X113830683Y-96446838D01*
X113614559Y-96585910D01*
X113517090Y-96728561D01*
X113453363Y-96664722D01*
X112852648Y-96415284D01*
X112202205Y-96414716D01*
X111601057Y-96663106D01*
X111140722Y-97122637D01*
X110891284Y-97723352D01*
X110890716Y-98373795D01*
X111139106Y-98974943D01*
X111598637Y-99435278D01*
X112199352Y-99684716D01*
X112849795Y-99685284D01*
X113450943Y-99436894D01*
X113517574Y-99370379D01*
X113601910Y-99501441D01*
X113814110Y-99646431D01*
X114066000Y-99697440D01*
X116032572Y-99697440D01*
X118754960Y-102419828D01*
X118754960Y-103766000D01*
X118799238Y-104001317D01*
X118938310Y-104217441D01*
X119150510Y-104362431D01*
X119402400Y-104413440D01*
X121129600Y-104413440D01*
X121364917Y-104369162D01*
X121581041Y-104230090D01*
X121726031Y-104017890D01*
X121734400Y-103976561D01*
X121746330Y-103994415D01*
X122232511Y-104319271D01*
X122535577Y-104379555D01*
X122235566Y-104679566D01*
X122054561Y-104950459D01*
X121991000Y-105270000D01*
X121991000Y-106355465D01*
X121766330Y-106505585D01*
X121556000Y-106820366D01*
X121345670Y-106505585D01*
X120859489Y-106180729D01*
X120286000Y-106066655D01*
X119712511Y-106180729D01*
X119226330Y-106505585D01*
X118901474Y-106991766D01*
X118787400Y-107565255D01*
X118787400Y-107934745D01*
X118901474Y-108508234D01*
X119226330Y-108994415D01*
X119712511Y-109319271D01*
X120286000Y-109433345D01*
X120859489Y-109319271D01*
X121345670Y-108994415D01*
X121556000Y-108679634D01*
X121766330Y-108994415D01*
X122252511Y-109319271D01*
X122826000Y-109433345D01*
X123399489Y-109319271D01*
X123885670Y-108994415D01*
X123895243Y-108980087D01*
X123899238Y-109001317D01*
X124038310Y-109217441D01*
X124250510Y-109362431D01*
X124502400Y-109413440D01*
X126229600Y-109413440D01*
X126464917Y-109369162D01*
X126681041Y-109230090D01*
X126826031Y-109017890D01*
X126877040Y-108766000D01*
X126877040Y-106734000D01*
X126832762Y-106498683D01*
X126693690Y-106282559D01*
X126481490Y-106137569D01*
X126229600Y-106086560D01*
X124502400Y-106086560D01*
X124267083Y-106130838D01*
X124050959Y-106269910D01*
X123905969Y-106482110D01*
X123897600Y-106523439D01*
X123885670Y-106505585D01*
X123661000Y-106355465D01*
X123661000Y-105615868D01*
X124926889Y-104349979D01*
X125346000Y-104433345D01*
X125919489Y-104319271D01*
X126405670Y-103994415D01*
X126730526Y-103508234D01*
X126844600Y-102934745D01*
X126844600Y-102565255D01*
X126730526Y-101991766D01*
X126405670Y-101505585D01*
X125919489Y-101180729D01*
X125346000Y-101066655D01*
X124772511Y-101180729D01*
X124286330Y-101505585D01*
X124076000Y-101820366D01*
X123865670Y-101505585D01*
X123641000Y-101355465D01*
X123641000Y-97555868D01*
X124749428Y-96447440D01*
X125266000Y-96447440D01*
X125501317Y-96403162D01*
X125717441Y-96264090D01*
X125765134Y-96194289D01*
X125801910Y-96251441D01*
X126014110Y-96396431D01*
X126266000Y-96447440D01*
X127466000Y-96447440D01*
X127701317Y-96403162D01*
X127917441Y-96264090D01*
X128062431Y-96051890D01*
X128113440Y-95800000D01*
X128113440Y-95283428D01*
X128654368Y-94742500D01*
X129010560Y-94742500D01*
X129010560Y-94767500D01*
X129037627Y-94911346D01*
X128894561Y-95125459D01*
X128831000Y-95445000D01*
X128831000Y-107604132D01*
X127020132Y-109415000D01*
X124666000Y-109415000D01*
X124346459Y-109478561D01*
X124075566Y-109659566D01*
X122634330Y-111100802D01*
X122232511Y-111180729D01*
X121746330Y-111505585D01*
X121731500Y-111527780D01*
X121667927Y-111374302D01*
X121489299Y-111195673D01*
X121255910Y-111099000D01*
X120551750Y-111099000D01*
X120393000Y-111257750D01*
X120393000Y-112623000D01*
X120413000Y-112623000D01*
X120413000Y-112877000D01*
X120393000Y-112877000D01*
X120393000Y-114242250D01*
X120551750Y-114401000D01*
X121255910Y-114401000D01*
X121489299Y-114304327D01*
X121667927Y-114125698D01*
X121731500Y-113972220D01*
X121746330Y-113994415D01*
X122232511Y-114319271D01*
X122806000Y-114433345D01*
X123379489Y-114319271D01*
X123865670Y-113994415D01*
X124076000Y-113679634D01*
X124286330Y-113994415D01*
X124772511Y-114319271D01*
X125346000Y-114433345D01*
X125787897Y-114345446D01*
X125929407Y-114440000D01*
X110776000Y-114440000D01*
X110776000Y-113035750D01*
X118767400Y-113035750D01*
X118767400Y-113892309D01*
X118864073Y-114125698D01*
X119042701Y-114304327D01*
X119276090Y-114401000D01*
X119980250Y-114401000D01*
X120139000Y-114242250D01*
X120139000Y-112877000D01*
X118926150Y-112877000D01*
X118767400Y-113035750D01*
X110776000Y-113035750D01*
X110776000Y-111336067D01*
X110784980Y-111357800D01*
X111385041Y-111958909D01*
X112169459Y-112284628D01*
X113018815Y-112285370D01*
X113803800Y-111961020D01*
X114157746Y-111607691D01*
X118767400Y-111607691D01*
X118767400Y-112464250D01*
X118926150Y-112623000D01*
X120139000Y-112623000D01*
X120139000Y-111257750D01*
X119980250Y-111099000D01*
X119276090Y-111099000D01*
X119042701Y-111195673D01*
X118864073Y-111374302D01*
X118767400Y-111607691D01*
X114157746Y-111607691D01*
X114404909Y-111360959D01*
X114730628Y-110576541D01*
X114731370Y-109727185D01*
X114407020Y-108942200D01*
X113806959Y-108341091D01*
X113022541Y-108015372D01*
X112173185Y-108014630D01*
X111388200Y-108338980D01*
X110787091Y-108939041D01*
X110776000Y-108965751D01*
X110776000Y-86165648D01*
X111053875Y-86444009D01*
G36*
X159156000Y-69091091D02*
X158606959Y-68541091D01*
X157822541Y-68215372D01*
X156973185Y-68214630D01*
X156188200Y-68538980D01*
X155587091Y-69139041D01*
X155261372Y-69923459D01*
X155260630Y-70772815D01*
X155584980Y-71557800D01*
X156185041Y-72158909D01*
X156969459Y-72484628D01*
X157818815Y-72485370D01*
X158603800Y-72161020D01*
X159156000Y-71609783D01*
X159156000Y-108891091D01*
X158606959Y-108341091D01*
X157822541Y-108015372D01*
X156973185Y-108014630D01*
X156188200Y-108338980D01*
X155587091Y-108939041D01*
X155261372Y-109723459D01*
X155260630Y-110572815D01*
X155584980Y-111357800D01*
X156185041Y-111958909D01*
X156969459Y-112284628D01*
X157818815Y-112285370D01*
X158603800Y-111961020D01*
X159156000Y-111409783D01*
X159156000Y-114440000D01*
X130160089Y-114440000D01*
X130188440Y-114300000D01*
X130188440Y-113100000D01*
X130144162Y-112864683D01*
X130077671Y-112761354D01*
X130079327Y-112759698D01*
X130176000Y-112526309D01*
X130176000Y-112085750D01*
X130017250Y-111927000D01*
X129293000Y-111927000D01*
X129293000Y-111947000D01*
X129039000Y-111947000D01*
X129039000Y-111927000D01*
X128314750Y-111927000D01*
X128156000Y-112085750D01*
X128156000Y-112526309D01*
X128252673Y-112759698D01*
X128254043Y-112761068D01*
X128194569Y-112848110D01*
X128191149Y-112865000D01*
X126844600Y-112865000D01*
X126844600Y-112565255D01*
X126730526Y-111991766D01*
X126405670Y-111505585D01*
X125919489Y-111180729D01*
X125438227Y-111085000D01*
X127366000Y-111085000D01*
X127422853Y-111073691D01*
X128156000Y-111073691D01*
X128156000Y-111514250D01*
X128314750Y-111673000D01*
X129039000Y-111673000D01*
X129039000Y-110723750D01*
X129293000Y-110723750D01*
X129293000Y-111673000D01*
X130017250Y-111673000D01*
X130176000Y-111514250D01*
X130176000Y-111073691D01*
X130079327Y-110840302D01*
X129900699Y-110661673D01*
X129667310Y-110565000D01*
X129451750Y-110565000D01*
X129293000Y-110723750D01*
X129039000Y-110723750D01*
X128880250Y-110565000D01*
X128664690Y-110565000D01*
X128431301Y-110661673D01*
X128252673Y-110840302D01*
X128156000Y-111073691D01*
X127422853Y-111073691D01*
X127685541Y-111021439D01*
X127956434Y-110840434D01*
X130256434Y-108540434D01*
X130277949Y-108508234D01*
X130437439Y-108269541D01*
X130501000Y-107950000D01*
X130501000Y-101965868D01*
X130893560Y-102358428D01*
X130893560Y-105675000D01*
X130937838Y-105910317D01*
X131076910Y-106126441D01*
X131289110Y-106271431D01*
X131541000Y-106322440D01*
X133591000Y-106322440D01*
X133826317Y-106278162D01*
X134042441Y-106139090D01*
X134187431Y-105926890D01*
X134238440Y-105675000D01*
X134238440Y-103670465D01*
X134356301Y-103788327D01*
X134589690Y-103885000D01*
X134880250Y-103885000D01*
X135039000Y-103726250D01*
X135039000Y-102777000D01*
X135019000Y-102777000D01*
X135019000Y-102523000D01*
X135039000Y-102523000D01*
X135039000Y-102503000D01*
X135293000Y-102503000D01*
X135293000Y-102523000D01*
X135313000Y-102523000D01*
X135313000Y-102777000D01*
X135293000Y-102777000D01*
X135293000Y-103726250D01*
X135451750Y-103885000D01*
X135742310Y-103885000D01*
X135975699Y-103788327D01*
X136154327Y-103609698D01*
X136251000Y-103376309D01*
X136251000Y-102935750D01*
X136092252Y-102777002D01*
X136251000Y-102777002D01*
X136251000Y-102715868D01*
X136775566Y-103240434D01*
X136879874Y-103310131D01*
X136912838Y-103485317D01*
X137051910Y-103701441D01*
X137264110Y-103846431D01*
X137516000Y-103897440D01*
X138416000Y-103897440D01*
X138651317Y-103853162D01*
X138867441Y-103714090D01*
X139012431Y-103501890D01*
X139063440Y-103250000D01*
X139063440Y-102050000D01*
X139019162Y-101814683D01*
X138880090Y-101598559D01*
X138810289Y-101550866D01*
X138867441Y-101514090D01*
X138989808Y-101335000D01*
X140649420Y-101335000D01*
X143190208Y-103875787D01*
X143190210Y-103875790D01*
X143477325Y-104067633D01*
X143493560Y-104070862D01*
X143493560Y-104275000D01*
X143537838Y-104510317D01*
X143676910Y-104726441D01*
X143889110Y-104871431D01*
X144141000Y-104922440D01*
X147791000Y-104922440D01*
X148026317Y-104878162D01*
X148242441Y-104739090D01*
X148387431Y-104526890D01*
X148438440Y-104275000D01*
X148438440Y-103986510D01*
X151831370Y-103986510D01*
X151831370Y-104426509D01*
X151928043Y-104659898D01*
X152106671Y-104838527D01*
X152340060Y-104935200D01*
X153030250Y-104935200D01*
X153189000Y-104776450D01*
X153189000Y-103827760D01*
X153443000Y-103827760D01*
X153443000Y-104776450D01*
X153601750Y-104935200D01*
X154291940Y-104935200D01*
X154525329Y-104838527D01*
X154703957Y-104659898D01*
X154800630Y-104426509D01*
X154800630Y-103986510D01*
X154641880Y-103827760D01*
X153443000Y-103827760D01*
X153189000Y-103827760D01*
X151990120Y-103827760D01*
X151831370Y-103986510D01*
X148438440Y-103986510D01*
X148438440Y-102584240D01*
X152085424Y-102584240D01*
X151928043Y-102741622D01*
X151831370Y-102975011D01*
X151831370Y-103415010D01*
X151990120Y-103573760D01*
X153189000Y-103573760D01*
X153189000Y-103553760D01*
X153443000Y-103553760D01*
X153443000Y-103573760D01*
X154641880Y-103573760D01*
X154800630Y-103415010D01*
X154800630Y-102975011D01*
X154703957Y-102741622D01*
X154525329Y-102562993D01*
X154485327Y-102546424D01*
X154735750Y-102171640D01*
X154829716Y-101699240D01*
X154735750Y-101226840D01*
X154468157Y-100826359D01*
X154067676Y-100558766D01*
X153595276Y-100464800D01*
X153036724Y-100464800D01*
X152564324Y-100558766D01*
X152181980Y-100814240D01*
X147516765Y-100814240D01*
X147516760Y-100814239D01*
X147234276Y-100870430D01*
X147178085Y-100881607D01*
X146890970Y-101073450D01*
X146890968Y-101073453D01*
X146386861Y-101577560D01*
X144141000Y-101577560D01*
X143905683Y-101621838D01*
X143689559Y-101760910D01*
X143644474Y-101826894D01*
X142365020Y-100547440D01*
X142416000Y-100547440D01*
X142651317Y-100503162D01*
X142867441Y-100364090D01*
X142966633Y-100218917D01*
X143051910Y-100351441D01*
X143264110Y-100496431D01*
X143516000Y-100547440D01*
X144316000Y-100547440D01*
X144551317Y-100503162D01*
X144767441Y-100364090D01*
X144912431Y-100151890D01*
X144963440Y-99900000D01*
X144963440Y-99000000D01*
X144919162Y-98764683D01*
X144780090Y-98548559D01*
X144567890Y-98403569D01*
X144316000Y-98352560D01*
X143825319Y-98352560D01*
X143837317Y-98335000D01*
X151895995Y-98335000D01*
X151896000Y-98335001D01*
X152179540Y-98278600D01*
X152234675Y-98267633D01*
X152255653Y-98253616D01*
X152381255Y-98278600D01*
X152750745Y-98278600D01*
X153324234Y-98164526D01*
X153810415Y-97839670D01*
X154135271Y-97353489D01*
X154249345Y-96780000D01*
X154135271Y-96206511D01*
X153810415Y-95720330D01*
X153495634Y-95510000D01*
X153810415Y-95299670D01*
X153927126Y-95125000D01*
X154775995Y-95125000D01*
X154776000Y-95125001D01*
X155058484Y-95068810D01*
X155114675Y-95057633D01*
X155401790Y-94865790D01*
X155891787Y-94375792D01*
X155891790Y-94375790D01*
X156083633Y-94088675D01*
X156111727Y-93947440D01*
X156151001Y-93750000D01*
X156151000Y-93749995D01*
X156151000Y-85150005D01*
X156151001Y-85150000D01*
X156083633Y-84811325D01*
X156009843Y-84700890D01*
X155891790Y-84524210D01*
X155891787Y-84524208D01*
X154942200Y-83574620D01*
X156191787Y-82325032D01*
X156191790Y-82325030D01*
X156383633Y-82037915D01*
X156383634Y-82037914D01*
X156451001Y-81699240D01*
X156451000Y-81699235D01*
X156451000Y-79953222D01*
X156451317Y-79953162D01*
X156667441Y-79814090D01*
X156812431Y-79601890D01*
X156863440Y-79350000D01*
X156863440Y-78050000D01*
X156819162Y-77814683D01*
X156680090Y-77598559D01*
X156467890Y-77453569D01*
X156216000Y-77402560D01*
X156053615Y-77402560D01*
X156229729Y-77329611D01*
X156285410Y-77099016D01*
X155566000Y-76379605D01*
X154846590Y-77099016D01*
X154902271Y-77329611D01*
X155111902Y-77402560D01*
X154916000Y-77402560D01*
X154680683Y-77446838D01*
X154464559Y-77585910D01*
X154319569Y-77798110D01*
X154268560Y-78050000D01*
X154268560Y-79350000D01*
X154312838Y-79585317D01*
X154451910Y-79801441D01*
X154664110Y-79946431D01*
X154681000Y-79949851D01*
X154681000Y-81332661D01*
X153298860Y-82714800D01*
X153036724Y-82714800D01*
X152564324Y-82808766D01*
X152163843Y-83076359D01*
X151896250Y-83476840D01*
X151802284Y-83949240D01*
X151896250Y-84421640D01*
X152146673Y-84796424D01*
X152106671Y-84812993D01*
X151928043Y-84991622D01*
X151831370Y-85225011D01*
X151831370Y-85665010D01*
X151990120Y-85823760D01*
X153189000Y-85823760D01*
X153189000Y-85803760D01*
X153443000Y-85803760D01*
X153443000Y-85823760D01*
X153463000Y-85823760D01*
X153463000Y-86077760D01*
X153443000Y-86077760D01*
X153443000Y-87026450D01*
X153601750Y-87185200D01*
X154291940Y-87185200D01*
X154381000Y-87148310D01*
X154381000Y-93355000D01*
X153927126Y-93355000D01*
X153810415Y-93180330D01*
X153796087Y-93170757D01*
X153817317Y-93166762D01*
X154033441Y-93027690D01*
X154178431Y-92815490D01*
X154229440Y-92563600D01*
X154229440Y-90836400D01*
X154185162Y-90601083D01*
X154046090Y-90384959D01*
X153833890Y-90239969D01*
X153582000Y-90188960D01*
X151550000Y-90188960D01*
X151314683Y-90233238D01*
X151098559Y-90372310D01*
X150953569Y-90584510D01*
X150902560Y-90836400D01*
X150902560Y-92111861D01*
X148188900Y-94825520D01*
X147282838Y-94825520D01*
X146953540Y-94495647D01*
X146953540Y-91852545D01*
X146953541Y-91852540D01*
X146893361Y-91550000D01*
X146886173Y-91513865D01*
X146694330Y-91226750D01*
X146694327Y-91226748D01*
X145541790Y-90074210D01*
X145505557Y-90050000D01*
X145254675Y-89882367D01*
X145162791Y-89864090D01*
X144916000Y-89814999D01*
X144915995Y-89815000D01*
X142419222Y-89815000D01*
X142419162Y-89814683D01*
X142280090Y-89598559D01*
X142067890Y-89453569D01*
X142054803Y-89450919D01*
X142267441Y-89314090D01*
X142412431Y-89101890D01*
X142415851Y-89085000D01*
X144015995Y-89085000D01*
X144016000Y-89085001D01*
X144298484Y-89028810D01*
X144354675Y-89017633D01*
X144641790Y-88825790D01*
X145032579Y-88435000D01*
X147465995Y-88435000D01*
X147466000Y-88435001D01*
X147748484Y-88378810D01*
X147804675Y-88367633D01*
X148091790Y-88175790D01*
X148091791Y-88175789D01*
X148691787Y-87575792D01*
X148691790Y-87575790D01*
X148883633Y-87288675D01*
X148889423Y-87259566D01*
X148951001Y-86950000D01*
X148951000Y-86949995D01*
X148951000Y-86236510D01*
X151831370Y-86236510D01*
X151831370Y-86676509D01*
X151928043Y-86909898D01*
X152106671Y-87088527D01*
X152340060Y-87185200D01*
X153030250Y-87185200D01*
X153189000Y-87026450D01*
X153189000Y-86077760D01*
X151990120Y-86077760D01*
X151831370Y-86236510D01*
X148951000Y-86236510D01*
X148951000Y-83750005D01*
X148951001Y-83750000D01*
X148883633Y-83411326D01*
X148883633Y-83411325D01*
X148691790Y-83124210D01*
X148691787Y-83124208D01*
X147438440Y-81870860D01*
X147438440Y-80975000D01*
X147394162Y-80739683D01*
X147255090Y-80523559D01*
X147042890Y-80378569D01*
X146791000Y-80327560D01*
X144545139Y-80327560D01*
X142441790Y-78224210D01*
X142330726Y-78150000D01*
X142154675Y-78032367D01*
X142098484Y-78021190D01*
X141816000Y-77964999D01*
X141815995Y-77965000D01*
X140239523Y-77965000D01*
X139951564Y-77676539D01*
X139442702Y-77465241D01*
X138891715Y-77464760D01*
X138382485Y-77675169D01*
X137992539Y-78064436D01*
X137781241Y-78573298D01*
X137780760Y-79124285D01*
X137991169Y-79633515D01*
X138380436Y-80023461D01*
X138889298Y-80234759D01*
X139440285Y-80235240D01*
X139949515Y-80024831D01*
X140239852Y-79735000D01*
X141449420Y-79735000D01*
X142526543Y-80812123D01*
X142493560Y-80975000D01*
X142493560Y-83025000D01*
X142537838Y-83260317D01*
X142676910Y-83476441D01*
X142889110Y-83621431D01*
X143141000Y-83672440D01*
X146736861Y-83672440D01*
X147168580Y-84104159D01*
X146918170Y-84053450D01*
X145218910Y-84053450D01*
X144983593Y-84097728D01*
X144767469Y-84236800D01*
X144622479Y-84449000D01*
X144578738Y-84665000D01*
X140366005Y-84665000D01*
X140366000Y-84664999D01*
X140107998Y-84716320D01*
X140027325Y-84732367D01*
X139740210Y-84924210D01*
X139740208Y-84924213D01*
X138551000Y-86113420D01*
X138551000Y-85950000D01*
X138483633Y-85611325D01*
X138291790Y-85324210D01*
X138291787Y-85324208D01*
X135051000Y-82083420D01*
X135051000Y-79923523D01*
X135339461Y-79635564D01*
X135550759Y-79126702D01*
X135551240Y-78575715D01*
X135340831Y-78066485D01*
X134951564Y-77676539D01*
X134442702Y-77465241D01*
X133891715Y-77464760D01*
X133382485Y-77675169D01*
X133092148Y-77965000D01*
X130738440Y-77965000D01*
X130738440Y-77025000D01*
X130694162Y-76789683D01*
X130555090Y-76573559D01*
X130342890Y-76428569D01*
X130091000Y-76377560D01*
X128190020Y-76377560D01*
X128548501Y-76019078D01*
X154268378Y-76019078D01*
X154297917Y-76529428D01*
X154436389Y-76863729D01*
X154666984Y-76919410D01*
X155386395Y-76200000D01*
X155745605Y-76200000D01*
X156465016Y-76919410D01*
X156695611Y-76863729D01*
X156863622Y-76380922D01*
X156834083Y-75870572D01*
X156695611Y-75536271D01*
X156465016Y-75480590D01*
X155745605Y-76200000D01*
X155386395Y-76200000D01*
X154666984Y-75480590D01*
X154436389Y-75536271D01*
X154268378Y-76019078D01*
X128548501Y-76019078D01*
X128932579Y-75635000D01*
X140791331Y-75635000D01*
X140801910Y-75651441D01*
X141014110Y-75796431D01*
X141266000Y-75847440D01*
X142066000Y-75847440D01*
X142301317Y-75803162D01*
X142517441Y-75664090D01*
X142662431Y-75451890D01*
X142692990Y-75300984D01*
X154846590Y-75300984D01*
X155566000Y-76020395D01*
X156285410Y-75300984D01*
X156229729Y-75070389D01*
X155746922Y-74902378D01*
X155236572Y-74931917D01*
X154902271Y-75070389D01*
X154846590Y-75300984D01*
X142692990Y-75300984D01*
X142713440Y-75200000D01*
X142713440Y-74300000D01*
X142669162Y-74064683D01*
X142530090Y-73848559D01*
X142528452Y-73847440D01*
X143016000Y-73847440D01*
X143251317Y-73803162D01*
X143467441Y-73664090D01*
X143612431Y-73451890D01*
X143663440Y-73200000D01*
X143663440Y-72300000D01*
X143619162Y-72064683D01*
X143501000Y-71881054D01*
X143501000Y-70026960D01*
X143516642Y-70016509D01*
X143603230Y-70151071D01*
X143815430Y-70296061D01*
X144067320Y-70347070D01*
X145266200Y-70347070D01*
X145501517Y-70302792D01*
X145717641Y-70163720D01*
X145862631Y-69951520D01*
X145886075Y-69835750D01*
X149006000Y-69835750D01*
X149006000Y-70701310D01*
X149102673Y-70934699D01*
X149281302Y-71113327D01*
X149514691Y-71210000D01*
X151180250Y-71210000D01*
X151339000Y-71051250D01*
X151339000Y-69677000D01*
X151593000Y-69677000D01*
X151593000Y-71051250D01*
X151751750Y-71210000D01*
X153417309Y-71210000D01*
X153650698Y-71113327D01*
X153829327Y-70934699D01*
X153926000Y-70701310D01*
X153926000Y-69835750D01*
X153767250Y-69677000D01*
X151593000Y-69677000D01*
X151339000Y-69677000D01*
X149164750Y-69677000D01*
X149006000Y-69835750D01*
X145886075Y-69835750D01*
X145913640Y-69699630D01*
X145913640Y-68398690D01*
X149006000Y-68398690D01*
X149006000Y-69264250D01*
X149164750Y-69423000D01*
X151339000Y-69423000D01*
X151339000Y-68048750D01*
X151593000Y-68048750D01*
X151593000Y-69423000D01*
X153767250Y-69423000D01*
X153926000Y-69264250D01*
X153926000Y-68398690D01*
X153829327Y-68165301D01*
X153650698Y-67986673D01*
X153417309Y-67890000D01*
X151751750Y-67890000D01*
X151593000Y-68048750D01*
X151339000Y-68048750D01*
X151180250Y-67890000D01*
X149514691Y-67890000D01*
X149281302Y-67986673D01*
X149102673Y-68165301D01*
X149006000Y-68398690D01*
X145913640Y-68398690D01*
X145913640Y-68000370D01*
X145869362Y-67765053D01*
X145730290Y-67548929D01*
X145546279Y-67423200D01*
X145484393Y-67112085D01*
X145417068Y-67011326D01*
X145292550Y-66824970D01*
X145292547Y-66824968D01*
X144527580Y-66060000D01*
X159156000Y-66060000D01*
X159156000Y-69091091D01*
X159156000Y-69091091D01*
G37*
X159156000Y-69091091D02*
X158606959Y-68541091D01*
X157822541Y-68215372D01*
X156973185Y-68214630D01*
X156188200Y-68538980D01*
X155587091Y-69139041D01*
X155261372Y-69923459D01*
X155260630Y-70772815D01*
X155584980Y-71557800D01*
X156185041Y-72158909D01*
X156969459Y-72484628D01*
X157818815Y-72485370D01*
X158603800Y-72161020D01*
X159156000Y-71609783D01*
X159156000Y-108891091D01*
X158606959Y-108341091D01*
X157822541Y-108015372D01*
X156973185Y-108014630D01*
X156188200Y-108338980D01*
X155587091Y-108939041D01*
X155261372Y-109723459D01*
X155260630Y-110572815D01*
X155584980Y-111357800D01*
X156185041Y-111958909D01*
X156969459Y-112284628D01*
X157818815Y-112285370D01*
X158603800Y-111961020D01*
X159156000Y-111409783D01*
X159156000Y-114440000D01*
X130160089Y-114440000D01*
X130188440Y-114300000D01*
X130188440Y-113100000D01*
X130144162Y-112864683D01*
X130077671Y-112761354D01*
X130079327Y-112759698D01*
X130176000Y-112526309D01*
X130176000Y-112085750D01*
X130017250Y-111927000D01*
X129293000Y-111927000D01*
X129293000Y-111947000D01*
X129039000Y-111947000D01*
X129039000Y-111927000D01*
X128314750Y-111927000D01*
X128156000Y-112085750D01*
X128156000Y-112526309D01*
X128252673Y-112759698D01*
X128254043Y-112761068D01*
X128194569Y-112848110D01*
X128191149Y-112865000D01*
X126844600Y-112865000D01*
X126844600Y-112565255D01*
X126730526Y-111991766D01*
X126405670Y-111505585D01*
X125919489Y-111180729D01*
X125438227Y-111085000D01*
X127366000Y-111085000D01*
X127422853Y-111073691D01*
X128156000Y-111073691D01*
X128156000Y-111514250D01*
X128314750Y-111673000D01*
X129039000Y-111673000D01*
X129039000Y-110723750D01*
X129293000Y-110723750D01*
X129293000Y-111673000D01*
X130017250Y-111673000D01*
X130176000Y-111514250D01*
X130176000Y-111073691D01*
X130079327Y-110840302D01*
X129900699Y-110661673D01*
X129667310Y-110565000D01*
X129451750Y-110565000D01*
X129293000Y-110723750D01*
X129039000Y-110723750D01*
X128880250Y-110565000D01*
X128664690Y-110565000D01*
X128431301Y-110661673D01*
X128252673Y-110840302D01*
X128156000Y-111073691D01*
X127422853Y-111073691D01*
X127685541Y-111021439D01*
X127956434Y-110840434D01*
X130256434Y-108540434D01*
X130277949Y-108508234D01*
X130437439Y-108269541D01*
X130501000Y-107950000D01*
X130501000Y-101965868D01*
X130893560Y-102358428D01*
X130893560Y-105675000D01*
X130937838Y-105910317D01*
X131076910Y-106126441D01*
X131289110Y-106271431D01*
X131541000Y-106322440D01*
X133591000Y-106322440D01*
X133826317Y-106278162D01*
X134042441Y-106139090D01*
X134187431Y-105926890D01*
X134238440Y-105675000D01*
X134238440Y-103670465D01*
X134356301Y-103788327D01*
X134589690Y-103885000D01*
X134880250Y-103885000D01*
X135039000Y-103726250D01*
X135039000Y-102777000D01*
X135019000Y-102777000D01*
X135019000Y-102523000D01*
X135039000Y-102523000D01*
X135039000Y-102503000D01*
X135293000Y-102503000D01*
X135293000Y-102523000D01*
X135313000Y-102523000D01*
X135313000Y-102777000D01*
X135293000Y-102777000D01*
X135293000Y-103726250D01*
X135451750Y-103885000D01*
X135742310Y-103885000D01*
X135975699Y-103788327D01*
X136154327Y-103609698D01*
X136251000Y-103376309D01*
X136251000Y-102935750D01*
X136092252Y-102777002D01*
X136251000Y-102777002D01*
X136251000Y-102715868D01*
X136775566Y-103240434D01*
X136879874Y-103310131D01*
X136912838Y-103485317D01*
X137051910Y-103701441D01*
X137264110Y-103846431D01*
X137516000Y-103897440D01*
X138416000Y-103897440D01*
X138651317Y-103853162D01*
X138867441Y-103714090D01*
X139012431Y-103501890D01*
X139063440Y-103250000D01*
X139063440Y-102050000D01*
X139019162Y-101814683D01*
X138880090Y-101598559D01*
X138810289Y-101550866D01*
X138867441Y-101514090D01*
X138989808Y-101335000D01*
X140649420Y-101335000D01*
X143190208Y-103875787D01*
X143190210Y-103875790D01*
X143477325Y-104067633D01*
X143493560Y-104070862D01*
X143493560Y-104275000D01*
X143537838Y-104510317D01*
X143676910Y-104726441D01*
X143889110Y-104871431D01*
X144141000Y-104922440D01*
X147791000Y-104922440D01*
X148026317Y-104878162D01*
X148242441Y-104739090D01*
X148387431Y-104526890D01*
X148438440Y-104275000D01*
X148438440Y-103986510D01*
X151831370Y-103986510D01*
X151831370Y-104426509D01*
X151928043Y-104659898D01*
X152106671Y-104838527D01*
X152340060Y-104935200D01*
X153030250Y-104935200D01*
X153189000Y-104776450D01*
X153189000Y-103827760D01*
X153443000Y-103827760D01*
X153443000Y-104776450D01*
X153601750Y-104935200D01*
X154291940Y-104935200D01*
X154525329Y-104838527D01*
X154703957Y-104659898D01*
X154800630Y-104426509D01*
X154800630Y-103986510D01*
X154641880Y-103827760D01*
X153443000Y-103827760D01*
X153189000Y-103827760D01*
X151990120Y-103827760D01*
X151831370Y-103986510D01*
X148438440Y-103986510D01*
X148438440Y-102584240D01*
X152085424Y-102584240D01*
X151928043Y-102741622D01*
X151831370Y-102975011D01*
X151831370Y-103415010D01*
X151990120Y-103573760D01*
X153189000Y-103573760D01*
X153189000Y-103553760D01*
X153443000Y-103553760D01*
X153443000Y-103573760D01*
X154641880Y-103573760D01*
X154800630Y-103415010D01*
X154800630Y-102975011D01*
X154703957Y-102741622D01*
X154525329Y-102562993D01*
X154485327Y-102546424D01*
X154735750Y-102171640D01*
X154829716Y-101699240D01*
X154735750Y-101226840D01*
X154468157Y-100826359D01*
X154067676Y-100558766D01*
X153595276Y-100464800D01*
X153036724Y-100464800D01*
X152564324Y-100558766D01*
X152181980Y-100814240D01*
X147516765Y-100814240D01*
X147516760Y-100814239D01*
X147234276Y-100870430D01*
X147178085Y-100881607D01*
X146890970Y-101073450D01*
X146890968Y-101073453D01*
X146386861Y-101577560D01*
X144141000Y-101577560D01*
X143905683Y-101621838D01*
X143689559Y-101760910D01*
X143644474Y-101826894D01*
X142365020Y-100547440D01*
X142416000Y-100547440D01*
X142651317Y-100503162D01*
X142867441Y-100364090D01*
X142966633Y-100218917D01*
X143051910Y-100351441D01*
X143264110Y-100496431D01*
X143516000Y-100547440D01*
X144316000Y-100547440D01*
X144551317Y-100503162D01*
X144767441Y-100364090D01*
X144912431Y-100151890D01*
X144963440Y-99900000D01*
X144963440Y-99000000D01*
X144919162Y-98764683D01*
X144780090Y-98548559D01*
X144567890Y-98403569D01*
X144316000Y-98352560D01*
X143825319Y-98352560D01*
X143837317Y-98335000D01*
X151895995Y-98335000D01*
X151896000Y-98335001D01*
X152179540Y-98278600D01*
X152234675Y-98267633D01*
X152255653Y-98253616D01*
X152381255Y-98278600D01*
X152750745Y-98278600D01*
X153324234Y-98164526D01*
X153810415Y-97839670D01*
X154135271Y-97353489D01*
X154249345Y-96780000D01*
X154135271Y-96206511D01*
X153810415Y-95720330D01*
X153495634Y-95510000D01*
X153810415Y-95299670D01*
X153927126Y-95125000D01*
X154775995Y-95125000D01*
X154776000Y-95125001D01*
X155058484Y-95068810D01*
X155114675Y-95057633D01*
X155401790Y-94865790D01*
X155891787Y-94375792D01*
X155891790Y-94375790D01*
X156083633Y-94088675D01*
X156111727Y-93947440D01*
X156151001Y-93750000D01*
X156151000Y-93749995D01*
X156151000Y-85150005D01*
X156151001Y-85150000D01*
X156083633Y-84811325D01*
X156009843Y-84700890D01*
X155891790Y-84524210D01*
X155891787Y-84524208D01*
X154942200Y-83574620D01*
X156191787Y-82325032D01*
X156191790Y-82325030D01*
X156383633Y-82037915D01*
X156383634Y-82037914D01*
X156451001Y-81699240D01*
X156451000Y-81699235D01*
X156451000Y-79953222D01*
X156451317Y-79953162D01*
X156667441Y-79814090D01*
X156812431Y-79601890D01*
X156863440Y-79350000D01*
X156863440Y-78050000D01*
X156819162Y-77814683D01*
X156680090Y-77598559D01*
X156467890Y-77453569D01*
X156216000Y-77402560D01*
X156053615Y-77402560D01*
X156229729Y-77329611D01*
X156285410Y-77099016D01*
X155566000Y-76379605D01*
X154846590Y-77099016D01*
X154902271Y-77329611D01*
X155111902Y-77402560D01*
X154916000Y-77402560D01*
X154680683Y-77446838D01*
X154464559Y-77585910D01*
X154319569Y-77798110D01*
X154268560Y-78050000D01*
X154268560Y-79350000D01*
X154312838Y-79585317D01*
X154451910Y-79801441D01*
X154664110Y-79946431D01*
X154681000Y-79949851D01*
X154681000Y-81332661D01*
X153298860Y-82714800D01*
X153036724Y-82714800D01*
X152564324Y-82808766D01*
X152163843Y-83076359D01*
X151896250Y-83476840D01*
X151802284Y-83949240D01*
X151896250Y-84421640D01*
X152146673Y-84796424D01*
X152106671Y-84812993D01*
X151928043Y-84991622D01*
X151831370Y-85225011D01*
X151831370Y-85665010D01*
X151990120Y-85823760D01*
X153189000Y-85823760D01*
X153189000Y-85803760D01*
X153443000Y-85803760D01*
X153443000Y-85823760D01*
X153463000Y-85823760D01*
X153463000Y-86077760D01*
X153443000Y-86077760D01*
X153443000Y-87026450D01*
X153601750Y-87185200D01*
X154291940Y-87185200D01*
X154381000Y-87148310D01*
X154381000Y-93355000D01*
X153927126Y-93355000D01*
X153810415Y-93180330D01*
X153796087Y-93170757D01*
X153817317Y-93166762D01*
X154033441Y-93027690D01*
X154178431Y-92815490D01*
X154229440Y-92563600D01*
X154229440Y-90836400D01*
X154185162Y-90601083D01*
X154046090Y-90384959D01*
X153833890Y-90239969D01*
X153582000Y-90188960D01*
X151550000Y-90188960D01*
X151314683Y-90233238D01*
X151098559Y-90372310D01*
X150953569Y-90584510D01*
X150902560Y-90836400D01*
X150902560Y-92111861D01*
X148188900Y-94825520D01*
X147282838Y-94825520D01*
X146953540Y-94495647D01*
X146953540Y-91852545D01*
X146953541Y-91852540D01*
X146893361Y-91550000D01*
X146886173Y-91513865D01*
X146694330Y-91226750D01*
X146694327Y-91226748D01*
X145541790Y-90074210D01*
X145505557Y-90050000D01*
X145254675Y-89882367D01*
X145162791Y-89864090D01*
X144916000Y-89814999D01*
X144915995Y-89815000D01*
X142419222Y-89815000D01*
X142419162Y-89814683D01*
X142280090Y-89598559D01*
X142067890Y-89453569D01*
X142054803Y-89450919D01*
X142267441Y-89314090D01*
X142412431Y-89101890D01*
X142415851Y-89085000D01*
X144015995Y-89085000D01*
X144016000Y-89085001D01*
X144298484Y-89028810D01*
X144354675Y-89017633D01*
X144641790Y-88825790D01*
X145032579Y-88435000D01*
X147465995Y-88435000D01*
X147466000Y-88435001D01*
X147748484Y-88378810D01*
X147804675Y-88367633D01*
X148091790Y-88175790D01*
X148091791Y-88175789D01*
X148691787Y-87575792D01*
X148691790Y-87575790D01*
X148883633Y-87288675D01*
X148889423Y-87259566D01*
X148951001Y-86950000D01*
X148951000Y-86949995D01*
X148951000Y-86236510D01*
X151831370Y-86236510D01*
X151831370Y-86676509D01*
X151928043Y-86909898D01*
X152106671Y-87088527D01*
X152340060Y-87185200D01*
X153030250Y-87185200D01*
X153189000Y-87026450D01*
X153189000Y-86077760D01*
X151990120Y-86077760D01*
X151831370Y-86236510D01*
X148951000Y-86236510D01*
X148951000Y-83750005D01*
X148951001Y-83750000D01*
X148883633Y-83411326D01*
X148883633Y-83411325D01*
X148691790Y-83124210D01*
X148691787Y-83124208D01*
X147438440Y-81870860D01*
X147438440Y-80975000D01*
X147394162Y-80739683D01*
X147255090Y-80523559D01*
X147042890Y-80378569D01*
X146791000Y-80327560D01*
X144545139Y-80327560D01*
X142441790Y-78224210D01*
X142330726Y-78150000D01*
X142154675Y-78032367D01*
X142098484Y-78021190D01*
X141816000Y-77964999D01*
X141815995Y-77965000D01*
X140239523Y-77965000D01*
X139951564Y-77676539D01*
X139442702Y-77465241D01*
X138891715Y-77464760D01*
X138382485Y-77675169D01*
X137992539Y-78064436D01*
X137781241Y-78573298D01*
X137780760Y-79124285D01*
X137991169Y-79633515D01*
X138380436Y-80023461D01*
X138889298Y-80234759D01*
X139440285Y-80235240D01*
X139949515Y-80024831D01*
X140239852Y-79735000D01*
X141449420Y-79735000D01*
X142526543Y-80812123D01*
X142493560Y-80975000D01*
X142493560Y-83025000D01*
X142537838Y-83260317D01*
X142676910Y-83476441D01*
X142889110Y-83621431D01*
X143141000Y-83672440D01*
X146736861Y-83672440D01*
X147168580Y-84104159D01*
X146918170Y-84053450D01*
X145218910Y-84053450D01*
X144983593Y-84097728D01*
X144767469Y-84236800D01*
X144622479Y-84449000D01*
X144578738Y-84665000D01*
X140366005Y-84665000D01*
X140366000Y-84664999D01*
X140107998Y-84716320D01*
X140027325Y-84732367D01*
X139740210Y-84924210D01*
X139740208Y-84924213D01*
X138551000Y-86113420D01*
X138551000Y-85950000D01*
X138483633Y-85611325D01*
X138291790Y-85324210D01*
X138291787Y-85324208D01*
X135051000Y-82083420D01*
X135051000Y-79923523D01*
X135339461Y-79635564D01*
X135550759Y-79126702D01*
X135551240Y-78575715D01*
X135340831Y-78066485D01*
X134951564Y-77676539D01*
X134442702Y-77465241D01*
X133891715Y-77464760D01*
X133382485Y-77675169D01*
X133092148Y-77965000D01*
X130738440Y-77965000D01*
X130738440Y-77025000D01*
X130694162Y-76789683D01*
X130555090Y-76573559D01*
X130342890Y-76428569D01*
X130091000Y-76377560D01*
X128190020Y-76377560D01*
X128548501Y-76019078D01*
X154268378Y-76019078D01*
X154297917Y-76529428D01*
X154436389Y-76863729D01*
X154666984Y-76919410D01*
X155386395Y-76200000D01*
X155745605Y-76200000D01*
X156465016Y-76919410D01*
X156695611Y-76863729D01*
X156863622Y-76380922D01*
X156834083Y-75870572D01*
X156695611Y-75536271D01*
X156465016Y-75480590D01*
X155745605Y-76200000D01*
X155386395Y-76200000D01*
X154666984Y-75480590D01*
X154436389Y-75536271D01*
X154268378Y-76019078D01*
X128548501Y-76019078D01*
X128932579Y-75635000D01*
X140791331Y-75635000D01*
X140801910Y-75651441D01*
X141014110Y-75796431D01*
X141266000Y-75847440D01*
X142066000Y-75847440D01*
X142301317Y-75803162D01*
X142517441Y-75664090D01*
X142662431Y-75451890D01*
X142692990Y-75300984D01*
X154846590Y-75300984D01*
X155566000Y-76020395D01*
X156285410Y-75300984D01*
X156229729Y-75070389D01*
X155746922Y-74902378D01*
X155236572Y-74931917D01*
X154902271Y-75070389D01*
X154846590Y-75300984D01*
X142692990Y-75300984D01*
X142713440Y-75200000D01*
X142713440Y-74300000D01*
X142669162Y-74064683D01*
X142530090Y-73848559D01*
X142528452Y-73847440D01*
X143016000Y-73847440D01*
X143251317Y-73803162D01*
X143467441Y-73664090D01*
X143612431Y-73451890D01*
X143663440Y-73200000D01*
X143663440Y-72300000D01*
X143619162Y-72064683D01*
X143501000Y-71881054D01*
X143501000Y-70026960D01*
X143516642Y-70016509D01*
X143603230Y-70151071D01*
X143815430Y-70296061D01*
X144067320Y-70347070D01*
X145266200Y-70347070D01*
X145501517Y-70302792D01*
X145717641Y-70163720D01*
X145862631Y-69951520D01*
X145886075Y-69835750D01*
X149006000Y-69835750D01*
X149006000Y-70701310D01*
X149102673Y-70934699D01*
X149281302Y-71113327D01*
X149514691Y-71210000D01*
X151180250Y-71210000D01*
X151339000Y-71051250D01*
X151339000Y-69677000D01*
X151593000Y-69677000D01*
X151593000Y-71051250D01*
X151751750Y-71210000D01*
X153417309Y-71210000D01*
X153650698Y-71113327D01*
X153829327Y-70934699D01*
X153926000Y-70701310D01*
X153926000Y-69835750D01*
X153767250Y-69677000D01*
X151593000Y-69677000D01*
X151339000Y-69677000D01*
X149164750Y-69677000D01*
X149006000Y-69835750D01*
X145886075Y-69835750D01*
X145913640Y-69699630D01*
X145913640Y-68398690D01*
X149006000Y-68398690D01*
X149006000Y-69264250D01*
X149164750Y-69423000D01*
X151339000Y-69423000D01*
X151339000Y-68048750D01*
X151593000Y-68048750D01*
X151593000Y-69423000D01*
X153767250Y-69423000D01*
X153926000Y-69264250D01*
X153926000Y-68398690D01*
X153829327Y-68165301D01*
X153650698Y-67986673D01*
X153417309Y-67890000D01*
X151751750Y-67890000D01*
X151593000Y-68048750D01*
X151339000Y-68048750D01*
X151180250Y-67890000D01*
X149514691Y-67890000D01*
X149281302Y-67986673D01*
X149102673Y-68165301D01*
X149006000Y-68398690D01*
X145913640Y-68398690D01*
X145913640Y-68000370D01*
X145869362Y-67765053D01*
X145730290Y-67548929D01*
X145546279Y-67423200D01*
X145484393Y-67112085D01*
X145417068Y-67011326D01*
X145292550Y-66824970D01*
X145292547Y-66824968D01*
X144527580Y-66060000D01*
X159156000Y-66060000D01*
X159156000Y-69091091D01*
G36*
X145183540Y-92219119D02*
X145183540Y-94496222D01*
X144810666Y-94868446D01*
X144584168Y-95413913D01*
X144583652Y-96004536D01*
X144809198Y-96550397D01*
X144823776Y-96565000D01*
X143840669Y-96565000D01*
X143830090Y-96548559D01*
X143617890Y-96403569D01*
X143366000Y-96352560D01*
X142566000Y-96352560D01*
X142330683Y-96396838D01*
X142114559Y-96535910D01*
X142094683Y-96565000D01*
X141172822Y-96565000D01*
X141052799Y-96515162D01*
X140680833Y-96514838D01*
X140337057Y-96656883D01*
X140073808Y-96919673D01*
X139931162Y-97263201D01*
X139930838Y-97635167D01*
X140072883Y-97978943D01*
X140335673Y-98242192D01*
X140679201Y-98384838D01*
X141051167Y-98385162D01*
X141172569Y-98335000D01*
X142091331Y-98335000D01*
X142101910Y-98351441D01*
X142103548Y-98352560D01*
X141616000Y-98352560D01*
X141380683Y-98396838D01*
X141164559Y-98535910D01*
X141019569Y-98748110D01*
X140968560Y-99000000D01*
X140968560Y-99245861D01*
X140649420Y-99565000D01*
X138987192Y-99565000D01*
X138880090Y-99398559D01*
X138851000Y-99378683D01*
X138851000Y-99064018D01*
X138967441Y-98989090D01*
X139112431Y-98776890D01*
X139163440Y-98525000D01*
X139163440Y-97775000D01*
X139119162Y-97539683D01*
X138980090Y-97323559D01*
X138801000Y-97201192D01*
X138801000Y-95897440D01*
X139266000Y-95897440D01*
X139501317Y-95853162D01*
X139717441Y-95714090D01*
X139862431Y-95501890D01*
X139913440Y-95250000D01*
X139913440Y-94735750D01*
X140631000Y-94735750D01*
X140631000Y-95376310D01*
X140727673Y-95609699D01*
X140906302Y-95788327D01*
X141139691Y-95885000D01*
X141980250Y-95885000D01*
X142139000Y-95726250D01*
X142139000Y-94577000D01*
X142393000Y-94577000D01*
X142393000Y-95726250D01*
X142551750Y-95885000D01*
X143392309Y-95885000D01*
X143625698Y-95788327D01*
X143804327Y-95609699D01*
X143901000Y-95376310D01*
X143901000Y-94735750D01*
X143742250Y-94577000D01*
X142393000Y-94577000D01*
X142139000Y-94577000D01*
X140789750Y-94577000D01*
X140631000Y-94735750D01*
X139913440Y-94735750D01*
X139913440Y-93650000D01*
X139889674Y-93523690D01*
X140631000Y-93523690D01*
X140631000Y-94164250D01*
X140789750Y-94323000D01*
X142139000Y-94323000D01*
X142139000Y-93173750D01*
X142393000Y-93173750D01*
X142393000Y-94323000D01*
X143742250Y-94323000D01*
X143901000Y-94164250D01*
X143901000Y-93523690D01*
X143804327Y-93290301D01*
X143625698Y-93111673D01*
X143392309Y-93015000D01*
X142551750Y-93015000D01*
X142393000Y-93173750D01*
X142139000Y-93173750D01*
X141980250Y-93015000D01*
X141139691Y-93015000D01*
X140906302Y-93111673D01*
X140727673Y-93290301D01*
X140631000Y-93523690D01*
X139889674Y-93523690D01*
X139869162Y-93414683D01*
X139804063Y-93313517D01*
X140920139Y-92197440D01*
X141816000Y-92197440D01*
X142051317Y-92153162D01*
X142267441Y-92014090D01*
X142412431Y-91801890D01*
X142456352Y-91585000D01*
X144549420Y-91585000D01*
X145183540Y-92219119D01*
X145183540Y-92219119D01*
G37*
X145183540Y-92219119D02*
X145183540Y-94496222D01*
X144810666Y-94868446D01*
X144584168Y-95413913D01*
X144583652Y-96004536D01*
X144809198Y-96550397D01*
X144823776Y-96565000D01*
X143840669Y-96565000D01*
X143830090Y-96548559D01*
X143617890Y-96403569D01*
X143366000Y-96352560D01*
X142566000Y-96352560D01*
X142330683Y-96396838D01*
X142114559Y-96535910D01*
X142094683Y-96565000D01*
X141172822Y-96565000D01*
X141052799Y-96515162D01*
X140680833Y-96514838D01*
X140337057Y-96656883D01*
X140073808Y-96919673D01*
X139931162Y-97263201D01*
X139930838Y-97635167D01*
X140072883Y-97978943D01*
X140335673Y-98242192D01*
X140679201Y-98384838D01*
X141051167Y-98385162D01*
X141172569Y-98335000D01*
X142091331Y-98335000D01*
X142101910Y-98351441D01*
X142103548Y-98352560D01*
X141616000Y-98352560D01*
X141380683Y-98396838D01*
X141164559Y-98535910D01*
X141019569Y-98748110D01*
X140968560Y-99000000D01*
X140968560Y-99245861D01*
X140649420Y-99565000D01*
X138987192Y-99565000D01*
X138880090Y-99398559D01*
X138851000Y-99378683D01*
X138851000Y-99064018D01*
X138967441Y-98989090D01*
X139112431Y-98776890D01*
X139163440Y-98525000D01*
X139163440Y-97775000D01*
X139119162Y-97539683D01*
X138980090Y-97323559D01*
X138801000Y-97201192D01*
X138801000Y-95897440D01*
X139266000Y-95897440D01*
X139501317Y-95853162D01*
X139717441Y-95714090D01*
X139862431Y-95501890D01*
X139913440Y-95250000D01*
X139913440Y-94735750D01*
X140631000Y-94735750D01*
X140631000Y-95376310D01*
X140727673Y-95609699D01*
X140906302Y-95788327D01*
X141139691Y-95885000D01*
X141980250Y-95885000D01*
X142139000Y-95726250D01*
X142139000Y-94577000D01*
X142393000Y-94577000D01*
X142393000Y-95726250D01*
X142551750Y-95885000D01*
X143392309Y-95885000D01*
X143625698Y-95788327D01*
X143804327Y-95609699D01*
X143901000Y-95376310D01*
X143901000Y-94735750D01*
X143742250Y-94577000D01*
X142393000Y-94577000D01*
X142139000Y-94577000D01*
X140789750Y-94577000D01*
X140631000Y-94735750D01*
X139913440Y-94735750D01*
X139913440Y-93650000D01*
X139889674Y-93523690D01*
X140631000Y-93523690D01*
X140631000Y-94164250D01*
X140789750Y-94323000D01*
X142139000Y-94323000D01*
X142139000Y-93173750D01*
X142393000Y-93173750D01*
X142393000Y-94323000D01*
X143742250Y-94323000D01*
X143901000Y-94164250D01*
X143901000Y-93523690D01*
X143804327Y-93290301D01*
X143625698Y-93111673D01*
X143392309Y-93015000D01*
X142551750Y-93015000D01*
X142393000Y-93173750D01*
X142139000Y-93173750D01*
X141980250Y-93015000D01*
X141139691Y-93015000D01*
X140906302Y-93111673D01*
X140727673Y-93290301D01*
X140631000Y-93523690D01*
X139889674Y-93523690D01*
X139869162Y-93414683D01*
X139804063Y-93313517D01*
X140920139Y-92197440D01*
X141816000Y-92197440D01*
X142051317Y-92153162D01*
X142267441Y-92014090D01*
X142412431Y-91801890D01*
X142456352Y-91585000D01*
X144549420Y-91585000D01*
X145183540Y-92219119D01*
G36*
X133281000Y-79923852D02*
X133281000Y-82449995D01*
X133280999Y-82450000D01*
X133307702Y-82584240D01*
X133348367Y-82788675D01*
X133530268Y-83060910D01*
X133540210Y-83075790D01*
X136781000Y-86316579D01*
X136781000Y-87921614D01*
X136694569Y-88048110D01*
X136691149Y-88065000D01*
X134540669Y-88065000D01*
X134530090Y-88048559D01*
X134403314Y-87961936D01*
X134489000Y-87876250D01*
X134489000Y-87077000D01*
X134743000Y-87077000D01*
X134743000Y-87876250D01*
X134901750Y-88035000D01*
X135142309Y-88035000D01*
X135375698Y-87938327D01*
X135554327Y-87759699D01*
X135651000Y-87526310D01*
X135651000Y-87235750D01*
X135492250Y-87077000D01*
X134743000Y-87077000D01*
X134489000Y-87077000D01*
X134469000Y-87077000D01*
X134469000Y-86823000D01*
X134489000Y-86823000D01*
X134489000Y-86023750D01*
X134743000Y-86023750D01*
X134743000Y-86823000D01*
X135492250Y-86823000D01*
X135651000Y-86664250D01*
X135651000Y-86373690D01*
X135554327Y-86140301D01*
X135375698Y-85961673D01*
X135142309Y-85865000D01*
X134901750Y-85865000D01*
X134743000Y-86023750D01*
X134489000Y-86023750D01*
X134330250Y-85865000D01*
X134089691Y-85865000D01*
X133856302Y-85961673D01*
X133677673Y-86140301D01*
X133662577Y-86176747D01*
X133580090Y-86048559D01*
X133367890Y-85903569D01*
X133116000Y-85852560D01*
X132316000Y-85852560D01*
X132080683Y-85896838D01*
X131864559Y-86035910D01*
X131719569Y-86248110D01*
X131668560Y-86500000D01*
X131668560Y-87400000D01*
X131712838Y-87635317D01*
X131851910Y-87851441D01*
X132064110Y-87996431D01*
X132316000Y-88047440D01*
X132806681Y-88047440D01*
X132669569Y-88248110D01*
X132618560Y-88500000D01*
X132618560Y-89400000D01*
X132662838Y-89635317D01*
X132801910Y-89851441D01*
X132881000Y-89905481D01*
X132881000Y-90050000D01*
X132940755Y-90350407D01*
X133110921Y-90605079D01*
X133380842Y-90875000D01*
X132844250Y-90875000D01*
X132685500Y-91033750D01*
X132685500Y-92805500D01*
X132705500Y-92805500D01*
X132705500Y-93059500D01*
X132685500Y-93059500D01*
X132685500Y-94831250D01*
X132844250Y-94990000D01*
X133534810Y-94990000D01*
X133561357Y-94979004D01*
X133565838Y-95002817D01*
X133631020Y-95104112D01*
X132532572Y-96202560D01*
X132016000Y-96202560D01*
X131780683Y-96246838D01*
X131564559Y-96385910D01*
X131419569Y-96598110D01*
X131368560Y-96850000D01*
X131368560Y-97366572D01*
X130501000Y-98234132D01*
X130501000Y-95790868D01*
X130876928Y-95414940D01*
X130958000Y-95414940D01*
X131193317Y-95370662D01*
X131409441Y-95231590D01*
X131554431Y-95019390D01*
X131562070Y-94981666D01*
X131582190Y-94990000D01*
X132272750Y-94990000D01*
X132431500Y-94831250D01*
X132431500Y-93059500D01*
X132411500Y-93059500D01*
X132411500Y-92805500D01*
X132431500Y-92805500D01*
X132431500Y-91033750D01*
X132272750Y-90875000D01*
X131582190Y-90875000D01*
X131564920Y-90882154D01*
X131561162Y-90862183D01*
X131492378Y-90755290D01*
X131491245Y-90749593D01*
X131422717Y-90647033D01*
X131422090Y-90646059D01*
X131422046Y-90646029D01*
X131321079Y-90494921D01*
X130967291Y-90141133D01*
X131062431Y-90001890D01*
X131113440Y-89750000D01*
X131113440Y-87750000D01*
X131069162Y-87514683D01*
X130930090Y-87298559D01*
X130717890Y-87153569D01*
X130466000Y-87102560D01*
X128866000Y-87102560D01*
X128630683Y-87146838D01*
X128499093Y-87231514D01*
X127851000Y-86583420D01*
X127851000Y-85035750D01*
X128231000Y-85035750D01*
X128231000Y-85876309D01*
X128327673Y-86109698D01*
X128506301Y-86288327D01*
X128739690Y-86385000D01*
X129380250Y-86385000D01*
X129539000Y-86226250D01*
X129539000Y-84877000D01*
X129793000Y-84877000D01*
X129793000Y-86226250D01*
X129951750Y-86385000D01*
X130592310Y-86385000D01*
X130825699Y-86288327D01*
X131004327Y-86109698D01*
X131101000Y-85876309D01*
X131101000Y-85035750D01*
X130942250Y-84877000D01*
X129793000Y-84877000D01*
X129539000Y-84877000D01*
X128389750Y-84877000D01*
X128231000Y-85035750D01*
X127851000Y-85035750D01*
X127851000Y-83623691D01*
X128231000Y-83623691D01*
X128231000Y-84464250D01*
X128389750Y-84623000D01*
X129539000Y-84623000D01*
X129539000Y-83273750D01*
X129793000Y-83273750D01*
X129793000Y-84623000D01*
X130942250Y-84623000D01*
X131101000Y-84464250D01*
X131101000Y-83623691D01*
X131004327Y-83390302D01*
X130825699Y-83211673D01*
X130592310Y-83115000D01*
X129951750Y-83115000D01*
X129793000Y-83273750D01*
X129539000Y-83273750D01*
X129380250Y-83115000D01*
X128739690Y-83115000D01*
X128506301Y-83211673D01*
X128327673Y-83390302D01*
X128231000Y-83623691D01*
X127851000Y-83623691D01*
X127851000Y-81283964D01*
X128041000Y-81322440D01*
X130091000Y-81322440D01*
X130326317Y-81278162D01*
X130542441Y-81139090D01*
X130687431Y-80926890D01*
X130738440Y-80675000D01*
X130738440Y-79735000D01*
X133092477Y-79735000D01*
X133281000Y-79923852D01*
X133281000Y-79923852D01*
G37*
X133281000Y-79923852D02*
X133281000Y-82449995D01*
X133280999Y-82450000D01*
X133307702Y-82584240D01*
X133348367Y-82788675D01*
X133530268Y-83060910D01*
X133540210Y-83075790D01*
X136781000Y-86316579D01*
X136781000Y-87921614D01*
X136694569Y-88048110D01*
X136691149Y-88065000D01*
X134540669Y-88065000D01*
X134530090Y-88048559D01*
X134403314Y-87961936D01*
X134489000Y-87876250D01*
X134489000Y-87077000D01*
X134743000Y-87077000D01*
X134743000Y-87876250D01*
X134901750Y-88035000D01*
X135142309Y-88035000D01*
X135375698Y-87938327D01*
X135554327Y-87759699D01*
X135651000Y-87526310D01*
X135651000Y-87235750D01*
X135492250Y-87077000D01*
X134743000Y-87077000D01*
X134489000Y-87077000D01*
X134469000Y-87077000D01*
X134469000Y-86823000D01*
X134489000Y-86823000D01*
X134489000Y-86023750D01*
X134743000Y-86023750D01*
X134743000Y-86823000D01*
X135492250Y-86823000D01*
X135651000Y-86664250D01*
X135651000Y-86373690D01*
X135554327Y-86140301D01*
X135375698Y-85961673D01*
X135142309Y-85865000D01*
X134901750Y-85865000D01*
X134743000Y-86023750D01*
X134489000Y-86023750D01*
X134330250Y-85865000D01*
X134089691Y-85865000D01*
X133856302Y-85961673D01*
X133677673Y-86140301D01*
X133662577Y-86176747D01*
X133580090Y-86048559D01*
X133367890Y-85903569D01*
X133116000Y-85852560D01*
X132316000Y-85852560D01*
X132080683Y-85896838D01*
X131864559Y-86035910D01*
X131719569Y-86248110D01*
X131668560Y-86500000D01*
X131668560Y-87400000D01*
X131712838Y-87635317D01*
X131851910Y-87851441D01*
X132064110Y-87996431D01*
X132316000Y-88047440D01*
X132806681Y-88047440D01*
X132669569Y-88248110D01*
X132618560Y-88500000D01*
X132618560Y-89400000D01*
X132662838Y-89635317D01*
X132801910Y-89851441D01*
X132881000Y-89905481D01*
X132881000Y-90050000D01*
X132940755Y-90350407D01*
X133110921Y-90605079D01*
X133380842Y-90875000D01*
X132844250Y-90875000D01*
X132685500Y-91033750D01*
X132685500Y-92805500D01*
X132705500Y-92805500D01*
X132705500Y-93059500D01*
X132685500Y-93059500D01*
X132685500Y-94831250D01*
X132844250Y-94990000D01*
X133534810Y-94990000D01*
X133561357Y-94979004D01*
X133565838Y-95002817D01*
X133631020Y-95104112D01*
X132532572Y-96202560D01*
X132016000Y-96202560D01*
X131780683Y-96246838D01*
X131564559Y-96385910D01*
X131419569Y-96598110D01*
X131368560Y-96850000D01*
X131368560Y-97366572D01*
X130501000Y-98234132D01*
X130501000Y-95790868D01*
X130876928Y-95414940D01*
X130958000Y-95414940D01*
X131193317Y-95370662D01*
X131409441Y-95231590D01*
X131554431Y-95019390D01*
X131562070Y-94981666D01*
X131582190Y-94990000D01*
X132272750Y-94990000D01*
X132431500Y-94831250D01*
X132431500Y-93059500D01*
X132411500Y-93059500D01*
X132411500Y-92805500D01*
X132431500Y-92805500D01*
X132431500Y-91033750D01*
X132272750Y-90875000D01*
X131582190Y-90875000D01*
X131564920Y-90882154D01*
X131561162Y-90862183D01*
X131492378Y-90755290D01*
X131491245Y-90749593D01*
X131422717Y-90647033D01*
X131422090Y-90646059D01*
X131422046Y-90646029D01*
X131321079Y-90494921D01*
X130967291Y-90141133D01*
X131062431Y-90001890D01*
X131113440Y-89750000D01*
X131113440Y-87750000D01*
X131069162Y-87514683D01*
X130930090Y-87298559D01*
X130717890Y-87153569D01*
X130466000Y-87102560D01*
X128866000Y-87102560D01*
X128630683Y-87146838D01*
X128499093Y-87231514D01*
X127851000Y-86583420D01*
X127851000Y-85035750D01*
X128231000Y-85035750D01*
X128231000Y-85876309D01*
X128327673Y-86109698D01*
X128506301Y-86288327D01*
X128739690Y-86385000D01*
X129380250Y-86385000D01*
X129539000Y-86226250D01*
X129539000Y-84877000D01*
X129793000Y-84877000D01*
X129793000Y-86226250D01*
X129951750Y-86385000D01*
X130592310Y-86385000D01*
X130825699Y-86288327D01*
X131004327Y-86109698D01*
X131101000Y-85876309D01*
X131101000Y-85035750D01*
X130942250Y-84877000D01*
X129793000Y-84877000D01*
X129539000Y-84877000D01*
X128389750Y-84877000D01*
X128231000Y-85035750D01*
X127851000Y-85035750D01*
X127851000Y-83623691D01*
X128231000Y-83623691D01*
X128231000Y-84464250D01*
X128389750Y-84623000D01*
X129539000Y-84623000D01*
X129539000Y-83273750D01*
X129793000Y-83273750D01*
X129793000Y-84623000D01*
X130942250Y-84623000D01*
X131101000Y-84464250D01*
X131101000Y-83623691D01*
X131004327Y-83390302D01*
X130825699Y-83211673D01*
X130592310Y-83115000D01*
X129951750Y-83115000D01*
X129793000Y-83273750D01*
X129539000Y-83273750D01*
X129380250Y-83115000D01*
X128739690Y-83115000D01*
X128506301Y-83211673D01*
X128327673Y-83390302D01*
X128231000Y-83623691D01*
X127851000Y-83623691D01*
X127851000Y-81283964D01*
X128041000Y-81322440D01*
X130091000Y-81322440D01*
X130326317Y-81278162D01*
X130542441Y-81139090D01*
X130687431Y-80926890D01*
X130738440Y-80675000D01*
X130738440Y-79735000D01*
X133092477Y-79735000D01*
X133281000Y-79923852D01*
G36*
X120679421Y-75315000D02*
X120551750Y-75315000D01*
X120393000Y-75473750D01*
X120393000Y-76423000D01*
X121192250Y-76423000D01*
X121351000Y-76264250D01*
X121351000Y-75986579D01*
X122340208Y-76975787D01*
X122340210Y-76975790D01*
X122524632Y-77099016D01*
X122551332Y-77116856D01*
X122444569Y-77273110D01*
X122393560Y-77525000D01*
X122393560Y-79345000D01*
X121363440Y-79345000D01*
X121363440Y-78150000D01*
X121319162Y-77914683D01*
X121180090Y-77698559D01*
X121111994Y-77652031D01*
X121254327Y-77509698D01*
X121351000Y-77276309D01*
X121351000Y-76835750D01*
X121192250Y-76677000D01*
X120393000Y-76677000D01*
X120393000Y-76697000D01*
X120139000Y-76697000D01*
X120139000Y-76677000D01*
X119339750Y-76677000D01*
X119181000Y-76835750D01*
X119181000Y-77276309D01*
X119277673Y-77509698D01*
X119418910Y-77650936D01*
X119364559Y-77685910D01*
X119219569Y-77898110D01*
X119216149Y-77915000D01*
X118261868Y-77915000D01*
X117990997Y-77644129D01*
X117991206Y-77405323D01*
X117811180Y-76969628D01*
X117478125Y-76635991D01*
X117042745Y-76455206D01*
X116571323Y-76454794D01*
X116135628Y-76634820D01*
X115801991Y-76967875D01*
X115621206Y-77403255D01*
X115620794Y-77874677D01*
X115800820Y-78310372D01*
X116133875Y-78644009D01*
X116569255Y-78824794D01*
X116810137Y-78825005D01*
X117325566Y-79340434D01*
X117332399Y-79345000D01*
X115106839Y-79345000D01*
X114938125Y-79175991D01*
X114502745Y-78995206D01*
X114031323Y-78994794D01*
X113595628Y-79174820D01*
X113261991Y-79507875D01*
X113081206Y-79943255D01*
X113080794Y-80414677D01*
X113260820Y-80850372D01*
X113593875Y-81184009D01*
X114029255Y-81364794D01*
X114500677Y-81365206D01*
X114936372Y-81185180D01*
X115106849Y-81015000D01*
X122393560Y-81015000D01*
X122393560Y-81175000D01*
X122437838Y-81410317D01*
X122576910Y-81626441D01*
X122789110Y-81771431D01*
X123041000Y-81822440D01*
X125091000Y-81822440D01*
X125131000Y-81814913D01*
X125131000Y-82885660D01*
X125091000Y-82877560D01*
X123041000Y-82877560D01*
X122805683Y-82921838D01*
X122589559Y-83060910D01*
X122444569Y-83273110D01*
X122393560Y-83525000D01*
X122393560Y-85841572D01*
X121363440Y-86871692D01*
X121363440Y-85850000D01*
X121319162Y-85614683D01*
X121180090Y-85398559D01*
X121111994Y-85352031D01*
X121254327Y-85209698D01*
X121351000Y-84976309D01*
X121351000Y-84535750D01*
X121192250Y-84377000D01*
X120393000Y-84377000D01*
X120393000Y-84397000D01*
X120139000Y-84397000D01*
X120139000Y-84377000D01*
X119339750Y-84377000D01*
X119181000Y-84535750D01*
X119181000Y-84976309D01*
X119277673Y-85209698D01*
X119418910Y-85350936D01*
X119364559Y-85385910D01*
X119219569Y-85598110D01*
X119216149Y-85615000D01*
X118161868Y-85615000D01*
X117990997Y-85444129D01*
X117991206Y-85205323D01*
X117811180Y-84769628D01*
X117478125Y-84435991D01*
X117042745Y-84255206D01*
X116571323Y-84254794D01*
X116135628Y-84434820D01*
X115801991Y-84767875D01*
X115621206Y-85203255D01*
X115620794Y-85674677D01*
X115800820Y-86110372D01*
X116133875Y-86444009D01*
X116569255Y-86624794D01*
X116810137Y-86625005D01*
X117225566Y-87040434D01*
X117382060Y-87145000D01*
X115106839Y-87145000D01*
X114938125Y-86975991D01*
X114502745Y-86795206D01*
X114031323Y-86794794D01*
X113595628Y-86974820D01*
X113411000Y-87159126D01*
X113411000Y-86240005D01*
X113411001Y-86240000D01*
X113343633Y-85901326D01*
X113343633Y-85901325D01*
X113151790Y-85614210D01*
X113151787Y-85614208D01*
X112911059Y-85373480D01*
X112911206Y-85205323D01*
X112731180Y-84769628D01*
X112611000Y-84649238D01*
X112611000Y-83523691D01*
X119181000Y-83523691D01*
X119181000Y-83964250D01*
X119339750Y-84123000D01*
X120139000Y-84123000D01*
X120139000Y-83173750D01*
X120393000Y-83173750D01*
X120393000Y-84123000D01*
X121192250Y-84123000D01*
X121351000Y-83964250D01*
X121351000Y-83523691D01*
X121254327Y-83290302D01*
X121075699Y-83111673D01*
X120842310Y-83015000D01*
X120551750Y-83015000D01*
X120393000Y-83173750D01*
X120139000Y-83173750D01*
X119980250Y-83015000D01*
X119689690Y-83015000D01*
X119456301Y-83111673D01*
X119277673Y-83290302D01*
X119181000Y-83523691D01*
X112611000Y-83523691D01*
X112611000Y-78498147D01*
X112758484Y-78468810D01*
X112814675Y-78457633D01*
X113101790Y-78265790D01*
X115543888Y-75823691D01*
X119181000Y-75823691D01*
X119181000Y-76264250D01*
X119339750Y-76423000D01*
X120139000Y-76423000D01*
X120139000Y-75473750D01*
X119980250Y-75315000D01*
X119689690Y-75315000D01*
X119456301Y-75411673D01*
X119277673Y-75590302D01*
X119181000Y-75823691D01*
X115543888Y-75823691D01*
X115591787Y-75775792D01*
X115591790Y-75775790D01*
X117532579Y-73835000D01*
X119199420Y-73835000D01*
X120679421Y-75315000D01*
X120679421Y-75315000D01*
G37*
X120679421Y-75315000D02*
X120551750Y-75315000D01*
X120393000Y-75473750D01*
X120393000Y-76423000D01*
X121192250Y-76423000D01*
X121351000Y-76264250D01*
X121351000Y-75986579D01*
X122340208Y-76975787D01*
X122340210Y-76975790D01*
X122524632Y-77099016D01*
X122551332Y-77116856D01*
X122444569Y-77273110D01*
X122393560Y-77525000D01*
X122393560Y-79345000D01*
X121363440Y-79345000D01*
X121363440Y-78150000D01*
X121319162Y-77914683D01*
X121180090Y-77698559D01*
X121111994Y-77652031D01*
X121254327Y-77509698D01*
X121351000Y-77276309D01*
X121351000Y-76835750D01*
X121192250Y-76677000D01*
X120393000Y-76677000D01*
X120393000Y-76697000D01*
X120139000Y-76697000D01*
X120139000Y-76677000D01*
X119339750Y-76677000D01*
X119181000Y-76835750D01*
X119181000Y-77276309D01*
X119277673Y-77509698D01*
X119418910Y-77650936D01*
X119364559Y-77685910D01*
X119219569Y-77898110D01*
X119216149Y-77915000D01*
X118261868Y-77915000D01*
X117990997Y-77644129D01*
X117991206Y-77405323D01*
X117811180Y-76969628D01*
X117478125Y-76635991D01*
X117042745Y-76455206D01*
X116571323Y-76454794D01*
X116135628Y-76634820D01*
X115801991Y-76967875D01*
X115621206Y-77403255D01*
X115620794Y-77874677D01*
X115800820Y-78310372D01*
X116133875Y-78644009D01*
X116569255Y-78824794D01*
X116810137Y-78825005D01*
X117325566Y-79340434D01*
X117332399Y-79345000D01*
X115106839Y-79345000D01*
X114938125Y-79175991D01*
X114502745Y-78995206D01*
X114031323Y-78994794D01*
X113595628Y-79174820D01*
X113261991Y-79507875D01*
X113081206Y-79943255D01*
X113080794Y-80414677D01*
X113260820Y-80850372D01*
X113593875Y-81184009D01*
X114029255Y-81364794D01*
X114500677Y-81365206D01*
X114936372Y-81185180D01*
X115106849Y-81015000D01*
X122393560Y-81015000D01*
X122393560Y-81175000D01*
X122437838Y-81410317D01*
X122576910Y-81626441D01*
X122789110Y-81771431D01*
X123041000Y-81822440D01*
X125091000Y-81822440D01*
X125131000Y-81814913D01*
X125131000Y-82885660D01*
X125091000Y-82877560D01*
X123041000Y-82877560D01*
X122805683Y-82921838D01*
X122589559Y-83060910D01*
X122444569Y-83273110D01*
X122393560Y-83525000D01*
X122393560Y-85841572D01*
X121363440Y-86871692D01*
X121363440Y-85850000D01*
X121319162Y-85614683D01*
X121180090Y-85398559D01*
X121111994Y-85352031D01*
X121254327Y-85209698D01*
X121351000Y-84976309D01*
X121351000Y-84535750D01*
X121192250Y-84377000D01*
X120393000Y-84377000D01*
X120393000Y-84397000D01*
X120139000Y-84397000D01*
X120139000Y-84377000D01*
X119339750Y-84377000D01*
X119181000Y-84535750D01*
X119181000Y-84976309D01*
X119277673Y-85209698D01*
X119418910Y-85350936D01*
X119364559Y-85385910D01*
X119219569Y-85598110D01*
X119216149Y-85615000D01*
X118161868Y-85615000D01*
X117990997Y-85444129D01*
X117991206Y-85205323D01*
X117811180Y-84769628D01*
X117478125Y-84435991D01*
X117042745Y-84255206D01*
X116571323Y-84254794D01*
X116135628Y-84434820D01*
X115801991Y-84767875D01*
X115621206Y-85203255D01*
X115620794Y-85674677D01*
X115800820Y-86110372D01*
X116133875Y-86444009D01*
X116569255Y-86624794D01*
X116810137Y-86625005D01*
X117225566Y-87040434D01*
X117382060Y-87145000D01*
X115106839Y-87145000D01*
X114938125Y-86975991D01*
X114502745Y-86795206D01*
X114031323Y-86794794D01*
X113595628Y-86974820D01*
X113411000Y-87159126D01*
X113411000Y-86240005D01*
X113411001Y-86240000D01*
X113343633Y-85901326D01*
X113343633Y-85901325D01*
X113151790Y-85614210D01*
X113151787Y-85614208D01*
X112911059Y-85373480D01*
X112911206Y-85205323D01*
X112731180Y-84769628D01*
X112611000Y-84649238D01*
X112611000Y-83523691D01*
X119181000Y-83523691D01*
X119181000Y-83964250D01*
X119339750Y-84123000D01*
X120139000Y-84123000D01*
X120139000Y-83173750D01*
X120393000Y-83173750D01*
X120393000Y-84123000D01*
X121192250Y-84123000D01*
X121351000Y-83964250D01*
X121351000Y-83523691D01*
X121254327Y-83290302D01*
X121075699Y-83111673D01*
X120842310Y-83015000D01*
X120551750Y-83015000D01*
X120393000Y-83173750D01*
X120139000Y-83173750D01*
X119980250Y-83015000D01*
X119689690Y-83015000D01*
X119456301Y-83111673D01*
X119277673Y-83290302D01*
X119181000Y-83523691D01*
X112611000Y-83523691D01*
X112611000Y-78498147D01*
X112758484Y-78468810D01*
X112814675Y-78457633D01*
X113101790Y-78265790D01*
X115543888Y-75823691D01*
X119181000Y-75823691D01*
X119181000Y-76264250D01*
X119339750Y-76423000D01*
X120139000Y-76423000D01*
X120139000Y-75473750D01*
X119980250Y-75315000D01*
X119689690Y-75315000D01*
X119456301Y-75411673D01*
X119277673Y-75590302D01*
X119181000Y-75823691D01*
X115543888Y-75823691D01*
X115591787Y-75775792D01*
X115591790Y-75775790D01*
X117532579Y-73835000D01*
X119199420Y-73835000D01*
X120679421Y-75315000D01*
G36*
X133540210Y-66724210D02*
X133348367Y-67011325D01*
X133337690Y-67065000D01*
X133280999Y-67350000D01*
X133281000Y-67350005D01*
X133281000Y-67800662D01*
X133081405Y-67600718D01*
X132682767Y-67435189D01*
X132251127Y-67434812D01*
X131852200Y-67599646D01*
X131546718Y-67904595D01*
X131381189Y-68303233D01*
X131380812Y-68734873D01*
X131441835Y-68882560D01*
X131366000Y-68882560D01*
X131349063Y-68885747D01*
X131280090Y-68778559D01*
X131067890Y-68633569D01*
X130816000Y-68582560D01*
X129816000Y-68582560D01*
X129580683Y-68626838D01*
X129364559Y-68765910D01*
X129219569Y-68978110D01*
X129168560Y-69230000D01*
X129168560Y-70030000D01*
X129212838Y-70265317D01*
X129351910Y-70481441D01*
X129564110Y-70626431D01*
X129816000Y-70677440D01*
X130066981Y-70677440D01*
X128879420Y-71865000D01*
X125232579Y-71865000D01*
X124350240Y-70982660D01*
X124350240Y-70180576D01*
X124507622Y-70337957D01*
X124741011Y-70434630D01*
X125181010Y-70434630D01*
X125339760Y-70275880D01*
X125339760Y-69077000D01*
X125593760Y-69077000D01*
X125593760Y-70275880D01*
X125752510Y-70434630D01*
X126192509Y-70434630D01*
X126425898Y-70337957D01*
X126604527Y-70159329D01*
X126701200Y-69925940D01*
X126701200Y-69235750D01*
X126542450Y-69077000D01*
X125593760Y-69077000D01*
X125339760Y-69077000D01*
X125319760Y-69077000D01*
X125319760Y-68823000D01*
X125339760Y-68823000D01*
X125339760Y-67624120D01*
X125593760Y-67624120D01*
X125593760Y-68823000D01*
X126542450Y-68823000D01*
X126701200Y-68664250D01*
X126701200Y-67974060D01*
X126604527Y-67740671D01*
X126425898Y-67562043D01*
X126192509Y-67465370D01*
X125752510Y-67465370D01*
X125593760Y-67624120D01*
X125339760Y-67624120D01*
X125181010Y-67465370D01*
X124741011Y-67465370D01*
X124507622Y-67562043D01*
X124328993Y-67740671D01*
X124312424Y-67780673D01*
X123937640Y-67530250D01*
X123465240Y-67436284D01*
X122992840Y-67530250D01*
X122592359Y-67797843D01*
X122324766Y-68198324D01*
X122230800Y-68670724D01*
X122230800Y-69229276D01*
X122324766Y-69701676D01*
X122580240Y-70084020D01*
X122580240Y-71349235D01*
X122580239Y-71349240D01*
X122623819Y-71568327D01*
X122647607Y-71687915D01*
X122765931Y-71865000D01*
X122839450Y-71975030D01*
X124240208Y-73375787D01*
X124240210Y-73375790D01*
X124527325Y-73567633D01*
X124568333Y-73575790D01*
X124866000Y-73635001D01*
X124866005Y-73635000D01*
X129245995Y-73635000D01*
X129246000Y-73635001D01*
X129543667Y-73575790D01*
X129584675Y-73567633D01*
X129871790Y-73375790D01*
X131570139Y-71677440D01*
X132066000Y-71677440D01*
X132301317Y-71633162D01*
X132467477Y-71526241D01*
X132614110Y-71626431D01*
X132866000Y-71677440D01*
X133566000Y-71677440D01*
X133801317Y-71633162D01*
X134017441Y-71494090D01*
X134162431Y-71281890D01*
X134213440Y-71030000D01*
X134213440Y-70565750D01*
X135231000Y-70565750D01*
X135231000Y-71156310D01*
X135327673Y-71389699D01*
X135506302Y-71568327D01*
X135739691Y-71665000D01*
X135930250Y-71665000D01*
X136089000Y-71506250D01*
X136089000Y-70407000D01*
X135389750Y-70407000D01*
X135231000Y-70565750D01*
X134213440Y-70565750D01*
X134213440Y-70254140D01*
X134791787Y-69675792D01*
X134791790Y-69675790D01*
X134928268Y-69471535D01*
X135231000Y-69597240D01*
X135231000Y-69994250D01*
X135389750Y-70153000D01*
X136089000Y-70153000D01*
X136089000Y-70133000D01*
X136343000Y-70133000D01*
X136343000Y-70153000D01*
X136363000Y-70153000D01*
X136363000Y-70407000D01*
X136343000Y-70407000D01*
X136343000Y-71506250D01*
X136501750Y-71665000D01*
X136692309Y-71665000D01*
X136925698Y-71568327D01*
X137104327Y-71389699D01*
X137201000Y-71156310D01*
X137201000Y-70677440D01*
X138116000Y-70677440D01*
X138351317Y-70633162D01*
X138567441Y-70494090D01*
X138712431Y-70281890D01*
X138763440Y-70030000D01*
X138763440Y-69230000D01*
X138719162Y-68994683D01*
X138580090Y-68778559D01*
X138367890Y-68633569D01*
X138116000Y-68582560D01*
X137116000Y-68582560D01*
X136880683Y-68626838D01*
X136664559Y-68765910D01*
X136576356Y-68895000D01*
X136501750Y-68895000D01*
X136473289Y-68923461D01*
X136550811Y-68736767D01*
X136551188Y-68305127D01*
X136386354Y-67906200D01*
X136081405Y-67600718D01*
X135682767Y-67435189D01*
X135332696Y-67434883D01*
X135632579Y-67135000D01*
X136468560Y-67135000D01*
X136468560Y-67820000D01*
X136512838Y-68055317D01*
X136651910Y-68271441D01*
X136864110Y-68416431D01*
X137116000Y-68467440D01*
X138116000Y-68467440D01*
X138351317Y-68423162D01*
X138567441Y-68284090D01*
X138712431Y-68071890D01*
X138763440Y-67820000D01*
X138763440Y-67135000D01*
X143099420Y-67135000D01*
X143569126Y-67604705D01*
X143515716Y-67682873D01*
X143137640Y-67430250D01*
X142665240Y-67336284D01*
X142192840Y-67430250D01*
X141792359Y-67697843D01*
X141524766Y-68098324D01*
X141430800Y-68570724D01*
X141430800Y-69129276D01*
X141524766Y-69601676D01*
X141731000Y-69910327D01*
X141731000Y-71885025D01*
X141665367Y-71981083D01*
X141580090Y-71848559D01*
X141367890Y-71703569D01*
X141116000Y-71652560D01*
X140316000Y-71652560D01*
X140080683Y-71696838D01*
X139864559Y-71835910D01*
X139719569Y-72048110D01*
X139668560Y-72300000D01*
X139668560Y-73200000D01*
X139712838Y-73435317D01*
X139851910Y-73651441D01*
X140064110Y-73796431D01*
X140316000Y-73847440D01*
X140806681Y-73847440D01*
X140794683Y-73865000D01*
X128566005Y-73865000D01*
X128566000Y-73864999D01*
X128283516Y-73921190D01*
X128227325Y-73932367D01*
X127940210Y-74124210D01*
X127940208Y-74124213D01*
X126599420Y-75465000D01*
X123332579Y-75465000D01*
X120191790Y-72324210D01*
X120155557Y-72300000D01*
X119904675Y-72132367D01*
X119848484Y-72121190D01*
X119566000Y-72064999D01*
X119565995Y-72065000D01*
X117951000Y-72065000D01*
X117951000Y-69622440D01*
X118891000Y-69622440D01*
X119126317Y-69578162D01*
X119342441Y-69439090D01*
X119487431Y-69226890D01*
X119538440Y-68975000D01*
X119538440Y-67020000D01*
X129168560Y-67020000D01*
X129168560Y-67820000D01*
X129212838Y-68055317D01*
X129351910Y-68271441D01*
X129564110Y-68416431D01*
X129816000Y-68467440D01*
X130816000Y-68467440D01*
X131051317Y-68423162D01*
X131267441Y-68284090D01*
X131412431Y-68071890D01*
X131463440Y-67820000D01*
X131463440Y-67020000D01*
X131419162Y-66784683D01*
X131280090Y-66568559D01*
X131067890Y-66423569D01*
X130816000Y-66372560D01*
X129816000Y-66372560D01*
X129580683Y-66416838D01*
X129364559Y-66555910D01*
X129219569Y-66768110D01*
X129168560Y-67020000D01*
X119538440Y-67020000D01*
X119538440Y-66925000D01*
X119494162Y-66689683D01*
X119355090Y-66473559D01*
X119142890Y-66328569D01*
X118891000Y-66277560D01*
X115241000Y-66277560D01*
X115005683Y-66321838D01*
X114789559Y-66460910D01*
X114644569Y-66673110D01*
X114593560Y-66925000D01*
X114593560Y-68975000D01*
X114637838Y-69210317D01*
X114776910Y-69426441D01*
X114989110Y-69571431D01*
X115241000Y-69622440D01*
X116181000Y-69622440D01*
X116181000Y-72683421D01*
X114340210Y-74524210D01*
X114340208Y-74524213D01*
X112278219Y-76586202D01*
X111962745Y-76455206D01*
X111491323Y-76454794D01*
X111055628Y-76634820D01*
X110776000Y-76913960D01*
X110776000Y-71536067D01*
X110784980Y-71557800D01*
X111385041Y-72158909D01*
X112169459Y-72484628D01*
X113018815Y-72485370D01*
X113803800Y-72161020D01*
X114404909Y-71560959D01*
X114730628Y-70776541D01*
X114731370Y-69927185D01*
X114407020Y-69142200D01*
X113806959Y-68541091D01*
X113022541Y-68215372D01*
X112173185Y-68214630D01*
X111388200Y-68538980D01*
X110787091Y-69139041D01*
X110776000Y-69165751D01*
X110776000Y-66060000D01*
X134204421Y-66060000D01*
X133540210Y-66724210D01*
X133540210Y-66724210D01*
G37*
X133540210Y-66724210D02*
X133348367Y-67011325D01*
X133337690Y-67065000D01*
X133280999Y-67350000D01*
X133281000Y-67350005D01*
X133281000Y-67800662D01*
X133081405Y-67600718D01*
X132682767Y-67435189D01*
X132251127Y-67434812D01*
X131852200Y-67599646D01*
X131546718Y-67904595D01*
X131381189Y-68303233D01*
X131380812Y-68734873D01*
X131441835Y-68882560D01*
X131366000Y-68882560D01*
X131349063Y-68885747D01*
X131280090Y-68778559D01*
X131067890Y-68633569D01*
X130816000Y-68582560D01*
X129816000Y-68582560D01*
X129580683Y-68626838D01*
X129364559Y-68765910D01*
X129219569Y-68978110D01*
X129168560Y-69230000D01*
X129168560Y-70030000D01*
X129212838Y-70265317D01*
X129351910Y-70481441D01*
X129564110Y-70626431D01*
X129816000Y-70677440D01*
X130066981Y-70677440D01*
X128879420Y-71865000D01*
X125232579Y-71865000D01*
X124350240Y-70982660D01*
X124350240Y-70180576D01*
X124507622Y-70337957D01*
X124741011Y-70434630D01*
X125181010Y-70434630D01*
X125339760Y-70275880D01*
X125339760Y-69077000D01*
X125593760Y-69077000D01*
X125593760Y-70275880D01*
X125752510Y-70434630D01*
X126192509Y-70434630D01*
X126425898Y-70337957D01*
X126604527Y-70159329D01*
X126701200Y-69925940D01*
X126701200Y-69235750D01*
X126542450Y-69077000D01*
X125593760Y-69077000D01*
X125339760Y-69077000D01*
X125319760Y-69077000D01*
X125319760Y-68823000D01*
X125339760Y-68823000D01*
X125339760Y-67624120D01*
X125593760Y-67624120D01*
X125593760Y-68823000D01*
X126542450Y-68823000D01*
X126701200Y-68664250D01*
X126701200Y-67974060D01*
X126604527Y-67740671D01*
X126425898Y-67562043D01*
X126192509Y-67465370D01*
X125752510Y-67465370D01*
X125593760Y-67624120D01*
X125339760Y-67624120D01*
X125181010Y-67465370D01*
X124741011Y-67465370D01*
X124507622Y-67562043D01*
X124328993Y-67740671D01*
X124312424Y-67780673D01*
X123937640Y-67530250D01*
X123465240Y-67436284D01*
X122992840Y-67530250D01*
X122592359Y-67797843D01*
X122324766Y-68198324D01*
X122230800Y-68670724D01*
X122230800Y-69229276D01*
X122324766Y-69701676D01*
X122580240Y-70084020D01*
X122580240Y-71349235D01*
X122580239Y-71349240D01*
X122623819Y-71568327D01*
X122647607Y-71687915D01*
X122765931Y-71865000D01*
X122839450Y-71975030D01*
X124240208Y-73375787D01*
X124240210Y-73375790D01*
X124527325Y-73567633D01*
X124568333Y-73575790D01*
X124866000Y-73635001D01*
X124866005Y-73635000D01*
X129245995Y-73635000D01*
X129246000Y-73635001D01*
X129543667Y-73575790D01*
X129584675Y-73567633D01*
X129871790Y-73375790D01*
X131570139Y-71677440D01*
X132066000Y-71677440D01*
X132301317Y-71633162D01*
X132467477Y-71526241D01*
X132614110Y-71626431D01*
X132866000Y-71677440D01*
X133566000Y-71677440D01*
X133801317Y-71633162D01*
X134017441Y-71494090D01*
X134162431Y-71281890D01*
X134213440Y-71030000D01*
X134213440Y-70565750D01*
X135231000Y-70565750D01*
X135231000Y-71156310D01*
X135327673Y-71389699D01*
X135506302Y-71568327D01*
X135739691Y-71665000D01*
X135930250Y-71665000D01*
X136089000Y-71506250D01*
X136089000Y-70407000D01*
X135389750Y-70407000D01*
X135231000Y-70565750D01*
X134213440Y-70565750D01*
X134213440Y-70254140D01*
X134791787Y-69675792D01*
X134791790Y-69675790D01*
X134928268Y-69471535D01*
X135231000Y-69597240D01*
X135231000Y-69994250D01*
X135389750Y-70153000D01*
X136089000Y-70153000D01*
X136089000Y-70133000D01*
X136343000Y-70133000D01*
X136343000Y-70153000D01*
X136363000Y-70153000D01*
X136363000Y-70407000D01*
X136343000Y-70407000D01*
X136343000Y-71506250D01*
X136501750Y-71665000D01*
X136692309Y-71665000D01*
X136925698Y-71568327D01*
X137104327Y-71389699D01*
X137201000Y-71156310D01*
X137201000Y-70677440D01*
X138116000Y-70677440D01*
X138351317Y-70633162D01*
X138567441Y-70494090D01*
X138712431Y-70281890D01*
X138763440Y-70030000D01*
X138763440Y-69230000D01*
X138719162Y-68994683D01*
X138580090Y-68778559D01*
X138367890Y-68633569D01*
X138116000Y-68582560D01*
X137116000Y-68582560D01*
X136880683Y-68626838D01*
X136664559Y-68765910D01*
X136576356Y-68895000D01*
X136501750Y-68895000D01*
X136473289Y-68923461D01*
X136550811Y-68736767D01*
X136551188Y-68305127D01*
X136386354Y-67906200D01*
X136081405Y-67600718D01*
X135682767Y-67435189D01*
X135332696Y-67434883D01*
X135632579Y-67135000D01*
X136468560Y-67135000D01*
X136468560Y-67820000D01*
X136512838Y-68055317D01*
X136651910Y-68271441D01*
X136864110Y-68416431D01*
X137116000Y-68467440D01*
X138116000Y-68467440D01*
X138351317Y-68423162D01*
X138567441Y-68284090D01*
X138712431Y-68071890D01*
X138763440Y-67820000D01*
X138763440Y-67135000D01*
X143099420Y-67135000D01*
X143569126Y-67604705D01*
X143515716Y-67682873D01*
X143137640Y-67430250D01*
X142665240Y-67336284D01*
X142192840Y-67430250D01*
X141792359Y-67697843D01*
X141524766Y-68098324D01*
X141430800Y-68570724D01*
X141430800Y-69129276D01*
X141524766Y-69601676D01*
X141731000Y-69910327D01*
X141731000Y-71885025D01*
X141665367Y-71981083D01*
X141580090Y-71848559D01*
X141367890Y-71703569D01*
X141116000Y-71652560D01*
X140316000Y-71652560D01*
X140080683Y-71696838D01*
X139864559Y-71835910D01*
X139719569Y-72048110D01*
X139668560Y-72300000D01*
X139668560Y-73200000D01*
X139712838Y-73435317D01*
X139851910Y-73651441D01*
X140064110Y-73796431D01*
X140316000Y-73847440D01*
X140806681Y-73847440D01*
X140794683Y-73865000D01*
X128566005Y-73865000D01*
X128566000Y-73864999D01*
X128283516Y-73921190D01*
X128227325Y-73932367D01*
X127940210Y-74124210D01*
X127940208Y-74124213D01*
X126599420Y-75465000D01*
X123332579Y-75465000D01*
X120191790Y-72324210D01*
X120155557Y-72300000D01*
X119904675Y-72132367D01*
X119848484Y-72121190D01*
X119566000Y-72064999D01*
X119565995Y-72065000D01*
X117951000Y-72065000D01*
X117951000Y-69622440D01*
X118891000Y-69622440D01*
X119126317Y-69578162D01*
X119342441Y-69439090D01*
X119487431Y-69226890D01*
X119538440Y-68975000D01*
X119538440Y-67020000D01*
X129168560Y-67020000D01*
X129168560Y-67820000D01*
X129212838Y-68055317D01*
X129351910Y-68271441D01*
X129564110Y-68416431D01*
X129816000Y-68467440D01*
X130816000Y-68467440D01*
X131051317Y-68423162D01*
X131267441Y-68284090D01*
X131412431Y-68071890D01*
X131463440Y-67820000D01*
X131463440Y-67020000D01*
X131419162Y-66784683D01*
X131280090Y-66568559D01*
X131067890Y-66423569D01*
X130816000Y-66372560D01*
X129816000Y-66372560D01*
X129580683Y-66416838D01*
X129364559Y-66555910D01*
X129219569Y-66768110D01*
X129168560Y-67020000D01*
X119538440Y-67020000D01*
X119538440Y-66925000D01*
X119494162Y-66689683D01*
X119355090Y-66473559D01*
X119142890Y-66328569D01*
X118891000Y-66277560D01*
X115241000Y-66277560D01*
X115005683Y-66321838D01*
X114789559Y-66460910D01*
X114644569Y-66673110D01*
X114593560Y-66925000D01*
X114593560Y-68975000D01*
X114637838Y-69210317D01*
X114776910Y-69426441D01*
X114989110Y-69571431D01*
X115241000Y-69622440D01*
X116181000Y-69622440D01*
X116181000Y-72683421D01*
X114340210Y-74524210D01*
X114340208Y-74524213D01*
X112278219Y-76586202D01*
X111962745Y-76455206D01*
X111491323Y-76454794D01*
X111055628Y-76634820D01*
X110776000Y-76913960D01*
X110776000Y-71536067D01*
X110784980Y-71557800D01*
X111385041Y-72158909D01*
X112169459Y-72484628D01*
X113018815Y-72485370D01*
X113803800Y-72161020D01*
X114404909Y-71560959D01*
X114730628Y-70776541D01*
X114731370Y-69927185D01*
X114407020Y-69142200D01*
X113806959Y-68541091D01*
X113022541Y-68215372D01*
X112173185Y-68214630D01*
X111388200Y-68538980D01*
X110787091Y-69139041D01*
X110776000Y-69165751D01*
X110776000Y-66060000D01*
X134204421Y-66060000D01*
X133540210Y-66724210D01*
M02*
