G04 #@! TF.FileFunction,Legend,Bot*
%FSLAX46Y46*%
G04 Gerber Fmt 4.6, Leading zero omitted, Abs format (unit mm)*
G04 Created by KiCad (PCBNEW 4.0.1-stable) date 24/03/2016 22:37:27*
%MOMM*%
G01*
G04 APERTURE LIST*
%ADD10C,0.100000*%
%ADD11C,0.150000*%
G04 APERTURE END LIST*
D10*
D11*
X158675524Y-114057143D02*
X158675524Y-113157143D01*
X158332667Y-114057143D02*
X158332667Y-113585714D01*
X158370762Y-113500000D01*
X158446952Y-113457143D01*
X158561238Y-113457143D01*
X158637429Y-113500000D01*
X158675524Y-113542857D01*
X158066000Y-113457143D02*
X157761238Y-113457143D01*
X157951714Y-113157143D02*
X157951714Y-113928571D01*
X157913619Y-114014286D01*
X157837428Y-114057143D01*
X157761238Y-114057143D01*
X157608857Y-113457143D02*
X157304095Y-113457143D01*
X157494571Y-113157143D02*
X157494571Y-113928571D01*
X157456476Y-114014286D01*
X157380285Y-114057143D01*
X157304095Y-114057143D01*
X157037428Y-113457143D02*
X157037428Y-114357143D01*
X157037428Y-113500000D02*
X156961237Y-113457143D01*
X156808856Y-113457143D01*
X156732666Y-113500000D01*
X156694571Y-113542857D01*
X156656475Y-113628571D01*
X156656475Y-113885714D01*
X156694571Y-113971429D01*
X156732666Y-114014286D01*
X156808856Y-114057143D01*
X156961237Y-114057143D01*
X157037428Y-114014286D01*
X156351713Y-114014286D02*
X156275523Y-114057143D01*
X156123142Y-114057143D01*
X156046951Y-114014286D01*
X156008856Y-113928571D01*
X156008856Y-113885714D01*
X156046951Y-113800000D01*
X156123142Y-113757143D01*
X156237427Y-113757143D01*
X156313618Y-113714286D01*
X156351713Y-113628571D01*
X156351713Y-113585714D01*
X156313618Y-113500000D01*
X156237427Y-113457143D01*
X156123142Y-113457143D01*
X156046951Y-113500000D01*
X155665999Y-113971429D02*
X155627904Y-114014286D01*
X155665999Y-114057143D01*
X155704094Y-114014286D01*
X155665999Y-113971429D01*
X155665999Y-114057143D01*
X155665999Y-113500000D02*
X155627904Y-113542857D01*
X155665999Y-113585714D01*
X155704094Y-113542857D01*
X155665999Y-113500000D01*
X155665999Y-113585714D01*
X154713618Y-113114286D02*
X155399333Y-114271429D01*
X153875523Y-113114286D02*
X154561238Y-114271429D01*
X153266000Y-113457143D02*
X153266000Y-114185714D01*
X153304095Y-114271429D01*
X153342190Y-114314286D01*
X153418381Y-114357143D01*
X153532666Y-114357143D01*
X153608857Y-114314286D01*
X153266000Y-114014286D02*
X153342190Y-114057143D01*
X153494571Y-114057143D01*
X153570762Y-114014286D01*
X153608857Y-113971429D01*
X153646952Y-113885714D01*
X153646952Y-113628571D01*
X153608857Y-113542857D01*
X153570762Y-113500000D01*
X153494571Y-113457143D01*
X153342190Y-113457143D01*
X153266000Y-113500000D01*
X152885047Y-114057143D02*
X152885047Y-113457143D01*
X152885047Y-113157143D02*
X152923142Y-113200000D01*
X152885047Y-113242857D01*
X152846952Y-113200000D01*
X152885047Y-113157143D01*
X152885047Y-113242857D01*
X152618381Y-113457143D02*
X152313619Y-113457143D01*
X152504095Y-113157143D02*
X152504095Y-113928571D01*
X152466000Y-114014286D01*
X152389809Y-114057143D01*
X152313619Y-114057143D01*
X152046952Y-114057143D02*
X152046952Y-113157143D01*
X151704095Y-114057143D02*
X151704095Y-113585714D01*
X151742190Y-113500000D01*
X151818380Y-113457143D01*
X151932666Y-113457143D01*
X152008857Y-113500000D01*
X152046952Y-113542857D01*
X150980285Y-113457143D02*
X150980285Y-114057143D01*
X151323142Y-113457143D02*
X151323142Y-113928571D01*
X151285047Y-114014286D01*
X151208856Y-114057143D01*
X151094570Y-114057143D01*
X151018380Y-114014286D01*
X150980285Y-113971429D01*
X150599332Y-114057143D02*
X150599332Y-113157143D01*
X150599332Y-113500000D02*
X150523141Y-113457143D01*
X150370760Y-113457143D01*
X150294570Y-113500000D01*
X150256475Y-113542857D01*
X150218379Y-113628571D01*
X150218379Y-113885714D01*
X150256475Y-113971429D01*
X150294570Y-114014286D01*
X150370760Y-114057143D01*
X150523141Y-114057143D01*
X150599332Y-114014286D01*
X149875522Y-113971429D02*
X149837427Y-114014286D01*
X149875522Y-114057143D01*
X149913617Y-114014286D01*
X149875522Y-113971429D01*
X149875522Y-114057143D01*
X149151713Y-114014286D02*
X149227903Y-114057143D01*
X149380284Y-114057143D01*
X149456475Y-114014286D01*
X149494570Y-113971429D01*
X149532665Y-113885714D01*
X149532665Y-113628571D01*
X149494570Y-113542857D01*
X149456475Y-113500000D01*
X149380284Y-113457143D01*
X149227903Y-113457143D01*
X149151713Y-113500000D01*
X148694570Y-114057143D02*
X148770761Y-114014286D01*
X148808856Y-113971429D01*
X148846951Y-113885714D01*
X148846951Y-113628571D01*
X148808856Y-113542857D01*
X148770761Y-113500000D01*
X148694570Y-113457143D01*
X148580284Y-113457143D01*
X148504094Y-113500000D01*
X148465999Y-113542857D01*
X148427903Y-113628571D01*
X148427903Y-113885714D01*
X148465999Y-113971429D01*
X148504094Y-114014286D01*
X148580284Y-114057143D01*
X148694570Y-114057143D01*
X148085046Y-114057143D02*
X148085046Y-113457143D01*
X148085046Y-113542857D02*
X148046951Y-113500000D01*
X147970760Y-113457143D01*
X147856474Y-113457143D01*
X147780284Y-113500000D01*
X147742189Y-113585714D01*
X147742189Y-114057143D01*
X147742189Y-113585714D02*
X147704093Y-113500000D01*
X147627903Y-113457143D01*
X147513617Y-113457143D01*
X147437427Y-113500000D01*
X147399332Y-113585714D01*
X147399332Y-114057143D01*
X146446950Y-113114286D02*
X147132665Y-114271429D01*
X146180284Y-114057143D02*
X146180284Y-113457143D01*
X146180284Y-113542857D02*
X146142189Y-113500000D01*
X146065998Y-113457143D01*
X145951712Y-113457143D01*
X145875522Y-113500000D01*
X145837427Y-113585714D01*
X145837427Y-114057143D01*
X145837427Y-113585714D02*
X145799331Y-113500000D01*
X145723141Y-113457143D01*
X145608855Y-113457143D01*
X145532665Y-113500000D01*
X145494570Y-113585714D01*
X145494570Y-114057143D01*
X144770760Y-114057143D02*
X144770760Y-113585714D01*
X144808855Y-113500000D01*
X144885045Y-113457143D01*
X145037426Y-113457143D01*
X145113617Y-113500000D01*
X144770760Y-114014286D02*
X144846950Y-114057143D01*
X145037426Y-114057143D01*
X145113617Y-114014286D01*
X145151712Y-113928571D01*
X145151712Y-113842857D01*
X145113617Y-113757143D01*
X145037426Y-113714286D01*
X144846950Y-113714286D01*
X144770760Y-113671429D01*
X144275521Y-114057143D02*
X144351712Y-114014286D01*
X144389807Y-113928571D01*
X144389807Y-113157143D01*
X143627902Y-114014286D02*
X143704092Y-114057143D01*
X143856473Y-114057143D01*
X143932664Y-114014286D01*
X143970759Y-113971429D01*
X144008854Y-113885714D01*
X144008854Y-113628571D01*
X143970759Y-113542857D01*
X143932664Y-113500000D01*
X143856473Y-113457143D01*
X143704092Y-113457143D01*
X143627902Y-113500000D01*
X143170759Y-114057143D02*
X143246950Y-114014286D01*
X143285045Y-113971429D01*
X143323140Y-113885714D01*
X143323140Y-113628571D01*
X143285045Y-113542857D01*
X143246950Y-113500000D01*
X143170759Y-113457143D01*
X143056473Y-113457143D01*
X142980283Y-113500000D01*
X142942188Y-113542857D01*
X142904092Y-113628571D01*
X142904092Y-113885714D01*
X142942188Y-113971429D01*
X142980283Y-114014286D01*
X143056473Y-114057143D01*
X143170759Y-114057143D01*
X142446949Y-114057143D02*
X142523140Y-114014286D01*
X142561235Y-113928571D01*
X142561235Y-113157143D01*
X142142187Y-114057143D02*
X142142187Y-113457143D01*
X142142187Y-113542857D02*
X142104092Y-113500000D01*
X142027901Y-113457143D01*
X141913615Y-113457143D01*
X141837425Y-113500000D01*
X141799330Y-113585714D01*
X141799330Y-114057143D01*
X141799330Y-113585714D02*
X141761234Y-113500000D01*
X141685044Y-113457143D01*
X141570758Y-113457143D01*
X141494568Y-113500000D01*
X141456473Y-113585714D01*
X141456473Y-114057143D01*
X141113615Y-114014286D02*
X141037425Y-114057143D01*
X140885044Y-114057143D01*
X140808853Y-114014286D01*
X140770758Y-113928571D01*
X140770758Y-113885714D01*
X140808853Y-113800000D01*
X140885044Y-113757143D01*
X140999329Y-113757143D01*
X141075520Y-113714286D01*
X141113615Y-113628571D01*
X141113615Y-113585714D01*
X141075520Y-113500000D01*
X140999329Y-113457143D01*
X140885044Y-113457143D01*
X140808853Y-113500000D01*
X140427901Y-113457143D02*
X140427901Y-114357143D01*
X140427901Y-113500000D02*
X140351710Y-113457143D01*
X140199329Y-113457143D01*
X140123139Y-113500000D01*
X140085044Y-113542857D01*
X140046948Y-113628571D01*
X140046948Y-113885714D01*
X140085044Y-113971429D01*
X140123139Y-114014286D01*
X140199329Y-114057143D01*
X140351710Y-114057143D01*
X140427901Y-114014286D01*
X139704091Y-114057143D02*
X139704091Y-113457143D01*
X139704091Y-113157143D02*
X139742186Y-113200000D01*
X139704091Y-113242857D01*
X139665996Y-113200000D01*
X139704091Y-113157143D01*
X139704091Y-113242857D01*
X139437425Y-113457143D02*
X139132663Y-113457143D01*
X139323139Y-113157143D02*
X139323139Y-113928571D01*
X139285044Y-114014286D01*
X139208853Y-114057143D01*
X139132663Y-114057143D01*
X138561234Y-114014286D02*
X138637424Y-114057143D01*
X138789805Y-114057143D01*
X138865996Y-114014286D01*
X138904091Y-113928571D01*
X138904091Y-113585714D01*
X138865996Y-113500000D01*
X138789805Y-113457143D01*
X138637424Y-113457143D01*
X138561234Y-113500000D01*
X138523139Y-113585714D01*
X138523139Y-113671429D01*
X138904091Y-113757143D01*
X138180282Y-114057143D02*
X138180282Y-113457143D01*
X138180282Y-113628571D02*
X138142187Y-113542857D01*
X138104091Y-113500000D01*
X138027901Y-113457143D01*
X137951710Y-113457143D01*
X137685044Y-114057143D02*
X137685044Y-113457143D01*
X137685044Y-113157143D02*
X137723139Y-113200000D01*
X137685044Y-113242857D01*
X137646949Y-113200000D01*
X137685044Y-113157143D01*
X137685044Y-113242857D01*
X136732663Y-113114286D02*
X137418378Y-114271429D01*
X136085044Y-114057143D02*
X136465997Y-114057143D01*
X136465997Y-113157143D01*
X135932664Y-113157143D02*
X135475521Y-113157143D01*
X135704092Y-114057143D02*
X135704092Y-113157143D01*
X135285044Y-113157143D02*
X134789806Y-113157143D01*
X135056473Y-113500000D01*
X134942187Y-113500000D01*
X134865997Y-113542857D01*
X134827901Y-113585714D01*
X134789806Y-113671429D01*
X134789806Y-113885714D01*
X134827901Y-113971429D01*
X134865997Y-114014286D01*
X134942187Y-114057143D01*
X135170759Y-114057143D01*
X135246949Y-114014286D01*
X135285044Y-113971429D01*
X134104092Y-113157143D02*
X134256473Y-113157143D01*
X134332663Y-113200000D01*
X134370758Y-113242857D01*
X134446949Y-113371429D01*
X134485044Y-113542857D01*
X134485044Y-113885714D01*
X134446949Y-113971429D01*
X134408854Y-114014286D01*
X134332663Y-114057143D01*
X134180282Y-114057143D01*
X134104092Y-114014286D01*
X134065996Y-113971429D01*
X134027901Y-113885714D01*
X134027901Y-113671429D01*
X134065996Y-113585714D01*
X134104092Y-113542857D01*
X134180282Y-113500000D01*
X134332663Y-113500000D01*
X134408854Y-113542857D01*
X134446949Y-113585714D01*
X134485044Y-113671429D01*
X133304091Y-113157143D02*
X133685044Y-113157143D01*
X133723139Y-113585714D01*
X133685044Y-113542857D01*
X133608853Y-113500000D01*
X133418377Y-113500000D01*
X133342187Y-113542857D01*
X133304091Y-113585714D01*
X133265996Y-113671429D01*
X133265996Y-113885714D01*
X133304091Y-113971429D01*
X133342187Y-114014286D01*
X133418377Y-114057143D01*
X133608853Y-114057143D01*
X133685044Y-114014286D01*
X133723139Y-113971429D01*
X132961234Y-113242857D02*
X132923139Y-113200000D01*
X132846948Y-113157143D01*
X132656472Y-113157143D01*
X132580282Y-113200000D01*
X132542186Y-113242857D01*
X132504091Y-113328571D01*
X132504091Y-113414286D01*
X132542186Y-113542857D01*
X132999329Y-114057143D01*
X132504091Y-114057143D01*
X132161234Y-113585714D02*
X131894567Y-113585714D01*
X131780281Y-114057143D02*
X132161234Y-114057143D01*
X132161234Y-113157143D01*
X131780281Y-113157143D01*
X131513614Y-113457143D02*
X131323138Y-114057143D01*
X131132662Y-113457143D01*
X130485043Y-114057143D02*
X130485043Y-113585714D01*
X130523138Y-113500000D01*
X130599328Y-113457143D01*
X130751709Y-113457143D01*
X130827900Y-113500000D01*
X130485043Y-114014286D02*
X130561233Y-114057143D01*
X130751709Y-114057143D01*
X130827900Y-114014286D01*
X130865995Y-113928571D01*
X130865995Y-113842857D01*
X130827900Y-113757143D01*
X130751709Y-113714286D01*
X130561233Y-113714286D01*
X130485043Y-113671429D01*
X129989804Y-114057143D02*
X130065995Y-114014286D01*
X130104090Y-113928571D01*
X130104090Y-113157143D01*
X129418375Y-113585714D02*
X129304089Y-113628571D01*
X129265994Y-113671429D01*
X129227899Y-113757143D01*
X129227899Y-113885714D01*
X129265994Y-113971429D01*
X129304089Y-114014286D01*
X129380280Y-114057143D01*
X129685042Y-114057143D01*
X129685042Y-113157143D01*
X129418375Y-113157143D01*
X129342185Y-113200000D01*
X129304089Y-113242857D01*
X129265994Y-113328571D01*
X129265994Y-113414286D01*
X129304089Y-113500000D01*
X129342185Y-113542857D01*
X129418375Y-113585714D01*
X129685042Y-113585714D01*
X128770756Y-114057143D02*
X128846947Y-114014286D01*
X128885042Y-113971429D01*
X128923137Y-113885714D01*
X128923137Y-113628571D01*
X128885042Y-113542857D01*
X128846947Y-113500000D01*
X128770756Y-113457143D01*
X128656470Y-113457143D01*
X128580280Y-113500000D01*
X128542185Y-113542857D01*
X128504089Y-113628571D01*
X128504089Y-113885714D01*
X128542185Y-113971429D01*
X128580280Y-114014286D01*
X128656470Y-114057143D01*
X128770756Y-114057143D01*
X127818375Y-114057143D02*
X127818375Y-113585714D01*
X127856470Y-113500000D01*
X127932660Y-113457143D01*
X128085041Y-113457143D01*
X128161232Y-113500000D01*
X127818375Y-114014286D02*
X127894565Y-114057143D01*
X128085041Y-114057143D01*
X128161232Y-114014286D01*
X128199327Y-113928571D01*
X128199327Y-113842857D01*
X128161232Y-113757143D01*
X128085041Y-113714286D01*
X127894565Y-113714286D01*
X127818375Y-113671429D01*
X127437422Y-114057143D02*
X127437422Y-113457143D01*
X127437422Y-113628571D02*
X127399327Y-113542857D01*
X127361231Y-113500000D01*
X127285041Y-113457143D01*
X127208850Y-113457143D01*
X126599327Y-114057143D02*
X126599327Y-113157143D01*
X126599327Y-114014286D02*
X126675517Y-114057143D01*
X126827898Y-114057143D01*
X126904089Y-114014286D01*
X126942184Y-113971429D01*
X126980279Y-113885714D01*
X126980279Y-113628571D01*
X126942184Y-113542857D01*
X126904089Y-113500000D01*
X126827898Y-113457143D01*
X126675517Y-113457143D01*
X126599327Y-113500000D01*
M02*
