G04 #@! TF.FileFunction,Soldermask,Bot*
%FSLAX46Y46*%
G04 Gerber Fmt 4.6, Leading zero omitted, Abs format (unit mm)*
G04 Created by KiCad (PCBNEW 4.0.2-stable) date 10/04/2016 22:23:54*
%MOMM*%
G01*
G04 APERTURE LIST*
%ADD10C,0.100000*%
%ADD11C,3.110000*%
%ADD12R,1.837200X2.142000*%
%ADD13O,1.837200X2.142000*%
%ADD14R,2.142000X1.837200*%
%ADD15O,2.142000X1.837200*%
%ADD16R,1.410000X1.410000*%
%ADD17C,1.410000*%
%ADD18R,1.308880X1.809260*%
%ADD19O,1.308880X1.809260*%
%ADD20R,2.110000X2.110000*%
%ADD21C,2.110000*%
%ADD22C,1.809260*%
%ADD23R,1.809260X1.809260*%
%ADD24R,1.809260X1.308880*%
%ADD25O,1.809260X1.308880*%
%ADD26C,1.610000*%
%ADD27C,1.210000*%
G04 APERTURE END LIST*
D10*
D11*
X112596000Y-110150000D03*
X112596000Y-70350000D03*
X157396000Y-70350000D03*
X157396000Y-110150000D03*
D12*
X120266000Y-102750000D03*
D13*
X122806000Y-102750000D03*
X125346000Y-102750000D03*
D12*
X120266000Y-112750000D03*
D13*
X122806000Y-112750000D03*
X125346000Y-112750000D03*
D12*
X125366000Y-107750000D03*
D13*
X122826000Y-107750000D03*
X120286000Y-107750000D03*
D14*
X119966000Y-91450000D03*
D15*
X119966000Y-93990000D03*
X119966000Y-96530000D03*
D16*
X155566000Y-78700000D03*
D17*
X155566000Y-76200000D03*
D18*
X133666760Y-68950000D03*
D19*
X131665240Y-68950000D03*
D20*
X115066000Y-92050000D03*
D21*
X112526000Y-92050000D03*
D20*
X115066000Y-98050000D03*
D21*
X112526000Y-98050000D03*
D14*
X152566000Y-91700000D03*
D15*
X152566000Y-94240000D03*
X152566000Y-96780000D03*
D18*
X125366760Y-68950000D03*
D19*
X123365240Y-68950000D03*
D22*
X146068540Y-95710520D03*
D23*
X146068540Y-85550520D03*
D24*
X153316000Y-103700760D03*
D25*
X153316000Y-101699240D03*
D24*
X153316000Y-85950760D03*
D25*
X153316000Y-83949240D03*
D12*
X149316000Y-74200000D03*
D13*
X146776000Y-74200000D03*
X144236000Y-74200000D03*
D18*
X142066760Y-68950000D03*
D19*
X140065240Y-68950000D03*
D26*
X139166000Y-78850000D03*
X134166000Y-78850000D03*
D27*
X114266000Y-80180000D03*
X116806000Y-77640000D03*
X111726000Y-77640000D03*
X114266000Y-87980000D03*
X116806000Y-85440000D03*
X111726000Y-85440000D03*
M02*
