G04 #@! TF.FileFunction,Legend,Bot*
%FSLAX46Y46*%
G04 Gerber Fmt 4.6, Leading zero omitted, Abs format (unit mm)*
G04 Created by KiCad (PCBNEW 4.0.2-stable) date 25/02/2017 19:07:51*
%MOMM*%
G01*
G04 APERTURE LIST*
%ADD10C,0.100000*%
%ADD11C,0.150000*%
G04 APERTURE END LIST*
D10*
D11*
X158592190Y-114192857D02*
X158592190Y-112992857D01*
X158099333Y-114192857D02*
X158099333Y-113564286D01*
X158154095Y-113450000D01*
X158263619Y-113392857D01*
X158427905Y-113392857D01*
X158537429Y-113450000D01*
X158592190Y-113507143D01*
X157716000Y-113392857D02*
X157277905Y-113392857D01*
X157551714Y-112992857D02*
X157551714Y-114021429D01*
X157496953Y-114135714D01*
X157387429Y-114192857D01*
X157277905Y-114192857D01*
X157058857Y-113392857D02*
X156620762Y-113392857D01*
X156894571Y-112992857D02*
X156894571Y-114021429D01*
X156839810Y-114135714D01*
X156730286Y-114192857D01*
X156620762Y-114192857D01*
X156237428Y-113392857D02*
X156237428Y-114592857D01*
X156237428Y-113450000D02*
X156127905Y-113392857D01*
X155908857Y-113392857D01*
X155799333Y-113450000D01*
X155744571Y-113507143D01*
X155689809Y-113621429D01*
X155689809Y-113964286D01*
X155744571Y-114078571D01*
X155799333Y-114135714D01*
X155908857Y-114192857D01*
X156127905Y-114192857D01*
X156237428Y-114135714D01*
X155251714Y-114135714D02*
X155142191Y-114192857D01*
X154923143Y-114192857D01*
X154813619Y-114135714D01*
X154758857Y-114021429D01*
X154758857Y-113964286D01*
X154813619Y-113850000D01*
X154923143Y-113792857D01*
X155087429Y-113792857D01*
X155196952Y-113735714D01*
X155251714Y-113621429D01*
X155251714Y-113564286D01*
X155196952Y-113450000D01*
X155087429Y-113392857D01*
X154923143Y-113392857D01*
X154813619Y-113450000D01*
X154266000Y-114078571D02*
X154211239Y-114135714D01*
X154266000Y-114192857D01*
X154320762Y-114135714D01*
X154266000Y-114078571D01*
X154266000Y-114192857D01*
X154266000Y-113450000D02*
X154211239Y-113507143D01*
X154266000Y-113564286D01*
X154320762Y-113507143D01*
X154266000Y-113450000D01*
X154266000Y-113564286D01*
X152896953Y-112935714D02*
X153882667Y-114478571D01*
X151692191Y-112935714D02*
X152677905Y-114478571D01*
X150816000Y-113392857D02*
X150816000Y-114364286D01*
X150870762Y-114478571D01*
X150925524Y-114535714D01*
X151035048Y-114592857D01*
X151199334Y-114592857D01*
X151308857Y-114535714D01*
X150816000Y-114135714D02*
X150925524Y-114192857D01*
X151144572Y-114192857D01*
X151254096Y-114135714D01*
X151308857Y-114078571D01*
X151363619Y-113964286D01*
X151363619Y-113621429D01*
X151308857Y-113507143D01*
X151254096Y-113450000D01*
X151144572Y-113392857D01*
X150925524Y-113392857D01*
X150816000Y-113450000D01*
X150268381Y-114192857D02*
X150268381Y-113392857D01*
X150268381Y-112992857D02*
X150323143Y-113050000D01*
X150268381Y-113107143D01*
X150213620Y-113050000D01*
X150268381Y-112992857D01*
X150268381Y-113107143D01*
X149885048Y-113392857D02*
X149446953Y-113392857D01*
X149720762Y-112992857D02*
X149720762Y-114021429D01*
X149666001Y-114135714D01*
X149556477Y-114192857D01*
X149446953Y-114192857D01*
X149063619Y-114192857D02*
X149063619Y-112992857D01*
X148570762Y-114192857D02*
X148570762Y-113564286D01*
X148625524Y-113450000D01*
X148735048Y-113392857D01*
X148899334Y-113392857D01*
X149008858Y-113450000D01*
X149063619Y-113507143D01*
X147530286Y-113392857D02*
X147530286Y-114192857D01*
X148023143Y-113392857D02*
X148023143Y-114021429D01*
X147968382Y-114135714D01*
X147858858Y-114192857D01*
X147694572Y-114192857D01*
X147585048Y-114135714D01*
X147530286Y-114078571D01*
X146982667Y-114192857D02*
X146982667Y-112992857D01*
X146982667Y-113450000D02*
X146873144Y-113392857D01*
X146654096Y-113392857D01*
X146544572Y-113450000D01*
X146489810Y-113507143D01*
X146435048Y-113621429D01*
X146435048Y-113964286D01*
X146489810Y-114078571D01*
X146544572Y-114135714D01*
X146654096Y-114192857D01*
X146873144Y-114192857D01*
X146982667Y-114135714D01*
X145942191Y-114078571D02*
X145887430Y-114135714D01*
X145942191Y-114192857D01*
X145996953Y-114135714D01*
X145942191Y-114078571D01*
X145942191Y-114192857D01*
X144901715Y-114135714D02*
X145011239Y-114192857D01*
X145230287Y-114192857D01*
X145339811Y-114135714D01*
X145394572Y-114078571D01*
X145449334Y-113964286D01*
X145449334Y-113621429D01*
X145394572Y-113507143D01*
X145339811Y-113450000D01*
X145230287Y-113392857D01*
X145011239Y-113392857D01*
X144901715Y-113450000D01*
X144244573Y-114192857D02*
X144354097Y-114135714D01*
X144408858Y-114078571D01*
X144463620Y-113964286D01*
X144463620Y-113621429D01*
X144408858Y-113507143D01*
X144354097Y-113450000D01*
X144244573Y-113392857D01*
X144080287Y-113392857D01*
X143970763Y-113450000D01*
X143916001Y-113507143D01*
X143861239Y-113621429D01*
X143861239Y-113964286D01*
X143916001Y-114078571D01*
X143970763Y-114135714D01*
X144080287Y-114192857D01*
X144244573Y-114192857D01*
X143368382Y-114192857D02*
X143368382Y-113392857D01*
X143368382Y-113507143D02*
X143313621Y-113450000D01*
X143204097Y-113392857D01*
X143039811Y-113392857D01*
X142930287Y-113450000D01*
X142875525Y-113564286D01*
X142875525Y-114192857D01*
X142875525Y-113564286D02*
X142820763Y-113450000D01*
X142711240Y-113392857D01*
X142546954Y-113392857D01*
X142437430Y-113450000D01*
X142382668Y-113564286D01*
X142382668Y-114192857D01*
X141013621Y-112935714D02*
X141999335Y-114478571D01*
X140630287Y-114192857D02*
X140630287Y-113392857D01*
X140630287Y-113507143D02*
X140575526Y-113450000D01*
X140466002Y-113392857D01*
X140301716Y-113392857D01*
X140192192Y-113450000D01*
X140137430Y-113564286D01*
X140137430Y-114192857D01*
X140137430Y-113564286D02*
X140082668Y-113450000D01*
X139973145Y-113392857D01*
X139808859Y-113392857D01*
X139699335Y-113450000D01*
X139644573Y-113564286D01*
X139644573Y-114192857D01*
X138604097Y-114192857D02*
X138604097Y-113564286D01*
X138658859Y-113450000D01*
X138768383Y-113392857D01*
X138987431Y-113392857D01*
X139096954Y-113450000D01*
X138604097Y-114135714D02*
X138713621Y-114192857D01*
X138987431Y-114192857D01*
X139096954Y-114135714D01*
X139151716Y-114021429D01*
X139151716Y-113907143D01*
X139096954Y-113792857D01*
X138987431Y-113735714D01*
X138713621Y-113735714D01*
X138604097Y-113678571D01*
X137892193Y-114192857D02*
X138001717Y-114135714D01*
X138056478Y-114021429D01*
X138056478Y-112992857D01*
X136961240Y-114135714D02*
X137070764Y-114192857D01*
X137289812Y-114192857D01*
X137399336Y-114135714D01*
X137454097Y-114078571D01*
X137508859Y-113964286D01*
X137508859Y-113621429D01*
X137454097Y-113507143D01*
X137399336Y-113450000D01*
X137289812Y-113392857D01*
X137070764Y-113392857D01*
X136961240Y-113450000D01*
X136304098Y-114192857D02*
X136413622Y-114135714D01*
X136468383Y-114078571D01*
X136523145Y-113964286D01*
X136523145Y-113621429D01*
X136468383Y-113507143D01*
X136413622Y-113450000D01*
X136304098Y-113392857D01*
X136139812Y-113392857D01*
X136030288Y-113450000D01*
X135975526Y-113507143D01*
X135920764Y-113621429D01*
X135920764Y-113964286D01*
X135975526Y-114078571D01*
X136030288Y-114135714D01*
X136139812Y-114192857D01*
X136304098Y-114192857D01*
X135263622Y-114192857D02*
X135373146Y-114135714D01*
X135427907Y-114021429D01*
X135427907Y-112992857D01*
X134825526Y-114192857D02*
X134825526Y-113392857D01*
X134825526Y-113507143D02*
X134770765Y-113450000D01*
X134661241Y-113392857D01*
X134496955Y-113392857D01*
X134387431Y-113450000D01*
X134332669Y-113564286D01*
X134332669Y-114192857D01*
X134332669Y-113564286D02*
X134277907Y-113450000D01*
X134168384Y-113392857D01*
X134004098Y-113392857D01*
X133894574Y-113450000D01*
X133839812Y-113564286D01*
X133839812Y-114192857D01*
X133346955Y-114135714D02*
X133237432Y-114192857D01*
X133018384Y-114192857D01*
X132908860Y-114135714D01*
X132854098Y-114021429D01*
X132854098Y-113964286D01*
X132908860Y-113850000D01*
X133018384Y-113792857D01*
X133182670Y-113792857D01*
X133292193Y-113735714D01*
X133346955Y-113621429D01*
X133346955Y-113564286D01*
X133292193Y-113450000D01*
X133182670Y-113392857D01*
X133018384Y-113392857D01*
X132908860Y-113450000D01*
X132361241Y-113392857D02*
X132361241Y-114592857D01*
X132361241Y-113450000D02*
X132251718Y-113392857D01*
X132032670Y-113392857D01*
X131923146Y-113450000D01*
X131868384Y-113507143D01*
X131813622Y-113621429D01*
X131813622Y-113964286D01*
X131868384Y-114078571D01*
X131923146Y-114135714D01*
X132032670Y-114192857D01*
X132251718Y-114192857D01*
X132361241Y-114135714D01*
X131320765Y-114192857D02*
X131320765Y-113392857D01*
X131320765Y-112992857D02*
X131375527Y-113050000D01*
X131320765Y-113107143D01*
X131266004Y-113050000D01*
X131320765Y-112992857D01*
X131320765Y-113107143D01*
X130937432Y-113392857D02*
X130499337Y-113392857D01*
X130773146Y-112992857D02*
X130773146Y-114021429D01*
X130718385Y-114135714D01*
X130608861Y-114192857D01*
X130499337Y-114192857D01*
X129677908Y-114135714D02*
X129787432Y-114192857D01*
X130006480Y-114192857D01*
X130116003Y-114135714D01*
X130170765Y-114021429D01*
X130170765Y-113564286D01*
X130116003Y-113450000D01*
X130006480Y-113392857D01*
X129787432Y-113392857D01*
X129677908Y-113450000D01*
X129623146Y-113564286D01*
X129623146Y-113678571D01*
X130170765Y-113792857D01*
X129130289Y-114192857D02*
X129130289Y-113392857D01*
X129130289Y-113621429D02*
X129075528Y-113507143D01*
X129020766Y-113450000D01*
X128911242Y-113392857D01*
X128801718Y-113392857D01*
X128418384Y-114192857D02*
X128418384Y-113392857D01*
X128418384Y-112992857D02*
X128473146Y-113050000D01*
X128418384Y-113107143D01*
X128363623Y-113050000D01*
X128418384Y-112992857D01*
X128418384Y-113107143D01*
X127049337Y-112935714D02*
X128035051Y-114478571D01*
X126118384Y-114192857D02*
X126666003Y-114192857D01*
X126666003Y-112992857D01*
X125899337Y-112992857D02*
X125242194Y-112992857D01*
X125570766Y-114192857D02*
X125570766Y-112992857D01*
X124968385Y-112992857D02*
X124256481Y-112992857D01*
X124639814Y-113450000D01*
X124475528Y-113450000D01*
X124366004Y-113507143D01*
X124311242Y-113564286D01*
X124256481Y-113678571D01*
X124256481Y-113964286D01*
X124311242Y-114078571D01*
X124366004Y-114135714D01*
X124475528Y-114192857D01*
X124804100Y-114192857D01*
X124913623Y-114135714D01*
X124968385Y-114078571D01*
X123270766Y-112992857D02*
X123489814Y-112992857D01*
X123599338Y-113050000D01*
X123654100Y-113107143D01*
X123763623Y-113278571D01*
X123818385Y-113507143D01*
X123818385Y-113964286D01*
X123763623Y-114078571D01*
X123708862Y-114135714D01*
X123599338Y-114192857D01*
X123380290Y-114192857D01*
X123270766Y-114135714D01*
X123216004Y-114078571D01*
X123161243Y-113964286D01*
X123161243Y-113678571D01*
X123216004Y-113564286D01*
X123270766Y-113507143D01*
X123380290Y-113450000D01*
X123599338Y-113450000D01*
X123708862Y-113507143D01*
X123763623Y-113564286D01*
X123818385Y-113678571D01*
X122120766Y-112992857D02*
X122668385Y-112992857D01*
X122723147Y-113564286D01*
X122668385Y-113507143D01*
X122558862Y-113450000D01*
X122285052Y-113450000D01*
X122175528Y-113507143D01*
X122120766Y-113564286D01*
X122066005Y-113678571D01*
X122066005Y-113964286D01*
X122120766Y-114078571D01*
X122175528Y-114135714D01*
X122285052Y-114192857D01*
X122558862Y-114192857D01*
X122668385Y-114135714D01*
X122723147Y-114078571D01*
X121627909Y-113107143D02*
X121573147Y-113050000D01*
X121463624Y-112992857D01*
X121189814Y-112992857D01*
X121080290Y-113050000D01*
X121025528Y-113107143D01*
X120970767Y-113221429D01*
X120970767Y-113335714D01*
X121025528Y-113507143D01*
X121682671Y-114192857D01*
X120970767Y-114192857D01*
X120477909Y-113564286D02*
X120094576Y-113564286D01*
X119930290Y-114192857D02*
X120477909Y-114192857D01*
X120477909Y-112992857D01*
X119930290Y-112992857D01*
X119546957Y-113392857D02*
X119273148Y-114192857D01*
X118999338Y-113392857D01*
X118068386Y-114192857D02*
X118068386Y-113564286D01*
X118123148Y-113450000D01*
X118232672Y-113392857D01*
X118451720Y-113392857D01*
X118561243Y-113450000D01*
X118068386Y-114135714D02*
X118177910Y-114192857D01*
X118451720Y-114192857D01*
X118561243Y-114135714D01*
X118616005Y-114021429D01*
X118616005Y-113907143D01*
X118561243Y-113792857D01*
X118451720Y-113735714D01*
X118177910Y-113735714D01*
X118068386Y-113678571D01*
X117356482Y-114192857D02*
X117466006Y-114135714D01*
X117520767Y-114021429D01*
X117520767Y-112992857D01*
X116535053Y-113564286D02*
X116370767Y-113621429D01*
X116316006Y-113678571D01*
X116261244Y-113792857D01*
X116261244Y-113964286D01*
X116316006Y-114078571D01*
X116370767Y-114135714D01*
X116480291Y-114192857D01*
X116918386Y-114192857D01*
X116918386Y-112992857D01*
X116535053Y-112992857D01*
X116425529Y-113050000D01*
X116370767Y-113107143D01*
X116316006Y-113221429D01*
X116316006Y-113335714D01*
X116370767Y-113450000D01*
X116425529Y-113507143D01*
X116535053Y-113564286D01*
X116918386Y-113564286D01*
X115604101Y-114192857D02*
X115713625Y-114135714D01*
X115768386Y-114078571D01*
X115823148Y-113964286D01*
X115823148Y-113621429D01*
X115768386Y-113507143D01*
X115713625Y-113450000D01*
X115604101Y-113392857D01*
X115439815Y-113392857D01*
X115330291Y-113450000D01*
X115275529Y-113507143D01*
X115220767Y-113621429D01*
X115220767Y-113964286D01*
X115275529Y-114078571D01*
X115330291Y-114135714D01*
X115439815Y-114192857D01*
X115604101Y-114192857D01*
X114235053Y-114192857D02*
X114235053Y-113564286D01*
X114289815Y-113450000D01*
X114399339Y-113392857D01*
X114618387Y-113392857D01*
X114727910Y-113450000D01*
X114235053Y-114135714D02*
X114344577Y-114192857D01*
X114618387Y-114192857D01*
X114727910Y-114135714D01*
X114782672Y-114021429D01*
X114782672Y-113907143D01*
X114727910Y-113792857D01*
X114618387Y-113735714D01*
X114344577Y-113735714D01*
X114235053Y-113678571D01*
X113687434Y-114192857D02*
X113687434Y-113392857D01*
X113687434Y-113621429D02*
X113632673Y-113507143D01*
X113577911Y-113450000D01*
X113468387Y-113392857D01*
X113358863Y-113392857D01*
X112482672Y-114192857D02*
X112482672Y-112992857D01*
X112482672Y-114135714D02*
X112592196Y-114192857D01*
X112811244Y-114192857D01*
X112920768Y-114135714D01*
X112975529Y-114078571D01*
X113030291Y-113964286D01*
X113030291Y-113621429D01*
X112975529Y-113507143D01*
X112920768Y-113450000D01*
X112811244Y-113392857D01*
X112592196Y-113392857D01*
X112482672Y-113450000D01*
M02*
