G04 #@! TF.FileFunction,Soldermask,Bot*
%FSLAX46Y46*%
G04 Gerber Fmt 4.6, Leading zero omitted, Abs format (unit mm)*
G04 Created by KiCad (PCBNEW 4.0.1-stable) date 15/03/2016 23:24:00*
%MOMM*%
G01*
G04 APERTURE LIST*
%ADD10C,0.100000*%
%ADD11C,4.610120*%
%ADD12R,1.837200X2.142000*%
%ADD13O,1.837200X2.142000*%
%ADD14R,1.809260X1.308880*%
%ADD15O,1.809260X1.308880*%
%ADD16R,2.142000X1.837200*%
%ADD17O,2.142000X1.837200*%
%ADD18R,1.410000X1.410000*%
%ADD19C,1.410000*%
%ADD20R,1.308880X1.809260*%
%ADD21O,1.308880X1.809260*%
%ADD22R,2.110000X2.110000*%
%ADD23C,2.110000*%
%ADD24C,1.809260*%
%ADD25R,1.809260X1.809260*%
%ADD26C,1.110000*%
%ADD27C,1.610000*%
%ADD28R,4.610000X1.610000*%
G04 APERTURE END LIST*
D10*
D11*
X121066000Y-116200000D03*
X121066000Y-76400000D03*
X165866000Y-76400000D03*
X165866000Y-116200000D03*
D12*
X126366000Y-108550000D03*
D13*
X128906000Y-108550000D03*
X131446000Y-108550000D03*
D12*
X126366000Y-118550000D03*
D13*
X128906000Y-118550000D03*
X131446000Y-118550000D03*
D14*
X167866000Y-110350760D03*
D15*
X167866000Y-108349240D03*
D12*
X131466000Y-113550000D03*
D13*
X128926000Y-113550000D03*
X126386000Y-113550000D03*
D14*
X167866000Y-102050760D03*
D15*
X167866000Y-100049240D03*
D16*
X126066000Y-97250000D03*
D17*
X126066000Y-99790000D03*
X126066000Y-102330000D03*
D18*
X161036000Y-99314000D03*
D19*
X161036000Y-101814000D03*
D20*
X134066760Y-74750000D03*
D21*
X132065240Y-74750000D03*
D22*
X121166000Y-97850000D03*
D23*
X118626000Y-97850000D03*
D22*
X121166000Y-103850000D03*
D23*
X118626000Y-103850000D03*
D16*
X155366000Y-109550000D03*
D17*
X155366000Y-107010000D03*
X155366000Y-104470000D03*
D20*
X144566760Y-74750000D03*
D21*
X142565240Y-74750000D03*
D24*
X152168540Y-101510520D03*
D25*
X152168540Y-91350520D03*
D26*
X145266000Y-84650000D03*
X140266000Y-84650000D03*
D27*
X160966000Y-85250000D03*
X160966000Y-90250000D03*
D28*
X160466000Y-94600000D03*
X160466000Y-80900000D03*
D26*
X120366000Y-85980000D03*
X122906000Y-83440000D03*
X117826000Y-83440000D03*
X120366000Y-93780000D03*
X122906000Y-91240000D03*
X117826000Y-91240000D03*
M02*
