G04 #@! TF.FileFunction,Legend,Top*
%FSLAX46Y46*%
G04 Gerber Fmt 4.6, Leading zero omitted, Abs format (unit mm)*
G04 Created by KiCad (PCBNEW 4.0.2-stable) date 10/04/2016 22:23:54*
%MOMM*%
G01*
G04 APERTURE LIST*
%ADD10C,0.100000*%
%ADD11C,0.150000*%
%ADD12C,0.200000*%
%ADD13C,0.381000*%
%ADD14C,0.075000*%
%ADD15C,0.304800*%
G04 APERTURE END LIST*
D10*
D11*
X148554096Y-76200000D02*
X148458858Y-76152381D01*
X148316001Y-76152381D01*
X148173143Y-76200000D01*
X148077905Y-76295238D01*
X148030286Y-76390476D01*
X147982667Y-76580952D01*
X147982667Y-76723810D01*
X148030286Y-76914286D01*
X148077905Y-77009524D01*
X148173143Y-77104762D01*
X148316001Y-77152381D01*
X148411239Y-77152381D01*
X148554096Y-77104762D01*
X148601715Y-77057143D01*
X148601715Y-76723810D01*
X148411239Y-76723810D01*
X149030286Y-77152381D02*
X149030286Y-76152381D01*
X149601715Y-77152381D01*
X149601715Y-76152381D01*
X150077905Y-77152381D02*
X150077905Y-76152381D01*
X150316000Y-76152381D01*
X150458858Y-76200000D01*
X150554096Y-76295238D01*
X150601715Y-76390476D01*
X150649334Y-76580952D01*
X150649334Y-76723810D01*
X150601715Y-76914286D01*
X150554096Y-77009524D01*
X150458858Y-77104762D01*
X150316000Y-77152381D01*
X150077905Y-77152381D01*
X143077905Y-77104762D02*
X143220762Y-77152381D01*
X143458858Y-77152381D01*
X143554096Y-77104762D01*
X143601715Y-77057143D01*
X143649334Y-76961905D01*
X143649334Y-76866667D01*
X143601715Y-76771429D01*
X143554096Y-76723810D01*
X143458858Y-76676190D01*
X143268381Y-76628571D01*
X143173143Y-76580952D01*
X143125524Y-76533333D01*
X143077905Y-76438095D01*
X143077905Y-76342857D01*
X143125524Y-76247619D01*
X143173143Y-76200000D01*
X143268381Y-76152381D01*
X143506477Y-76152381D01*
X143649334Y-76200000D01*
X144077905Y-76628571D02*
X144411239Y-76628571D01*
X144554096Y-77152381D02*
X144077905Y-77152381D01*
X144077905Y-76152381D01*
X144554096Y-76152381D01*
X145554096Y-77152381D02*
X145220762Y-76676190D01*
X144982667Y-77152381D02*
X144982667Y-76152381D01*
X145363620Y-76152381D01*
X145458858Y-76200000D01*
X145506477Y-76247619D01*
X145554096Y-76342857D01*
X145554096Y-76485714D01*
X145506477Y-76580952D01*
X145458858Y-76628571D01*
X145363620Y-76676190D01*
X144982667Y-76676190D01*
D12*
X154766000Y-114550000D02*
X153466000Y-114550000D01*
X154766000Y-106350000D02*
X154766000Y-114550000D01*
X153466000Y-106350000D02*
X154766000Y-106350000D01*
X140166000Y-106350000D02*
X140166000Y-114550000D01*
X132666000Y-114550000D02*
X132666000Y-106350000D01*
X153466000Y-114550000D02*
X132666000Y-114550000D01*
X132666000Y-106350000D02*
X153466000Y-106350000D01*
D11*
X155244571Y-92438095D02*
X155292190Y-92295238D01*
X155339810Y-92247619D01*
X155435048Y-92200000D01*
X155577905Y-92200000D01*
X155673143Y-92247619D01*
X155720762Y-92295238D01*
X155768381Y-92390476D01*
X155768381Y-92771429D01*
X154768381Y-92771429D01*
X154768381Y-92438095D01*
X154816000Y-92342857D01*
X154863619Y-92295238D01*
X154958857Y-92247619D01*
X155054095Y-92247619D01*
X155149333Y-92295238D01*
X155196952Y-92342857D01*
X155244571Y-92438095D01*
X155244571Y-92771429D01*
X155482667Y-91819048D02*
X155482667Y-91342857D01*
X155768381Y-91914286D02*
X154768381Y-91580953D01*
X155768381Y-91247619D01*
X154768381Y-91057143D02*
X154768381Y-90485714D01*
X155768381Y-90771429D02*
X154768381Y-90771429D01*
X154768381Y-98045238D02*
X155768381Y-97711905D01*
X154768381Y-97378571D01*
X155768381Y-97045238D02*
X154768381Y-97045238D01*
X155768381Y-96569048D02*
X154768381Y-96569048D01*
X155768381Y-95997619D01*
X154768381Y-95997619D01*
X111951715Y-95407143D02*
X111904096Y-95454762D01*
X111761239Y-95502381D01*
X111666001Y-95502381D01*
X111523143Y-95454762D01*
X111427905Y-95359524D01*
X111380286Y-95264286D01*
X111332667Y-95073810D01*
X111332667Y-94930952D01*
X111380286Y-94740476D01*
X111427905Y-94645238D01*
X111523143Y-94550000D01*
X111666001Y-94502381D01*
X111761239Y-94502381D01*
X111904096Y-94550000D01*
X111951715Y-94597619D01*
X112380286Y-95502381D02*
X112380286Y-94502381D01*
X112380286Y-94978571D02*
X112951715Y-94978571D01*
X112951715Y-95502381D02*
X112951715Y-94502381D01*
X113999334Y-95502381D02*
X113666000Y-95026190D01*
X113427905Y-95502381D02*
X113427905Y-94502381D01*
X113808858Y-94502381D01*
X113904096Y-94550000D01*
X113951715Y-94597619D01*
X113999334Y-94692857D01*
X113999334Y-94835714D01*
X113951715Y-94930952D01*
X113904096Y-94978571D01*
X113808858Y-95026190D01*
X113427905Y-95026190D01*
X114951715Y-94550000D02*
X114856477Y-94502381D01*
X114713620Y-94502381D01*
X114570762Y-94550000D01*
X114475524Y-94645238D01*
X114427905Y-94740476D01*
X114380286Y-94930952D01*
X114380286Y-95073810D01*
X114427905Y-95264286D01*
X114475524Y-95359524D01*
X114570762Y-95454762D01*
X114713620Y-95502381D01*
X114808858Y-95502381D01*
X114951715Y-95454762D01*
X114999334Y-95407143D01*
X114999334Y-95073810D01*
X114808858Y-95073810D01*
X111670762Y-101078571D02*
X111337428Y-101078571D01*
X111337428Y-101602381D02*
X111337428Y-100602381D01*
X111813619Y-100602381D01*
X112146952Y-101316667D02*
X112623143Y-101316667D01*
X112051714Y-101602381D02*
X112385047Y-100602381D01*
X112718381Y-101602381D01*
X113051714Y-100602381D02*
X113051714Y-101411905D01*
X113099333Y-101507143D01*
X113146952Y-101554762D01*
X113242190Y-101602381D01*
X113432667Y-101602381D01*
X113527905Y-101554762D01*
X113575524Y-101507143D01*
X113623143Y-101411905D01*
X113623143Y-100602381D01*
X114575524Y-101602381D02*
X114099333Y-101602381D01*
X114099333Y-100602381D01*
X114766000Y-100602381D02*
X115337429Y-100602381D01*
X115051714Y-101602381D02*
X115051714Y-100602381D01*
X119423143Y-110707143D02*
X119375524Y-110754762D01*
X119232667Y-110802381D01*
X119137429Y-110802381D01*
X118994571Y-110754762D01*
X118899333Y-110659524D01*
X118851714Y-110564286D01*
X118804095Y-110373810D01*
X118804095Y-110230952D01*
X118851714Y-110040476D01*
X118899333Y-109945238D01*
X118994571Y-109850000D01*
X119137429Y-109802381D01*
X119232667Y-109802381D01*
X119375524Y-109850000D01*
X119423143Y-109897619D01*
X120375524Y-110802381D02*
X119804095Y-110802381D01*
X120089809Y-110802381D02*
X120089809Y-109802381D01*
X119994571Y-109945238D01*
X119899333Y-110040476D01*
X119804095Y-110088095D01*
X120994571Y-109802381D02*
X121089810Y-109802381D01*
X121185048Y-109850000D01*
X121232667Y-109897619D01*
X121280286Y-109992857D01*
X121327905Y-110183333D01*
X121327905Y-110421429D01*
X121280286Y-110611905D01*
X121232667Y-110707143D01*
X121185048Y-110754762D01*
X121089810Y-110802381D01*
X120994571Y-110802381D01*
X120899333Y-110754762D01*
X120851714Y-110707143D01*
X120804095Y-110611905D01*
X120756476Y-110421429D01*
X120756476Y-110183333D01*
X120804095Y-109992857D01*
X120851714Y-109897619D01*
X120899333Y-109850000D01*
X120994571Y-109802381D01*
X124008857Y-109802381D02*
X124627905Y-109802381D01*
X124294571Y-110183333D01*
X124437429Y-110183333D01*
X124532667Y-110230952D01*
X124580286Y-110278571D01*
X124627905Y-110373810D01*
X124627905Y-110611905D01*
X124580286Y-110707143D01*
X124532667Y-110754762D01*
X124437429Y-110802381D01*
X124151714Y-110802381D01*
X124056476Y-110754762D01*
X124008857Y-110707143D01*
X125056476Y-110802381D02*
X125056476Y-109802381D01*
X125056476Y-110278571D02*
X125627905Y-110278571D01*
X125627905Y-110802381D02*
X125627905Y-109802381D01*
X126675524Y-110802381D02*
X126342190Y-110326190D01*
X126104095Y-110802381D02*
X126104095Y-109802381D01*
X126485048Y-109802381D01*
X126580286Y-109850000D01*
X126627905Y-109897619D01*
X126675524Y-109992857D01*
X126675524Y-110135714D01*
X126627905Y-110230952D01*
X126580286Y-110278571D01*
X126485048Y-110326190D01*
X126104095Y-110326190D01*
D12*
X141823143Y-108337619D02*
X141251714Y-108337619D01*
X141251714Y-107237619D01*
X142051715Y-107237619D02*
X142737429Y-107237619D01*
X142394572Y-108337619D02*
X142394572Y-107237619D01*
X143023144Y-107237619D02*
X143766001Y-107237619D01*
X143366001Y-107656667D01*
X143537429Y-107656667D01*
X143651715Y-107709048D01*
X143708858Y-107761429D01*
X143766001Y-107866190D01*
X143766001Y-108128095D01*
X143708858Y-108232857D01*
X143651715Y-108285238D01*
X143537429Y-108337619D01*
X143194572Y-108337619D01*
X143080286Y-108285238D01*
X143023144Y-108232857D01*
X144794572Y-107237619D02*
X144566001Y-107237619D01*
X144451715Y-107290000D01*
X144394572Y-107342381D01*
X144280286Y-107499524D01*
X144223143Y-107709048D01*
X144223143Y-108128095D01*
X144280286Y-108232857D01*
X144337429Y-108285238D01*
X144451715Y-108337619D01*
X144680286Y-108337619D01*
X144794572Y-108285238D01*
X144851715Y-108232857D01*
X144908858Y-108128095D01*
X144908858Y-107866190D01*
X144851715Y-107761429D01*
X144794572Y-107709048D01*
X144680286Y-107656667D01*
X144451715Y-107656667D01*
X144337429Y-107709048D01*
X144280286Y-107761429D01*
X144223143Y-107866190D01*
X145994572Y-107237619D02*
X145423143Y-107237619D01*
X145366000Y-107761429D01*
X145423143Y-107709048D01*
X145537429Y-107656667D01*
X145823143Y-107656667D01*
X145937429Y-107709048D01*
X145994572Y-107761429D01*
X146051715Y-107866190D01*
X146051715Y-108128095D01*
X145994572Y-108232857D01*
X145937429Y-108285238D01*
X145823143Y-108337619D01*
X145537429Y-108337619D01*
X145423143Y-108285238D01*
X145366000Y-108232857D01*
X146508857Y-107342381D02*
X146566000Y-107290000D01*
X146680286Y-107237619D01*
X146966000Y-107237619D01*
X147080286Y-107290000D01*
X147137429Y-107342381D01*
X147194572Y-107447143D01*
X147194572Y-107551905D01*
X147137429Y-107709048D01*
X146451715Y-108337619D01*
X147194572Y-108337619D01*
X141251714Y-109501429D02*
X141651714Y-109501429D01*
X141823143Y-110077619D02*
X141251714Y-110077619D01*
X141251714Y-108977619D01*
X141823143Y-108977619D01*
X142223143Y-109344286D02*
X142508857Y-110077619D01*
X142794571Y-109344286D01*
X143766000Y-110077619D02*
X143766000Y-109501429D01*
X143708857Y-109396667D01*
X143594571Y-109344286D01*
X143366000Y-109344286D01*
X143251714Y-109396667D01*
X143766000Y-110025238D02*
X143651714Y-110077619D01*
X143366000Y-110077619D01*
X143251714Y-110025238D01*
X143194571Y-109920476D01*
X143194571Y-109815714D01*
X143251714Y-109710952D01*
X143366000Y-109658571D01*
X143651714Y-109658571D01*
X143766000Y-109606190D01*
X144508857Y-110077619D02*
X144394571Y-110025238D01*
X144337428Y-109920476D01*
X144337428Y-108977619D01*
X146280285Y-109501429D02*
X146451714Y-109553810D01*
X146508857Y-109606190D01*
X146566000Y-109710952D01*
X146566000Y-109868095D01*
X146508857Y-109972857D01*
X146451714Y-110025238D01*
X146337428Y-110077619D01*
X145880285Y-110077619D01*
X145880285Y-108977619D01*
X146280285Y-108977619D01*
X146394571Y-109030000D01*
X146451714Y-109082381D01*
X146508857Y-109187143D01*
X146508857Y-109291905D01*
X146451714Y-109396667D01*
X146394571Y-109449048D01*
X146280285Y-109501429D01*
X145880285Y-109501429D01*
X147251714Y-110077619D02*
X147137428Y-110025238D01*
X147080285Y-109972857D01*
X147023142Y-109868095D01*
X147023142Y-109553810D01*
X147080285Y-109449048D01*
X147137428Y-109396667D01*
X147251714Y-109344286D01*
X147423142Y-109344286D01*
X147537428Y-109396667D01*
X147594571Y-109449048D01*
X147651714Y-109553810D01*
X147651714Y-109868095D01*
X147594571Y-109972857D01*
X147537428Y-110025238D01*
X147423142Y-110077619D01*
X147251714Y-110077619D01*
X148680285Y-110077619D02*
X148680285Y-109501429D01*
X148623142Y-109396667D01*
X148508856Y-109344286D01*
X148280285Y-109344286D01*
X148165999Y-109396667D01*
X148680285Y-110025238D02*
X148565999Y-110077619D01*
X148280285Y-110077619D01*
X148165999Y-110025238D01*
X148108856Y-109920476D01*
X148108856Y-109815714D01*
X148165999Y-109710952D01*
X148280285Y-109658571D01*
X148565999Y-109658571D01*
X148680285Y-109606190D01*
X149251713Y-110077619D02*
X149251713Y-109344286D01*
X149251713Y-109553810D02*
X149308856Y-109449048D01*
X149365999Y-109396667D01*
X149480285Y-109344286D01*
X149594570Y-109344286D01*
X150508856Y-110077619D02*
X150508856Y-108977619D01*
X150508856Y-110025238D02*
X150394570Y-110077619D01*
X150165999Y-110077619D01*
X150051713Y-110025238D01*
X149994570Y-109972857D01*
X149937427Y-109868095D01*
X149937427Y-109553810D01*
X149994570Y-109449048D01*
X150051713Y-109396667D01*
X150165999Y-109344286D01*
X150394570Y-109344286D01*
X150508856Y-109396667D01*
X141937429Y-111817619D02*
X141537429Y-111293810D01*
X141251714Y-111817619D02*
X141251714Y-110717619D01*
X141708857Y-110717619D01*
X141823143Y-110770000D01*
X141880286Y-110822381D01*
X141937429Y-110927143D01*
X141937429Y-111084286D01*
X141880286Y-111189048D01*
X141823143Y-111241429D01*
X141708857Y-111293810D01*
X141251714Y-111293810D01*
X142908857Y-111765238D02*
X142794571Y-111817619D01*
X142566000Y-111817619D01*
X142451714Y-111765238D01*
X142394571Y-111660476D01*
X142394571Y-111241429D01*
X142451714Y-111136667D01*
X142566000Y-111084286D01*
X142794571Y-111084286D01*
X142908857Y-111136667D01*
X142966000Y-111241429D01*
X142966000Y-111346190D01*
X142394571Y-111450952D01*
X143366000Y-111084286D02*
X143651714Y-111817619D01*
X143937428Y-111084286D01*
X145537429Y-110717619D02*
X145651714Y-110717619D01*
X145766000Y-110770000D01*
X145823143Y-110822381D01*
X145880286Y-110927143D01*
X145937429Y-111136667D01*
X145937429Y-111398571D01*
X145880286Y-111608095D01*
X145823143Y-111712857D01*
X145766000Y-111765238D01*
X145651714Y-111817619D01*
X145537429Y-111817619D01*
X145423143Y-111765238D01*
X145366000Y-111712857D01*
X145308857Y-111608095D01*
X145251714Y-111398571D01*
X145251714Y-111136667D01*
X145308857Y-110927143D01*
X145366000Y-110822381D01*
X145423143Y-110770000D01*
X145537429Y-110717619D01*
X146451714Y-111712857D02*
X146508857Y-111765238D01*
X146451714Y-111817619D01*
X146394571Y-111765238D01*
X146451714Y-111712857D01*
X146451714Y-111817619D01*
X147080286Y-111817619D02*
X147308858Y-111817619D01*
X147423143Y-111765238D01*
X147480286Y-111712857D01*
X147594572Y-111555714D01*
X147651715Y-111346190D01*
X147651715Y-110927143D01*
X147594572Y-110822381D01*
X147537429Y-110770000D01*
X147423143Y-110717619D01*
X147194572Y-110717619D01*
X147080286Y-110770000D01*
X147023143Y-110822381D01*
X146966000Y-110927143D01*
X146966000Y-111189048D01*
X147023143Y-111293810D01*
X147080286Y-111346190D01*
X147194572Y-111398571D01*
X147423143Y-111398571D01*
X147537429Y-111346190D01*
X147594572Y-111293810D01*
X147651715Y-111189048D01*
X141880286Y-113557619D02*
X141194571Y-113557619D01*
X141537429Y-113557619D02*
X141537429Y-112457619D01*
X141423143Y-112614762D01*
X141308857Y-112719524D01*
X141194571Y-112771905D01*
X142623143Y-112457619D02*
X142737428Y-112457619D01*
X142851714Y-112510000D01*
X142908857Y-112562381D01*
X142966000Y-112667143D01*
X143023143Y-112876667D01*
X143023143Y-113138571D01*
X142966000Y-113348095D01*
X142908857Y-113452857D01*
X142851714Y-113505238D01*
X142737428Y-113557619D01*
X142623143Y-113557619D01*
X142508857Y-113505238D01*
X142451714Y-113452857D01*
X142394571Y-113348095D01*
X142337428Y-113138571D01*
X142337428Y-112876667D01*
X142394571Y-112667143D01*
X142451714Y-112562381D01*
X142508857Y-112510000D01*
X142623143Y-112457619D01*
X143537428Y-113138571D02*
X144451714Y-113138571D01*
X145251714Y-112457619D02*
X145365999Y-112457619D01*
X145480285Y-112510000D01*
X145537428Y-112562381D01*
X145594571Y-112667143D01*
X145651714Y-112876667D01*
X145651714Y-113138571D01*
X145594571Y-113348095D01*
X145537428Y-113452857D01*
X145480285Y-113505238D01*
X145365999Y-113557619D01*
X145251714Y-113557619D01*
X145137428Y-113505238D01*
X145080285Y-113452857D01*
X145023142Y-113348095D01*
X144965999Y-113138571D01*
X144965999Y-112876667D01*
X145023142Y-112667143D01*
X145080285Y-112562381D01*
X145137428Y-112510000D01*
X145251714Y-112457619D01*
X146680285Y-112824286D02*
X146680285Y-113557619D01*
X146394571Y-112405238D02*
X146108856Y-113190952D01*
X146851714Y-113190952D01*
X147308856Y-113138571D02*
X148223142Y-113138571D01*
X148737427Y-112562381D02*
X148794570Y-112510000D01*
X148908856Y-112457619D01*
X149194570Y-112457619D01*
X149308856Y-112510000D01*
X149365999Y-112562381D01*
X149423142Y-112667143D01*
X149423142Y-112771905D01*
X149365999Y-112929048D01*
X148680285Y-113557619D01*
X149423142Y-113557619D01*
X150165999Y-112457619D02*
X150280284Y-112457619D01*
X150394570Y-112510000D01*
X150451713Y-112562381D01*
X150508856Y-112667143D01*
X150565999Y-112876667D01*
X150565999Y-113138571D01*
X150508856Y-113348095D01*
X150451713Y-113452857D01*
X150394570Y-113505238D01*
X150280284Y-113557619D01*
X150165999Y-113557619D01*
X150051713Y-113505238D01*
X149994570Y-113452857D01*
X149937427Y-113348095D01*
X149880284Y-113138571D01*
X149880284Y-112876667D01*
X149937427Y-112667143D01*
X149994570Y-112562381D01*
X150051713Y-112510000D01*
X150165999Y-112457619D01*
X151708856Y-113557619D02*
X151023141Y-113557619D01*
X151365999Y-113557619D02*
X151365999Y-112457619D01*
X151251713Y-112614762D01*
X151137427Y-112719524D01*
X151023141Y-112771905D01*
X152737427Y-112457619D02*
X152508856Y-112457619D01*
X152394570Y-112510000D01*
X152337427Y-112562381D01*
X152223141Y-112719524D01*
X152165998Y-112929048D01*
X152165998Y-113348095D01*
X152223141Y-113452857D01*
X152280284Y-113505238D01*
X152394570Y-113557619D01*
X152623141Y-113557619D01*
X152737427Y-113505238D01*
X152794570Y-113452857D01*
X152851713Y-113348095D01*
X152851713Y-113086190D01*
X152794570Y-112981429D01*
X152737427Y-112929048D01*
X152623141Y-112876667D01*
X152394570Y-112876667D01*
X152280284Y-112929048D01*
X152223141Y-112981429D01*
X152165998Y-113086190D01*
D11*
X121536000Y-104020000D02*
X126616000Y-104020000D01*
X126616000Y-104020000D02*
X126616000Y-101480000D01*
X126616000Y-101480000D02*
X121536000Y-101480000D01*
X118716000Y-101200000D02*
X120266000Y-101200000D01*
X121536000Y-101480000D02*
X121536000Y-104020000D01*
X120266000Y-104300000D02*
X118716000Y-104300000D01*
X118716000Y-104300000D02*
X118716000Y-101200000D01*
X125266000Y-92175000D02*
X126266000Y-92175000D01*
X126266000Y-93525000D02*
X125266000Y-93525000D01*
X125266000Y-94675000D02*
X126266000Y-94675000D01*
X126266000Y-96025000D02*
X125266000Y-96025000D01*
X137066000Y-90200000D02*
X137066000Y-89500000D01*
X138266000Y-89500000D02*
X138266000Y-90200000D01*
X121536000Y-114020000D02*
X126616000Y-114020000D01*
X126616000Y-114020000D02*
X126616000Y-111480000D01*
X126616000Y-111480000D02*
X121536000Y-111480000D01*
X118716000Y-111200000D02*
X120266000Y-111200000D01*
X121536000Y-111480000D02*
X121536000Y-114020000D01*
X120266000Y-114300000D02*
X118716000Y-114300000D01*
X118716000Y-114300000D02*
X118716000Y-111200000D01*
X124096000Y-106480000D02*
X119016000Y-106480000D01*
X119016000Y-106480000D02*
X119016000Y-109020000D01*
X119016000Y-109020000D02*
X124096000Y-109020000D01*
X126916000Y-109300000D02*
X125366000Y-109300000D01*
X124096000Y-109020000D02*
X124096000Y-106480000D01*
X125366000Y-106200000D02*
X126916000Y-106200000D01*
X126916000Y-106200000D02*
X126916000Y-109300000D01*
X137291000Y-102050000D02*
X137291000Y-101050000D01*
X138641000Y-101050000D02*
X138641000Y-102050000D01*
X134491000Y-102050000D02*
X134491000Y-101050000D01*
X135841000Y-101050000D02*
X135841000Y-102050000D01*
X133141000Y-98050000D02*
X133141000Y-99050000D01*
X131791000Y-99050000D02*
X131791000Y-98050000D01*
X118696000Y-92720000D02*
X118696000Y-97800000D01*
X118696000Y-97800000D02*
X121236000Y-97800000D01*
X121236000Y-97800000D02*
X121236000Y-92720000D01*
X121516000Y-89900000D02*
X121516000Y-91450000D01*
X121236000Y-92720000D02*
X118696000Y-92720000D01*
X118416000Y-91450000D02*
X118416000Y-89900000D01*
X118416000Y-89900000D02*
X121516000Y-89900000D01*
X137316000Y-98750000D02*
X136616000Y-98750000D01*
X136616000Y-97550000D02*
X137316000Y-97550000D01*
X153067000Y-77375000D02*
X158065000Y-77375000D01*
X153075000Y-77235000D02*
X158057000Y-77235000D01*
X153091000Y-77095000D02*
X155471000Y-77095000D01*
X155661000Y-77095000D02*
X158041000Y-77095000D01*
X153115000Y-76955000D02*
X155076000Y-76955000D01*
X156056000Y-76955000D02*
X158017000Y-76955000D01*
X153148000Y-76815000D02*
X154909000Y-76815000D01*
X156223000Y-76815000D02*
X157984000Y-76815000D01*
X153189000Y-76675000D02*
X154802000Y-76675000D01*
X156330000Y-76675000D02*
X157943000Y-76675000D01*
X153239000Y-76535000D02*
X154731000Y-76535000D01*
X156401000Y-76535000D02*
X157893000Y-76535000D01*
X153300000Y-76395000D02*
X154687000Y-76395000D01*
X156445000Y-76395000D02*
X157832000Y-76395000D01*
X153370000Y-76255000D02*
X154668000Y-76255000D01*
X156464000Y-76255000D02*
X157762000Y-76255000D01*
X153452000Y-76115000D02*
X154670000Y-76115000D01*
X156462000Y-76115000D02*
X157680000Y-76115000D01*
X153547000Y-75975000D02*
X154695000Y-75975000D01*
X156437000Y-75975000D02*
X157585000Y-75975000D01*
X153658000Y-75835000D02*
X154743000Y-75835000D01*
X156389000Y-75835000D02*
X157474000Y-75835000D01*
X153786000Y-75695000D02*
X154821000Y-75695000D01*
X156311000Y-75695000D02*
X157346000Y-75695000D01*
X153935000Y-75555000D02*
X154938000Y-75555000D01*
X156194000Y-75555000D02*
X157197000Y-75555000D01*
X154114000Y-75415000D02*
X155126000Y-75415000D01*
X156006000Y-75415000D02*
X157018000Y-75415000D01*
X154333000Y-75275000D02*
X156799000Y-75275000D01*
X154622000Y-75135000D02*
X156510000Y-75135000D01*
X155094000Y-74995000D02*
X156038000Y-74995000D01*
X156466000Y-76200000D02*
G75*
G03X156466000Y-76200000I-900000J0D01*
G01*
X158103500Y-77450000D02*
G75*
G03X158103500Y-77450000I-2537500J0D01*
G01*
X141266000Y-93425000D02*
X139266000Y-93425000D01*
X139266000Y-95475000D02*
X141266000Y-95475000D01*
X128566000Y-113100000D02*
X128566000Y-112400000D01*
X129766000Y-112400000D02*
X129766000Y-113100000D01*
X130691000Y-87750000D02*
X130691000Y-85750000D01*
X128641000Y-85750000D02*
X128641000Y-87750000D01*
D13*
X132765060Y-66648760D02*
X132765060Y-67149140D01*
X132765060Y-67149140D02*
X132566940Y-67149140D01*
X132566940Y-67149140D02*
X132566940Y-66648760D01*
X129666260Y-69450380D02*
X130166640Y-69450380D01*
X130166640Y-68149900D02*
X129666260Y-68149900D01*
X135165360Y-68149900D02*
X135665740Y-68149900D01*
X135165360Y-69450380D02*
X135665740Y-69450380D01*
X133166380Y-70649260D02*
X133166380Y-70148880D01*
X133166380Y-70148880D02*
X135165360Y-70148880D01*
X135165360Y-70148880D02*
X135165360Y-66648760D01*
X135165360Y-66648760D02*
X130166640Y-66648760D01*
X130166640Y-66648760D02*
X130166640Y-70148880D01*
X130166640Y-70148880D02*
X132165620Y-70148880D01*
X132165620Y-70148880D02*
X132165620Y-70649260D01*
X135665740Y-70649260D02*
X135665740Y-66150920D01*
X129666260Y-70649260D02*
X129666260Y-66150920D01*
X133966480Y-70649260D02*
X133966480Y-70849920D01*
X133966480Y-70849920D02*
X134266200Y-70849920D01*
X134266200Y-70849920D02*
X134266200Y-70649260D01*
X129666260Y-70649260D02*
X135665740Y-70649260D01*
X135665740Y-66150920D02*
X129666260Y-66150920D01*
D11*
X115265000Y-90736000D02*
X115265000Y-90936000D01*
X115265000Y-93330000D02*
X115265000Y-93150000D01*
X112037256Y-93019643D02*
G75*
G03X115265000Y-93336000I1727744J1003643D01*
G01*
X112712994Y-93149068D02*
G75*
G03X114816000Y-93150000I1052006J1133068D01*
G01*
X115252220Y-90709274D02*
G75*
G03X112015000Y-91056000I-1497220J-1306726D01*
G01*
X114778889Y-90936747D02*
G75*
G03X112731000Y-90956000I-1013889J-1079253D01*
G01*
X115265000Y-96736000D02*
X115265000Y-96936000D01*
X115265000Y-99330000D02*
X115265000Y-99150000D01*
X112037256Y-99019643D02*
G75*
G03X115265000Y-99336000I1727744J1003643D01*
G01*
X112712994Y-99149068D02*
G75*
G03X114816000Y-99150000I1052006J1133068D01*
G01*
X115252220Y-96709274D02*
G75*
G03X112015000Y-97056000I-1497220J-1306726D01*
G01*
X114778889Y-96936747D02*
G75*
G03X112731000Y-96956000I-1013889J-1079253D01*
G01*
X151296000Y-92970000D02*
X151296000Y-98050000D01*
X151296000Y-98050000D02*
X153836000Y-98050000D01*
X153836000Y-98050000D02*
X153836000Y-92970000D01*
X154116000Y-90150000D02*
X154116000Y-91700000D01*
X153836000Y-92970000D02*
X151296000Y-92970000D01*
X151016000Y-91700000D02*
X151016000Y-90150000D01*
X151016000Y-90150000D02*
X154116000Y-90150000D01*
X138034780Y-112339860D02*
X138395460Y-113810520D01*
X138395460Y-113810520D02*
X138674860Y-112748800D01*
X138674860Y-112748800D02*
X138984740Y-113820680D01*
X138984740Y-113820680D02*
X139325100Y-112370340D01*
X136614920Y-113030740D02*
X137404860Y-113020580D01*
X137404860Y-113020580D02*
X137415020Y-113030740D01*
X137415020Y-113030740D02*
X137415020Y-113020580D01*
X137455660Y-112309380D02*
X137455660Y-113851160D01*
X136566660Y-112299220D02*
X136566660Y-113868940D01*
X136566660Y-113868940D02*
X136576820Y-113858780D01*
X136015480Y-112400820D02*
X135664960Y-112319540D01*
X135664960Y-112319540D02*
X135344920Y-112309380D01*
X135344920Y-112309380D02*
X135106160Y-112510040D01*
X135106160Y-112510040D02*
X135075680Y-112779280D01*
X135075680Y-112779280D02*
X135316980Y-113020580D01*
X135316980Y-113020580D02*
X135705600Y-113150120D01*
X135705600Y-113150120D02*
X135885940Y-113310140D01*
X135885940Y-113310140D02*
X135926580Y-113609860D01*
X135926580Y-113609860D02*
X135695440Y-113830840D01*
X135695440Y-113830840D02*
X135375400Y-113858780D01*
X135375400Y-113858780D02*
X135024880Y-113749560D01*
X133986020Y-112299220D02*
X133737100Y-112319540D01*
X133737100Y-112319540D02*
X133495800Y-112560840D01*
X133495800Y-112560840D02*
X133406900Y-113051060D01*
X133406900Y-113051060D02*
X133434840Y-113399040D01*
X133434840Y-113399040D02*
X133635500Y-113719080D01*
X133635500Y-113719080D02*
X133886960Y-113841000D01*
X133886960Y-113841000D02*
X134196840Y-113769880D01*
X134196840Y-113769880D02*
X134415280Y-113589540D01*
X134415280Y-113589540D02*
X134486400Y-113129800D01*
X134486400Y-113129800D02*
X134435600Y-112720860D01*
X134435600Y-112720860D02*
X134326380Y-112438920D01*
X134326380Y-112438920D02*
X133965700Y-112309380D01*
X134585460Y-110579640D02*
X134326380Y-111140980D01*
X134326380Y-111140980D02*
X134864860Y-111659140D01*
X134864860Y-111659140D02*
X135385560Y-111389900D01*
X135385560Y-111389900D02*
X135664960Y-111549920D01*
X137105140Y-111529600D02*
X137435340Y-111339100D01*
X137435340Y-111339100D02*
X137874760Y-111669300D01*
X137874760Y-111669300D02*
X138347200Y-111179080D01*
X138347200Y-111179080D02*
X138065260Y-110699020D01*
X138065260Y-110699020D02*
X138255760Y-110229120D01*
X138255760Y-110229120D02*
X138865360Y-110041160D01*
X138865360Y-110041160D02*
X138865360Y-109360440D01*
X138865360Y-109360440D02*
X138306560Y-109220740D01*
X138306560Y-109220740D02*
X138105900Y-108649240D01*
X138105900Y-108649240D02*
X138375140Y-108179340D01*
X138375140Y-108179340D02*
X137905240Y-107668800D01*
X137905240Y-107668800D02*
X137387080Y-107930420D01*
X137387080Y-107930420D02*
X136917180Y-107729760D01*
X136917180Y-107729760D02*
X136747000Y-107188740D01*
X136747000Y-107188740D02*
X136056120Y-107170960D01*
X136056120Y-107170960D02*
X135845300Y-107719600D01*
X135845300Y-107719600D02*
X135426200Y-107889780D01*
X135426200Y-107889780D02*
X134875020Y-107620540D01*
X134875020Y-107620540D02*
X134356860Y-108148860D01*
X134356860Y-108148860D02*
X134605780Y-108689880D01*
X134605780Y-108689880D02*
X134435600Y-109169940D01*
X134435600Y-109169940D02*
X133886960Y-109269000D01*
X133886960Y-109269000D02*
X133876800Y-109970040D01*
X133876800Y-109970040D02*
X134435600Y-110170700D01*
X134435600Y-110170700D02*
X134575300Y-110569480D01*
X136716520Y-110549160D02*
X137016240Y-110399300D01*
X137016240Y-110399300D02*
X137216900Y-110201180D01*
X137216900Y-110201180D02*
X137366760Y-109799860D01*
X137366760Y-109799860D02*
X137366760Y-109401080D01*
X137366760Y-109401080D02*
X137216900Y-109050560D01*
X137216900Y-109050560D02*
X136764780Y-108700040D01*
X136764780Y-108700040D02*
X136315200Y-108649240D01*
X136315200Y-108649240D02*
X135916420Y-108750840D01*
X135916420Y-108750840D02*
X135515100Y-109098820D01*
X135515100Y-109098820D02*
X135365240Y-109550940D01*
X135365240Y-109550940D02*
X135416040Y-110048780D01*
X135416040Y-110048780D02*
X135664960Y-110351040D01*
X135664960Y-110351040D02*
X136015480Y-110549160D01*
X136015480Y-110549160D02*
X135664960Y-111549920D01*
X136716520Y-110549160D02*
X137115300Y-111549920D01*
D13*
X124465060Y-66648760D02*
X124465060Y-67149140D01*
X124465060Y-67149140D02*
X124266940Y-67149140D01*
X124266940Y-67149140D02*
X124266940Y-66648760D01*
X121366260Y-69450380D02*
X121866640Y-69450380D01*
X121866640Y-68149900D02*
X121366260Y-68149900D01*
X126865360Y-68149900D02*
X127365740Y-68149900D01*
X126865360Y-69450380D02*
X127365740Y-69450380D01*
X124866380Y-70649260D02*
X124866380Y-70148880D01*
X124866380Y-70148880D02*
X126865360Y-70148880D01*
X126865360Y-70148880D02*
X126865360Y-66648760D01*
X126865360Y-66648760D02*
X121866640Y-66648760D01*
X121866640Y-66648760D02*
X121866640Y-70148880D01*
X121866640Y-70148880D02*
X123865620Y-70148880D01*
X123865620Y-70148880D02*
X123865620Y-70649260D01*
X127365740Y-70649260D02*
X127365740Y-66150920D01*
X121366260Y-70649260D02*
X121366260Y-66150920D01*
X125666480Y-70649260D02*
X125666480Y-70849920D01*
X125666480Y-70849920D02*
X125966200Y-70849920D01*
X125966200Y-70849920D02*
X125966200Y-70649260D01*
X121366260Y-70649260D02*
X127365740Y-70649260D01*
X127365740Y-66150920D02*
X121366260Y-66150920D01*
D11*
X120941000Y-84850000D02*
X120941000Y-85850000D01*
X119591000Y-85850000D02*
X119591000Y-84850000D01*
X120941000Y-77150000D02*
X120941000Y-78150000D01*
X119591000Y-78150000D02*
X119591000Y-77150000D01*
X146068540Y-92916520D02*
X146068540Y-94313520D01*
X146068540Y-88471520D02*
X146068540Y-86947520D01*
X146830540Y-88852520D02*
X145306540Y-88852520D01*
X146830540Y-88598520D02*
X145306540Y-88598520D01*
X146068540Y-88344520D02*
X145306540Y-88344520D01*
X145306540Y-88344520D02*
X145306540Y-92916520D01*
X145306540Y-92916520D02*
X146830540Y-92916520D01*
X146830540Y-92916520D02*
X146830540Y-88344520D01*
X146830540Y-88344520D02*
X146068540Y-88344520D01*
X142966000Y-99150000D02*
X144466000Y-99150000D01*
X144466000Y-99150000D02*
X144466000Y-97750000D01*
X144466000Y-97750000D02*
X141466000Y-97750000D01*
X141466000Y-97750000D02*
X141466000Y-99150000D01*
X141466000Y-99150000D02*
X142966000Y-99150000D01*
X142966000Y-99150000D02*
X143016000Y-99150000D01*
X133666000Y-87250000D02*
X132166000Y-87250000D01*
X132166000Y-87250000D02*
X132166000Y-88650000D01*
X132166000Y-88650000D02*
X135166000Y-88650000D01*
X135166000Y-88650000D02*
X135166000Y-87250000D01*
X135166000Y-87250000D02*
X133666000Y-87250000D01*
X133666000Y-87250000D02*
X133616000Y-87250000D01*
X130666000Y-73450000D02*
X129166000Y-73450000D01*
X129166000Y-73450000D02*
X129166000Y-74850000D01*
X129166000Y-74850000D02*
X132166000Y-74850000D01*
X132166000Y-74850000D02*
X132166000Y-73450000D01*
X132166000Y-73450000D02*
X130666000Y-73450000D01*
X130666000Y-73450000D02*
X130616000Y-73450000D01*
D13*
X157415560Y-104000480D02*
X159615200Y-104000480D01*
X159615200Y-104000480D02*
X159615200Y-104300200D01*
X159615200Y-104300200D02*
X157415560Y-104300200D01*
X155314980Y-102199620D02*
X159615200Y-102199620D01*
X155314980Y-103200380D02*
X159615200Y-103200380D01*
X155314980Y-102199620D02*
X155314980Y-103200380D01*
X157415560Y-101402060D02*
X155815360Y-101402060D01*
X157415560Y-100401300D02*
X157415560Y-101402060D01*
X155815360Y-100401300D02*
X157415560Y-100401300D01*
X155815360Y-101402060D02*
X155815360Y-100401300D01*
X155815360Y-105001240D02*
X155815360Y-104000480D01*
X155815360Y-104000480D02*
X157415560Y-104000480D01*
X157415560Y-104000480D02*
X157415560Y-105001240D01*
X157415560Y-105001240D02*
X155815360Y-105001240D01*
X153714780Y-99700260D02*
X153714780Y-105699740D01*
X151916460Y-99900920D02*
X153714780Y-99900920D01*
X151916460Y-105499080D02*
X153714780Y-105499080D01*
X159615200Y-105699740D02*
X159615200Y-99700260D01*
X159615200Y-99700260D02*
X151916460Y-99700260D01*
X151916460Y-99700260D02*
X151916460Y-100099040D01*
X151916460Y-100099040D02*
X153714780Y-100099040D01*
X153714780Y-105300960D02*
X151916460Y-105300960D01*
X151916460Y-105300960D02*
X151916460Y-105699740D01*
X151916460Y-105699740D02*
X159615200Y-105699740D01*
X157415560Y-86250480D02*
X159615200Y-86250480D01*
X159615200Y-86250480D02*
X159615200Y-86550200D01*
X159615200Y-86550200D02*
X157415560Y-86550200D01*
X155314980Y-84449620D02*
X159615200Y-84449620D01*
X155314980Y-85450380D02*
X159615200Y-85450380D01*
X155314980Y-84449620D02*
X155314980Y-85450380D01*
X157415560Y-83652060D02*
X155815360Y-83652060D01*
X157415560Y-82651300D02*
X157415560Y-83652060D01*
X155815360Y-82651300D02*
X157415560Y-82651300D01*
X155815360Y-83652060D02*
X155815360Y-82651300D01*
X155815360Y-87251240D02*
X155815360Y-86250480D01*
X155815360Y-86250480D02*
X157415560Y-86250480D01*
X157415560Y-86250480D02*
X157415560Y-87251240D01*
X157415560Y-87251240D02*
X155815360Y-87251240D01*
X153714780Y-81950260D02*
X153714780Y-87949740D01*
X151916460Y-82150920D02*
X153714780Y-82150920D01*
X151916460Y-87749080D02*
X153714780Y-87749080D01*
X159615200Y-87949740D02*
X159615200Y-81950260D01*
X159615200Y-81950260D02*
X151916460Y-81950260D01*
X151916460Y-81950260D02*
X151916460Y-82349040D01*
X151916460Y-82349040D02*
X153714780Y-82349040D01*
X153714780Y-87550960D02*
X151916460Y-87550960D01*
X151916460Y-87550960D02*
X151916460Y-87949740D01*
X151916460Y-87949740D02*
X159615200Y-87949740D01*
D11*
X125666000Y-73450000D02*
X124166000Y-73450000D01*
X124166000Y-73450000D02*
X124166000Y-74850000D01*
X124166000Y-74850000D02*
X127166000Y-74850000D01*
X127166000Y-74850000D02*
X127166000Y-73450000D01*
X127166000Y-73450000D02*
X125666000Y-73450000D01*
X125666000Y-73450000D02*
X125616000Y-73450000D01*
X148046000Y-72930000D02*
X142966000Y-72930000D01*
X142966000Y-72930000D02*
X142966000Y-75470000D01*
X142966000Y-75470000D02*
X148046000Y-75470000D01*
X150866000Y-75750000D02*
X149316000Y-75750000D01*
X148046000Y-75470000D02*
X148046000Y-72930000D01*
X149316000Y-72650000D02*
X150866000Y-72650000D01*
X150866000Y-72650000D02*
X150866000Y-75750000D01*
D13*
X141165060Y-66648760D02*
X141165060Y-67149140D01*
X141165060Y-67149140D02*
X140966940Y-67149140D01*
X140966940Y-67149140D02*
X140966940Y-66648760D01*
X138066260Y-69450380D02*
X138566640Y-69450380D01*
X138566640Y-68149900D02*
X138066260Y-68149900D01*
X143565360Y-68149900D02*
X144065740Y-68149900D01*
X143565360Y-69450380D02*
X144065740Y-69450380D01*
X141566380Y-70649260D02*
X141566380Y-70148880D01*
X141566380Y-70148880D02*
X143565360Y-70148880D01*
X143565360Y-70148880D02*
X143565360Y-66648760D01*
X143565360Y-66648760D02*
X138566640Y-66648760D01*
X138566640Y-66648760D02*
X138566640Y-70148880D01*
X138566640Y-70148880D02*
X140565620Y-70148880D01*
X140565620Y-70148880D02*
X140565620Y-70649260D01*
X144065740Y-70649260D02*
X144065740Y-66150920D01*
X138066260Y-70649260D02*
X138066260Y-66150920D01*
X142366480Y-70649260D02*
X142366480Y-70849920D01*
X142366480Y-70849920D02*
X142666200Y-70849920D01*
X142666200Y-70849920D02*
X142666200Y-70649260D01*
X138066260Y-70649260D02*
X144065740Y-70649260D01*
X144065740Y-66150920D02*
X138066260Y-66150920D01*
D11*
X140291000Y-90050000D02*
X140291000Y-88850000D01*
X142041000Y-88850000D02*
X142041000Y-90050000D01*
X141416000Y-78850000D02*
G75*
G03X141416000Y-78850000I-4750000J0D01*
G01*
X110966000Y-74110000D02*
X117566000Y-74110000D01*
X117566000Y-74110000D02*
X117566000Y-81110000D01*
X117566000Y-81110000D02*
X110966000Y-81110000D01*
X110966000Y-81110000D02*
X110966000Y-74110000D01*
X110966000Y-81910000D02*
X117566000Y-81910000D01*
X117566000Y-81910000D02*
X117566000Y-88910000D01*
X117566000Y-88910000D02*
X110966000Y-88910000D01*
X110966000Y-88910000D02*
X110966000Y-81910000D01*
X127418381Y-103583333D02*
X128132667Y-103583333D01*
X128275524Y-103630953D01*
X128370762Y-103726191D01*
X128418381Y-103869048D01*
X128418381Y-103964286D01*
X128418381Y-103107143D02*
X127418381Y-103107143D01*
X127418381Y-102726190D01*
X127466000Y-102630952D01*
X127513619Y-102583333D01*
X127608857Y-102535714D01*
X127751714Y-102535714D01*
X127846952Y-102583333D01*
X127894571Y-102630952D01*
X127942190Y-102726190D01*
X127942190Y-103107143D01*
X127513619Y-102154762D02*
X127466000Y-102107143D01*
X127418381Y-102011905D01*
X127418381Y-101773809D01*
X127466000Y-101678571D01*
X127513619Y-101630952D01*
X127608857Y-101583333D01*
X127704095Y-101583333D01*
X127846952Y-101630952D01*
X128418381Y-102202381D01*
X128418381Y-101583333D01*
X123518381Y-93016666D02*
X123042190Y-93350000D01*
X123518381Y-93588095D02*
X122518381Y-93588095D01*
X122518381Y-93207142D01*
X122566000Y-93111904D01*
X122613619Y-93064285D01*
X122708857Y-93016666D01*
X122851714Y-93016666D01*
X122946952Y-93064285D01*
X122994571Y-93111904D01*
X123042190Y-93207142D01*
X123042190Y-93588095D01*
X123518381Y-92064285D02*
X123518381Y-92635714D01*
X123518381Y-92350000D02*
X122518381Y-92350000D01*
X122661238Y-92445238D01*
X122756476Y-92540476D01*
X122804095Y-92635714D01*
X123518381Y-95516666D02*
X123042190Y-95850000D01*
X123518381Y-96088095D02*
X122518381Y-96088095D01*
X122518381Y-95707142D01*
X122566000Y-95611904D01*
X122613619Y-95564285D01*
X122708857Y-95516666D01*
X122851714Y-95516666D01*
X122946952Y-95564285D01*
X122994571Y-95611904D01*
X123042190Y-95707142D01*
X123042190Y-96088095D01*
X122613619Y-95135714D02*
X122566000Y-95088095D01*
X122518381Y-94992857D01*
X122518381Y-94754761D01*
X122566000Y-94659523D01*
X122613619Y-94611904D01*
X122708857Y-94564285D01*
X122804095Y-94564285D01*
X122946952Y-94611904D01*
X123518381Y-95183333D01*
X123518381Y-94564285D01*
X139623143Y-90873809D02*
X139670762Y-90921428D01*
X139718381Y-91064285D01*
X139718381Y-91159523D01*
X139670762Y-91302381D01*
X139575524Y-91397619D01*
X139480286Y-91445238D01*
X139289810Y-91492857D01*
X139146952Y-91492857D01*
X138956476Y-91445238D01*
X138861238Y-91397619D01*
X138766000Y-91302381D01*
X138718381Y-91159523D01*
X138718381Y-91064285D01*
X138766000Y-90921428D01*
X138813619Y-90873809D01*
X139718381Y-90445238D02*
X138718381Y-90445238D01*
X139099333Y-90445238D02*
X139051714Y-90350000D01*
X139051714Y-90159523D01*
X139099333Y-90064285D01*
X139146952Y-90016666D01*
X139242190Y-89969047D01*
X139527905Y-89969047D01*
X139623143Y-90016666D01*
X139670762Y-90064285D01*
X139718381Y-90159523D01*
X139718381Y-90350000D01*
X139670762Y-90445238D01*
X139670762Y-89588095D02*
X139718381Y-89492857D01*
X139718381Y-89302381D01*
X139670762Y-89207142D01*
X139575524Y-89159523D01*
X139527905Y-89159523D01*
X139432667Y-89207142D01*
X139385048Y-89302381D01*
X139385048Y-89445238D01*
X139337429Y-89540476D01*
X139242190Y-89588095D01*
X139194571Y-89588095D01*
X139099333Y-89540476D01*
X139051714Y-89445238D01*
X139051714Y-89302381D01*
X139099333Y-89207142D01*
X139718381Y-88207142D02*
X139718381Y-88778571D01*
X139718381Y-88492857D02*
X138718381Y-88492857D01*
X138861238Y-88588095D01*
X138956476Y-88683333D01*
X139004095Y-88778571D01*
X117218381Y-113583333D02*
X117932667Y-113583333D01*
X118075524Y-113630953D01*
X118170762Y-113726191D01*
X118218381Y-113869048D01*
X118218381Y-113964286D01*
X118218381Y-113107143D02*
X117218381Y-113107143D01*
X117218381Y-112726190D01*
X117266000Y-112630952D01*
X117313619Y-112583333D01*
X117408857Y-112535714D01*
X117551714Y-112535714D01*
X117646952Y-112583333D01*
X117694571Y-112630952D01*
X117742190Y-112726190D01*
X117742190Y-113107143D01*
X118218381Y-111583333D02*
X118218381Y-112154762D01*
X118218381Y-111869048D02*
X117218381Y-111869048D01*
X117361238Y-111964286D01*
X117456476Y-112059524D01*
X117504095Y-112154762D01*
X128418381Y-109630953D02*
X127418381Y-109630953D01*
X127418381Y-109250000D01*
X127466000Y-109154762D01*
X127513619Y-109107143D01*
X127608857Y-109059524D01*
X127751714Y-109059524D01*
X127846952Y-109107143D01*
X127894571Y-109154762D01*
X127942190Y-109250000D01*
X127942190Y-109630953D01*
X128418381Y-108488096D02*
X128370762Y-108583334D01*
X128275524Y-108630953D01*
X127418381Y-108630953D01*
X128370762Y-107726190D02*
X128418381Y-107821428D01*
X128418381Y-108011905D01*
X128370762Y-108107143D01*
X128275524Y-108154762D01*
X127894571Y-108154762D01*
X127799333Y-108107143D01*
X127751714Y-108011905D01*
X127751714Y-107821428D01*
X127799333Y-107726190D01*
X127894571Y-107678571D01*
X127989810Y-107678571D01*
X128085048Y-108154762D01*
X128418381Y-106821428D02*
X127418381Y-106821428D01*
X128370762Y-106821428D02*
X128418381Y-106916666D01*
X128418381Y-107107143D01*
X128370762Y-107202381D01*
X128323143Y-107250000D01*
X128227905Y-107297619D01*
X127942190Y-107297619D01*
X127846952Y-107250000D01*
X127799333Y-107202381D01*
X127751714Y-107107143D01*
X127751714Y-106916666D01*
X127799333Y-106821428D01*
X128418381Y-105821428D02*
X128418381Y-106392857D01*
X128418381Y-106107143D02*
X127418381Y-106107143D01*
X127561238Y-106202381D01*
X127656476Y-106297619D01*
X127704095Y-106392857D01*
X140218381Y-102454762D02*
X139742190Y-102788096D01*
X140218381Y-103026191D02*
X139218381Y-103026191D01*
X139218381Y-102645238D01*
X139266000Y-102550000D01*
X139313619Y-102502381D01*
X139408857Y-102454762D01*
X139551714Y-102454762D01*
X139646952Y-102502381D01*
X139694571Y-102550000D01*
X139742190Y-102645238D01*
X139742190Y-103026191D01*
X139551714Y-102169048D02*
X139551714Y-101788096D01*
X140218381Y-102026191D02*
X139361238Y-102026191D01*
X139266000Y-101978572D01*
X139218381Y-101883334D01*
X139218381Y-101788096D01*
X140218381Y-101454762D02*
X139218381Y-101454762D01*
X139599333Y-101454762D02*
X139551714Y-101359524D01*
X139551714Y-101169047D01*
X139599333Y-101073809D01*
X139646952Y-101026190D01*
X139742190Y-100978571D01*
X140027905Y-100978571D01*
X140123143Y-101026190D01*
X140170762Y-101073809D01*
X140218381Y-101169047D01*
X140218381Y-101359524D01*
X140170762Y-101454762D01*
X140218381Y-100026190D02*
X140218381Y-100597619D01*
X140218381Y-100311905D02*
X139218381Y-100311905D01*
X139361238Y-100407143D01*
X139456476Y-100502381D01*
X139504095Y-100597619D01*
X135061238Y-105402381D02*
X134727904Y-104926190D01*
X134489809Y-105402381D02*
X134489809Y-104402381D01*
X134870762Y-104402381D01*
X134966000Y-104450000D01*
X135013619Y-104497619D01*
X135061238Y-104592857D01*
X135061238Y-104735714D01*
X135013619Y-104830952D01*
X134966000Y-104878571D01*
X134870762Y-104926190D01*
X134489809Y-104926190D01*
X135346952Y-104735714D02*
X135727904Y-104735714D01*
X135489809Y-105402381D02*
X135489809Y-104545238D01*
X135537428Y-104450000D01*
X135632666Y-104402381D01*
X135727904Y-104402381D01*
X136061238Y-105402381D02*
X136061238Y-104402381D01*
X136061238Y-104783333D02*
X136156476Y-104735714D01*
X136346953Y-104735714D01*
X136442191Y-104783333D01*
X136489810Y-104830952D01*
X136537429Y-104926190D01*
X136537429Y-105211905D01*
X136489810Y-105307143D01*
X136442191Y-105354762D01*
X136346953Y-105402381D01*
X136156476Y-105402381D01*
X136061238Y-105354762D01*
X136918381Y-104497619D02*
X136966000Y-104450000D01*
X137061238Y-104402381D01*
X137299334Y-104402381D01*
X137394572Y-104450000D01*
X137442191Y-104497619D01*
X137489810Y-104592857D01*
X137489810Y-104688095D01*
X137442191Y-104830952D01*
X136870762Y-105402381D01*
X137489810Y-105402381D01*
X131318381Y-99454762D02*
X130842190Y-99788096D01*
X131318381Y-100026191D02*
X130318381Y-100026191D01*
X130318381Y-99645238D01*
X130366000Y-99550000D01*
X130413619Y-99502381D01*
X130508857Y-99454762D01*
X130651714Y-99454762D01*
X130746952Y-99502381D01*
X130794571Y-99550000D01*
X130842190Y-99645238D01*
X130842190Y-100026191D01*
X130651714Y-99169048D02*
X130651714Y-98788096D01*
X131318381Y-99026191D02*
X130461238Y-99026191D01*
X130366000Y-98978572D01*
X130318381Y-98883334D01*
X130318381Y-98788096D01*
X131318381Y-98454762D02*
X130318381Y-98454762D01*
X130699333Y-98454762D02*
X130651714Y-98359524D01*
X130651714Y-98169047D01*
X130699333Y-98073809D01*
X130746952Y-98026190D01*
X130842190Y-97978571D01*
X131127905Y-97978571D01*
X131223143Y-98026190D01*
X131270762Y-98073809D01*
X131318381Y-98169047D01*
X131318381Y-98359524D01*
X131270762Y-98454762D01*
X130318381Y-97645238D02*
X130318381Y-97026190D01*
X130699333Y-97359524D01*
X130699333Y-97216666D01*
X130746952Y-97121428D01*
X130794571Y-97073809D01*
X130889810Y-97026190D01*
X131127905Y-97026190D01*
X131223143Y-97073809D01*
X131270762Y-97121428D01*
X131318381Y-97216666D01*
X131318381Y-97502381D01*
X131270762Y-97597619D01*
X131223143Y-97645238D01*
X119132667Y-88402381D02*
X119132667Y-89116667D01*
X119085047Y-89259524D01*
X118989809Y-89354762D01*
X118846952Y-89402381D01*
X118751714Y-89402381D01*
X119608857Y-89402381D02*
X119608857Y-88402381D01*
X119989810Y-88402381D01*
X120085048Y-88450000D01*
X120132667Y-88497619D01*
X120180286Y-88592857D01*
X120180286Y-88735714D01*
X120132667Y-88830952D01*
X120085048Y-88878571D01*
X119989810Y-88926190D01*
X119608857Y-88926190D01*
X120513619Y-88402381D02*
X121132667Y-88402381D01*
X120799333Y-88783333D01*
X120942191Y-88783333D01*
X121037429Y-88830952D01*
X121085048Y-88878571D01*
X121132667Y-88973810D01*
X121132667Y-89211905D01*
X121085048Y-89307143D01*
X121037429Y-89354762D01*
X120942191Y-89402381D01*
X120656476Y-89402381D01*
X120561238Y-89354762D01*
X120513619Y-89307143D01*
X134942190Y-97007143D02*
X134894571Y-97054762D01*
X134751714Y-97102381D01*
X134656476Y-97102381D01*
X134513618Y-97054762D01*
X134418380Y-96959524D01*
X134370761Y-96864286D01*
X134323142Y-96673810D01*
X134323142Y-96530952D01*
X134370761Y-96340476D01*
X134418380Y-96245238D01*
X134513618Y-96150000D01*
X134656476Y-96102381D01*
X134751714Y-96102381D01*
X134894571Y-96150000D01*
X134942190Y-96197619D01*
X135275523Y-96435714D02*
X135513618Y-97102381D01*
X135751714Y-96435714D01*
X135989809Y-96435714D02*
X136370761Y-96435714D01*
X136132666Y-97102381D02*
X136132666Y-96245238D01*
X136180285Y-96150000D01*
X136275523Y-96102381D01*
X136370761Y-96102381D01*
X136704095Y-97102381D02*
X136704095Y-96102381D01*
X136704095Y-96483333D02*
X136799333Y-96435714D01*
X136989810Y-96435714D01*
X137085048Y-96483333D01*
X137132667Y-96530952D01*
X137180286Y-96626190D01*
X137180286Y-96911905D01*
X137132667Y-97007143D01*
X137085048Y-97054762D01*
X136989810Y-97102381D01*
X136799333Y-97102381D01*
X136704095Y-97054762D01*
X138037429Y-97102381D02*
X138037429Y-96578571D01*
X137989810Y-96483333D01*
X137894572Y-96435714D01*
X137704095Y-96435714D01*
X137608857Y-96483333D01*
X138037429Y-97054762D02*
X137942191Y-97102381D01*
X137704095Y-97102381D01*
X137608857Y-97054762D01*
X137561238Y-96959524D01*
X137561238Y-96864286D01*
X137608857Y-96769048D01*
X137704095Y-96721429D01*
X137942191Y-96721429D01*
X138037429Y-96673810D01*
X138370762Y-96435714D02*
X138751714Y-96435714D01*
X138513619Y-96102381D02*
X138513619Y-96959524D01*
X138561238Y-97054762D01*
X138656476Y-97102381D01*
X138751714Y-97102381D01*
X139608858Y-97102381D02*
X139037429Y-97102381D01*
X139323143Y-97102381D02*
X139323143Y-96102381D01*
X139227905Y-96245238D01*
X139132667Y-96340476D01*
X139037429Y-96388095D01*
X154178857Y-74221143D02*
X154131238Y-74268762D01*
X153988381Y-74316381D01*
X153893143Y-74316381D01*
X153750285Y-74268762D01*
X153655047Y-74173524D01*
X153607428Y-74078286D01*
X153559809Y-73887810D01*
X153559809Y-73744952D01*
X153607428Y-73554476D01*
X153655047Y-73459238D01*
X153750285Y-73364000D01*
X153893143Y-73316381D01*
X153988381Y-73316381D01*
X154131238Y-73364000D01*
X154178857Y-73411619D01*
X154607428Y-74316381D02*
X154607428Y-73316381D01*
X154607428Y-73697333D02*
X154702666Y-73649714D01*
X154893143Y-73649714D01*
X154988381Y-73697333D01*
X155036000Y-73744952D01*
X155083619Y-73840190D01*
X155083619Y-74125905D01*
X155036000Y-74221143D01*
X154988381Y-74268762D01*
X154893143Y-74316381D01*
X154702666Y-74316381D01*
X154607428Y-74268762D01*
X155940762Y-74316381D02*
X155940762Y-73792571D01*
X155893143Y-73697333D01*
X155797905Y-73649714D01*
X155607428Y-73649714D01*
X155512190Y-73697333D01*
X155940762Y-74268762D02*
X155845524Y-74316381D01*
X155607428Y-74316381D01*
X155512190Y-74268762D01*
X155464571Y-74173524D01*
X155464571Y-74078286D01*
X155512190Y-73983048D01*
X155607428Y-73935429D01*
X155845524Y-73935429D01*
X155940762Y-73887810D01*
X156274095Y-73649714D02*
X156655047Y-73649714D01*
X156416952Y-73316381D02*
X156416952Y-74173524D01*
X156464571Y-74268762D01*
X156559809Y-74316381D01*
X156655047Y-74316381D01*
X157512191Y-74316381D02*
X156940762Y-74316381D01*
X157226476Y-74316381D02*
X157226476Y-73316381D01*
X157131238Y-73459238D01*
X157036000Y-73554476D01*
X156940762Y-73602095D01*
X144723143Y-94616666D02*
X144770762Y-94664285D01*
X144818381Y-94807142D01*
X144818381Y-94902380D01*
X144770762Y-95045238D01*
X144675524Y-95140476D01*
X144580286Y-95188095D01*
X144389810Y-95235714D01*
X144246952Y-95235714D01*
X144056476Y-95188095D01*
X143961238Y-95140476D01*
X143866000Y-95045238D01*
X143818381Y-94902380D01*
X143818381Y-94807142D01*
X143866000Y-94664285D01*
X143913619Y-94616666D01*
X143818381Y-94283333D02*
X143818381Y-93664285D01*
X144199333Y-93997619D01*
X144199333Y-93854761D01*
X144246952Y-93759523D01*
X144294571Y-93711904D01*
X144389810Y-93664285D01*
X144627905Y-93664285D01*
X144723143Y-93711904D01*
X144770762Y-93759523D01*
X144818381Y-93854761D01*
X144818381Y-94140476D01*
X144770762Y-94235714D01*
X144723143Y-94283333D01*
X131323143Y-114178571D02*
X131370762Y-114226190D01*
X131418381Y-114369047D01*
X131418381Y-114464285D01*
X131370762Y-114607143D01*
X131275524Y-114702381D01*
X131180286Y-114750000D01*
X130989810Y-114797619D01*
X130846952Y-114797619D01*
X130656476Y-114750000D01*
X130561238Y-114702381D01*
X130466000Y-114607143D01*
X130418381Y-114464285D01*
X130418381Y-114369047D01*
X130466000Y-114226190D01*
X130513619Y-114178571D01*
X130751714Y-113892857D02*
X130751714Y-113511905D01*
X130418381Y-113750000D02*
X131275524Y-113750000D01*
X131370762Y-113702381D01*
X131418381Y-113607143D01*
X131418381Y-113511905D01*
X131418381Y-113178571D02*
X130751714Y-113178571D01*
X130846952Y-113178571D02*
X130799333Y-113130952D01*
X130751714Y-113035714D01*
X130751714Y-112892856D01*
X130799333Y-112797618D01*
X130894571Y-112749999D01*
X131418381Y-112749999D01*
X130894571Y-112749999D02*
X130799333Y-112702380D01*
X130751714Y-112607142D01*
X130751714Y-112464285D01*
X130799333Y-112369047D01*
X130894571Y-112321428D01*
X131418381Y-112321428D01*
X131418381Y-111845238D02*
X130751714Y-111845238D01*
X130942190Y-111845238D02*
X130846952Y-111797619D01*
X130799333Y-111750000D01*
X130751714Y-111654762D01*
X130751714Y-111559523D01*
X131418381Y-110702380D02*
X131418381Y-111273809D01*
X131418381Y-110988095D02*
X130418381Y-110988095D01*
X130561238Y-111083333D01*
X130656476Y-111178571D01*
X130704095Y-111273809D01*
X128427905Y-83007143D02*
X128380286Y-83054762D01*
X128237429Y-83102381D01*
X128142191Y-83102381D01*
X127999333Y-83054762D01*
X127904095Y-82959524D01*
X127856476Y-82864286D01*
X127808857Y-82673810D01*
X127808857Y-82530952D01*
X127856476Y-82340476D01*
X127904095Y-82245238D01*
X127999333Y-82150000D01*
X128142191Y-82102381D01*
X128237429Y-82102381D01*
X128380286Y-82150000D01*
X128427905Y-82197619D01*
X128761238Y-82435714D02*
X128999333Y-83102381D01*
X129237429Y-82435714D01*
X129618381Y-83102381D02*
X129618381Y-82435714D01*
X129618381Y-82102381D02*
X129570762Y-82150000D01*
X129618381Y-82197619D01*
X129666000Y-82150000D01*
X129618381Y-82102381D01*
X129618381Y-82197619D01*
X130094571Y-82435714D02*
X130094571Y-83102381D01*
X130094571Y-82530952D02*
X130142190Y-82483333D01*
X130237428Y-82435714D01*
X130380286Y-82435714D01*
X130475524Y-82483333D01*
X130523143Y-82578571D01*
X130523143Y-83102381D01*
X130951714Y-82197619D02*
X130999333Y-82150000D01*
X131094571Y-82102381D01*
X131332667Y-82102381D01*
X131427905Y-82150000D01*
X131475524Y-82197619D01*
X131523143Y-82292857D01*
X131523143Y-82388095D01*
X131475524Y-82530952D01*
X130904095Y-83102381D01*
X131523143Y-83102381D01*
X137318381Y-70664286D02*
X136318381Y-70664286D01*
X136318381Y-70283333D01*
X136366000Y-70188095D01*
X136413619Y-70140476D01*
X136508857Y-70092857D01*
X136651714Y-70092857D01*
X136746952Y-70140476D01*
X136794571Y-70188095D01*
X136842190Y-70283333D01*
X136842190Y-70664286D01*
X137270762Y-69711905D02*
X137318381Y-69616667D01*
X137318381Y-69426191D01*
X137270762Y-69330952D01*
X137175524Y-69283333D01*
X137127905Y-69283333D01*
X137032667Y-69330952D01*
X136985048Y-69426191D01*
X136985048Y-69569048D01*
X136937429Y-69664286D01*
X136842190Y-69711905D01*
X136794571Y-69711905D01*
X136699333Y-69664286D01*
X136651714Y-69569048D01*
X136651714Y-69426191D01*
X136699333Y-69330952D01*
X137318381Y-68711905D02*
X137270762Y-68807143D01*
X137175524Y-68854762D01*
X136318381Y-68854762D01*
X137318381Y-68330952D02*
X136651714Y-68330952D01*
X136842190Y-68330952D02*
X136746952Y-68283333D01*
X136699333Y-68235714D01*
X136651714Y-68140476D01*
X136651714Y-68045237D01*
X137318381Y-67188094D02*
X137318381Y-67759523D01*
X137318381Y-67473809D02*
X136318381Y-67473809D01*
X136461238Y-67569047D01*
X136556476Y-67664285D01*
X136604095Y-67759523D01*
X117618381Y-94188095D02*
X116618381Y-94188095D01*
X116618381Y-93950000D01*
X116666000Y-93807142D01*
X116761238Y-93711904D01*
X116856476Y-93664285D01*
X117046952Y-93616666D01*
X117189810Y-93616666D01*
X117380286Y-93664285D01*
X117475524Y-93711904D01*
X117570762Y-93807142D01*
X117618381Y-93950000D01*
X117618381Y-94188095D01*
X117618381Y-92664285D02*
X117618381Y-93235714D01*
X117618381Y-92950000D02*
X116618381Y-92950000D01*
X116761238Y-93045238D01*
X116856476Y-93140476D01*
X116904095Y-93235714D01*
D10*
X116625048Y-90536190D02*
X116625048Y-90036190D01*
X116910762Y-90536190D02*
X116696476Y-90250476D01*
X116910762Y-90036190D02*
X116625048Y-90321905D01*
D11*
X117618381Y-100188095D02*
X116618381Y-100188095D01*
X116618381Y-99950000D01*
X116666000Y-99807142D01*
X116761238Y-99711904D01*
X116856476Y-99664285D01*
X117046952Y-99616666D01*
X117189810Y-99616666D01*
X117380286Y-99664285D01*
X117475524Y-99711904D01*
X117570762Y-99807142D01*
X117618381Y-99950000D01*
X117618381Y-100188095D01*
X116713619Y-99235714D02*
X116666000Y-99188095D01*
X116618381Y-99092857D01*
X116618381Y-98854761D01*
X116666000Y-98759523D01*
X116713619Y-98711904D01*
X116808857Y-98664285D01*
X116904095Y-98664285D01*
X117046952Y-98711904D01*
X117618381Y-99283333D01*
X117618381Y-98664285D01*
D10*
X116625048Y-96536190D02*
X116625048Y-96036190D01*
X116910762Y-96536190D02*
X116696476Y-96250476D01*
X116910762Y-96036190D02*
X116625048Y-96321905D01*
D11*
X149418381Y-96752381D02*
X150132667Y-96752381D01*
X150275524Y-96800001D01*
X150370762Y-96895239D01*
X150418381Y-97038096D01*
X150418381Y-97133334D01*
X150418381Y-96276191D02*
X149418381Y-96276191D01*
X149418381Y-95895238D01*
X149466000Y-95800000D01*
X149513619Y-95752381D01*
X149608857Y-95704762D01*
X149751714Y-95704762D01*
X149846952Y-95752381D01*
X149894571Y-95800000D01*
X149942190Y-95895238D01*
X149942190Y-96276191D01*
X150418381Y-95133334D02*
X150370762Y-95228572D01*
X150275524Y-95276191D01*
X149418381Y-95276191D01*
X150418381Y-94609524D02*
X150370762Y-94704762D01*
X150323143Y-94752381D01*
X150227905Y-94800000D01*
X149942190Y-94800000D01*
X149846952Y-94752381D01*
X149799333Y-94704762D01*
X149751714Y-94609524D01*
X149751714Y-94466666D01*
X149799333Y-94371428D01*
X149846952Y-94323809D01*
X149942190Y-94276190D01*
X150227905Y-94276190D01*
X150323143Y-94323809D01*
X150370762Y-94371428D01*
X150418381Y-94466666D01*
X150418381Y-94609524D01*
X150418381Y-93419047D02*
X149894571Y-93419047D01*
X149799333Y-93466666D01*
X149751714Y-93561904D01*
X149751714Y-93752381D01*
X149799333Y-93847619D01*
X150370762Y-93419047D02*
X150418381Y-93514285D01*
X150418381Y-93752381D01*
X150370762Y-93847619D01*
X150275524Y-93895238D01*
X150180286Y-93895238D01*
X150085048Y-93847619D01*
X150037429Y-93752381D01*
X150037429Y-93514285D01*
X149989810Y-93419047D01*
X150418381Y-92514285D02*
X149418381Y-92514285D01*
X150370762Y-92514285D02*
X150418381Y-92609523D01*
X150418381Y-92800000D01*
X150370762Y-92895238D01*
X150323143Y-92942857D01*
X150227905Y-92990476D01*
X149942190Y-92990476D01*
X149846952Y-92942857D01*
X149799333Y-92895238D01*
X149751714Y-92800000D01*
X149751714Y-92609523D01*
X149799333Y-92514285D01*
X150418381Y-91514285D02*
X150418381Y-92085714D01*
X150418381Y-91800000D02*
X149418381Y-91800000D01*
X149561238Y-91895238D01*
X149656476Y-91990476D01*
X149704095Y-92085714D01*
X129018381Y-70664286D02*
X128018381Y-70664286D01*
X128018381Y-70283333D01*
X128066000Y-70188095D01*
X128113619Y-70140476D01*
X128208857Y-70092857D01*
X128351714Y-70092857D01*
X128446952Y-70140476D01*
X128494571Y-70188095D01*
X128542190Y-70283333D01*
X128542190Y-70664286D01*
X128970762Y-69711905D02*
X129018381Y-69616667D01*
X129018381Y-69426191D01*
X128970762Y-69330952D01*
X128875524Y-69283333D01*
X128827905Y-69283333D01*
X128732667Y-69330952D01*
X128685048Y-69426191D01*
X128685048Y-69569048D01*
X128637429Y-69664286D01*
X128542190Y-69711905D01*
X128494571Y-69711905D01*
X128399333Y-69664286D01*
X128351714Y-69569048D01*
X128351714Y-69426191D01*
X128399333Y-69330952D01*
X129018381Y-68711905D02*
X128970762Y-68807143D01*
X128875524Y-68854762D01*
X128018381Y-68854762D01*
X129018381Y-68330952D02*
X128351714Y-68330952D01*
X128542190Y-68330952D02*
X128446952Y-68283333D01*
X128399333Y-68235714D01*
X128351714Y-68140476D01*
X128351714Y-68045237D01*
X128113619Y-67759523D02*
X128066000Y-67711904D01*
X128018381Y-67616666D01*
X128018381Y-67378570D01*
X128066000Y-67283332D01*
X128113619Y-67235713D01*
X128208857Y-67188094D01*
X128304095Y-67188094D01*
X128446952Y-67235713D01*
X129018381Y-67807142D01*
X129018381Y-67188094D01*
X122418381Y-87278571D02*
X121942190Y-87611905D01*
X122418381Y-87850000D02*
X121418381Y-87850000D01*
X121418381Y-87469047D01*
X121466000Y-87373809D01*
X121513619Y-87326190D01*
X121608857Y-87278571D01*
X121751714Y-87278571D01*
X121846952Y-87326190D01*
X121894571Y-87373809D01*
X121942190Y-87469047D01*
X121942190Y-87850000D01*
X122370762Y-86897619D02*
X122418381Y-86802381D01*
X122418381Y-86611905D01*
X122370762Y-86516666D01*
X122275524Y-86469047D01*
X122227905Y-86469047D01*
X122132667Y-86516666D01*
X122085048Y-86611905D01*
X122085048Y-86754762D01*
X122037429Y-86850000D01*
X121942190Y-86897619D01*
X121894571Y-86897619D01*
X121799333Y-86850000D01*
X121751714Y-86754762D01*
X121751714Y-86611905D01*
X121799333Y-86516666D01*
X122418381Y-86040476D02*
X121418381Y-86040476D01*
X122418381Y-85611904D02*
X121894571Y-85611904D01*
X121799333Y-85659523D01*
X121751714Y-85754761D01*
X121751714Y-85897619D01*
X121799333Y-85992857D01*
X121846952Y-86040476D01*
X122418381Y-84707142D02*
X121418381Y-84707142D01*
X122370762Y-84707142D02*
X122418381Y-84802380D01*
X122418381Y-84992857D01*
X122370762Y-85088095D01*
X122323143Y-85135714D01*
X122227905Y-85183333D01*
X121942190Y-85183333D01*
X121846952Y-85135714D01*
X121799333Y-85088095D01*
X121751714Y-84992857D01*
X121751714Y-84802380D01*
X121799333Y-84707142D01*
X121751714Y-84230952D02*
X122418381Y-84230952D01*
X121846952Y-84230952D02*
X121799333Y-84183333D01*
X121751714Y-84088095D01*
X121751714Y-83945237D01*
X121799333Y-83849999D01*
X121894571Y-83802380D01*
X122418381Y-83802380D01*
X122418381Y-82802380D02*
X122418381Y-83373809D01*
X122418381Y-83088095D02*
X121418381Y-83088095D01*
X121561238Y-83183333D01*
X121656476Y-83278571D01*
X121704095Y-83373809D01*
X122318381Y-78959524D02*
X121842190Y-79292858D01*
X122318381Y-79530953D02*
X121318381Y-79530953D01*
X121318381Y-79150000D01*
X121366000Y-79054762D01*
X121413619Y-79007143D01*
X121508857Y-78959524D01*
X121651714Y-78959524D01*
X121746952Y-79007143D01*
X121794571Y-79054762D01*
X121842190Y-79150000D01*
X121842190Y-79530953D01*
X121651714Y-78626191D02*
X122318381Y-78388096D01*
X121651714Y-78150000D01*
X122318381Y-77769048D02*
X121651714Y-77769048D01*
X121842190Y-77769048D02*
X121746952Y-77721429D01*
X121699333Y-77673810D01*
X121651714Y-77578572D01*
X121651714Y-77483333D01*
X121651714Y-76721428D02*
X122461238Y-76721428D01*
X122556476Y-76769047D01*
X122604095Y-76816666D01*
X122651714Y-76911905D01*
X122651714Y-77054762D01*
X122604095Y-77150000D01*
X122270762Y-76721428D02*
X122318381Y-76816666D01*
X122318381Y-77007143D01*
X122270762Y-77102381D01*
X122223143Y-77150000D01*
X122127905Y-77197619D01*
X121842190Y-77197619D01*
X121746952Y-77150000D01*
X121699333Y-77102381D01*
X121651714Y-77007143D01*
X121651714Y-76816666D01*
X121699333Y-76721428D01*
X122318381Y-75721428D02*
X122318381Y-76292857D01*
X122318381Y-76007143D02*
X121318381Y-76007143D01*
X121461238Y-76102381D01*
X121556476Y-76197619D01*
X121604095Y-76292857D01*
X148318381Y-93821429D02*
X147318381Y-93821429D01*
X147318381Y-93583334D01*
X147366000Y-93440476D01*
X147461238Y-93345238D01*
X147556476Y-93297619D01*
X147746952Y-93250000D01*
X147889810Y-93250000D01*
X148080286Y-93297619D01*
X148175524Y-93345238D01*
X148270762Y-93440476D01*
X148318381Y-93583334D01*
X148318381Y-93821429D01*
X148318381Y-92821429D02*
X147318381Y-92821429D01*
X147699333Y-92821429D02*
X147651714Y-92726191D01*
X147651714Y-92535714D01*
X147699333Y-92440476D01*
X147746952Y-92392857D01*
X147842190Y-92345238D01*
X148127905Y-92345238D01*
X148223143Y-92392857D01*
X148270762Y-92440476D01*
X148318381Y-92535714D01*
X148318381Y-92726191D01*
X148270762Y-92821429D01*
X148318381Y-91488095D02*
X147794571Y-91488095D01*
X147699333Y-91535714D01*
X147651714Y-91630952D01*
X147651714Y-91821429D01*
X147699333Y-91916667D01*
X148270762Y-91488095D02*
X148318381Y-91583333D01*
X148318381Y-91821429D01*
X148270762Y-91916667D01*
X148175524Y-91964286D01*
X148080286Y-91964286D01*
X147985048Y-91916667D01*
X147937429Y-91821429D01*
X147937429Y-91583333D01*
X147889810Y-91488095D01*
X147651714Y-91154762D02*
X147651714Y-90773810D01*
X147318381Y-91011905D02*
X148175524Y-91011905D01*
X148270762Y-90964286D01*
X148318381Y-90869048D01*
X148318381Y-90773810D01*
X148318381Y-90440476D02*
X147318381Y-90440476D01*
X147699333Y-90440476D02*
X147651714Y-90345238D01*
X147651714Y-90154761D01*
X147699333Y-90059523D01*
X147746952Y-90011904D01*
X147842190Y-89964285D01*
X148127905Y-89964285D01*
X148223143Y-90011904D01*
X148270762Y-90059523D01*
X148318381Y-90154761D01*
X148318381Y-90345238D01*
X148270762Y-90440476D01*
X148270762Y-89583333D02*
X148318381Y-89488095D01*
X148318381Y-89297619D01*
X148270762Y-89202380D01*
X148175524Y-89154761D01*
X148127905Y-89154761D01*
X148032667Y-89202380D01*
X147985048Y-89297619D01*
X147985048Y-89440476D01*
X147937429Y-89535714D01*
X147842190Y-89583333D01*
X147794571Y-89583333D01*
X147699333Y-89535714D01*
X147651714Y-89440476D01*
X147651714Y-89297619D01*
X147699333Y-89202380D01*
X147651714Y-88869047D02*
X147651714Y-88488095D01*
X147318381Y-88726190D02*
X148175524Y-88726190D01*
X148270762Y-88678571D01*
X148318381Y-88583333D01*
X148318381Y-88488095D01*
X148318381Y-87630951D02*
X148318381Y-88202380D01*
X148318381Y-87916666D02*
X147318381Y-87916666D01*
X147461238Y-88011904D01*
X147556476Y-88107142D01*
X147604095Y-88202380D01*
D10*
X141616001Y-101016667D02*
X141616001Y-100316667D01*
X141782667Y-100316667D01*
X141882667Y-100350000D01*
X141949334Y-100416667D01*
X141982667Y-100483333D01*
X142016001Y-100616667D01*
X142016001Y-100716667D01*
X141982667Y-100850000D01*
X141949334Y-100916667D01*
X141882667Y-100983333D01*
X141782667Y-101016667D01*
X141616001Y-101016667D01*
X142316001Y-101016667D02*
X142316001Y-100316667D01*
X142316001Y-100583333D02*
X142382667Y-100550000D01*
X142516001Y-100550000D01*
X142582667Y-100583333D01*
X142616001Y-100616667D01*
X142649334Y-100683333D01*
X142649334Y-100883333D01*
X142616001Y-100950000D01*
X142582667Y-100983333D01*
X142516001Y-101016667D01*
X142382667Y-101016667D01*
X142316001Y-100983333D01*
X143249334Y-101016667D02*
X143249334Y-100650000D01*
X143216000Y-100583333D01*
X143149334Y-100550000D01*
X143016000Y-100550000D01*
X142949334Y-100583333D01*
X143249334Y-100983333D02*
X143182667Y-101016667D01*
X143016000Y-101016667D01*
X142949334Y-100983333D01*
X142916000Y-100916667D01*
X142916000Y-100850000D01*
X142949334Y-100783333D01*
X143016000Y-100750000D01*
X143182667Y-100750000D01*
X143249334Y-100716667D01*
X143482667Y-100550000D02*
X143749333Y-100550000D01*
X143582667Y-100316667D02*
X143582667Y-100916667D01*
X143616000Y-100983333D01*
X143682667Y-101016667D01*
X143749333Y-101016667D01*
X144349333Y-101016667D02*
X143949333Y-101016667D01*
X144149333Y-101016667D02*
X144149333Y-100316667D01*
X144082667Y-100416667D01*
X144016000Y-100483333D01*
X143949333Y-100516667D01*
X131899334Y-86016667D02*
X131899334Y-85316667D01*
X132066000Y-85316667D01*
X132166000Y-85350000D01*
X132232667Y-85416667D01*
X132266000Y-85483333D01*
X132299334Y-85616667D01*
X132299334Y-85716667D01*
X132266000Y-85850000D01*
X132232667Y-85916667D01*
X132166000Y-85983333D01*
X132066000Y-86016667D01*
X131899334Y-86016667D01*
X132499334Y-85550000D02*
X132766000Y-85550000D01*
X132599334Y-86016667D02*
X132599334Y-85416667D01*
X132632667Y-85350000D01*
X132699334Y-85316667D01*
X132766000Y-85316667D01*
X133099334Y-86016667D02*
X133032667Y-85983333D01*
X132999334Y-85916667D01*
X132999334Y-85316667D01*
X133299334Y-85550000D02*
X133466001Y-86016667D01*
X133632667Y-85550000D02*
X133466001Y-86016667D01*
X133399334Y-86183333D01*
X133366001Y-86216667D01*
X133299334Y-86250000D01*
X133899334Y-86016667D02*
X133899334Y-85316667D01*
X133899334Y-85583333D02*
X133966000Y-85550000D01*
X134099334Y-85550000D01*
X134166000Y-85583333D01*
X134199334Y-85616667D01*
X134232667Y-85683333D01*
X134232667Y-85883333D01*
X134199334Y-85950000D01*
X134166000Y-85983333D01*
X134099334Y-86016667D01*
X133966000Y-86016667D01*
X133899334Y-85983333D01*
X134532667Y-86016667D02*
X134532667Y-85316667D01*
X134599333Y-85750000D02*
X134799333Y-86016667D01*
X134799333Y-85550000D02*
X134532667Y-85816667D01*
X135466000Y-86016667D02*
X135066000Y-86016667D01*
X135266000Y-86016667D02*
X135266000Y-85316667D01*
X135199334Y-85416667D01*
X135132667Y-85483333D01*
X135066000Y-85516667D01*
X129399334Y-72216667D02*
X129399334Y-71516667D01*
X129566000Y-71516667D01*
X129666000Y-71550000D01*
X129732667Y-71616667D01*
X129766000Y-71683333D01*
X129799334Y-71816667D01*
X129799334Y-71916667D01*
X129766000Y-72050000D01*
X129732667Y-72116667D01*
X129666000Y-72183333D01*
X129566000Y-72216667D01*
X129399334Y-72216667D01*
X130032667Y-71750000D02*
X130199334Y-72216667D01*
X130366000Y-71750000D01*
X130632667Y-72216667D02*
X130632667Y-71750000D01*
X130632667Y-71516667D02*
X130599333Y-71550000D01*
X130632667Y-71583333D01*
X130666000Y-71550000D01*
X130632667Y-71516667D01*
X130632667Y-71583333D01*
X130966000Y-71750000D02*
X130966000Y-72216667D01*
X130966000Y-71816667D02*
X130999333Y-71783333D01*
X131066000Y-71750000D01*
X131166000Y-71750000D01*
X131232666Y-71783333D01*
X131266000Y-71850000D01*
X131266000Y-72216667D01*
X131965999Y-72216667D02*
X131565999Y-72216667D01*
X131765999Y-72216667D02*
X131765999Y-71516667D01*
X131699333Y-71616667D01*
X131632666Y-71683333D01*
X131565999Y-71716667D01*
X143055286Y-104821428D02*
X143805286Y-104642857D01*
X143269571Y-104500000D01*
X143805286Y-104357142D01*
X143055286Y-104178571D01*
X143805286Y-103892857D02*
X143055286Y-103892857D01*
X143341000Y-103892857D02*
X143305286Y-103821428D01*
X143305286Y-103678571D01*
X143341000Y-103607142D01*
X143376714Y-103571428D01*
X143448143Y-103535714D01*
X143662429Y-103535714D01*
X143733857Y-103571428D01*
X143769571Y-103607142D01*
X143805286Y-103678571D01*
X143805286Y-103821428D01*
X143769571Y-103892857D01*
X143805286Y-102892857D02*
X143412429Y-102892857D01*
X143341000Y-102928571D01*
X143305286Y-103000000D01*
X143305286Y-103142857D01*
X143341000Y-103214286D01*
X143769571Y-102892857D02*
X143805286Y-102964286D01*
X143805286Y-103142857D01*
X143769571Y-103214286D01*
X143698143Y-103250000D01*
X143626714Y-103250000D01*
X143555286Y-103214286D01*
X143519571Y-103142857D01*
X143519571Y-102964286D01*
X143483857Y-102892857D01*
X143305286Y-102642857D02*
X143305286Y-102357143D01*
X143055286Y-102535715D02*
X143698143Y-102535715D01*
X143769571Y-102500000D01*
X143805286Y-102428572D01*
X143805286Y-102357143D01*
X143805286Y-101714286D02*
X143805286Y-102142858D01*
X143805286Y-101928572D02*
X143055286Y-101928572D01*
X143162429Y-102000001D01*
X143233857Y-102071429D01*
X143269571Y-102142858D01*
X149769572Y-67539286D02*
X149948143Y-68289286D01*
X150091000Y-67753571D01*
X150233858Y-68289286D01*
X150412429Y-67539286D01*
X151019572Y-67789286D02*
X151019572Y-68396429D01*
X150983858Y-68467857D01*
X150948143Y-68503571D01*
X150876715Y-68539286D01*
X150769572Y-68539286D01*
X150698143Y-68503571D01*
X151019572Y-68253571D02*
X150948143Y-68289286D01*
X150805286Y-68289286D01*
X150733858Y-68253571D01*
X150698143Y-68217857D01*
X150662429Y-68146429D01*
X150662429Y-67932143D01*
X150698143Y-67860714D01*
X150733858Y-67825000D01*
X150805286Y-67789286D01*
X150948143Y-67789286D01*
X151019572Y-67825000D01*
X151376714Y-67789286D02*
X151376714Y-68289286D01*
X151376714Y-67860714D02*
X151412429Y-67825000D01*
X151483857Y-67789286D01*
X151591000Y-67789286D01*
X151662429Y-67825000D01*
X151698143Y-67896429D01*
X151698143Y-68289286D01*
X152376714Y-68289286D02*
X152376714Y-67539286D01*
X152376714Y-68253571D02*
X152305285Y-68289286D01*
X152162428Y-68289286D01*
X152091000Y-68253571D01*
X152055285Y-68217857D01*
X152019571Y-68146429D01*
X152019571Y-67932143D01*
X152055285Y-67860714D01*
X152091000Y-67825000D01*
X152162428Y-67789286D01*
X152305285Y-67789286D01*
X152376714Y-67825000D01*
X153126714Y-68289286D02*
X152698142Y-68289286D01*
X152912428Y-68289286D02*
X152912428Y-67539286D01*
X152840999Y-67646429D01*
X152769571Y-67717857D01*
X152698142Y-67753571D01*
X125555286Y-87349999D02*
X126305286Y-87171428D01*
X125769571Y-87028571D01*
X126305286Y-86885713D01*
X125555286Y-86707142D01*
X126269571Y-86457142D02*
X126305286Y-86385713D01*
X126305286Y-86242856D01*
X126269571Y-86171428D01*
X126198143Y-86135713D01*
X126162429Y-86135713D01*
X126091000Y-86171428D01*
X126055286Y-86242856D01*
X126055286Y-86349999D01*
X126019571Y-86421428D01*
X125948143Y-86457142D01*
X125912429Y-86457142D01*
X125841000Y-86421428D01*
X125805286Y-86349999D01*
X125805286Y-86242856D01*
X125841000Y-86171428D01*
X126305286Y-85814285D02*
X125555286Y-85814285D01*
X126305286Y-85492856D02*
X125912429Y-85492856D01*
X125841000Y-85528570D01*
X125805286Y-85599999D01*
X125805286Y-85707142D01*
X125841000Y-85778570D01*
X125876714Y-85814285D01*
X126305286Y-84814285D02*
X125555286Y-84814285D01*
X126269571Y-84814285D02*
X126305286Y-84885714D01*
X126305286Y-85028571D01*
X126269571Y-85099999D01*
X126233857Y-85135714D01*
X126162429Y-85171428D01*
X125948143Y-85171428D01*
X125876714Y-85135714D01*
X125841000Y-85099999D01*
X125805286Y-85028571D01*
X125805286Y-84885714D01*
X125841000Y-84814285D01*
X125805286Y-84457143D02*
X126305286Y-84457143D01*
X125876714Y-84457143D02*
X125841000Y-84421428D01*
X125805286Y-84350000D01*
X125805286Y-84242857D01*
X125841000Y-84171428D01*
X125912429Y-84135714D01*
X126305286Y-84135714D01*
X126305286Y-83385714D02*
X126305286Y-83814286D01*
X126305286Y-83600000D02*
X125555286Y-83600000D01*
X125662429Y-83671429D01*
X125733857Y-83742857D01*
X125769571Y-83814286D01*
X143591000Y-83189286D02*
X143769571Y-83939286D01*
X143912428Y-83403571D01*
X144055286Y-83939286D01*
X144233857Y-83189286D01*
X144483857Y-83903571D02*
X144555286Y-83939286D01*
X144698143Y-83939286D01*
X144769571Y-83903571D01*
X144805286Y-83832143D01*
X144805286Y-83796429D01*
X144769571Y-83725000D01*
X144698143Y-83689286D01*
X144591000Y-83689286D01*
X144519571Y-83653571D01*
X144483857Y-83582143D01*
X144483857Y-83546429D01*
X144519571Y-83475000D01*
X144591000Y-83439286D01*
X144698143Y-83439286D01*
X144769571Y-83475000D01*
X145055286Y-83439286D02*
X145198143Y-83939286D01*
X145341000Y-83582143D01*
X145483857Y-83939286D01*
X145626714Y-83439286D01*
X146305286Y-83939286D02*
X145876714Y-83939286D01*
X146091000Y-83939286D02*
X146091000Y-83189286D01*
X146019571Y-83296429D01*
X145948143Y-83367857D01*
X145876714Y-83403571D01*
X130255286Y-105367857D02*
X131005286Y-105189286D01*
X130469571Y-105046429D01*
X131005286Y-104903571D01*
X130255286Y-104725000D01*
X130505286Y-104510714D02*
X131005286Y-104332143D01*
X130505286Y-104153571D01*
X130505286Y-103974999D02*
X130505286Y-103689285D01*
X131005286Y-103867857D02*
X130362429Y-103867857D01*
X130291000Y-103832142D01*
X130255286Y-103760714D01*
X130255286Y-103689285D01*
X131005286Y-103439286D02*
X130255286Y-103439286D01*
X130541000Y-103439286D02*
X130505286Y-103367857D01*
X130505286Y-103225000D01*
X130541000Y-103153571D01*
X130576714Y-103117857D01*
X130648143Y-103082143D01*
X130862429Y-103082143D01*
X130933857Y-103117857D01*
X130969571Y-103153571D01*
X131005286Y-103225000D01*
X131005286Y-103367857D01*
X130969571Y-103439286D01*
X131005286Y-102367857D02*
X131005286Y-102796429D01*
X131005286Y-102582143D02*
X130255286Y-102582143D01*
X130362429Y-102653572D01*
X130433857Y-102725000D01*
X130469571Y-102796429D01*
X125555286Y-81207143D02*
X126305286Y-81028572D01*
X125769571Y-80885715D01*
X126305286Y-80742857D01*
X125555286Y-80564286D01*
X125805286Y-80350000D02*
X126305286Y-80171429D01*
X125805286Y-79992857D01*
X126305286Y-79707143D02*
X125805286Y-79707143D01*
X125948143Y-79707143D02*
X125876714Y-79671428D01*
X125841000Y-79635714D01*
X125805286Y-79564285D01*
X125805286Y-79492857D01*
X126269571Y-78957142D02*
X126305286Y-79028571D01*
X126305286Y-79171428D01*
X126269571Y-79242857D01*
X126198143Y-79278571D01*
X125912429Y-79278571D01*
X125841000Y-79242857D01*
X125805286Y-79171428D01*
X125805286Y-79028571D01*
X125841000Y-78957142D01*
X125912429Y-78921428D01*
X125983857Y-78921428D01*
X126055286Y-79278571D01*
X125805286Y-78278571D02*
X126412429Y-78278571D01*
X126483857Y-78314285D01*
X126519571Y-78350000D01*
X126555286Y-78421428D01*
X126555286Y-78528571D01*
X126519571Y-78600000D01*
X126269571Y-78278571D02*
X126305286Y-78350000D01*
X126305286Y-78492857D01*
X126269571Y-78564285D01*
X126233857Y-78600000D01*
X126162429Y-78635714D01*
X125948143Y-78635714D01*
X125876714Y-78600000D01*
X125841000Y-78564285D01*
X125805286Y-78492857D01*
X125805286Y-78350000D01*
X125841000Y-78278571D01*
X126305286Y-77528571D02*
X126305286Y-77957143D01*
X126305286Y-77742857D02*
X125555286Y-77742857D01*
X125662429Y-77814286D01*
X125733857Y-77885714D01*
X125769571Y-77957143D01*
D14*
X132205048Y-96166190D02*
X132205048Y-96570952D01*
X132228857Y-96618571D01*
X132252667Y-96642381D01*
X132300286Y-96666190D01*
X132395524Y-96666190D01*
X132443143Y-96642381D01*
X132466952Y-96618571D01*
X132490762Y-96570952D01*
X132490762Y-96166190D01*
X132990762Y-96666190D02*
X132705048Y-96666190D01*
X132847905Y-96666190D02*
X132847905Y-96166190D01*
X132800286Y-96237619D01*
X132752667Y-96285238D01*
X132705048Y-96309048D01*
D10*
X115583857Y-69139286D02*
X115762428Y-69889286D01*
X115905285Y-69353571D01*
X116048143Y-69889286D01*
X116226714Y-69139286D01*
X116441000Y-69389286D02*
X116619571Y-69889286D01*
X116798143Y-69389286D01*
X117083857Y-69889286D02*
X117083857Y-69389286D01*
X117083857Y-69139286D02*
X117048143Y-69175000D01*
X117083857Y-69210714D01*
X117119572Y-69175000D01*
X117083857Y-69139286D01*
X117083857Y-69210714D01*
X117441000Y-69389286D02*
X117441000Y-69889286D01*
X117441000Y-69460714D02*
X117476715Y-69425000D01*
X117548143Y-69389286D01*
X117655286Y-69389286D01*
X117726715Y-69425000D01*
X117762429Y-69496429D01*
X117762429Y-69889286D01*
X118512429Y-69889286D02*
X118083857Y-69889286D01*
X118298143Y-69889286D02*
X118298143Y-69139286D01*
X118226714Y-69246429D01*
X118155286Y-69317857D01*
X118083857Y-69353571D01*
D15*
X151206349Y-105639143D02*
X149682349Y-105639143D01*
X149682349Y-105058571D01*
X149754920Y-104913429D01*
X149827491Y-104840857D01*
X149972634Y-104768286D01*
X150190349Y-104768286D01*
X150335491Y-104840857D01*
X150408063Y-104913429D01*
X150480634Y-105058571D01*
X150480634Y-105639143D01*
X151206349Y-104115143D02*
X149682349Y-104115143D01*
X150262920Y-104115143D02*
X150190349Y-103970000D01*
X150190349Y-103679714D01*
X150262920Y-103534571D01*
X150335491Y-103462000D01*
X150480634Y-103389429D01*
X150916063Y-103389429D01*
X151061206Y-103462000D01*
X151133777Y-103534571D01*
X151206349Y-103679714D01*
X151206349Y-103970000D01*
X151133777Y-104115143D01*
X151206349Y-102083143D02*
X150408063Y-102083143D01*
X150262920Y-102155714D01*
X150190349Y-102300857D01*
X150190349Y-102591143D01*
X150262920Y-102736286D01*
X151133777Y-102083143D02*
X151206349Y-102228286D01*
X151206349Y-102591143D01*
X151133777Y-102736286D01*
X150988634Y-102808857D01*
X150843491Y-102808857D01*
X150698349Y-102736286D01*
X150625777Y-102591143D01*
X150625777Y-102228286D01*
X150553206Y-102083143D01*
X150190349Y-101575143D02*
X150190349Y-100994572D01*
X149682349Y-101357429D02*
X150988634Y-101357429D01*
X151133777Y-101284857D01*
X151206349Y-101139715D01*
X151206349Y-100994572D01*
X151206349Y-99688286D02*
X151206349Y-100559143D01*
X151206349Y-100123715D02*
X149682349Y-100123715D01*
X149900063Y-100268858D01*
X150045206Y-100414000D01*
X150117777Y-100559143D01*
X151206349Y-88542286D02*
X149682349Y-88542286D01*
X149682349Y-87961714D01*
X149754920Y-87816572D01*
X149827491Y-87744000D01*
X149972634Y-87671429D01*
X150190349Y-87671429D01*
X150335491Y-87744000D01*
X150408063Y-87816572D01*
X150480634Y-87961714D01*
X150480634Y-88542286D01*
X151206349Y-86800572D02*
X151133777Y-86945714D01*
X150988634Y-87018286D01*
X149682349Y-87018286D01*
X151206349Y-86002286D02*
X151133777Y-86147428D01*
X151061206Y-86220000D01*
X150916063Y-86292571D01*
X150480634Y-86292571D01*
X150335491Y-86220000D01*
X150262920Y-86147428D01*
X150190349Y-86002286D01*
X150190349Y-85784571D01*
X150262920Y-85639428D01*
X150335491Y-85566857D01*
X150480634Y-85494286D01*
X150916063Y-85494286D01*
X151061206Y-85566857D01*
X151133777Y-85639428D01*
X151206349Y-85784571D01*
X151206349Y-86002286D01*
X151206349Y-84188000D02*
X150408063Y-84188000D01*
X150262920Y-84260571D01*
X150190349Y-84405714D01*
X150190349Y-84696000D01*
X150262920Y-84841143D01*
X151133777Y-84188000D02*
X151206349Y-84333143D01*
X151206349Y-84696000D01*
X151133777Y-84841143D01*
X150988634Y-84913714D01*
X150843491Y-84913714D01*
X150698349Y-84841143D01*
X150625777Y-84696000D01*
X150625777Y-84333143D01*
X150553206Y-84188000D01*
X151206349Y-82809143D02*
X149682349Y-82809143D01*
X151133777Y-82809143D02*
X151206349Y-82954286D01*
X151206349Y-83244572D01*
X151133777Y-83389714D01*
X151061206Y-83462286D01*
X150916063Y-83534857D01*
X150480634Y-83534857D01*
X150335491Y-83462286D01*
X150262920Y-83389714D01*
X150190349Y-83244572D01*
X150190349Y-82954286D01*
X150262920Y-82809143D01*
X151206349Y-81285143D02*
X151206349Y-82156000D01*
X151206349Y-81720572D02*
X149682349Y-81720572D01*
X149900063Y-81865715D01*
X150045206Y-82010857D01*
X150117777Y-82156000D01*
D10*
X124399334Y-72216667D02*
X124399334Y-71516667D01*
X124566000Y-71516667D01*
X124666000Y-71550000D01*
X124732667Y-71616667D01*
X124766000Y-71683333D01*
X124799334Y-71816667D01*
X124799334Y-71916667D01*
X124766000Y-72050000D01*
X124732667Y-72116667D01*
X124666000Y-72183333D01*
X124566000Y-72216667D01*
X124399334Y-72216667D01*
X125032667Y-71750000D02*
X125199334Y-72216667D01*
X125366000Y-71750000D01*
X125632667Y-72216667D02*
X125632667Y-71750000D01*
X125632667Y-71516667D02*
X125599333Y-71550000D01*
X125632667Y-71583333D01*
X125666000Y-71550000D01*
X125632667Y-71516667D01*
X125632667Y-71583333D01*
X125966000Y-71750000D02*
X125966000Y-72216667D01*
X125966000Y-71816667D02*
X125999333Y-71783333D01*
X126066000Y-71750000D01*
X126166000Y-71750000D01*
X126232666Y-71783333D01*
X126266000Y-71850000D01*
X126266000Y-72216667D01*
X126565999Y-71583333D02*
X126599333Y-71550000D01*
X126665999Y-71516667D01*
X126832666Y-71516667D01*
X126899333Y-71550000D01*
X126932666Y-71583333D01*
X126965999Y-71650000D01*
X126965999Y-71716667D01*
X126932666Y-71816667D01*
X126532666Y-72216667D01*
X126965999Y-72216667D01*
D11*
X151518381Y-75747619D02*
X152232667Y-75747619D01*
X152375524Y-75795239D01*
X152470762Y-75890477D01*
X152518381Y-76033334D01*
X152518381Y-76128572D01*
X152518381Y-75271429D02*
X151518381Y-75271429D01*
X151518381Y-74890476D01*
X151566000Y-74795238D01*
X151613619Y-74747619D01*
X151708857Y-74700000D01*
X151851714Y-74700000D01*
X151946952Y-74747619D01*
X151994571Y-74795238D01*
X152042190Y-74890476D01*
X152042190Y-75271429D01*
X151851714Y-74271429D02*
X152518381Y-74271429D01*
X151946952Y-74271429D02*
X151899333Y-74223810D01*
X151851714Y-74128572D01*
X151851714Y-73985714D01*
X151899333Y-73890476D01*
X151994571Y-73842857D01*
X152518381Y-73842857D01*
X152518381Y-73223810D02*
X152470762Y-73319048D01*
X152375524Y-73366667D01*
X151518381Y-73366667D01*
X152518381Y-72319047D02*
X152518381Y-72890476D01*
X152518381Y-72604762D02*
X151518381Y-72604762D01*
X151661238Y-72700000D01*
X151756476Y-72795238D01*
X151804095Y-72890476D01*
X145768381Y-70664286D02*
X144768381Y-70664286D01*
X144768381Y-70283333D01*
X144816000Y-70188095D01*
X144863619Y-70140476D01*
X144958857Y-70092857D01*
X145101714Y-70092857D01*
X145196952Y-70140476D01*
X145244571Y-70188095D01*
X145292190Y-70283333D01*
X145292190Y-70664286D01*
X145720762Y-69711905D02*
X145768381Y-69616667D01*
X145768381Y-69426191D01*
X145720762Y-69330952D01*
X145625524Y-69283333D01*
X145577905Y-69283333D01*
X145482667Y-69330952D01*
X145435048Y-69426191D01*
X145435048Y-69569048D01*
X145387429Y-69664286D01*
X145292190Y-69711905D01*
X145244571Y-69711905D01*
X145149333Y-69664286D01*
X145101714Y-69569048D01*
X145101714Y-69426191D01*
X145149333Y-69330952D01*
X145768381Y-68711905D02*
X145720762Y-68807143D01*
X145625524Y-68854762D01*
X144768381Y-68854762D01*
X145768381Y-68330952D02*
X145101714Y-68330952D01*
X145292190Y-68330952D02*
X145196952Y-68283333D01*
X145149333Y-68235714D01*
X145101714Y-68140476D01*
X145101714Y-68045237D01*
X144768381Y-67807142D02*
X144768381Y-67188094D01*
X145149333Y-67521428D01*
X145149333Y-67378570D01*
X145196952Y-67283332D01*
X145244571Y-67235713D01*
X145339810Y-67188094D01*
X145577905Y-67188094D01*
X145673143Y-67235713D01*
X145720762Y-67283332D01*
X145768381Y-67378570D01*
X145768381Y-67664285D01*
X145720762Y-67759523D01*
X145673143Y-67807142D01*
X143718381Y-91735714D02*
X143242190Y-92069048D01*
X143718381Y-92307143D02*
X142718381Y-92307143D01*
X142718381Y-91926190D01*
X142766000Y-91830952D01*
X142813619Y-91783333D01*
X142908857Y-91735714D01*
X143051714Y-91735714D01*
X143146952Y-91783333D01*
X143194571Y-91830952D01*
X143242190Y-91926190D01*
X143242190Y-92307143D01*
X143670762Y-91354762D02*
X143718381Y-91259524D01*
X143718381Y-91069048D01*
X143670762Y-90973809D01*
X143575524Y-90926190D01*
X143527905Y-90926190D01*
X143432667Y-90973809D01*
X143385048Y-91069048D01*
X143385048Y-91211905D01*
X143337429Y-91307143D01*
X143242190Y-91354762D01*
X143194571Y-91354762D01*
X143099333Y-91307143D01*
X143051714Y-91211905D01*
X143051714Y-91069048D01*
X143099333Y-90973809D01*
X143670762Y-90116666D02*
X143718381Y-90211904D01*
X143718381Y-90402381D01*
X143670762Y-90497619D01*
X143575524Y-90545238D01*
X143194571Y-90545238D01*
X143099333Y-90497619D01*
X143051714Y-90402381D01*
X143051714Y-90211904D01*
X143099333Y-90116666D01*
X143194571Y-90069047D01*
X143289810Y-90069047D01*
X143385048Y-90545238D01*
X143051714Y-89640476D02*
X143718381Y-89640476D01*
X143146952Y-89640476D02*
X143099333Y-89592857D01*
X143051714Y-89497619D01*
X143051714Y-89354761D01*
X143099333Y-89259523D01*
X143194571Y-89211904D01*
X143718381Y-89211904D01*
X143670762Y-88783333D02*
X143718381Y-88688095D01*
X143718381Y-88497619D01*
X143670762Y-88402380D01*
X143575524Y-88354761D01*
X143527905Y-88354761D01*
X143432667Y-88402380D01*
X143385048Y-88497619D01*
X143385048Y-88640476D01*
X143337429Y-88735714D01*
X143242190Y-88783333D01*
X143194571Y-88783333D01*
X143099333Y-88735714D01*
X143051714Y-88640476D01*
X143051714Y-88497619D01*
X143099333Y-88402380D01*
X143670762Y-87545237D02*
X143718381Y-87640475D01*
X143718381Y-87830952D01*
X143670762Y-87926190D01*
X143575524Y-87973809D01*
X143194571Y-87973809D01*
X143099333Y-87926190D01*
X143051714Y-87830952D01*
X143051714Y-87640475D01*
X143099333Y-87545237D01*
X143194571Y-87497618D01*
X143289810Y-87497618D01*
X143385048Y-87973809D01*
X143718381Y-86545237D02*
X143718381Y-87116666D01*
X143718381Y-86830952D02*
X142718381Y-86830952D01*
X142861238Y-86926190D01*
X142956476Y-87021428D01*
X143004095Y-87116666D01*
D10*
X130455286Y-80225000D02*
X131205286Y-80046429D01*
X130669571Y-79903572D01*
X131205286Y-79760714D01*
X130455286Y-79582143D01*
X131169571Y-79332143D02*
X131205286Y-79260714D01*
X131205286Y-79117857D01*
X131169571Y-79046429D01*
X131098143Y-79010714D01*
X131062429Y-79010714D01*
X130991000Y-79046429D01*
X130955286Y-79117857D01*
X130955286Y-79225000D01*
X130919571Y-79296429D01*
X130848143Y-79332143D01*
X130812429Y-79332143D01*
X130741000Y-79296429D01*
X130705286Y-79225000D01*
X130705286Y-79117857D01*
X130741000Y-79046429D01*
X130705286Y-78760714D02*
X131205286Y-78617857D01*
X130848143Y-78475000D01*
X131205286Y-78332143D01*
X130705286Y-78189286D01*
X130455286Y-77760714D02*
X130455286Y-77689286D01*
X130491000Y-77617857D01*
X130526714Y-77582143D01*
X130598143Y-77546429D01*
X130741000Y-77510714D01*
X130919571Y-77510714D01*
X131062429Y-77546429D01*
X131133857Y-77582143D01*
X131169571Y-77617857D01*
X131205286Y-77689286D01*
X131205286Y-77760714D01*
X131169571Y-77832143D01*
X131133857Y-77867857D01*
X131062429Y-77903572D01*
X130919571Y-77939286D01*
X130741000Y-77939286D01*
X130598143Y-77903572D01*
X130526714Y-77867857D01*
X130491000Y-77832143D01*
X130455286Y-77760714D01*
D11*
X137970762Y-84902381D02*
X137494571Y-84902381D01*
X137494571Y-83902381D01*
X138256476Y-84854762D02*
X138351714Y-84902381D01*
X138542190Y-84902381D01*
X138637429Y-84854762D01*
X138685048Y-84759524D01*
X138685048Y-84711905D01*
X138637429Y-84616667D01*
X138542190Y-84569048D01*
X138399333Y-84569048D01*
X138304095Y-84521429D01*
X138256476Y-84426190D01*
X138256476Y-84378571D01*
X138304095Y-84283333D01*
X138399333Y-84235714D01*
X138542190Y-84235714D01*
X138637429Y-84283333D01*
X139018381Y-84235714D02*
X139208857Y-84902381D01*
X139399334Y-84426190D01*
X139589810Y-84902381D01*
X139780286Y-84235714D01*
X140685048Y-84902381D02*
X140113619Y-84902381D01*
X140399333Y-84902381D02*
X140399333Y-83902381D01*
X140304095Y-84045238D01*
X140208857Y-84140476D01*
X140113619Y-84188095D01*
X119018381Y-75845238D02*
X118542190Y-76178572D01*
X119018381Y-76416667D02*
X118018381Y-76416667D01*
X118018381Y-76035714D01*
X118066000Y-75940476D01*
X118113619Y-75892857D01*
X118208857Y-75845238D01*
X118351714Y-75845238D01*
X118446952Y-75892857D01*
X118494571Y-75940476D01*
X118542190Y-76035714D01*
X118542190Y-76416667D01*
X118018381Y-75559524D02*
X119018381Y-75226191D01*
X118018381Y-74892857D01*
X119018381Y-74035714D02*
X119018381Y-74607143D01*
X119018381Y-74321429D02*
X118018381Y-74321429D01*
X118161238Y-74416667D01*
X118256476Y-74511905D01*
X118304095Y-74607143D01*
X119018381Y-83745238D02*
X118542190Y-84078572D01*
X119018381Y-84316667D02*
X118018381Y-84316667D01*
X118018381Y-83935714D01*
X118066000Y-83840476D01*
X118113619Y-83792857D01*
X118208857Y-83745238D01*
X118351714Y-83745238D01*
X118446952Y-83792857D01*
X118494571Y-83840476D01*
X118542190Y-83935714D01*
X118542190Y-84316667D01*
X118018381Y-83459524D02*
X119018381Y-83126191D01*
X118018381Y-82792857D01*
X118113619Y-82507143D02*
X118066000Y-82459524D01*
X118018381Y-82364286D01*
X118018381Y-82126190D01*
X118066000Y-82030952D01*
X118113619Y-81983333D01*
X118208857Y-81935714D01*
X118304095Y-81935714D01*
X118446952Y-81983333D01*
X119018381Y-82554762D01*
X119018381Y-81935714D01*
M02*
