M48
;DRILL file {KiCad 4.0.1-stable} date 24/03/2016 07:32:15
;FORMAT={3:3/ absolute / metric / suppress leading zeros}
FMAT,2
METRIC,TZ
T1C0.400
T2C0.701
T3C0.800
T4C0.813
T5C1.001
T6C1.016
T7C2.000
%
G90
G05
M71
T1
X126966Y-86950
X132566Y-90750
X132566Y-95050
X140866Y-97450
X141666Y-92750
X141666Y-96250
X144566Y-93550
T2
X123315Y-68950
X125317Y-68950
X131815Y-68950
X133817Y-68950
X140315Y-68950
X142317Y-68950
X146069Y-85551
X146069Y-95711
X153066Y-83949
X153066Y-85951
X153316Y-101699
X153316Y-103701
T3
X155566Y-76200
X155566Y-78700
T4
X111726Y-77640
X111726Y-85440
X114266Y-80180
X114266Y-87980
X116806Y-77640
X116806Y-85440
X134166Y-78850
X139166Y-78850
T5
X112526Y-92050
X112526Y-98050
X115066Y-92050
X115066Y-98050
T6
X119966Y-91450
X119966Y-93990
X119966Y-96530
X120266Y-102750
X120266Y-112750
X120286Y-107750
X122806Y-102750
X122806Y-112750
X122826Y-107750
X125346Y-102750
X125346Y-112750
X125366Y-107750
X144236Y-74200
X146776Y-74200
X149316Y-74200
X152566Y-91700
X152566Y-94240
X152566Y-96780
T7
X112596Y-70350
X112596Y-110150
X157396Y-70350
X157396Y-110150
T0
M30
