G04 #@! TF.FileFunction,Copper,L2,Bot,Signal*
%FSLAX46Y46*%
G04 Gerber Fmt 4.6, Leading zero omitted, Abs format (unit mm)*
G04 Created by KiCad (PCBNEW 4.0.2-stable) date 25/02/2017 19:07:51*
%MOMM*%
G01*
G04 APERTURE LIST*
%ADD10C,0.100000*%
%ADD11C,3.000000*%
%ADD12R,1.727200X2.032000*%
%ADD13O,1.727200X2.032000*%
%ADD14R,2.032000X1.727200*%
%ADD15O,2.032000X1.727200*%
%ADD16R,1.300000X1.300000*%
%ADD17C,1.300000*%
%ADD18R,1.198880X1.699260*%
%ADD19O,1.198880X1.699260*%
%ADD20R,2.000000X2.000000*%
%ADD21C,2.000000*%
%ADD22C,1.699260*%
%ADD23R,1.699260X1.699260*%
%ADD24R,1.699260X1.198880*%
%ADD25O,1.699260X1.198880*%
%ADD26C,1.500000*%
%ADD27C,1.100000*%
%ADD28C,0.600000*%
%ADD29C,0.400000*%
%ADD30C,0.500000*%
%ADD31C,0.254000*%
G04 APERTURE END LIST*
D10*
D11*
X112596000Y-110150000D03*
X112596000Y-70350000D03*
X157396000Y-70350000D03*
X157396000Y-110150000D03*
D12*
X120266000Y-102750000D03*
D13*
X122806000Y-102750000D03*
X125346000Y-102750000D03*
D12*
X120266000Y-112750000D03*
D13*
X122806000Y-112750000D03*
X125346000Y-112750000D03*
D12*
X125366000Y-107750000D03*
D13*
X122826000Y-107750000D03*
X120286000Y-107750000D03*
D14*
X119966000Y-91450000D03*
D15*
X119966000Y-93990000D03*
X119966000Y-96530000D03*
D16*
X155566000Y-78700000D03*
D17*
X155566000Y-76200000D03*
D18*
X144666760Y-68850000D03*
D19*
X142665240Y-68850000D03*
D20*
X115066000Y-92050000D03*
D21*
X112526000Y-92050000D03*
D20*
X115066000Y-98050000D03*
D21*
X112526000Y-98050000D03*
D14*
X152566000Y-91700000D03*
D15*
X152566000Y-94240000D03*
X152566000Y-96780000D03*
D18*
X125466760Y-68950000D03*
D19*
X123465240Y-68950000D03*
D22*
X146068540Y-95710520D03*
D23*
X146068540Y-85550520D03*
D24*
X153316000Y-103700760D03*
D25*
X153316000Y-101699240D03*
D24*
X153316000Y-85950760D03*
D25*
X153316000Y-83949240D03*
D26*
X139166000Y-78850000D03*
X134166000Y-78850000D03*
D27*
X114266000Y-80180000D03*
X116806000Y-77640000D03*
X111726000Y-77640000D03*
X114266000Y-87980000D03*
X116806000Y-85440000D03*
X111726000Y-85440000D03*
D28*
X120266000Y-82850000D03*
X141666000Y-96250000D03*
X141666000Y-92750000D03*
X144566000Y-93550000D03*
X132566000Y-95050000D03*
X132566000Y-90750000D03*
X126966000Y-86950000D03*
X140866000Y-97450000D03*
D29*
X125366000Y-107750000D02*
X125966000Y-107750000D01*
X125966000Y-107750000D02*
X131366000Y-102350000D01*
X131366000Y-102350000D02*
X131366000Y-97450000D01*
X112526000Y-98050000D02*
X112526000Y-92050000D01*
D30*
X126966000Y-93050000D02*
X126966000Y-86950000D01*
X131366000Y-97450000D02*
X126966000Y-93050000D01*
X140866000Y-97450000D02*
X131366000Y-97450000D01*
D29*
X120286000Y-107750000D02*
X118966000Y-107750000D01*
X117766000Y-98730000D02*
X119966000Y-96530000D01*
X117766000Y-106550000D02*
X117766000Y-98730000D01*
X118966000Y-107750000D02*
X117766000Y-106550000D01*
D31*
G36*
X159156000Y-69091091D02*
X158606959Y-68541091D01*
X157822541Y-68215372D01*
X156973185Y-68214630D01*
X156188200Y-68538980D01*
X155587091Y-69139041D01*
X155261372Y-69923459D01*
X155260630Y-70772815D01*
X155584980Y-71557800D01*
X156185041Y-72158909D01*
X156969459Y-72484628D01*
X157818815Y-72485370D01*
X158603800Y-72161020D01*
X159156000Y-71609783D01*
X159156000Y-108891091D01*
X158606959Y-108341091D01*
X157822541Y-108015372D01*
X156973185Y-108014630D01*
X156188200Y-108338980D01*
X155587091Y-108939041D01*
X155261372Y-109723459D01*
X155260630Y-110572815D01*
X155584980Y-111357800D01*
X156185041Y-111958909D01*
X156969459Y-112284628D01*
X157818815Y-112285370D01*
X158603800Y-111961020D01*
X159156000Y-111409783D01*
X159156000Y-114440000D01*
X110776000Y-114440000D01*
X110776000Y-113035750D01*
X118767400Y-113035750D01*
X118767400Y-113892309D01*
X118864073Y-114125698D01*
X119042701Y-114304327D01*
X119276090Y-114401000D01*
X119980250Y-114401000D01*
X120139000Y-114242250D01*
X120139000Y-112877000D01*
X118926150Y-112877000D01*
X118767400Y-113035750D01*
X110776000Y-113035750D01*
X110776000Y-111336067D01*
X110784980Y-111357800D01*
X111385041Y-111958909D01*
X112169459Y-112284628D01*
X113018815Y-112285370D01*
X113803800Y-111961020D01*
X114157746Y-111607691D01*
X118767400Y-111607691D01*
X118767400Y-112464250D01*
X118926150Y-112623000D01*
X120139000Y-112623000D01*
X120139000Y-111257750D01*
X120393000Y-111257750D01*
X120393000Y-112623000D01*
X120413000Y-112623000D01*
X120413000Y-112877000D01*
X120393000Y-112877000D01*
X120393000Y-114242250D01*
X120551750Y-114401000D01*
X121255910Y-114401000D01*
X121489299Y-114304327D01*
X121667927Y-114125698D01*
X121731500Y-113972220D01*
X121746330Y-113994415D01*
X122232511Y-114319271D01*
X122806000Y-114433345D01*
X123379489Y-114319271D01*
X123865670Y-113994415D01*
X124076000Y-113679634D01*
X124286330Y-113994415D01*
X124772511Y-114319271D01*
X125346000Y-114433345D01*
X125919489Y-114319271D01*
X126405670Y-113994415D01*
X126730526Y-113508234D01*
X126844600Y-112934745D01*
X126844600Y-112565255D01*
X126730526Y-111991766D01*
X126405670Y-111505585D01*
X125919489Y-111180729D01*
X125346000Y-111066655D01*
X124772511Y-111180729D01*
X124286330Y-111505585D01*
X124076000Y-111820366D01*
X123865670Y-111505585D01*
X123379489Y-111180729D01*
X122806000Y-111066655D01*
X122232511Y-111180729D01*
X121746330Y-111505585D01*
X121731500Y-111527780D01*
X121667927Y-111374302D01*
X121489299Y-111195673D01*
X121255910Y-111099000D01*
X120551750Y-111099000D01*
X120393000Y-111257750D01*
X120139000Y-111257750D01*
X119980250Y-111099000D01*
X119276090Y-111099000D01*
X119042701Y-111195673D01*
X118864073Y-111374302D01*
X118767400Y-111607691D01*
X114157746Y-111607691D01*
X114404909Y-111360959D01*
X114730628Y-110576541D01*
X114731370Y-109727185D01*
X114407020Y-108942200D01*
X113806959Y-108341091D01*
X113022541Y-108015372D01*
X112173185Y-108014630D01*
X111388200Y-108338980D01*
X110787091Y-108939041D01*
X110776000Y-108965751D01*
X110776000Y-92373795D01*
X110890716Y-92373795D01*
X111139106Y-92974943D01*
X111598637Y-93435278D01*
X111691000Y-93473630D01*
X111691000Y-96625942D01*
X111601057Y-96663106D01*
X111140722Y-97122637D01*
X110891284Y-97723352D01*
X110890716Y-98373795D01*
X111139106Y-98974943D01*
X111598637Y-99435278D01*
X112199352Y-99684716D01*
X112849795Y-99685284D01*
X113450943Y-99436894D01*
X113517574Y-99370379D01*
X113601910Y-99501441D01*
X113814110Y-99646431D01*
X114066000Y-99697440D01*
X116066000Y-99697440D01*
X116301317Y-99653162D01*
X116517441Y-99514090D01*
X116662431Y-99301890D01*
X116713440Y-99050000D01*
X116713440Y-98730000D01*
X116931000Y-98730000D01*
X116931000Y-106550000D01*
X116994561Y-106869541D01*
X117175566Y-107140434D01*
X118375566Y-108340434D01*
X118646459Y-108521439D01*
X118950739Y-108581964D01*
X119226330Y-108994415D01*
X119712511Y-109319271D01*
X120286000Y-109433345D01*
X120859489Y-109319271D01*
X121345670Y-108994415D01*
X121556000Y-108679634D01*
X121766330Y-108994415D01*
X122252511Y-109319271D01*
X122826000Y-109433345D01*
X123399489Y-109319271D01*
X123885670Y-108994415D01*
X123895243Y-108980087D01*
X123899238Y-109001317D01*
X124038310Y-109217441D01*
X124250510Y-109362431D01*
X124502400Y-109413440D01*
X126229600Y-109413440D01*
X126464917Y-109369162D01*
X126681041Y-109230090D01*
X126826031Y-109017890D01*
X126877040Y-108766000D01*
X126877040Y-108019828D01*
X130910358Y-103986510D01*
X151831370Y-103986510D01*
X151831370Y-104426509D01*
X151928043Y-104659898D01*
X152106671Y-104838527D01*
X152340060Y-104935200D01*
X153030250Y-104935200D01*
X153189000Y-104776450D01*
X153189000Y-103827760D01*
X153443000Y-103827760D01*
X153443000Y-104776450D01*
X153601750Y-104935200D01*
X154291940Y-104935200D01*
X154525329Y-104838527D01*
X154703957Y-104659898D01*
X154800630Y-104426509D01*
X154800630Y-103986510D01*
X154641880Y-103827760D01*
X153443000Y-103827760D01*
X153189000Y-103827760D01*
X151990120Y-103827760D01*
X151831370Y-103986510D01*
X130910358Y-103986510D01*
X131956434Y-102940434D01*
X132089276Y-102741622D01*
X132137439Y-102669541D01*
X132201000Y-102350000D01*
X132201000Y-101699240D01*
X151802284Y-101699240D01*
X151896250Y-102171640D01*
X152146673Y-102546424D01*
X152106671Y-102562993D01*
X151928043Y-102741622D01*
X151831370Y-102975011D01*
X151831370Y-103415010D01*
X151990120Y-103573760D01*
X153189000Y-103573760D01*
X153189000Y-103553760D01*
X153443000Y-103553760D01*
X153443000Y-103573760D01*
X154641880Y-103573760D01*
X154800630Y-103415010D01*
X154800630Y-102975011D01*
X154703957Y-102741622D01*
X154525329Y-102562993D01*
X154485327Y-102546424D01*
X154735750Y-102171640D01*
X154829716Y-101699240D01*
X154735750Y-101226840D01*
X154468157Y-100826359D01*
X154067676Y-100558766D01*
X153595276Y-100464800D01*
X153036724Y-100464800D01*
X152564324Y-100558766D01*
X152163843Y-100826359D01*
X151896250Y-101226840D01*
X151802284Y-101699240D01*
X132201000Y-101699240D01*
X132201000Y-98335000D01*
X140559178Y-98335000D01*
X140679201Y-98384838D01*
X141051167Y-98385162D01*
X141394943Y-98243117D01*
X141658192Y-97980327D01*
X141800838Y-97636799D01*
X141801162Y-97264833D01*
X141659117Y-96921057D01*
X141396327Y-96657808D01*
X141052799Y-96515162D01*
X140680833Y-96514838D01*
X140559431Y-96565000D01*
X131732579Y-96565000D01*
X131172116Y-96004536D01*
X144583652Y-96004536D01*
X144809198Y-96550397D01*
X145226466Y-96968394D01*
X145771933Y-97194892D01*
X146362556Y-97195408D01*
X146908417Y-96969862D01*
X147326414Y-96552594D01*
X147552912Y-96007127D01*
X147553428Y-95416504D01*
X147327882Y-94870643D01*
X146910614Y-94452646D01*
X146398507Y-94240000D01*
X150882655Y-94240000D01*
X150996729Y-94813489D01*
X151321585Y-95299670D01*
X151636366Y-95510000D01*
X151321585Y-95720330D01*
X150996729Y-96206511D01*
X150882655Y-96780000D01*
X150996729Y-97353489D01*
X151321585Y-97839670D01*
X151807766Y-98164526D01*
X152381255Y-98278600D01*
X152750745Y-98278600D01*
X153324234Y-98164526D01*
X153810415Y-97839670D01*
X154135271Y-97353489D01*
X154249345Y-96780000D01*
X154135271Y-96206511D01*
X153810415Y-95720330D01*
X153495634Y-95510000D01*
X153810415Y-95299670D01*
X154135271Y-94813489D01*
X154249345Y-94240000D01*
X154135271Y-93666511D01*
X153810415Y-93180330D01*
X153796087Y-93170757D01*
X153817317Y-93166762D01*
X154033441Y-93027690D01*
X154178431Y-92815490D01*
X154229440Y-92563600D01*
X154229440Y-90836400D01*
X154185162Y-90601083D01*
X154046090Y-90384959D01*
X153833890Y-90239969D01*
X153582000Y-90188960D01*
X151550000Y-90188960D01*
X151314683Y-90233238D01*
X151098559Y-90372310D01*
X150953569Y-90584510D01*
X150902560Y-90836400D01*
X150902560Y-92563600D01*
X150946838Y-92798917D01*
X151085910Y-93015041D01*
X151298110Y-93160031D01*
X151339439Y-93168400D01*
X151321585Y-93180330D01*
X150996729Y-93666511D01*
X150882655Y-94240000D01*
X146398507Y-94240000D01*
X146365147Y-94226148D01*
X145774524Y-94225632D01*
X145228663Y-94451178D01*
X144810666Y-94868446D01*
X144584168Y-95413913D01*
X144583652Y-96004536D01*
X131172116Y-96004536D01*
X127851000Y-92683420D01*
X127851000Y-87256822D01*
X127900838Y-87136799D01*
X127901162Y-86764833D01*
X127759117Y-86421057D01*
X127496327Y-86157808D01*
X127152799Y-86015162D01*
X126780833Y-86014838D01*
X126437057Y-86156883D01*
X126173808Y-86419673D01*
X126031162Y-86763201D01*
X126030838Y-87135167D01*
X126081000Y-87256569D01*
X126081000Y-93049995D01*
X126080999Y-93050000D01*
X126106924Y-93180330D01*
X126148367Y-93388675D01*
X126320593Y-93646431D01*
X126340210Y-93675790D01*
X130531000Y-97866579D01*
X130531000Y-102004132D01*
X126411697Y-106123435D01*
X126229600Y-106086560D01*
X124502400Y-106086560D01*
X124267083Y-106130838D01*
X124050959Y-106269910D01*
X123905969Y-106482110D01*
X123897600Y-106523439D01*
X123885670Y-106505585D01*
X123399489Y-106180729D01*
X122826000Y-106066655D01*
X122252511Y-106180729D01*
X121766330Y-106505585D01*
X121556000Y-106820366D01*
X121345670Y-106505585D01*
X120859489Y-106180729D01*
X120286000Y-106066655D01*
X119712511Y-106180729D01*
X119226330Y-106505585D01*
X119096603Y-106699735D01*
X118601000Y-106204132D01*
X118601000Y-101734000D01*
X118754960Y-101734000D01*
X118754960Y-103766000D01*
X118799238Y-104001317D01*
X118938310Y-104217441D01*
X119150510Y-104362431D01*
X119402400Y-104413440D01*
X121129600Y-104413440D01*
X121364917Y-104369162D01*
X121581041Y-104230090D01*
X121726031Y-104017890D01*
X121734400Y-103976561D01*
X121746330Y-103994415D01*
X122232511Y-104319271D01*
X122806000Y-104433345D01*
X123379489Y-104319271D01*
X123865670Y-103994415D01*
X124076000Y-103679634D01*
X124286330Y-103994415D01*
X124772511Y-104319271D01*
X125346000Y-104433345D01*
X125919489Y-104319271D01*
X126405670Y-103994415D01*
X126730526Y-103508234D01*
X126844600Y-102934745D01*
X126844600Y-102565255D01*
X126730526Y-101991766D01*
X126405670Y-101505585D01*
X125919489Y-101180729D01*
X125346000Y-101066655D01*
X124772511Y-101180729D01*
X124286330Y-101505585D01*
X124076000Y-101820366D01*
X123865670Y-101505585D01*
X123379489Y-101180729D01*
X122806000Y-101066655D01*
X122232511Y-101180729D01*
X121746330Y-101505585D01*
X121736757Y-101519913D01*
X121732762Y-101498683D01*
X121593690Y-101282559D01*
X121381490Y-101137569D01*
X121129600Y-101086560D01*
X119402400Y-101086560D01*
X119167083Y-101130838D01*
X118950959Y-101269910D01*
X118805969Y-101482110D01*
X118754960Y-101734000D01*
X118601000Y-101734000D01*
X118601000Y-99075868D01*
X119670332Y-98006536D01*
X119781255Y-98028600D01*
X120150745Y-98028600D01*
X120724234Y-97914526D01*
X121210415Y-97589670D01*
X121535271Y-97103489D01*
X121649345Y-96530000D01*
X121535271Y-95956511D01*
X121210415Y-95470330D01*
X120895634Y-95260000D01*
X121210415Y-95049670D01*
X121535271Y-94563489D01*
X121649345Y-93990000D01*
X121535271Y-93416511D01*
X121210415Y-92930330D01*
X121196087Y-92920757D01*
X121217317Y-92916762D01*
X121433441Y-92777690D01*
X121578431Y-92565490D01*
X121629440Y-92313600D01*
X121629440Y-90586400D01*
X121585162Y-90351083D01*
X121446090Y-90134959D01*
X121233890Y-89989969D01*
X120982000Y-89938960D01*
X118950000Y-89938960D01*
X118714683Y-89983238D01*
X118498559Y-90122310D01*
X118353569Y-90334510D01*
X118302560Y-90586400D01*
X118302560Y-92313600D01*
X118346838Y-92548917D01*
X118485910Y-92765041D01*
X118698110Y-92910031D01*
X118739439Y-92918400D01*
X118721585Y-92930330D01*
X118396729Y-93416511D01*
X118282655Y-93990000D01*
X118396729Y-94563489D01*
X118721585Y-95049670D01*
X119036366Y-95260000D01*
X118721585Y-95470330D01*
X118396729Y-95956511D01*
X118282655Y-96530000D01*
X118366021Y-96949111D01*
X117175566Y-98139566D01*
X116994561Y-98410459D01*
X116931000Y-98730000D01*
X116713440Y-98730000D01*
X116713440Y-97050000D01*
X116669162Y-96814683D01*
X116530090Y-96598559D01*
X116317890Y-96453569D01*
X116066000Y-96402560D01*
X114066000Y-96402560D01*
X113830683Y-96446838D01*
X113614559Y-96585910D01*
X113517090Y-96728561D01*
X113453363Y-96664722D01*
X113361000Y-96626370D01*
X113361000Y-93474058D01*
X113450943Y-93436894D01*
X113517574Y-93370379D01*
X113601910Y-93501441D01*
X113814110Y-93646431D01*
X114066000Y-93697440D01*
X116066000Y-93697440D01*
X116301317Y-93653162D01*
X116517441Y-93514090D01*
X116662431Y-93301890D01*
X116713440Y-93050000D01*
X116713440Y-91050000D01*
X116669162Y-90814683D01*
X116530090Y-90598559D01*
X116317890Y-90453569D01*
X116066000Y-90402560D01*
X114066000Y-90402560D01*
X113830683Y-90446838D01*
X113614559Y-90585910D01*
X113517090Y-90728561D01*
X113453363Y-90664722D01*
X112852648Y-90415284D01*
X112202205Y-90414716D01*
X111601057Y-90663106D01*
X111140722Y-91122637D01*
X110891284Y-91723352D01*
X110890716Y-92373795D01*
X110776000Y-92373795D01*
X110776000Y-88214677D01*
X113080794Y-88214677D01*
X113260820Y-88650372D01*
X113593875Y-88984009D01*
X114029255Y-89164794D01*
X114500677Y-89165206D01*
X114936372Y-88985180D01*
X115270009Y-88652125D01*
X115450794Y-88216745D01*
X115451206Y-87745323D01*
X115271180Y-87309628D01*
X114938125Y-86975991D01*
X114502745Y-86795206D01*
X114031323Y-86794794D01*
X113595628Y-86974820D01*
X113261991Y-87307875D01*
X113081206Y-87743255D01*
X113080794Y-88214677D01*
X110776000Y-88214677D01*
X110776000Y-86165648D01*
X111053875Y-86444009D01*
X111489255Y-86624794D01*
X111960677Y-86625206D01*
X112396372Y-86445180D01*
X112730009Y-86112125D01*
X112910794Y-85676745D01*
X112910795Y-85674677D01*
X115620794Y-85674677D01*
X115800820Y-86110372D01*
X116133875Y-86444009D01*
X116569255Y-86624794D01*
X117040677Y-86625206D01*
X117476372Y-86445180D01*
X117810009Y-86112125D01*
X117990794Y-85676745D01*
X117991206Y-85205323D01*
X117811180Y-84769628D01*
X117742562Y-84700890D01*
X144571470Y-84700890D01*
X144571470Y-86400150D01*
X144615748Y-86635467D01*
X144754820Y-86851591D01*
X144967020Y-86996581D01*
X145218910Y-87047590D01*
X146918170Y-87047590D01*
X147153487Y-87003312D01*
X147369611Y-86864240D01*
X147514601Y-86652040D01*
X147565610Y-86400150D01*
X147565610Y-86236510D01*
X151831370Y-86236510D01*
X151831370Y-86676509D01*
X151928043Y-86909898D01*
X152106671Y-87088527D01*
X152340060Y-87185200D01*
X153030250Y-87185200D01*
X153189000Y-87026450D01*
X153189000Y-86077760D01*
X153443000Y-86077760D01*
X153443000Y-87026450D01*
X153601750Y-87185200D01*
X154291940Y-87185200D01*
X154525329Y-87088527D01*
X154703957Y-86909898D01*
X154800630Y-86676509D01*
X154800630Y-86236510D01*
X154641880Y-86077760D01*
X153443000Y-86077760D01*
X153189000Y-86077760D01*
X151990120Y-86077760D01*
X151831370Y-86236510D01*
X147565610Y-86236510D01*
X147565610Y-84700890D01*
X147521332Y-84465573D01*
X147382260Y-84249449D01*
X147170060Y-84104459D01*
X146918170Y-84053450D01*
X145218910Y-84053450D01*
X144983593Y-84097728D01*
X144767469Y-84236800D01*
X144622479Y-84449000D01*
X144571470Y-84700890D01*
X117742562Y-84700890D01*
X117478125Y-84435991D01*
X117042745Y-84255206D01*
X116571323Y-84254794D01*
X116135628Y-84434820D01*
X115801991Y-84767875D01*
X115621206Y-85203255D01*
X115620794Y-85674677D01*
X112910795Y-85674677D01*
X112911206Y-85205323D01*
X112731180Y-84769628D01*
X112398125Y-84435991D01*
X111962745Y-84255206D01*
X111491323Y-84254794D01*
X111055628Y-84434820D01*
X110776000Y-84713960D01*
X110776000Y-83949240D01*
X151802284Y-83949240D01*
X151896250Y-84421640D01*
X152146673Y-84796424D01*
X152106671Y-84812993D01*
X151928043Y-84991622D01*
X151831370Y-85225011D01*
X151831370Y-85665010D01*
X151990120Y-85823760D01*
X153189000Y-85823760D01*
X153189000Y-85803760D01*
X153443000Y-85803760D01*
X153443000Y-85823760D01*
X154641880Y-85823760D01*
X154800630Y-85665010D01*
X154800630Y-85225011D01*
X154703957Y-84991622D01*
X154525329Y-84812993D01*
X154485327Y-84796424D01*
X154735750Y-84421640D01*
X154829716Y-83949240D01*
X154735750Y-83476840D01*
X154468157Y-83076359D01*
X154067676Y-82808766D01*
X153595276Y-82714800D01*
X153036724Y-82714800D01*
X152564324Y-82808766D01*
X152163843Y-83076359D01*
X151896250Y-83476840D01*
X151802284Y-83949240D01*
X110776000Y-83949240D01*
X110776000Y-80414677D01*
X113080794Y-80414677D01*
X113260820Y-80850372D01*
X113593875Y-81184009D01*
X114029255Y-81364794D01*
X114500677Y-81365206D01*
X114936372Y-81185180D01*
X115270009Y-80852125D01*
X115450794Y-80416745D01*
X115451206Y-79945323D01*
X115271180Y-79509628D01*
X114938125Y-79175991D01*
X114813603Y-79124285D01*
X132780760Y-79124285D01*
X132991169Y-79633515D01*
X133380436Y-80023461D01*
X133889298Y-80234759D01*
X134440285Y-80235240D01*
X134949515Y-80024831D01*
X135339461Y-79635564D01*
X135550759Y-79126702D01*
X135550761Y-79124285D01*
X137780760Y-79124285D01*
X137991169Y-79633515D01*
X138380436Y-80023461D01*
X138889298Y-80234759D01*
X139440285Y-80235240D01*
X139949515Y-80024831D01*
X140339461Y-79635564D01*
X140550759Y-79126702D01*
X140551240Y-78575715D01*
X140340831Y-78066485D01*
X140324375Y-78050000D01*
X154268560Y-78050000D01*
X154268560Y-79350000D01*
X154312838Y-79585317D01*
X154451910Y-79801441D01*
X154664110Y-79946431D01*
X154916000Y-79997440D01*
X156216000Y-79997440D01*
X156451317Y-79953162D01*
X156667441Y-79814090D01*
X156812431Y-79601890D01*
X156863440Y-79350000D01*
X156863440Y-78050000D01*
X156819162Y-77814683D01*
X156680090Y-77598559D01*
X156467890Y-77453569D01*
X156216000Y-77402560D01*
X156053615Y-77402560D01*
X156229729Y-77329611D01*
X156285410Y-77099016D01*
X155566000Y-76379605D01*
X154846590Y-77099016D01*
X154902271Y-77329611D01*
X155111902Y-77402560D01*
X154916000Y-77402560D01*
X154680683Y-77446838D01*
X154464559Y-77585910D01*
X154319569Y-77798110D01*
X154268560Y-78050000D01*
X140324375Y-78050000D01*
X139951564Y-77676539D01*
X139442702Y-77465241D01*
X138891715Y-77464760D01*
X138382485Y-77675169D01*
X137992539Y-78064436D01*
X137781241Y-78573298D01*
X137780760Y-79124285D01*
X135550761Y-79124285D01*
X135551240Y-78575715D01*
X135340831Y-78066485D01*
X134951564Y-77676539D01*
X134442702Y-77465241D01*
X133891715Y-77464760D01*
X133382485Y-77675169D01*
X132992539Y-78064436D01*
X132781241Y-78573298D01*
X132780760Y-79124285D01*
X114813603Y-79124285D01*
X114502745Y-78995206D01*
X114031323Y-78994794D01*
X113595628Y-79174820D01*
X113261991Y-79507875D01*
X113081206Y-79943255D01*
X113080794Y-80414677D01*
X110776000Y-80414677D01*
X110776000Y-78365648D01*
X111053875Y-78644009D01*
X111489255Y-78824794D01*
X111960677Y-78825206D01*
X112396372Y-78645180D01*
X112730009Y-78312125D01*
X112910794Y-77876745D01*
X112910795Y-77874677D01*
X115620794Y-77874677D01*
X115800820Y-78310372D01*
X116133875Y-78644009D01*
X116569255Y-78824794D01*
X117040677Y-78825206D01*
X117476372Y-78645180D01*
X117810009Y-78312125D01*
X117990794Y-77876745D01*
X117991206Y-77405323D01*
X117811180Y-76969628D01*
X117478125Y-76635991D01*
X117042745Y-76455206D01*
X116571323Y-76454794D01*
X116135628Y-76634820D01*
X115801991Y-76967875D01*
X115621206Y-77403255D01*
X115620794Y-77874677D01*
X112910795Y-77874677D01*
X112911206Y-77405323D01*
X112731180Y-76969628D01*
X112398125Y-76635991D01*
X111962745Y-76455206D01*
X111491323Y-76454794D01*
X111055628Y-76634820D01*
X110776000Y-76913960D01*
X110776000Y-76019078D01*
X154268378Y-76019078D01*
X154297917Y-76529428D01*
X154436389Y-76863729D01*
X154666984Y-76919410D01*
X155386395Y-76200000D01*
X155745605Y-76200000D01*
X156465016Y-76919410D01*
X156695611Y-76863729D01*
X156863622Y-76380922D01*
X156834083Y-75870572D01*
X156695611Y-75536271D01*
X156465016Y-75480590D01*
X155745605Y-76200000D01*
X155386395Y-76200000D01*
X154666984Y-75480590D01*
X154436389Y-75536271D01*
X154268378Y-76019078D01*
X110776000Y-76019078D01*
X110776000Y-75300984D01*
X154846590Y-75300984D01*
X155566000Y-76020395D01*
X156285410Y-75300984D01*
X156229729Y-75070389D01*
X155746922Y-74902378D01*
X155236572Y-74931917D01*
X154902271Y-75070389D01*
X154846590Y-75300984D01*
X110776000Y-75300984D01*
X110776000Y-71536067D01*
X110784980Y-71557800D01*
X111385041Y-72158909D01*
X112169459Y-72484628D01*
X113018815Y-72485370D01*
X113803800Y-72161020D01*
X114404909Y-71560959D01*
X114730628Y-70776541D01*
X114731370Y-69927185D01*
X114407020Y-69142200D01*
X113936366Y-68670724D01*
X122230800Y-68670724D01*
X122230800Y-69229276D01*
X122324766Y-69701676D01*
X122592359Y-70102157D01*
X122992840Y-70369750D01*
X123465240Y-70463716D01*
X123937640Y-70369750D01*
X124312424Y-70119327D01*
X124328993Y-70159329D01*
X124507622Y-70337957D01*
X124741011Y-70434630D01*
X125181010Y-70434630D01*
X125339760Y-70275880D01*
X125339760Y-69077000D01*
X125593760Y-69077000D01*
X125593760Y-70275880D01*
X125752510Y-70434630D01*
X126192509Y-70434630D01*
X126425898Y-70337957D01*
X126604527Y-70159329D01*
X126701200Y-69925940D01*
X126701200Y-69235750D01*
X126542450Y-69077000D01*
X125593760Y-69077000D01*
X125339760Y-69077000D01*
X125319760Y-69077000D01*
X125319760Y-68823000D01*
X125339760Y-68823000D01*
X125339760Y-67624120D01*
X125593760Y-67624120D01*
X125593760Y-68823000D01*
X126542450Y-68823000D01*
X126630577Y-68734873D01*
X131380812Y-68734873D01*
X131545646Y-69133800D01*
X131850595Y-69439282D01*
X132249233Y-69604811D01*
X132680873Y-69605188D01*
X133079800Y-69440354D01*
X133385282Y-69135405D01*
X133550811Y-68736767D01*
X133550812Y-68734873D01*
X134380812Y-68734873D01*
X134545646Y-69133800D01*
X134850595Y-69439282D01*
X135249233Y-69604811D01*
X135680873Y-69605188D01*
X136079800Y-69440354D01*
X136385282Y-69135405D01*
X136550811Y-68736767D01*
X136550956Y-68570724D01*
X141430800Y-68570724D01*
X141430800Y-69129276D01*
X141524766Y-69601676D01*
X141792359Y-70002157D01*
X142192840Y-70269750D01*
X142665240Y-70363716D01*
X143137640Y-70269750D01*
X143516642Y-70016509D01*
X143603230Y-70151071D01*
X143815430Y-70296061D01*
X144067320Y-70347070D01*
X145266200Y-70347070D01*
X145501517Y-70302792D01*
X145717641Y-70163720D01*
X145862631Y-69951520D01*
X145913640Y-69699630D01*
X145913640Y-68000370D01*
X145869362Y-67765053D01*
X145730290Y-67548929D01*
X145518090Y-67403939D01*
X145266200Y-67352930D01*
X144067320Y-67352930D01*
X143832003Y-67397208D01*
X143615879Y-67536280D01*
X143515716Y-67682873D01*
X143137640Y-67430250D01*
X142665240Y-67336284D01*
X142192840Y-67430250D01*
X141792359Y-67697843D01*
X141524766Y-68098324D01*
X141430800Y-68570724D01*
X136550956Y-68570724D01*
X136551188Y-68305127D01*
X136386354Y-67906200D01*
X136081405Y-67600718D01*
X135682767Y-67435189D01*
X135251127Y-67434812D01*
X134852200Y-67599646D01*
X134546718Y-67904595D01*
X134381189Y-68303233D01*
X134380812Y-68734873D01*
X133550812Y-68734873D01*
X133551188Y-68305127D01*
X133386354Y-67906200D01*
X133081405Y-67600718D01*
X132682767Y-67435189D01*
X132251127Y-67434812D01*
X131852200Y-67599646D01*
X131546718Y-67904595D01*
X131381189Y-68303233D01*
X131380812Y-68734873D01*
X126630577Y-68734873D01*
X126701200Y-68664250D01*
X126701200Y-67974060D01*
X126604527Y-67740671D01*
X126425898Y-67562043D01*
X126192509Y-67465370D01*
X125752510Y-67465370D01*
X125593760Y-67624120D01*
X125339760Y-67624120D01*
X125181010Y-67465370D01*
X124741011Y-67465370D01*
X124507622Y-67562043D01*
X124328993Y-67740671D01*
X124312424Y-67780673D01*
X123937640Y-67530250D01*
X123465240Y-67436284D01*
X122992840Y-67530250D01*
X122592359Y-67797843D01*
X122324766Y-68198324D01*
X122230800Y-68670724D01*
X113936366Y-68670724D01*
X113806959Y-68541091D01*
X113022541Y-68215372D01*
X112173185Y-68214630D01*
X111388200Y-68538980D01*
X110787091Y-69139041D01*
X110776000Y-69165751D01*
X110776000Y-66060000D01*
X159156000Y-66060000D01*
X159156000Y-69091091D01*
X159156000Y-69091091D01*
G37*
X159156000Y-69091091D02*
X158606959Y-68541091D01*
X157822541Y-68215372D01*
X156973185Y-68214630D01*
X156188200Y-68538980D01*
X155587091Y-69139041D01*
X155261372Y-69923459D01*
X155260630Y-70772815D01*
X155584980Y-71557800D01*
X156185041Y-72158909D01*
X156969459Y-72484628D01*
X157818815Y-72485370D01*
X158603800Y-72161020D01*
X159156000Y-71609783D01*
X159156000Y-108891091D01*
X158606959Y-108341091D01*
X157822541Y-108015372D01*
X156973185Y-108014630D01*
X156188200Y-108338980D01*
X155587091Y-108939041D01*
X155261372Y-109723459D01*
X155260630Y-110572815D01*
X155584980Y-111357800D01*
X156185041Y-111958909D01*
X156969459Y-112284628D01*
X157818815Y-112285370D01*
X158603800Y-111961020D01*
X159156000Y-111409783D01*
X159156000Y-114440000D01*
X110776000Y-114440000D01*
X110776000Y-113035750D01*
X118767400Y-113035750D01*
X118767400Y-113892309D01*
X118864073Y-114125698D01*
X119042701Y-114304327D01*
X119276090Y-114401000D01*
X119980250Y-114401000D01*
X120139000Y-114242250D01*
X120139000Y-112877000D01*
X118926150Y-112877000D01*
X118767400Y-113035750D01*
X110776000Y-113035750D01*
X110776000Y-111336067D01*
X110784980Y-111357800D01*
X111385041Y-111958909D01*
X112169459Y-112284628D01*
X113018815Y-112285370D01*
X113803800Y-111961020D01*
X114157746Y-111607691D01*
X118767400Y-111607691D01*
X118767400Y-112464250D01*
X118926150Y-112623000D01*
X120139000Y-112623000D01*
X120139000Y-111257750D01*
X120393000Y-111257750D01*
X120393000Y-112623000D01*
X120413000Y-112623000D01*
X120413000Y-112877000D01*
X120393000Y-112877000D01*
X120393000Y-114242250D01*
X120551750Y-114401000D01*
X121255910Y-114401000D01*
X121489299Y-114304327D01*
X121667927Y-114125698D01*
X121731500Y-113972220D01*
X121746330Y-113994415D01*
X122232511Y-114319271D01*
X122806000Y-114433345D01*
X123379489Y-114319271D01*
X123865670Y-113994415D01*
X124076000Y-113679634D01*
X124286330Y-113994415D01*
X124772511Y-114319271D01*
X125346000Y-114433345D01*
X125919489Y-114319271D01*
X126405670Y-113994415D01*
X126730526Y-113508234D01*
X126844600Y-112934745D01*
X126844600Y-112565255D01*
X126730526Y-111991766D01*
X126405670Y-111505585D01*
X125919489Y-111180729D01*
X125346000Y-111066655D01*
X124772511Y-111180729D01*
X124286330Y-111505585D01*
X124076000Y-111820366D01*
X123865670Y-111505585D01*
X123379489Y-111180729D01*
X122806000Y-111066655D01*
X122232511Y-111180729D01*
X121746330Y-111505585D01*
X121731500Y-111527780D01*
X121667927Y-111374302D01*
X121489299Y-111195673D01*
X121255910Y-111099000D01*
X120551750Y-111099000D01*
X120393000Y-111257750D01*
X120139000Y-111257750D01*
X119980250Y-111099000D01*
X119276090Y-111099000D01*
X119042701Y-111195673D01*
X118864073Y-111374302D01*
X118767400Y-111607691D01*
X114157746Y-111607691D01*
X114404909Y-111360959D01*
X114730628Y-110576541D01*
X114731370Y-109727185D01*
X114407020Y-108942200D01*
X113806959Y-108341091D01*
X113022541Y-108015372D01*
X112173185Y-108014630D01*
X111388200Y-108338980D01*
X110787091Y-108939041D01*
X110776000Y-108965751D01*
X110776000Y-92373795D01*
X110890716Y-92373795D01*
X111139106Y-92974943D01*
X111598637Y-93435278D01*
X111691000Y-93473630D01*
X111691000Y-96625942D01*
X111601057Y-96663106D01*
X111140722Y-97122637D01*
X110891284Y-97723352D01*
X110890716Y-98373795D01*
X111139106Y-98974943D01*
X111598637Y-99435278D01*
X112199352Y-99684716D01*
X112849795Y-99685284D01*
X113450943Y-99436894D01*
X113517574Y-99370379D01*
X113601910Y-99501441D01*
X113814110Y-99646431D01*
X114066000Y-99697440D01*
X116066000Y-99697440D01*
X116301317Y-99653162D01*
X116517441Y-99514090D01*
X116662431Y-99301890D01*
X116713440Y-99050000D01*
X116713440Y-98730000D01*
X116931000Y-98730000D01*
X116931000Y-106550000D01*
X116994561Y-106869541D01*
X117175566Y-107140434D01*
X118375566Y-108340434D01*
X118646459Y-108521439D01*
X118950739Y-108581964D01*
X119226330Y-108994415D01*
X119712511Y-109319271D01*
X120286000Y-109433345D01*
X120859489Y-109319271D01*
X121345670Y-108994415D01*
X121556000Y-108679634D01*
X121766330Y-108994415D01*
X122252511Y-109319271D01*
X122826000Y-109433345D01*
X123399489Y-109319271D01*
X123885670Y-108994415D01*
X123895243Y-108980087D01*
X123899238Y-109001317D01*
X124038310Y-109217441D01*
X124250510Y-109362431D01*
X124502400Y-109413440D01*
X126229600Y-109413440D01*
X126464917Y-109369162D01*
X126681041Y-109230090D01*
X126826031Y-109017890D01*
X126877040Y-108766000D01*
X126877040Y-108019828D01*
X130910358Y-103986510D01*
X151831370Y-103986510D01*
X151831370Y-104426509D01*
X151928043Y-104659898D01*
X152106671Y-104838527D01*
X152340060Y-104935200D01*
X153030250Y-104935200D01*
X153189000Y-104776450D01*
X153189000Y-103827760D01*
X153443000Y-103827760D01*
X153443000Y-104776450D01*
X153601750Y-104935200D01*
X154291940Y-104935200D01*
X154525329Y-104838527D01*
X154703957Y-104659898D01*
X154800630Y-104426509D01*
X154800630Y-103986510D01*
X154641880Y-103827760D01*
X153443000Y-103827760D01*
X153189000Y-103827760D01*
X151990120Y-103827760D01*
X151831370Y-103986510D01*
X130910358Y-103986510D01*
X131956434Y-102940434D01*
X132089276Y-102741622D01*
X132137439Y-102669541D01*
X132201000Y-102350000D01*
X132201000Y-101699240D01*
X151802284Y-101699240D01*
X151896250Y-102171640D01*
X152146673Y-102546424D01*
X152106671Y-102562993D01*
X151928043Y-102741622D01*
X151831370Y-102975011D01*
X151831370Y-103415010D01*
X151990120Y-103573760D01*
X153189000Y-103573760D01*
X153189000Y-103553760D01*
X153443000Y-103553760D01*
X153443000Y-103573760D01*
X154641880Y-103573760D01*
X154800630Y-103415010D01*
X154800630Y-102975011D01*
X154703957Y-102741622D01*
X154525329Y-102562993D01*
X154485327Y-102546424D01*
X154735750Y-102171640D01*
X154829716Y-101699240D01*
X154735750Y-101226840D01*
X154468157Y-100826359D01*
X154067676Y-100558766D01*
X153595276Y-100464800D01*
X153036724Y-100464800D01*
X152564324Y-100558766D01*
X152163843Y-100826359D01*
X151896250Y-101226840D01*
X151802284Y-101699240D01*
X132201000Y-101699240D01*
X132201000Y-98335000D01*
X140559178Y-98335000D01*
X140679201Y-98384838D01*
X141051167Y-98385162D01*
X141394943Y-98243117D01*
X141658192Y-97980327D01*
X141800838Y-97636799D01*
X141801162Y-97264833D01*
X141659117Y-96921057D01*
X141396327Y-96657808D01*
X141052799Y-96515162D01*
X140680833Y-96514838D01*
X140559431Y-96565000D01*
X131732579Y-96565000D01*
X131172116Y-96004536D01*
X144583652Y-96004536D01*
X144809198Y-96550397D01*
X145226466Y-96968394D01*
X145771933Y-97194892D01*
X146362556Y-97195408D01*
X146908417Y-96969862D01*
X147326414Y-96552594D01*
X147552912Y-96007127D01*
X147553428Y-95416504D01*
X147327882Y-94870643D01*
X146910614Y-94452646D01*
X146398507Y-94240000D01*
X150882655Y-94240000D01*
X150996729Y-94813489D01*
X151321585Y-95299670D01*
X151636366Y-95510000D01*
X151321585Y-95720330D01*
X150996729Y-96206511D01*
X150882655Y-96780000D01*
X150996729Y-97353489D01*
X151321585Y-97839670D01*
X151807766Y-98164526D01*
X152381255Y-98278600D01*
X152750745Y-98278600D01*
X153324234Y-98164526D01*
X153810415Y-97839670D01*
X154135271Y-97353489D01*
X154249345Y-96780000D01*
X154135271Y-96206511D01*
X153810415Y-95720330D01*
X153495634Y-95510000D01*
X153810415Y-95299670D01*
X154135271Y-94813489D01*
X154249345Y-94240000D01*
X154135271Y-93666511D01*
X153810415Y-93180330D01*
X153796087Y-93170757D01*
X153817317Y-93166762D01*
X154033441Y-93027690D01*
X154178431Y-92815490D01*
X154229440Y-92563600D01*
X154229440Y-90836400D01*
X154185162Y-90601083D01*
X154046090Y-90384959D01*
X153833890Y-90239969D01*
X153582000Y-90188960D01*
X151550000Y-90188960D01*
X151314683Y-90233238D01*
X151098559Y-90372310D01*
X150953569Y-90584510D01*
X150902560Y-90836400D01*
X150902560Y-92563600D01*
X150946838Y-92798917D01*
X151085910Y-93015041D01*
X151298110Y-93160031D01*
X151339439Y-93168400D01*
X151321585Y-93180330D01*
X150996729Y-93666511D01*
X150882655Y-94240000D01*
X146398507Y-94240000D01*
X146365147Y-94226148D01*
X145774524Y-94225632D01*
X145228663Y-94451178D01*
X144810666Y-94868446D01*
X144584168Y-95413913D01*
X144583652Y-96004536D01*
X131172116Y-96004536D01*
X127851000Y-92683420D01*
X127851000Y-87256822D01*
X127900838Y-87136799D01*
X127901162Y-86764833D01*
X127759117Y-86421057D01*
X127496327Y-86157808D01*
X127152799Y-86015162D01*
X126780833Y-86014838D01*
X126437057Y-86156883D01*
X126173808Y-86419673D01*
X126031162Y-86763201D01*
X126030838Y-87135167D01*
X126081000Y-87256569D01*
X126081000Y-93049995D01*
X126080999Y-93050000D01*
X126106924Y-93180330D01*
X126148367Y-93388675D01*
X126320593Y-93646431D01*
X126340210Y-93675790D01*
X130531000Y-97866579D01*
X130531000Y-102004132D01*
X126411697Y-106123435D01*
X126229600Y-106086560D01*
X124502400Y-106086560D01*
X124267083Y-106130838D01*
X124050959Y-106269910D01*
X123905969Y-106482110D01*
X123897600Y-106523439D01*
X123885670Y-106505585D01*
X123399489Y-106180729D01*
X122826000Y-106066655D01*
X122252511Y-106180729D01*
X121766330Y-106505585D01*
X121556000Y-106820366D01*
X121345670Y-106505585D01*
X120859489Y-106180729D01*
X120286000Y-106066655D01*
X119712511Y-106180729D01*
X119226330Y-106505585D01*
X119096603Y-106699735D01*
X118601000Y-106204132D01*
X118601000Y-101734000D01*
X118754960Y-101734000D01*
X118754960Y-103766000D01*
X118799238Y-104001317D01*
X118938310Y-104217441D01*
X119150510Y-104362431D01*
X119402400Y-104413440D01*
X121129600Y-104413440D01*
X121364917Y-104369162D01*
X121581041Y-104230090D01*
X121726031Y-104017890D01*
X121734400Y-103976561D01*
X121746330Y-103994415D01*
X122232511Y-104319271D01*
X122806000Y-104433345D01*
X123379489Y-104319271D01*
X123865670Y-103994415D01*
X124076000Y-103679634D01*
X124286330Y-103994415D01*
X124772511Y-104319271D01*
X125346000Y-104433345D01*
X125919489Y-104319271D01*
X126405670Y-103994415D01*
X126730526Y-103508234D01*
X126844600Y-102934745D01*
X126844600Y-102565255D01*
X126730526Y-101991766D01*
X126405670Y-101505585D01*
X125919489Y-101180729D01*
X125346000Y-101066655D01*
X124772511Y-101180729D01*
X124286330Y-101505585D01*
X124076000Y-101820366D01*
X123865670Y-101505585D01*
X123379489Y-101180729D01*
X122806000Y-101066655D01*
X122232511Y-101180729D01*
X121746330Y-101505585D01*
X121736757Y-101519913D01*
X121732762Y-101498683D01*
X121593690Y-101282559D01*
X121381490Y-101137569D01*
X121129600Y-101086560D01*
X119402400Y-101086560D01*
X119167083Y-101130838D01*
X118950959Y-101269910D01*
X118805969Y-101482110D01*
X118754960Y-101734000D01*
X118601000Y-101734000D01*
X118601000Y-99075868D01*
X119670332Y-98006536D01*
X119781255Y-98028600D01*
X120150745Y-98028600D01*
X120724234Y-97914526D01*
X121210415Y-97589670D01*
X121535271Y-97103489D01*
X121649345Y-96530000D01*
X121535271Y-95956511D01*
X121210415Y-95470330D01*
X120895634Y-95260000D01*
X121210415Y-95049670D01*
X121535271Y-94563489D01*
X121649345Y-93990000D01*
X121535271Y-93416511D01*
X121210415Y-92930330D01*
X121196087Y-92920757D01*
X121217317Y-92916762D01*
X121433441Y-92777690D01*
X121578431Y-92565490D01*
X121629440Y-92313600D01*
X121629440Y-90586400D01*
X121585162Y-90351083D01*
X121446090Y-90134959D01*
X121233890Y-89989969D01*
X120982000Y-89938960D01*
X118950000Y-89938960D01*
X118714683Y-89983238D01*
X118498559Y-90122310D01*
X118353569Y-90334510D01*
X118302560Y-90586400D01*
X118302560Y-92313600D01*
X118346838Y-92548917D01*
X118485910Y-92765041D01*
X118698110Y-92910031D01*
X118739439Y-92918400D01*
X118721585Y-92930330D01*
X118396729Y-93416511D01*
X118282655Y-93990000D01*
X118396729Y-94563489D01*
X118721585Y-95049670D01*
X119036366Y-95260000D01*
X118721585Y-95470330D01*
X118396729Y-95956511D01*
X118282655Y-96530000D01*
X118366021Y-96949111D01*
X117175566Y-98139566D01*
X116994561Y-98410459D01*
X116931000Y-98730000D01*
X116713440Y-98730000D01*
X116713440Y-97050000D01*
X116669162Y-96814683D01*
X116530090Y-96598559D01*
X116317890Y-96453569D01*
X116066000Y-96402560D01*
X114066000Y-96402560D01*
X113830683Y-96446838D01*
X113614559Y-96585910D01*
X113517090Y-96728561D01*
X113453363Y-96664722D01*
X113361000Y-96626370D01*
X113361000Y-93474058D01*
X113450943Y-93436894D01*
X113517574Y-93370379D01*
X113601910Y-93501441D01*
X113814110Y-93646431D01*
X114066000Y-93697440D01*
X116066000Y-93697440D01*
X116301317Y-93653162D01*
X116517441Y-93514090D01*
X116662431Y-93301890D01*
X116713440Y-93050000D01*
X116713440Y-91050000D01*
X116669162Y-90814683D01*
X116530090Y-90598559D01*
X116317890Y-90453569D01*
X116066000Y-90402560D01*
X114066000Y-90402560D01*
X113830683Y-90446838D01*
X113614559Y-90585910D01*
X113517090Y-90728561D01*
X113453363Y-90664722D01*
X112852648Y-90415284D01*
X112202205Y-90414716D01*
X111601057Y-90663106D01*
X111140722Y-91122637D01*
X110891284Y-91723352D01*
X110890716Y-92373795D01*
X110776000Y-92373795D01*
X110776000Y-88214677D01*
X113080794Y-88214677D01*
X113260820Y-88650372D01*
X113593875Y-88984009D01*
X114029255Y-89164794D01*
X114500677Y-89165206D01*
X114936372Y-88985180D01*
X115270009Y-88652125D01*
X115450794Y-88216745D01*
X115451206Y-87745323D01*
X115271180Y-87309628D01*
X114938125Y-86975991D01*
X114502745Y-86795206D01*
X114031323Y-86794794D01*
X113595628Y-86974820D01*
X113261991Y-87307875D01*
X113081206Y-87743255D01*
X113080794Y-88214677D01*
X110776000Y-88214677D01*
X110776000Y-86165648D01*
X111053875Y-86444009D01*
X111489255Y-86624794D01*
X111960677Y-86625206D01*
X112396372Y-86445180D01*
X112730009Y-86112125D01*
X112910794Y-85676745D01*
X112910795Y-85674677D01*
X115620794Y-85674677D01*
X115800820Y-86110372D01*
X116133875Y-86444009D01*
X116569255Y-86624794D01*
X117040677Y-86625206D01*
X117476372Y-86445180D01*
X117810009Y-86112125D01*
X117990794Y-85676745D01*
X117991206Y-85205323D01*
X117811180Y-84769628D01*
X117742562Y-84700890D01*
X144571470Y-84700890D01*
X144571470Y-86400150D01*
X144615748Y-86635467D01*
X144754820Y-86851591D01*
X144967020Y-86996581D01*
X145218910Y-87047590D01*
X146918170Y-87047590D01*
X147153487Y-87003312D01*
X147369611Y-86864240D01*
X147514601Y-86652040D01*
X147565610Y-86400150D01*
X147565610Y-86236510D01*
X151831370Y-86236510D01*
X151831370Y-86676509D01*
X151928043Y-86909898D01*
X152106671Y-87088527D01*
X152340060Y-87185200D01*
X153030250Y-87185200D01*
X153189000Y-87026450D01*
X153189000Y-86077760D01*
X153443000Y-86077760D01*
X153443000Y-87026450D01*
X153601750Y-87185200D01*
X154291940Y-87185200D01*
X154525329Y-87088527D01*
X154703957Y-86909898D01*
X154800630Y-86676509D01*
X154800630Y-86236510D01*
X154641880Y-86077760D01*
X153443000Y-86077760D01*
X153189000Y-86077760D01*
X151990120Y-86077760D01*
X151831370Y-86236510D01*
X147565610Y-86236510D01*
X147565610Y-84700890D01*
X147521332Y-84465573D01*
X147382260Y-84249449D01*
X147170060Y-84104459D01*
X146918170Y-84053450D01*
X145218910Y-84053450D01*
X144983593Y-84097728D01*
X144767469Y-84236800D01*
X144622479Y-84449000D01*
X144571470Y-84700890D01*
X117742562Y-84700890D01*
X117478125Y-84435991D01*
X117042745Y-84255206D01*
X116571323Y-84254794D01*
X116135628Y-84434820D01*
X115801991Y-84767875D01*
X115621206Y-85203255D01*
X115620794Y-85674677D01*
X112910795Y-85674677D01*
X112911206Y-85205323D01*
X112731180Y-84769628D01*
X112398125Y-84435991D01*
X111962745Y-84255206D01*
X111491323Y-84254794D01*
X111055628Y-84434820D01*
X110776000Y-84713960D01*
X110776000Y-83949240D01*
X151802284Y-83949240D01*
X151896250Y-84421640D01*
X152146673Y-84796424D01*
X152106671Y-84812993D01*
X151928043Y-84991622D01*
X151831370Y-85225011D01*
X151831370Y-85665010D01*
X151990120Y-85823760D01*
X153189000Y-85823760D01*
X153189000Y-85803760D01*
X153443000Y-85803760D01*
X153443000Y-85823760D01*
X154641880Y-85823760D01*
X154800630Y-85665010D01*
X154800630Y-85225011D01*
X154703957Y-84991622D01*
X154525329Y-84812993D01*
X154485327Y-84796424D01*
X154735750Y-84421640D01*
X154829716Y-83949240D01*
X154735750Y-83476840D01*
X154468157Y-83076359D01*
X154067676Y-82808766D01*
X153595276Y-82714800D01*
X153036724Y-82714800D01*
X152564324Y-82808766D01*
X152163843Y-83076359D01*
X151896250Y-83476840D01*
X151802284Y-83949240D01*
X110776000Y-83949240D01*
X110776000Y-80414677D01*
X113080794Y-80414677D01*
X113260820Y-80850372D01*
X113593875Y-81184009D01*
X114029255Y-81364794D01*
X114500677Y-81365206D01*
X114936372Y-81185180D01*
X115270009Y-80852125D01*
X115450794Y-80416745D01*
X115451206Y-79945323D01*
X115271180Y-79509628D01*
X114938125Y-79175991D01*
X114813603Y-79124285D01*
X132780760Y-79124285D01*
X132991169Y-79633515D01*
X133380436Y-80023461D01*
X133889298Y-80234759D01*
X134440285Y-80235240D01*
X134949515Y-80024831D01*
X135339461Y-79635564D01*
X135550759Y-79126702D01*
X135550761Y-79124285D01*
X137780760Y-79124285D01*
X137991169Y-79633515D01*
X138380436Y-80023461D01*
X138889298Y-80234759D01*
X139440285Y-80235240D01*
X139949515Y-80024831D01*
X140339461Y-79635564D01*
X140550759Y-79126702D01*
X140551240Y-78575715D01*
X140340831Y-78066485D01*
X140324375Y-78050000D01*
X154268560Y-78050000D01*
X154268560Y-79350000D01*
X154312838Y-79585317D01*
X154451910Y-79801441D01*
X154664110Y-79946431D01*
X154916000Y-79997440D01*
X156216000Y-79997440D01*
X156451317Y-79953162D01*
X156667441Y-79814090D01*
X156812431Y-79601890D01*
X156863440Y-79350000D01*
X156863440Y-78050000D01*
X156819162Y-77814683D01*
X156680090Y-77598559D01*
X156467890Y-77453569D01*
X156216000Y-77402560D01*
X156053615Y-77402560D01*
X156229729Y-77329611D01*
X156285410Y-77099016D01*
X155566000Y-76379605D01*
X154846590Y-77099016D01*
X154902271Y-77329611D01*
X155111902Y-77402560D01*
X154916000Y-77402560D01*
X154680683Y-77446838D01*
X154464559Y-77585910D01*
X154319569Y-77798110D01*
X154268560Y-78050000D01*
X140324375Y-78050000D01*
X139951564Y-77676539D01*
X139442702Y-77465241D01*
X138891715Y-77464760D01*
X138382485Y-77675169D01*
X137992539Y-78064436D01*
X137781241Y-78573298D01*
X137780760Y-79124285D01*
X135550761Y-79124285D01*
X135551240Y-78575715D01*
X135340831Y-78066485D01*
X134951564Y-77676539D01*
X134442702Y-77465241D01*
X133891715Y-77464760D01*
X133382485Y-77675169D01*
X132992539Y-78064436D01*
X132781241Y-78573298D01*
X132780760Y-79124285D01*
X114813603Y-79124285D01*
X114502745Y-78995206D01*
X114031323Y-78994794D01*
X113595628Y-79174820D01*
X113261991Y-79507875D01*
X113081206Y-79943255D01*
X113080794Y-80414677D01*
X110776000Y-80414677D01*
X110776000Y-78365648D01*
X111053875Y-78644009D01*
X111489255Y-78824794D01*
X111960677Y-78825206D01*
X112396372Y-78645180D01*
X112730009Y-78312125D01*
X112910794Y-77876745D01*
X112910795Y-77874677D01*
X115620794Y-77874677D01*
X115800820Y-78310372D01*
X116133875Y-78644009D01*
X116569255Y-78824794D01*
X117040677Y-78825206D01*
X117476372Y-78645180D01*
X117810009Y-78312125D01*
X117990794Y-77876745D01*
X117991206Y-77405323D01*
X117811180Y-76969628D01*
X117478125Y-76635991D01*
X117042745Y-76455206D01*
X116571323Y-76454794D01*
X116135628Y-76634820D01*
X115801991Y-76967875D01*
X115621206Y-77403255D01*
X115620794Y-77874677D01*
X112910795Y-77874677D01*
X112911206Y-77405323D01*
X112731180Y-76969628D01*
X112398125Y-76635991D01*
X111962745Y-76455206D01*
X111491323Y-76454794D01*
X111055628Y-76634820D01*
X110776000Y-76913960D01*
X110776000Y-76019078D01*
X154268378Y-76019078D01*
X154297917Y-76529428D01*
X154436389Y-76863729D01*
X154666984Y-76919410D01*
X155386395Y-76200000D01*
X155745605Y-76200000D01*
X156465016Y-76919410D01*
X156695611Y-76863729D01*
X156863622Y-76380922D01*
X156834083Y-75870572D01*
X156695611Y-75536271D01*
X156465016Y-75480590D01*
X155745605Y-76200000D01*
X155386395Y-76200000D01*
X154666984Y-75480590D01*
X154436389Y-75536271D01*
X154268378Y-76019078D01*
X110776000Y-76019078D01*
X110776000Y-75300984D01*
X154846590Y-75300984D01*
X155566000Y-76020395D01*
X156285410Y-75300984D01*
X156229729Y-75070389D01*
X155746922Y-74902378D01*
X155236572Y-74931917D01*
X154902271Y-75070389D01*
X154846590Y-75300984D01*
X110776000Y-75300984D01*
X110776000Y-71536067D01*
X110784980Y-71557800D01*
X111385041Y-72158909D01*
X112169459Y-72484628D01*
X113018815Y-72485370D01*
X113803800Y-72161020D01*
X114404909Y-71560959D01*
X114730628Y-70776541D01*
X114731370Y-69927185D01*
X114407020Y-69142200D01*
X113936366Y-68670724D01*
X122230800Y-68670724D01*
X122230800Y-69229276D01*
X122324766Y-69701676D01*
X122592359Y-70102157D01*
X122992840Y-70369750D01*
X123465240Y-70463716D01*
X123937640Y-70369750D01*
X124312424Y-70119327D01*
X124328993Y-70159329D01*
X124507622Y-70337957D01*
X124741011Y-70434630D01*
X125181010Y-70434630D01*
X125339760Y-70275880D01*
X125339760Y-69077000D01*
X125593760Y-69077000D01*
X125593760Y-70275880D01*
X125752510Y-70434630D01*
X126192509Y-70434630D01*
X126425898Y-70337957D01*
X126604527Y-70159329D01*
X126701200Y-69925940D01*
X126701200Y-69235750D01*
X126542450Y-69077000D01*
X125593760Y-69077000D01*
X125339760Y-69077000D01*
X125319760Y-69077000D01*
X125319760Y-68823000D01*
X125339760Y-68823000D01*
X125339760Y-67624120D01*
X125593760Y-67624120D01*
X125593760Y-68823000D01*
X126542450Y-68823000D01*
X126630577Y-68734873D01*
X131380812Y-68734873D01*
X131545646Y-69133800D01*
X131850595Y-69439282D01*
X132249233Y-69604811D01*
X132680873Y-69605188D01*
X133079800Y-69440354D01*
X133385282Y-69135405D01*
X133550811Y-68736767D01*
X133550812Y-68734873D01*
X134380812Y-68734873D01*
X134545646Y-69133800D01*
X134850595Y-69439282D01*
X135249233Y-69604811D01*
X135680873Y-69605188D01*
X136079800Y-69440354D01*
X136385282Y-69135405D01*
X136550811Y-68736767D01*
X136550956Y-68570724D01*
X141430800Y-68570724D01*
X141430800Y-69129276D01*
X141524766Y-69601676D01*
X141792359Y-70002157D01*
X142192840Y-70269750D01*
X142665240Y-70363716D01*
X143137640Y-70269750D01*
X143516642Y-70016509D01*
X143603230Y-70151071D01*
X143815430Y-70296061D01*
X144067320Y-70347070D01*
X145266200Y-70347070D01*
X145501517Y-70302792D01*
X145717641Y-70163720D01*
X145862631Y-69951520D01*
X145913640Y-69699630D01*
X145913640Y-68000370D01*
X145869362Y-67765053D01*
X145730290Y-67548929D01*
X145518090Y-67403939D01*
X145266200Y-67352930D01*
X144067320Y-67352930D01*
X143832003Y-67397208D01*
X143615879Y-67536280D01*
X143515716Y-67682873D01*
X143137640Y-67430250D01*
X142665240Y-67336284D01*
X142192840Y-67430250D01*
X141792359Y-67697843D01*
X141524766Y-68098324D01*
X141430800Y-68570724D01*
X136550956Y-68570724D01*
X136551188Y-68305127D01*
X136386354Y-67906200D01*
X136081405Y-67600718D01*
X135682767Y-67435189D01*
X135251127Y-67434812D01*
X134852200Y-67599646D01*
X134546718Y-67904595D01*
X134381189Y-68303233D01*
X134380812Y-68734873D01*
X133550812Y-68734873D01*
X133551188Y-68305127D01*
X133386354Y-67906200D01*
X133081405Y-67600718D01*
X132682767Y-67435189D01*
X132251127Y-67434812D01*
X131852200Y-67599646D01*
X131546718Y-67904595D01*
X131381189Y-68303233D01*
X131380812Y-68734873D01*
X126630577Y-68734873D01*
X126701200Y-68664250D01*
X126701200Y-67974060D01*
X126604527Y-67740671D01*
X126425898Y-67562043D01*
X126192509Y-67465370D01*
X125752510Y-67465370D01*
X125593760Y-67624120D01*
X125339760Y-67624120D01*
X125181010Y-67465370D01*
X124741011Y-67465370D01*
X124507622Y-67562043D01*
X124328993Y-67740671D01*
X124312424Y-67780673D01*
X123937640Y-67530250D01*
X123465240Y-67436284D01*
X122992840Y-67530250D01*
X122592359Y-67797843D01*
X122324766Y-68198324D01*
X122230800Y-68670724D01*
X113936366Y-68670724D01*
X113806959Y-68541091D01*
X113022541Y-68215372D01*
X112173185Y-68214630D01*
X111388200Y-68538980D01*
X110787091Y-69139041D01*
X110776000Y-69165751D01*
X110776000Y-66060000D01*
X159156000Y-66060000D01*
X159156000Y-69091091D01*
M02*
