G04 #@! TF.FileFunction,Copper,L1,Top,Signal*
%FSLAX46Y46*%
G04 Gerber Fmt 4.6, Leading zero omitted, Abs format (unit mm)*
G04 Created by KiCad (PCBNEW 4.0.1-stable) date 22/03/2016 00:02:26*
%MOMM*%
G01*
G04 APERTURE LIST*
%ADD10C,0.100000*%
%ADD11C,3.000000*%
%ADD12R,1.727200X2.032000*%
%ADD13O,1.727200X2.032000*%
%ADD14R,1.200000X0.900000*%
%ADD15R,0.750000X1.200000*%
%ADD16R,0.900000X1.200000*%
%ADD17R,2.032000X1.727200*%
%ADD18O,2.032000X1.727200*%
%ADD19R,1.200000X0.750000*%
%ADD20R,1.300000X1.300000*%
%ADD21C,1.300000*%
%ADD22R,2.000000X1.600000*%
%ADD23R,1.600000X2.000000*%
%ADD24R,1.198880X1.699260*%
%ADD25O,1.198880X1.699260*%
%ADD26R,1.250000X1.500000*%
%ADD27R,2.000000X2.000000*%
%ADD28C,2.000000*%
%ADD29C,1.699260*%
%ADD30R,1.699260X1.699260*%
%ADD31R,0.800000X0.900000*%
%ADD32R,2.050000X3.650000*%
%ADD33R,3.650000X2.050000*%
%ADD34R,1.300000X0.420000*%
%ADD35R,1.700000X2.845000*%
%ADD36C,1.397000*%
%ADD37R,1.699260X1.198880*%
%ADD38O,1.699260X1.198880*%
%ADD39C,0.600000*%
%ADD40C,0.400000*%
%ADD41C,0.500000*%
%ADD42C,0.300000*%
%ADD43C,0.254000*%
G04 APERTURE END LIST*
D10*
D11*
X112596000Y-110150000D03*
X112596000Y-70350000D03*
X157396000Y-70350000D03*
X157396000Y-110150000D03*
D12*
X120266000Y-102750000D03*
D13*
X122806000Y-102750000D03*
X125346000Y-102750000D03*
D14*
X126866000Y-92850000D03*
X124666000Y-92850000D03*
X126866000Y-95350000D03*
X124666000Y-95350000D03*
D15*
X137666000Y-90800000D03*
X137666000Y-88900000D03*
D12*
X120266000Y-112750000D03*
D13*
X122806000Y-112750000D03*
X125346000Y-112750000D03*
D12*
X125366000Y-107750000D03*
D13*
X122826000Y-107750000D03*
X120286000Y-107750000D03*
D16*
X137966000Y-100450000D03*
X137966000Y-102650000D03*
X135166000Y-100450000D03*
X135166000Y-102650000D03*
X132466000Y-99650000D03*
X132466000Y-97450000D03*
D17*
X119966000Y-91450000D03*
D18*
X119966000Y-93990000D03*
X119966000Y-96530000D03*
D19*
X137916000Y-98150000D03*
X136016000Y-98150000D03*
D20*
X147316000Y-75700000D03*
D21*
X144816000Y-75700000D03*
D22*
X138266000Y-94450000D03*
X142266000Y-94450000D03*
D15*
X129166000Y-113700000D03*
X129166000Y-111800000D03*
D23*
X129666000Y-84750000D03*
X129666000Y-88750000D03*
D24*
X127966760Y-68950000D03*
D25*
X125965240Y-68950000D03*
D26*
X141166000Y-88200000D03*
X141166000Y-90700000D03*
D27*
X115066000Y-92050000D03*
D28*
X112526000Y-92050000D03*
D27*
X115066000Y-98050000D03*
D28*
X112526000Y-98050000D03*
D17*
X152566000Y-91700000D03*
D18*
X152566000Y-94240000D03*
X152566000Y-96780000D03*
D24*
X138466760Y-68950000D03*
D25*
X136465240Y-68950000D03*
D16*
X120266000Y-86450000D03*
X120266000Y-84250000D03*
X120266000Y-78750000D03*
X120266000Y-76550000D03*
D29*
X146068540Y-95710520D03*
D30*
X146068540Y-85550520D03*
D31*
X142966000Y-97450000D03*
X142016000Y-99450000D03*
X143916000Y-99450000D03*
X133666000Y-88950000D03*
X134616000Y-86950000D03*
X132716000Y-86950000D03*
X126966000Y-75150000D03*
X127916000Y-73150000D03*
X126016000Y-73150000D03*
D32*
X152316000Y-85700000D03*
D33*
X151466000Y-69550000D03*
D32*
X124066000Y-85350000D03*
D33*
X144966000Y-82000000D03*
D32*
X132566000Y-103850000D03*
X124066000Y-79350000D03*
D34*
X130308000Y-94557500D03*
X130308000Y-93907500D03*
X130308000Y-93257500D03*
X130308000Y-92607500D03*
X130308000Y-91957500D03*
X130308000Y-91307500D03*
X134819000Y-91307500D03*
X134819000Y-91957500D03*
X134819000Y-92607500D03*
X134819000Y-93257500D03*
X134819000Y-93907500D03*
X134819000Y-94557500D03*
D35*
X132558500Y-92932500D03*
D36*
X139166000Y-78850000D03*
X134166000Y-78850000D03*
X114266000Y-80180000D03*
X116806000Y-77640000D03*
X111726000Y-77640000D03*
X114266000Y-87980000D03*
X116806000Y-85440000D03*
X111726000Y-85440000D03*
D33*
X119636000Y-68430000D03*
D37*
X153316000Y-103700760D03*
D38*
X153316000Y-101699240D03*
D37*
X153316000Y-77200760D03*
D38*
X153316000Y-75199240D03*
D39*
X141666000Y-96250000D03*
X141666000Y-92750000D03*
X144566000Y-93550000D03*
X132566000Y-95050000D03*
X132566000Y-90750000D03*
X126966000Y-86950000D03*
X140866000Y-97450000D03*
D40*
X115066000Y-98050000D02*
X115566000Y-98050000D01*
X115566000Y-98050000D02*
X120266000Y-102750000D01*
D41*
X142266000Y-94450000D02*
X142266000Y-95650000D01*
X142266000Y-95650000D02*
X141666000Y-96250000D01*
X142266000Y-94450000D02*
X142266000Y-93350000D01*
X142266000Y-93350000D02*
X141666000Y-92750000D01*
X142266000Y-94450000D02*
X143666000Y-94450000D01*
X143666000Y-94450000D02*
X144566000Y-93550000D01*
X132578500Y-92912500D02*
X132578500Y-95037500D01*
X132578500Y-95037500D02*
X132566000Y-95050000D01*
X132578500Y-92912500D02*
X132578500Y-90762500D01*
X132578500Y-90762500D02*
X132566000Y-90750000D01*
X142966000Y-97450000D02*
X151896000Y-97450000D01*
X151896000Y-97450000D02*
X152566000Y-96780000D01*
X142966000Y-97450000D02*
X140866000Y-97450000D01*
D42*
X130553500Y-91307500D02*
X130553500Y-91262500D01*
X130553500Y-91262500D02*
X130766000Y-91050000D01*
X129866000Y-90150000D02*
X129866000Y-88950000D01*
X130766000Y-91050000D02*
X129866000Y-90150000D01*
X129866000Y-88950000D02*
X129666000Y-88750000D01*
X130553500Y-91307500D02*
X130553500Y-91137500D01*
X130553500Y-91137500D02*
X129666000Y-90250000D01*
X129666000Y-90250000D02*
X129666000Y-88750000D01*
D40*
X130553500Y-91307500D02*
X130523500Y-91307500D01*
D41*
X129666000Y-88750000D02*
X128766000Y-88750000D01*
X128766000Y-88750000D02*
X126966000Y-86950000D01*
X126966000Y-86950000D02*
X126966000Y-75150000D01*
D40*
X130308000Y-91957500D02*
X129273500Y-91957500D01*
X125966000Y-81250000D02*
X124066000Y-79350000D01*
X125966000Y-88650000D02*
X125966000Y-81250000D01*
X129273500Y-91957500D02*
X125966000Y-88650000D01*
X114266000Y-80180000D02*
X123236000Y-80180000D01*
X123236000Y-80180000D02*
X124066000Y-79350000D01*
X124066000Y-79350000D02*
X124066000Y-79450000D01*
X129973500Y-91957500D02*
X130553500Y-91957500D01*
X130308000Y-92607500D02*
X128823500Y-92607500D01*
X124066000Y-87850000D02*
X124066000Y-85350000D01*
X128823500Y-92607500D02*
X124066000Y-87850000D01*
X114266000Y-87980000D02*
X121436000Y-87980000D01*
X121436000Y-87980000D02*
X124066000Y-85350000D01*
X122806000Y-112750000D02*
X122806000Y-112110000D01*
X122806000Y-112110000D02*
X124666000Y-110250000D01*
X124666000Y-110250000D02*
X127366000Y-110250000D01*
X127366000Y-110250000D02*
X129666000Y-107950000D01*
X129666000Y-107950000D02*
X129666000Y-95445000D01*
X129666000Y-95445000D02*
X130553500Y-94557500D01*
X122806000Y-102750000D02*
X122806000Y-97210000D01*
X122806000Y-97210000D02*
X124666000Y-95350000D01*
X122826000Y-107750000D02*
X122826000Y-105270000D01*
X122826000Y-105270000D02*
X125346000Y-102750000D01*
X130553500Y-93257500D02*
X127273500Y-93257500D01*
X127273500Y-93257500D02*
X126866000Y-92850000D01*
X130553500Y-93907500D02*
X128308500Y-93907500D01*
X128308500Y-93907500D02*
X126866000Y-95350000D01*
X115066000Y-92050000D02*
X119366000Y-92050000D01*
X119366000Y-92050000D02*
X119966000Y-91450000D01*
X119966000Y-93990000D02*
X123526000Y-93990000D01*
X123526000Y-93990000D02*
X124666000Y-92850000D01*
X137966000Y-102650000D02*
X137366000Y-102650000D01*
X137366000Y-102650000D02*
X135166000Y-100450000D01*
X132466000Y-99650000D02*
X134366000Y-99650000D01*
X134366000Y-99650000D02*
X135166000Y-100450000D01*
D41*
X137916000Y-98150000D02*
X137916000Y-94800000D01*
X137916000Y-94800000D02*
X138266000Y-94450000D01*
X152566000Y-91700000D02*
X152566000Y-85950000D01*
X152566000Y-85950000D02*
X152316000Y-85700000D01*
X146068540Y-95710520D02*
X148555480Y-95710520D01*
X148555480Y-95710520D02*
X152566000Y-91700000D01*
X146068540Y-95710520D02*
X146068540Y-91852540D01*
X144916000Y-90700000D02*
X141166000Y-90700000D01*
X146068540Y-91852540D02*
X144916000Y-90700000D01*
D42*
X134653500Y-93257500D02*
X137073500Y-93257500D01*
X137073500Y-93257500D02*
X138266000Y-94450000D01*
X137916000Y-94800000D02*
X138266000Y-94450000D01*
D41*
X137966000Y-100450000D02*
X137966000Y-98200000D01*
X137966000Y-98200000D02*
X137916000Y-98150000D01*
X137966000Y-100450000D02*
X141016000Y-100450000D01*
X141016000Y-100450000D02*
X142016000Y-99450000D01*
X137916000Y-94800000D02*
X138266000Y-94450000D01*
X138266000Y-94450000D02*
X138266000Y-93600000D01*
X138266000Y-93600000D02*
X141166000Y-90700000D01*
D42*
X137916000Y-94800000D02*
X138266000Y-94450000D01*
X137916000Y-100400000D02*
X137966000Y-100450000D01*
D41*
X137666000Y-90800000D02*
X137716000Y-90800000D01*
X137716000Y-90800000D02*
X138966000Y-89550000D01*
X140366000Y-85550000D02*
X146066000Y-85550000D01*
X138966000Y-86950000D02*
X140366000Y-85550000D01*
X138966000Y-89550000D02*
X138966000Y-86950000D01*
D40*
X134653500Y-91957500D02*
X136508500Y-91957500D01*
X136508500Y-91957500D02*
X137666000Y-90800000D01*
D42*
X134653500Y-91307500D02*
X134653500Y-91262500D01*
X134653500Y-91262500D02*
X134866000Y-91050000D01*
X133866000Y-89950000D02*
X133866000Y-89150000D01*
X134866000Y-90950000D02*
X133866000Y-89950000D01*
X134866000Y-91050000D02*
X134866000Y-90950000D01*
X133866000Y-89150000D02*
X133666000Y-88950000D01*
X134653500Y-91307500D02*
X134653500Y-91037500D01*
X133666000Y-90050000D02*
X133666000Y-88950000D01*
X134653500Y-91037500D02*
X133666000Y-90050000D01*
D41*
X133666000Y-88950000D02*
X137616000Y-88950000D01*
X137616000Y-88950000D02*
X137666000Y-88900000D01*
X134166000Y-78850000D02*
X134166000Y-82450000D01*
X137666000Y-85950000D02*
X137666000Y-88900000D01*
X134166000Y-82450000D02*
X137666000Y-85950000D01*
D40*
X137616000Y-88950000D02*
X137666000Y-88900000D01*
X132566000Y-103850000D02*
X132566000Y-102850000D01*
X132566000Y-102850000D02*
X130666000Y-100950000D01*
X130666000Y-100950000D02*
X130666000Y-99250000D01*
X130666000Y-99250000D02*
X132466000Y-97450000D01*
X136016000Y-98150000D02*
X136016000Y-95920000D01*
X136016000Y-95920000D02*
X134653500Y-94557500D01*
X134653500Y-94557500D02*
X134653500Y-95262500D01*
X134653500Y-95262500D02*
X132466000Y-97450000D01*
D41*
X139166000Y-78850000D02*
X141816000Y-78850000D01*
X141816000Y-78850000D02*
X144966000Y-82000000D01*
X141166000Y-88200000D02*
X144016000Y-88200000D01*
X148066000Y-83750000D02*
X146316000Y-82000000D01*
X148066000Y-86950000D02*
X148066000Y-83750000D01*
X147466000Y-87550000D02*
X148066000Y-86950000D01*
X144666000Y-87550000D02*
X147466000Y-87550000D01*
X144016000Y-88200000D02*
X144666000Y-87550000D01*
X146316000Y-82000000D02*
X144966000Y-82000000D01*
D40*
X134653500Y-92607500D02*
X135865998Y-92607500D01*
D41*
X139266000Y-90350000D02*
X139266000Y-91250000D01*
X139266000Y-91250000D02*
X137908498Y-92607502D01*
X137908498Y-92607502D02*
X135866000Y-92607502D01*
X139266000Y-90350000D02*
X141166000Y-88450000D01*
D40*
X135865998Y-92607500D02*
X135866000Y-92607502D01*
D41*
X141166000Y-88200000D02*
X141166000Y-88450000D01*
D42*
X141166000Y-88200000D02*
X141116000Y-88200000D01*
X143766000Y-82000000D02*
X144966000Y-82000000D01*
D40*
X129166000Y-113700000D02*
X126296000Y-113700000D01*
X126296000Y-113700000D02*
X125346000Y-112750000D01*
D41*
X119636000Y-68430000D02*
X119636000Y-70480000D01*
X119636000Y-70480000D02*
X118666000Y-71450000D01*
X111726000Y-77640000D02*
X112476000Y-77640000D01*
X125466760Y-71450000D02*
X127966760Y-68950000D01*
X118666000Y-71450000D02*
X125466760Y-71450000D01*
X112476000Y-77640000D02*
X118666000Y-71450000D01*
X138466760Y-68950000D02*
X138466760Y-70149240D01*
X135466000Y-73150000D02*
X127916000Y-73150000D01*
X138466760Y-70149240D02*
X135466000Y-73150000D01*
X127966760Y-68950000D02*
X127966760Y-73099240D01*
X127966760Y-73099240D02*
X127916000Y-73150000D01*
X111726000Y-85440000D02*
X111726000Y-77640000D01*
X147316000Y-75700000D02*
X149316000Y-75700000D01*
X150816760Y-77200760D02*
X153316000Y-77200760D01*
X149316000Y-75700000D02*
X150816760Y-77200760D01*
X152566000Y-94240000D02*
X154776000Y-94240000D01*
X155566000Y-79450760D02*
X153316000Y-77200760D01*
X155566000Y-93450000D02*
X155566000Y-79450760D01*
X154776000Y-94240000D02*
X155566000Y-93450000D01*
D40*
X120266000Y-86450000D02*
X117816000Y-86450000D01*
X117816000Y-86450000D02*
X116806000Y-85440000D01*
X120266000Y-78750000D02*
X117916000Y-78750000D01*
X117916000Y-78750000D02*
X116806000Y-77640000D01*
D43*
G36*
X159156000Y-69091091D02*
X158606959Y-68541091D01*
X157822541Y-68215372D01*
X156973185Y-68214630D01*
X156188200Y-68538980D01*
X155587091Y-69139041D01*
X155261372Y-69923459D01*
X155260630Y-70772815D01*
X155584980Y-71557800D01*
X156185041Y-72158909D01*
X156969459Y-72484628D01*
X157818815Y-72485370D01*
X158603800Y-72161020D01*
X159156000Y-71609783D01*
X159156000Y-108891091D01*
X158606959Y-108341091D01*
X157822541Y-108015372D01*
X156973185Y-108014630D01*
X156188200Y-108338980D01*
X155587091Y-108939041D01*
X155261372Y-109723459D01*
X155260630Y-110572815D01*
X155584980Y-111357800D01*
X156185041Y-111958909D01*
X156969459Y-112284628D01*
X157818815Y-112285370D01*
X158603800Y-111961020D01*
X159156000Y-111409783D01*
X159156000Y-114440000D01*
X130160089Y-114440000D01*
X130188440Y-114300000D01*
X130188440Y-113100000D01*
X130144162Y-112864683D01*
X130077671Y-112761354D01*
X130079327Y-112759698D01*
X130176000Y-112526309D01*
X130176000Y-112085750D01*
X130017250Y-111927000D01*
X129293000Y-111927000D01*
X129293000Y-111947000D01*
X129039000Y-111947000D01*
X129039000Y-111927000D01*
X128314750Y-111927000D01*
X128156000Y-112085750D01*
X128156000Y-112526309D01*
X128252673Y-112759698D01*
X128254043Y-112761068D01*
X128194569Y-112848110D01*
X128191149Y-112865000D01*
X126844600Y-112865000D01*
X126844600Y-112565255D01*
X126730526Y-111991766D01*
X126405670Y-111505585D01*
X125919489Y-111180729D01*
X125438227Y-111085000D01*
X127366000Y-111085000D01*
X127422853Y-111073691D01*
X128156000Y-111073691D01*
X128156000Y-111514250D01*
X128314750Y-111673000D01*
X129039000Y-111673000D01*
X129039000Y-110723750D01*
X129293000Y-110723750D01*
X129293000Y-111673000D01*
X130017250Y-111673000D01*
X130176000Y-111514250D01*
X130176000Y-111073691D01*
X130079327Y-110840302D01*
X129900699Y-110661673D01*
X129667310Y-110565000D01*
X129451750Y-110565000D01*
X129293000Y-110723750D01*
X129039000Y-110723750D01*
X128880250Y-110565000D01*
X128664690Y-110565000D01*
X128431301Y-110661673D01*
X128252673Y-110840302D01*
X128156000Y-111073691D01*
X127422853Y-111073691D01*
X127685541Y-111021439D01*
X127956434Y-110840434D01*
X130256434Y-108540434D01*
X130277949Y-108508234D01*
X130437439Y-108269541D01*
X130501000Y-107950000D01*
X130501000Y-101965868D01*
X130893560Y-102358428D01*
X130893560Y-105675000D01*
X130937838Y-105910317D01*
X131076910Y-106126441D01*
X131289110Y-106271431D01*
X131541000Y-106322440D01*
X133591000Y-106322440D01*
X133826317Y-106278162D01*
X134042441Y-106139090D01*
X134187431Y-105926890D01*
X134238440Y-105675000D01*
X134238440Y-103670465D01*
X134356301Y-103788327D01*
X134589690Y-103885000D01*
X134880250Y-103885000D01*
X135039000Y-103726250D01*
X135039000Y-102777000D01*
X135019000Y-102777000D01*
X135019000Y-102523000D01*
X135039000Y-102523000D01*
X135039000Y-102503000D01*
X135293000Y-102503000D01*
X135293000Y-102523000D01*
X135313000Y-102523000D01*
X135313000Y-102777000D01*
X135293000Y-102777000D01*
X135293000Y-103726250D01*
X135451750Y-103885000D01*
X135742310Y-103885000D01*
X135975699Y-103788327D01*
X136154327Y-103609698D01*
X136251000Y-103376309D01*
X136251000Y-102935750D01*
X136092252Y-102777002D01*
X136251000Y-102777002D01*
X136251000Y-102715868D01*
X136775566Y-103240434D01*
X136879874Y-103310131D01*
X136912838Y-103485317D01*
X137051910Y-103701441D01*
X137264110Y-103846431D01*
X137516000Y-103897440D01*
X138416000Y-103897440D01*
X138651317Y-103853162D01*
X138867441Y-103714090D01*
X139012431Y-103501890D01*
X139063440Y-103250000D01*
X139063440Y-103101320D01*
X151818930Y-103101320D01*
X151818930Y-104300200D01*
X151863208Y-104535517D01*
X152002280Y-104751641D01*
X152214480Y-104896631D01*
X152466370Y-104947640D01*
X154165630Y-104947640D01*
X154400947Y-104903362D01*
X154617071Y-104764290D01*
X154762061Y-104552090D01*
X154813070Y-104300200D01*
X154813070Y-103101320D01*
X154768792Y-102866003D01*
X154629720Y-102649879D01*
X154475757Y-102544681D01*
X154497568Y-102528197D01*
X154743899Y-102108673D01*
X154759095Y-102016761D01*
X154634357Y-101826240D01*
X153443000Y-101826240D01*
X153443000Y-101846240D01*
X153189000Y-101846240D01*
X153189000Y-101826240D01*
X151997643Y-101826240D01*
X151872905Y-102016761D01*
X151888101Y-102108673D01*
X152134432Y-102528197D01*
X152157398Y-102545554D01*
X152014929Y-102637230D01*
X151869939Y-102849430D01*
X151818930Y-103101320D01*
X139063440Y-103101320D01*
X139063440Y-102050000D01*
X139019162Y-101814683D01*
X138880090Y-101598559D01*
X138810289Y-101550866D01*
X138867441Y-101514090D01*
X138957886Y-101381719D01*
X151872905Y-101381719D01*
X151997643Y-101572240D01*
X153189000Y-101572240D01*
X153189000Y-100617240D01*
X153443000Y-100617240D01*
X153443000Y-101572240D01*
X154634357Y-101572240D01*
X154759095Y-101381719D01*
X154743899Y-101289807D01*
X154497568Y-100870283D01*
X154109443Y-100576961D01*
X153638613Y-100454495D01*
X153443000Y-100617240D01*
X153189000Y-100617240D01*
X152993387Y-100454495D01*
X152522557Y-100576961D01*
X152134432Y-100870283D01*
X151888101Y-101289807D01*
X151872905Y-101381719D01*
X138957886Y-101381719D01*
X138989808Y-101335000D01*
X141015995Y-101335000D01*
X141016000Y-101335001D01*
X141298484Y-101278810D01*
X141354675Y-101267633D01*
X141641790Y-101075790D01*
X142170139Y-100547440D01*
X142416000Y-100547440D01*
X142651317Y-100503162D01*
X142867441Y-100364090D01*
X142966633Y-100218917D01*
X143051910Y-100351441D01*
X143264110Y-100496431D01*
X143516000Y-100547440D01*
X144316000Y-100547440D01*
X144551317Y-100503162D01*
X144767441Y-100364090D01*
X144912431Y-100151890D01*
X144963440Y-99900000D01*
X144963440Y-99000000D01*
X144919162Y-98764683D01*
X144780090Y-98548559D01*
X144567890Y-98403569D01*
X144316000Y-98352560D01*
X143825319Y-98352560D01*
X143837317Y-98335000D01*
X151895995Y-98335000D01*
X151896000Y-98335001D01*
X152179540Y-98278600D01*
X152234675Y-98267633D01*
X152255653Y-98253616D01*
X152381255Y-98278600D01*
X152750745Y-98278600D01*
X153324234Y-98164526D01*
X153810415Y-97839670D01*
X154135271Y-97353489D01*
X154249345Y-96780000D01*
X154135271Y-96206511D01*
X153810415Y-95720330D01*
X153495634Y-95510000D01*
X153810415Y-95299670D01*
X153927126Y-95125000D01*
X154775995Y-95125000D01*
X154776000Y-95125001D01*
X155058484Y-95068810D01*
X155114675Y-95057633D01*
X155401790Y-94865790D01*
X156191787Y-94075792D01*
X156191790Y-94075790D01*
X156383633Y-93788675D01*
X156408234Y-93665000D01*
X156451001Y-93450000D01*
X156451000Y-93449995D01*
X156451000Y-79450765D01*
X156451001Y-79450760D01*
X156383634Y-79112086D01*
X156208514Y-78850000D01*
X156191790Y-78824970D01*
X156191787Y-78824968D01*
X154813070Y-77446250D01*
X154813070Y-76601320D01*
X154768792Y-76366003D01*
X154629720Y-76149879D01*
X154475757Y-76044681D01*
X154497568Y-76028197D01*
X154743899Y-75608673D01*
X154759095Y-75516761D01*
X154634357Y-75326240D01*
X153443000Y-75326240D01*
X153443000Y-75346240D01*
X153189000Y-75346240D01*
X153189000Y-75326240D01*
X151997643Y-75326240D01*
X151872905Y-75516761D01*
X151888101Y-75608673D01*
X152134432Y-76028197D01*
X152157398Y-76045554D01*
X152014929Y-76137230D01*
X151892945Y-76315760D01*
X151183339Y-76315760D01*
X149941790Y-75074210D01*
X149885010Y-75036271D01*
X149654675Y-74882367D01*
X149651418Y-74881719D01*
X151872905Y-74881719D01*
X151997643Y-75072240D01*
X153189000Y-75072240D01*
X153189000Y-74117240D01*
X153443000Y-74117240D01*
X153443000Y-75072240D01*
X154634357Y-75072240D01*
X154759095Y-74881719D01*
X154743899Y-74789807D01*
X154497568Y-74370283D01*
X154109443Y-74076961D01*
X153638613Y-73954495D01*
X153443000Y-74117240D01*
X153189000Y-74117240D01*
X152993387Y-73954495D01*
X152522557Y-74076961D01*
X152134432Y-74370283D01*
X151888101Y-74789807D01*
X151872905Y-74881719D01*
X149651418Y-74881719D01*
X149598484Y-74871190D01*
X149316000Y-74814999D01*
X149315995Y-74815000D01*
X148569222Y-74815000D01*
X148569162Y-74814683D01*
X148430090Y-74598559D01*
X148217890Y-74453569D01*
X147966000Y-74402560D01*
X146666000Y-74402560D01*
X146430683Y-74446838D01*
X146214559Y-74585910D01*
X146069569Y-74798110D01*
X146018560Y-75050000D01*
X146018560Y-75212385D01*
X145945611Y-75036271D01*
X145715016Y-74980590D01*
X144995605Y-75700000D01*
X145715016Y-76419410D01*
X145945611Y-76363729D01*
X146018560Y-76154098D01*
X146018560Y-76350000D01*
X146062838Y-76585317D01*
X146201910Y-76801441D01*
X146414110Y-76946431D01*
X146666000Y-76997440D01*
X147966000Y-76997440D01*
X148201317Y-76953162D01*
X148417441Y-76814090D01*
X148562431Y-76601890D01*
X148565851Y-76585000D01*
X148949420Y-76585000D01*
X150190968Y-77826547D01*
X150190970Y-77826550D01*
X150478085Y-78018393D01*
X150816760Y-78085761D01*
X150816765Y-78085760D01*
X151895538Y-78085760D01*
X152002280Y-78251641D01*
X152214480Y-78396631D01*
X152466370Y-78447640D01*
X153311300Y-78447640D01*
X154681000Y-79817339D01*
X154681000Y-93083421D01*
X154409420Y-93355000D01*
X153927126Y-93355000D01*
X153810415Y-93180330D01*
X153796087Y-93170757D01*
X153817317Y-93166762D01*
X154033441Y-93027690D01*
X154178431Y-92815490D01*
X154229440Y-92563600D01*
X154229440Y-90836400D01*
X154185162Y-90601083D01*
X154046090Y-90384959D01*
X153833890Y-90239969D01*
X153582000Y-90188960D01*
X153451000Y-90188960D01*
X153451000Y-88151742D01*
X153576317Y-88128162D01*
X153792441Y-87989090D01*
X153937431Y-87776890D01*
X153988440Y-87525000D01*
X153988440Y-83875000D01*
X153944162Y-83639683D01*
X153805090Y-83423559D01*
X153592890Y-83278569D01*
X153341000Y-83227560D01*
X151291000Y-83227560D01*
X151055683Y-83271838D01*
X150839559Y-83410910D01*
X150694569Y-83623110D01*
X150643560Y-83875000D01*
X150643560Y-87525000D01*
X150687838Y-87760317D01*
X150826910Y-87976441D01*
X151039110Y-88121431D01*
X151291000Y-88172440D01*
X151681000Y-88172440D01*
X151681000Y-90188960D01*
X151550000Y-90188960D01*
X151314683Y-90233238D01*
X151098559Y-90372310D01*
X150953569Y-90584510D01*
X150902560Y-90836400D01*
X150902560Y-92111861D01*
X148188900Y-94825520D01*
X147282838Y-94825520D01*
X146953540Y-94495647D01*
X146953540Y-91852545D01*
X146953541Y-91852540D01*
X146895928Y-91562907D01*
X146886173Y-91513865D01*
X146694330Y-91226750D01*
X146694327Y-91226748D01*
X145541790Y-90074210D01*
X145505557Y-90050000D01*
X145254675Y-89882367D01*
X145162791Y-89864090D01*
X144916000Y-89814999D01*
X144915995Y-89815000D01*
X142413038Y-89815000D01*
X142394162Y-89714683D01*
X142255090Y-89498559D01*
X142185289Y-89450866D01*
X142242441Y-89414090D01*
X142387431Y-89201890D01*
X142411102Y-89085000D01*
X144015995Y-89085000D01*
X144016000Y-89085001D01*
X144298484Y-89028810D01*
X144354675Y-89017633D01*
X144641790Y-88825790D01*
X145032579Y-88435000D01*
X147465995Y-88435000D01*
X147466000Y-88435001D01*
X147748484Y-88378810D01*
X147804675Y-88367633D01*
X148091790Y-88175790D01*
X148091791Y-88175789D01*
X148691787Y-87575792D01*
X148691790Y-87575790D01*
X148883633Y-87288675D01*
X148889423Y-87259566D01*
X148951001Y-86950000D01*
X148951000Y-86949995D01*
X148951000Y-83750005D01*
X148951001Y-83750000D01*
X148894810Y-83467516D01*
X148883633Y-83411325D01*
X148691790Y-83124210D01*
X148691787Y-83124208D01*
X147438440Y-81870860D01*
X147438440Y-80975000D01*
X147394162Y-80739683D01*
X147255090Y-80523559D01*
X147042890Y-80378569D01*
X146791000Y-80327560D01*
X144545139Y-80327560D01*
X142441790Y-78224210D01*
X142249340Y-78095620D01*
X142154675Y-78032367D01*
X142098484Y-78021190D01*
X141816000Y-77964999D01*
X141815995Y-77965000D01*
X140166754Y-77965000D01*
X139922353Y-77720173D01*
X139432413Y-77516732D01*
X138901914Y-77516269D01*
X138411620Y-77718854D01*
X138036173Y-78093647D01*
X137832732Y-78583587D01*
X137832269Y-79114086D01*
X138034854Y-79604380D01*
X138409647Y-79979827D01*
X138899587Y-80183268D01*
X139430086Y-80183731D01*
X139920380Y-79981146D01*
X140166956Y-79735000D01*
X141449420Y-79735000D01*
X142526543Y-80812123D01*
X142493560Y-80975000D01*
X142493560Y-83025000D01*
X142537838Y-83260317D01*
X142676910Y-83476441D01*
X142889110Y-83621431D01*
X143141000Y-83672440D01*
X146736861Y-83672440D01*
X147168580Y-84104159D01*
X146918170Y-84053450D01*
X145218910Y-84053450D01*
X144983593Y-84097728D01*
X144767469Y-84236800D01*
X144622479Y-84449000D01*
X144578738Y-84665000D01*
X140366005Y-84665000D01*
X140366000Y-84664999D01*
X140083516Y-84721190D01*
X140027325Y-84732367D01*
X139740210Y-84924210D01*
X139740208Y-84924213D01*
X138551000Y-86113420D01*
X138551000Y-85950000D01*
X138483633Y-85611325D01*
X138291790Y-85324210D01*
X138291787Y-85324208D01*
X135051000Y-82083420D01*
X135051000Y-79850754D01*
X135295827Y-79606353D01*
X135499268Y-79116413D01*
X135499731Y-78585914D01*
X135297146Y-78095620D01*
X134922353Y-77720173D01*
X134432413Y-77516732D01*
X133901914Y-77516269D01*
X133411620Y-77718854D01*
X133036173Y-78093647D01*
X132832732Y-78583587D01*
X132832269Y-79114086D01*
X133034854Y-79604380D01*
X133281000Y-79850956D01*
X133281000Y-82449995D01*
X133280999Y-82450000D01*
X133315967Y-82625790D01*
X133348367Y-82788675D01*
X133530268Y-83060910D01*
X133540210Y-83075790D01*
X136781000Y-86316579D01*
X136781000Y-87921614D01*
X136694569Y-88048110D01*
X136691149Y-88065000D01*
X134540669Y-88065000D01*
X134530090Y-88048559D01*
X134403314Y-87961936D01*
X134489000Y-87876250D01*
X134489000Y-87077000D01*
X134743000Y-87077000D01*
X134743000Y-87876250D01*
X134901750Y-88035000D01*
X135142309Y-88035000D01*
X135375698Y-87938327D01*
X135554327Y-87759699D01*
X135651000Y-87526310D01*
X135651000Y-87235750D01*
X135492250Y-87077000D01*
X134743000Y-87077000D01*
X134489000Y-87077000D01*
X134469000Y-87077000D01*
X134469000Y-86823000D01*
X134489000Y-86823000D01*
X134489000Y-86023750D01*
X134743000Y-86023750D01*
X134743000Y-86823000D01*
X135492250Y-86823000D01*
X135651000Y-86664250D01*
X135651000Y-86373690D01*
X135554327Y-86140301D01*
X135375698Y-85961673D01*
X135142309Y-85865000D01*
X134901750Y-85865000D01*
X134743000Y-86023750D01*
X134489000Y-86023750D01*
X134330250Y-85865000D01*
X134089691Y-85865000D01*
X133856302Y-85961673D01*
X133677673Y-86140301D01*
X133662577Y-86176747D01*
X133580090Y-86048559D01*
X133367890Y-85903569D01*
X133116000Y-85852560D01*
X132316000Y-85852560D01*
X132080683Y-85896838D01*
X131864559Y-86035910D01*
X131719569Y-86248110D01*
X131668560Y-86500000D01*
X131668560Y-87400000D01*
X131712838Y-87635317D01*
X131851910Y-87851441D01*
X132064110Y-87996431D01*
X132316000Y-88047440D01*
X132806681Y-88047440D01*
X132669569Y-88248110D01*
X132618560Y-88500000D01*
X132618560Y-89400000D01*
X132662838Y-89635317D01*
X132801910Y-89851441D01*
X132881000Y-89905481D01*
X132881000Y-90050000D01*
X132940755Y-90350407D01*
X133110921Y-90605079D01*
X133380842Y-90875000D01*
X132844250Y-90875000D01*
X132685500Y-91033750D01*
X132685500Y-92805500D01*
X132705500Y-92805500D01*
X132705500Y-93059500D01*
X132685500Y-93059500D01*
X132685500Y-94831250D01*
X132844250Y-94990000D01*
X133534810Y-94990000D01*
X133561357Y-94979004D01*
X133565838Y-95002817D01*
X133631020Y-95104112D01*
X132532572Y-96202560D01*
X132016000Y-96202560D01*
X131780683Y-96246838D01*
X131564559Y-96385910D01*
X131419569Y-96598110D01*
X131368560Y-96850000D01*
X131368560Y-97366572D01*
X130501000Y-98234132D01*
X130501000Y-95790868D01*
X130876928Y-95414940D01*
X130958000Y-95414940D01*
X131193317Y-95370662D01*
X131409441Y-95231590D01*
X131554431Y-95019390D01*
X131562070Y-94981666D01*
X131582190Y-94990000D01*
X132272750Y-94990000D01*
X132431500Y-94831250D01*
X132431500Y-93059500D01*
X132411500Y-93059500D01*
X132411500Y-92805500D01*
X132431500Y-92805500D01*
X132431500Y-91033750D01*
X132272750Y-90875000D01*
X131582190Y-90875000D01*
X131564920Y-90882154D01*
X131561162Y-90862183D01*
X131492378Y-90755290D01*
X131491245Y-90749593D01*
X131422717Y-90647033D01*
X131422090Y-90646059D01*
X131422046Y-90646029D01*
X131321079Y-90494921D01*
X130967291Y-90141133D01*
X131062431Y-90001890D01*
X131113440Y-89750000D01*
X131113440Y-87750000D01*
X131069162Y-87514683D01*
X130930090Y-87298559D01*
X130717890Y-87153569D01*
X130466000Y-87102560D01*
X128866000Y-87102560D01*
X128630683Y-87146838D01*
X128499093Y-87231514D01*
X127851000Y-86583420D01*
X127851000Y-85035750D01*
X128231000Y-85035750D01*
X128231000Y-85876309D01*
X128327673Y-86109698D01*
X128506301Y-86288327D01*
X128739690Y-86385000D01*
X129380250Y-86385000D01*
X129539000Y-86226250D01*
X129539000Y-84877000D01*
X129793000Y-84877000D01*
X129793000Y-86226250D01*
X129951750Y-86385000D01*
X130592310Y-86385000D01*
X130825699Y-86288327D01*
X131004327Y-86109698D01*
X131101000Y-85876309D01*
X131101000Y-85035750D01*
X130942250Y-84877000D01*
X129793000Y-84877000D01*
X129539000Y-84877000D01*
X128389750Y-84877000D01*
X128231000Y-85035750D01*
X127851000Y-85035750D01*
X127851000Y-83623691D01*
X128231000Y-83623691D01*
X128231000Y-84464250D01*
X128389750Y-84623000D01*
X129539000Y-84623000D01*
X129539000Y-83273750D01*
X129793000Y-83273750D01*
X129793000Y-84623000D01*
X130942250Y-84623000D01*
X131101000Y-84464250D01*
X131101000Y-83623691D01*
X131004327Y-83390302D01*
X130825699Y-83211673D01*
X130592310Y-83115000D01*
X129951750Y-83115000D01*
X129793000Y-83273750D01*
X129539000Y-83273750D01*
X129380250Y-83115000D01*
X128739690Y-83115000D01*
X128506301Y-83211673D01*
X128327673Y-83390302D01*
X128231000Y-83623691D01*
X127851000Y-83623691D01*
X127851000Y-76599016D01*
X144096590Y-76599016D01*
X144152271Y-76829611D01*
X144635078Y-76997622D01*
X145145428Y-76968083D01*
X145479729Y-76829611D01*
X145535410Y-76599016D01*
X144816000Y-75879605D01*
X144096590Y-76599016D01*
X127851000Y-76599016D01*
X127851000Y-76014975D01*
X127962431Y-75851890D01*
X128013440Y-75600000D01*
X128013440Y-75519078D01*
X143518378Y-75519078D01*
X143547917Y-76029428D01*
X143686389Y-76363729D01*
X143916984Y-76419410D01*
X144636395Y-75700000D01*
X143916984Y-74980590D01*
X143686389Y-75036271D01*
X143518378Y-75519078D01*
X128013440Y-75519078D01*
X128013440Y-74800984D01*
X144096590Y-74800984D01*
X144816000Y-75520395D01*
X145535410Y-74800984D01*
X145479729Y-74570389D01*
X144996922Y-74402378D01*
X144486572Y-74431917D01*
X144152271Y-74570389D01*
X144096590Y-74800984D01*
X128013440Y-74800984D01*
X128013440Y-74700000D01*
X127969162Y-74464683D01*
X127830090Y-74248559D01*
X127828452Y-74247440D01*
X128316000Y-74247440D01*
X128551317Y-74203162D01*
X128767441Y-74064090D01*
X128787317Y-74035000D01*
X135465995Y-74035000D01*
X135466000Y-74035001D01*
X135748484Y-73978810D01*
X135804675Y-73967633D01*
X136091790Y-73775790D01*
X139092547Y-70775032D01*
X139092550Y-70775030D01*
X139284393Y-70487915D01*
X139301318Y-70402830D01*
X139301517Y-70402792D01*
X139517641Y-70263720D01*
X139662631Y-70051520D01*
X139706325Y-69835750D01*
X149006000Y-69835750D01*
X149006000Y-70701310D01*
X149102673Y-70934699D01*
X149281302Y-71113327D01*
X149514691Y-71210000D01*
X151180250Y-71210000D01*
X151339000Y-71051250D01*
X151339000Y-69677000D01*
X151593000Y-69677000D01*
X151593000Y-71051250D01*
X151751750Y-71210000D01*
X153417309Y-71210000D01*
X153650698Y-71113327D01*
X153829327Y-70934699D01*
X153926000Y-70701310D01*
X153926000Y-69835750D01*
X153767250Y-69677000D01*
X151593000Y-69677000D01*
X151339000Y-69677000D01*
X149164750Y-69677000D01*
X149006000Y-69835750D01*
X139706325Y-69835750D01*
X139713640Y-69799630D01*
X139713640Y-68398690D01*
X149006000Y-68398690D01*
X149006000Y-69264250D01*
X149164750Y-69423000D01*
X151339000Y-69423000D01*
X151339000Y-68048750D01*
X151593000Y-68048750D01*
X151593000Y-69423000D01*
X153767250Y-69423000D01*
X153926000Y-69264250D01*
X153926000Y-68398690D01*
X153829327Y-68165301D01*
X153650698Y-67986673D01*
X153417309Y-67890000D01*
X151751750Y-67890000D01*
X151593000Y-68048750D01*
X151339000Y-68048750D01*
X151180250Y-67890000D01*
X149514691Y-67890000D01*
X149281302Y-67986673D01*
X149102673Y-68165301D01*
X149006000Y-68398690D01*
X139713640Y-68398690D01*
X139713640Y-68100370D01*
X139669362Y-67865053D01*
X139530290Y-67648929D01*
X139318090Y-67503939D01*
X139066200Y-67452930D01*
X137867320Y-67452930D01*
X137632003Y-67497208D01*
X137415879Y-67636280D01*
X137310681Y-67790243D01*
X137294197Y-67768432D01*
X136874673Y-67522101D01*
X136782761Y-67506905D01*
X136592240Y-67631643D01*
X136592240Y-68823000D01*
X136612240Y-68823000D01*
X136612240Y-69077000D01*
X136592240Y-69077000D01*
X136592240Y-70268357D01*
X136782761Y-70393095D01*
X136874673Y-70377899D01*
X137145603Y-70218817D01*
X135099420Y-72265000D01*
X128851760Y-72265000D01*
X128851760Y-70370462D01*
X129017641Y-70263720D01*
X129162631Y-70051520D01*
X129213640Y-69799630D01*
X129213640Y-69272613D01*
X135220495Y-69272613D01*
X135342961Y-69743443D01*
X135636283Y-70131568D01*
X136055807Y-70377899D01*
X136147719Y-70393095D01*
X136338240Y-70268357D01*
X136338240Y-69077000D01*
X135383240Y-69077000D01*
X135220495Y-69272613D01*
X129213640Y-69272613D01*
X129213640Y-68627387D01*
X135220495Y-68627387D01*
X135383240Y-68823000D01*
X136338240Y-68823000D01*
X136338240Y-67631643D01*
X136147719Y-67506905D01*
X136055807Y-67522101D01*
X135636283Y-67768432D01*
X135342961Y-68156557D01*
X135220495Y-68627387D01*
X129213640Y-68627387D01*
X129213640Y-68100370D01*
X129169362Y-67865053D01*
X129030290Y-67648929D01*
X128818090Y-67503939D01*
X128566200Y-67452930D01*
X127367320Y-67452930D01*
X127132003Y-67497208D01*
X126915879Y-67636280D01*
X126810681Y-67790243D01*
X126794197Y-67768432D01*
X126374673Y-67522101D01*
X126282761Y-67506905D01*
X126092240Y-67631643D01*
X126092240Y-68823000D01*
X126112240Y-68823000D01*
X126112240Y-69077000D01*
X126092240Y-69077000D01*
X126092240Y-69097000D01*
X125838240Y-69097000D01*
X125838240Y-69077000D01*
X124883240Y-69077000D01*
X124720495Y-69272613D01*
X124842961Y-69743443D01*
X125136283Y-70131568D01*
X125386622Y-70278559D01*
X125100180Y-70565000D01*
X120504093Y-70565000D01*
X120521001Y-70480000D01*
X120521000Y-70479995D01*
X120521000Y-70102440D01*
X121461000Y-70102440D01*
X121696317Y-70058162D01*
X121912441Y-69919090D01*
X122057431Y-69706890D01*
X122108440Y-69455000D01*
X122108440Y-68627387D01*
X124720495Y-68627387D01*
X124883240Y-68823000D01*
X125838240Y-68823000D01*
X125838240Y-67631643D01*
X125647719Y-67506905D01*
X125555807Y-67522101D01*
X125136283Y-67768432D01*
X124842961Y-68156557D01*
X124720495Y-68627387D01*
X122108440Y-68627387D01*
X122108440Y-67405000D01*
X122064162Y-67169683D01*
X121925090Y-66953559D01*
X121712890Y-66808569D01*
X121461000Y-66757560D01*
X117811000Y-66757560D01*
X117575683Y-66801838D01*
X117359559Y-66940910D01*
X117214569Y-67153110D01*
X117163560Y-67405000D01*
X117163560Y-69455000D01*
X117207838Y-69690317D01*
X117346910Y-69906441D01*
X117559110Y-70051431D01*
X117811000Y-70102440D01*
X118751000Y-70102440D01*
X118751000Y-70113421D01*
X118040210Y-70824210D01*
X118040208Y-70824213D01*
X112391834Y-76472586D01*
X111992413Y-76306732D01*
X111461914Y-76306269D01*
X110971620Y-76508854D01*
X110776000Y-76704133D01*
X110776000Y-71536067D01*
X110784980Y-71557800D01*
X111385041Y-72158909D01*
X112169459Y-72484628D01*
X113018815Y-72485370D01*
X113803800Y-72161020D01*
X114404909Y-71560959D01*
X114730628Y-70776541D01*
X114731370Y-69927185D01*
X114407020Y-69142200D01*
X113806959Y-68541091D01*
X113022541Y-68215372D01*
X112173185Y-68214630D01*
X111388200Y-68538980D01*
X110787091Y-69139041D01*
X110776000Y-69165751D01*
X110776000Y-66060000D01*
X159156000Y-66060000D01*
X159156000Y-69091091D01*
X159156000Y-69091091D01*
G37*
X159156000Y-69091091D02*
X158606959Y-68541091D01*
X157822541Y-68215372D01*
X156973185Y-68214630D01*
X156188200Y-68538980D01*
X155587091Y-69139041D01*
X155261372Y-69923459D01*
X155260630Y-70772815D01*
X155584980Y-71557800D01*
X156185041Y-72158909D01*
X156969459Y-72484628D01*
X157818815Y-72485370D01*
X158603800Y-72161020D01*
X159156000Y-71609783D01*
X159156000Y-108891091D01*
X158606959Y-108341091D01*
X157822541Y-108015372D01*
X156973185Y-108014630D01*
X156188200Y-108338980D01*
X155587091Y-108939041D01*
X155261372Y-109723459D01*
X155260630Y-110572815D01*
X155584980Y-111357800D01*
X156185041Y-111958909D01*
X156969459Y-112284628D01*
X157818815Y-112285370D01*
X158603800Y-111961020D01*
X159156000Y-111409783D01*
X159156000Y-114440000D01*
X130160089Y-114440000D01*
X130188440Y-114300000D01*
X130188440Y-113100000D01*
X130144162Y-112864683D01*
X130077671Y-112761354D01*
X130079327Y-112759698D01*
X130176000Y-112526309D01*
X130176000Y-112085750D01*
X130017250Y-111927000D01*
X129293000Y-111927000D01*
X129293000Y-111947000D01*
X129039000Y-111947000D01*
X129039000Y-111927000D01*
X128314750Y-111927000D01*
X128156000Y-112085750D01*
X128156000Y-112526309D01*
X128252673Y-112759698D01*
X128254043Y-112761068D01*
X128194569Y-112848110D01*
X128191149Y-112865000D01*
X126844600Y-112865000D01*
X126844600Y-112565255D01*
X126730526Y-111991766D01*
X126405670Y-111505585D01*
X125919489Y-111180729D01*
X125438227Y-111085000D01*
X127366000Y-111085000D01*
X127422853Y-111073691D01*
X128156000Y-111073691D01*
X128156000Y-111514250D01*
X128314750Y-111673000D01*
X129039000Y-111673000D01*
X129039000Y-110723750D01*
X129293000Y-110723750D01*
X129293000Y-111673000D01*
X130017250Y-111673000D01*
X130176000Y-111514250D01*
X130176000Y-111073691D01*
X130079327Y-110840302D01*
X129900699Y-110661673D01*
X129667310Y-110565000D01*
X129451750Y-110565000D01*
X129293000Y-110723750D01*
X129039000Y-110723750D01*
X128880250Y-110565000D01*
X128664690Y-110565000D01*
X128431301Y-110661673D01*
X128252673Y-110840302D01*
X128156000Y-111073691D01*
X127422853Y-111073691D01*
X127685541Y-111021439D01*
X127956434Y-110840434D01*
X130256434Y-108540434D01*
X130277949Y-108508234D01*
X130437439Y-108269541D01*
X130501000Y-107950000D01*
X130501000Y-101965868D01*
X130893560Y-102358428D01*
X130893560Y-105675000D01*
X130937838Y-105910317D01*
X131076910Y-106126441D01*
X131289110Y-106271431D01*
X131541000Y-106322440D01*
X133591000Y-106322440D01*
X133826317Y-106278162D01*
X134042441Y-106139090D01*
X134187431Y-105926890D01*
X134238440Y-105675000D01*
X134238440Y-103670465D01*
X134356301Y-103788327D01*
X134589690Y-103885000D01*
X134880250Y-103885000D01*
X135039000Y-103726250D01*
X135039000Y-102777000D01*
X135019000Y-102777000D01*
X135019000Y-102523000D01*
X135039000Y-102523000D01*
X135039000Y-102503000D01*
X135293000Y-102503000D01*
X135293000Y-102523000D01*
X135313000Y-102523000D01*
X135313000Y-102777000D01*
X135293000Y-102777000D01*
X135293000Y-103726250D01*
X135451750Y-103885000D01*
X135742310Y-103885000D01*
X135975699Y-103788327D01*
X136154327Y-103609698D01*
X136251000Y-103376309D01*
X136251000Y-102935750D01*
X136092252Y-102777002D01*
X136251000Y-102777002D01*
X136251000Y-102715868D01*
X136775566Y-103240434D01*
X136879874Y-103310131D01*
X136912838Y-103485317D01*
X137051910Y-103701441D01*
X137264110Y-103846431D01*
X137516000Y-103897440D01*
X138416000Y-103897440D01*
X138651317Y-103853162D01*
X138867441Y-103714090D01*
X139012431Y-103501890D01*
X139063440Y-103250000D01*
X139063440Y-103101320D01*
X151818930Y-103101320D01*
X151818930Y-104300200D01*
X151863208Y-104535517D01*
X152002280Y-104751641D01*
X152214480Y-104896631D01*
X152466370Y-104947640D01*
X154165630Y-104947640D01*
X154400947Y-104903362D01*
X154617071Y-104764290D01*
X154762061Y-104552090D01*
X154813070Y-104300200D01*
X154813070Y-103101320D01*
X154768792Y-102866003D01*
X154629720Y-102649879D01*
X154475757Y-102544681D01*
X154497568Y-102528197D01*
X154743899Y-102108673D01*
X154759095Y-102016761D01*
X154634357Y-101826240D01*
X153443000Y-101826240D01*
X153443000Y-101846240D01*
X153189000Y-101846240D01*
X153189000Y-101826240D01*
X151997643Y-101826240D01*
X151872905Y-102016761D01*
X151888101Y-102108673D01*
X152134432Y-102528197D01*
X152157398Y-102545554D01*
X152014929Y-102637230D01*
X151869939Y-102849430D01*
X151818930Y-103101320D01*
X139063440Y-103101320D01*
X139063440Y-102050000D01*
X139019162Y-101814683D01*
X138880090Y-101598559D01*
X138810289Y-101550866D01*
X138867441Y-101514090D01*
X138957886Y-101381719D01*
X151872905Y-101381719D01*
X151997643Y-101572240D01*
X153189000Y-101572240D01*
X153189000Y-100617240D01*
X153443000Y-100617240D01*
X153443000Y-101572240D01*
X154634357Y-101572240D01*
X154759095Y-101381719D01*
X154743899Y-101289807D01*
X154497568Y-100870283D01*
X154109443Y-100576961D01*
X153638613Y-100454495D01*
X153443000Y-100617240D01*
X153189000Y-100617240D01*
X152993387Y-100454495D01*
X152522557Y-100576961D01*
X152134432Y-100870283D01*
X151888101Y-101289807D01*
X151872905Y-101381719D01*
X138957886Y-101381719D01*
X138989808Y-101335000D01*
X141015995Y-101335000D01*
X141016000Y-101335001D01*
X141298484Y-101278810D01*
X141354675Y-101267633D01*
X141641790Y-101075790D01*
X142170139Y-100547440D01*
X142416000Y-100547440D01*
X142651317Y-100503162D01*
X142867441Y-100364090D01*
X142966633Y-100218917D01*
X143051910Y-100351441D01*
X143264110Y-100496431D01*
X143516000Y-100547440D01*
X144316000Y-100547440D01*
X144551317Y-100503162D01*
X144767441Y-100364090D01*
X144912431Y-100151890D01*
X144963440Y-99900000D01*
X144963440Y-99000000D01*
X144919162Y-98764683D01*
X144780090Y-98548559D01*
X144567890Y-98403569D01*
X144316000Y-98352560D01*
X143825319Y-98352560D01*
X143837317Y-98335000D01*
X151895995Y-98335000D01*
X151896000Y-98335001D01*
X152179540Y-98278600D01*
X152234675Y-98267633D01*
X152255653Y-98253616D01*
X152381255Y-98278600D01*
X152750745Y-98278600D01*
X153324234Y-98164526D01*
X153810415Y-97839670D01*
X154135271Y-97353489D01*
X154249345Y-96780000D01*
X154135271Y-96206511D01*
X153810415Y-95720330D01*
X153495634Y-95510000D01*
X153810415Y-95299670D01*
X153927126Y-95125000D01*
X154775995Y-95125000D01*
X154776000Y-95125001D01*
X155058484Y-95068810D01*
X155114675Y-95057633D01*
X155401790Y-94865790D01*
X156191787Y-94075792D01*
X156191790Y-94075790D01*
X156383633Y-93788675D01*
X156408234Y-93665000D01*
X156451001Y-93450000D01*
X156451000Y-93449995D01*
X156451000Y-79450765D01*
X156451001Y-79450760D01*
X156383634Y-79112086D01*
X156208514Y-78850000D01*
X156191790Y-78824970D01*
X156191787Y-78824968D01*
X154813070Y-77446250D01*
X154813070Y-76601320D01*
X154768792Y-76366003D01*
X154629720Y-76149879D01*
X154475757Y-76044681D01*
X154497568Y-76028197D01*
X154743899Y-75608673D01*
X154759095Y-75516761D01*
X154634357Y-75326240D01*
X153443000Y-75326240D01*
X153443000Y-75346240D01*
X153189000Y-75346240D01*
X153189000Y-75326240D01*
X151997643Y-75326240D01*
X151872905Y-75516761D01*
X151888101Y-75608673D01*
X152134432Y-76028197D01*
X152157398Y-76045554D01*
X152014929Y-76137230D01*
X151892945Y-76315760D01*
X151183339Y-76315760D01*
X149941790Y-75074210D01*
X149885010Y-75036271D01*
X149654675Y-74882367D01*
X149651418Y-74881719D01*
X151872905Y-74881719D01*
X151997643Y-75072240D01*
X153189000Y-75072240D01*
X153189000Y-74117240D01*
X153443000Y-74117240D01*
X153443000Y-75072240D01*
X154634357Y-75072240D01*
X154759095Y-74881719D01*
X154743899Y-74789807D01*
X154497568Y-74370283D01*
X154109443Y-74076961D01*
X153638613Y-73954495D01*
X153443000Y-74117240D01*
X153189000Y-74117240D01*
X152993387Y-73954495D01*
X152522557Y-74076961D01*
X152134432Y-74370283D01*
X151888101Y-74789807D01*
X151872905Y-74881719D01*
X149651418Y-74881719D01*
X149598484Y-74871190D01*
X149316000Y-74814999D01*
X149315995Y-74815000D01*
X148569222Y-74815000D01*
X148569162Y-74814683D01*
X148430090Y-74598559D01*
X148217890Y-74453569D01*
X147966000Y-74402560D01*
X146666000Y-74402560D01*
X146430683Y-74446838D01*
X146214559Y-74585910D01*
X146069569Y-74798110D01*
X146018560Y-75050000D01*
X146018560Y-75212385D01*
X145945611Y-75036271D01*
X145715016Y-74980590D01*
X144995605Y-75700000D01*
X145715016Y-76419410D01*
X145945611Y-76363729D01*
X146018560Y-76154098D01*
X146018560Y-76350000D01*
X146062838Y-76585317D01*
X146201910Y-76801441D01*
X146414110Y-76946431D01*
X146666000Y-76997440D01*
X147966000Y-76997440D01*
X148201317Y-76953162D01*
X148417441Y-76814090D01*
X148562431Y-76601890D01*
X148565851Y-76585000D01*
X148949420Y-76585000D01*
X150190968Y-77826547D01*
X150190970Y-77826550D01*
X150478085Y-78018393D01*
X150816760Y-78085761D01*
X150816765Y-78085760D01*
X151895538Y-78085760D01*
X152002280Y-78251641D01*
X152214480Y-78396631D01*
X152466370Y-78447640D01*
X153311300Y-78447640D01*
X154681000Y-79817339D01*
X154681000Y-93083421D01*
X154409420Y-93355000D01*
X153927126Y-93355000D01*
X153810415Y-93180330D01*
X153796087Y-93170757D01*
X153817317Y-93166762D01*
X154033441Y-93027690D01*
X154178431Y-92815490D01*
X154229440Y-92563600D01*
X154229440Y-90836400D01*
X154185162Y-90601083D01*
X154046090Y-90384959D01*
X153833890Y-90239969D01*
X153582000Y-90188960D01*
X153451000Y-90188960D01*
X153451000Y-88151742D01*
X153576317Y-88128162D01*
X153792441Y-87989090D01*
X153937431Y-87776890D01*
X153988440Y-87525000D01*
X153988440Y-83875000D01*
X153944162Y-83639683D01*
X153805090Y-83423559D01*
X153592890Y-83278569D01*
X153341000Y-83227560D01*
X151291000Y-83227560D01*
X151055683Y-83271838D01*
X150839559Y-83410910D01*
X150694569Y-83623110D01*
X150643560Y-83875000D01*
X150643560Y-87525000D01*
X150687838Y-87760317D01*
X150826910Y-87976441D01*
X151039110Y-88121431D01*
X151291000Y-88172440D01*
X151681000Y-88172440D01*
X151681000Y-90188960D01*
X151550000Y-90188960D01*
X151314683Y-90233238D01*
X151098559Y-90372310D01*
X150953569Y-90584510D01*
X150902560Y-90836400D01*
X150902560Y-92111861D01*
X148188900Y-94825520D01*
X147282838Y-94825520D01*
X146953540Y-94495647D01*
X146953540Y-91852545D01*
X146953541Y-91852540D01*
X146895928Y-91562907D01*
X146886173Y-91513865D01*
X146694330Y-91226750D01*
X146694327Y-91226748D01*
X145541790Y-90074210D01*
X145505557Y-90050000D01*
X145254675Y-89882367D01*
X145162791Y-89864090D01*
X144916000Y-89814999D01*
X144915995Y-89815000D01*
X142413038Y-89815000D01*
X142394162Y-89714683D01*
X142255090Y-89498559D01*
X142185289Y-89450866D01*
X142242441Y-89414090D01*
X142387431Y-89201890D01*
X142411102Y-89085000D01*
X144015995Y-89085000D01*
X144016000Y-89085001D01*
X144298484Y-89028810D01*
X144354675Y-89017633D01*
X144641790Y-88825790D01*
X145032579Y-88435000D01*
X147465995Y-88435000D01*
X147466000Y-88435001D01*
X147748484Y-88378810D01*
X147804675Y-88367633D01*
X148091790Y-88175790D01*
X148091791Y-88175789D01*
X148691787Y-87575792D01*
X148691790Y-87575790D01*
X148883633Y-87288675D01*
X148889423Y-87259566D01*
X148951001Y-86950000D01*
X148951000Y-86949995D01*
X148951000Y-83750005D01*
X148951001Y-83750000D01*
X148894810Y-83467516D01*
X148883633Y-83411325D01*
X148691790Y-83124210D01*
X148691787Y-83124208D01*
X147438440Y-81870860D01*
X147438440Y-80975000D01*
X147394162Y-80739683D01*
X147255090Y-80523559D01*
X147042890Y-80378569D01*
X146791000Y-80327560D01*
X144545139Y-80327560D01*
X142441790Y-78224210D01*
X142249340Y-78095620D01*
X142154675Y-78032367D01*
X142098484Y-78021190D01*
X141816000Y-77964999D01*
X141815995Y-77965000D01*
X140166754Y-77965000D01*
X139922353Y-77720173D01*
X139432413Y-77516732D01*
X138901914Y-77516269D01*
X138411620Y-77718854D01*
X138036173Y-78093647D01*
X137832732Y-78583587D01*
X137832269Y-79114086D01*
X138034854Y-79604380D01*
X138409647Y-79979827D01*
X138899587Y-80183268D01*
X139430086Y-80183731D01*
X139920380Y-79981146D01*
X140166956Y-79735000D01*
X141449420Y-79735000D01*
X142526543Y-80812123D01*
X142493560Y-80975000D01*
X142493560Y-83025000D01*
X142537838Y-83260317D01*
X142676910Y-83476441D01*
X142889110Y-83621431D01*
X143141000Y-83672440D01*
X146736861Y-83672440D01*
X147168580Y-84104159D01*
X146918170Y-84053450D01*
X145218910Y-84053450D01*
X144983593Y-84097728D01*
X144767469Y-84236800D01*
X144622479Y-84449000D01*
X144578738Y-84665000D01*
X140366005Y-84665000D01*
X140366000Y-84664999D01*
X140083516Y-84721190D01*
X140027325Y-84732367D01*
X139740210Y-84924210D01*
X139740208Y-84924213D01*
X138551000Y-86113420D01*
X138551000Y-85950000D01*
X138483633Y-85611325D01*
X138291790Y-85324210D01*
X138291787Y-85324208D01*
X135051000Y-82083420D01*
X135051000Y-79850754D01*
X135295827Y-79606353D01*
X135499268Y-79116413D01*
X135499731Y-78585914D01*
X135297146Y-78095620D01*
X134922353Y-77720173D01*
X134432413Y-77516732D01*
X133901914Y-77516269D01*
X133411620Y-77718854D01*
X133036173Y-78093647D01*
X132832732Y-78583587D01*
X132832269Y-79114086D01*
X133034854Y-79604380D01*
X133281000Y-79850956D01*
X133281000Y-82449995D01*
X133280999Y-82450000D01*
X133315967Y-82625790D01*
X133348367Y-82788675D01*
X133530268Y-83060910D01*
X133540210Y-83075790D01*
X136781000Y-86316579D01*
X136781000Y-87921614D01*
X136694569Y-88048110D01*
X136691149Y-88065000D01*
X134540669Y-88065000D01*
X134530090Y-88048559D01*
X134403314Y-87961936D01*
X134489000Y-87876250D01*
X134489000Y-87077000D01*
X134743000Y-87077000D01*
X134743000Y-87876250D01*
X134901750Y-88035000D01*
X135142309Y-88035000D01*
X135375698Y-87938327D01*
X135554327Y-87759699D01*
X135651000Y-87526310D01*
X135651000Y-87235750D01*
X135492250Y-87077000D01*
X134743000Y-87077000D01*
X134489000Y-87077000D01*
X134469000Y-87077000D01*
X134469000Y-86823000D01*
X134489000Y-86823000D01*
X134489000Y-86023750D01*
X134743000Y-86023750D01*
X134743000Y-86823000D01*
X135492250Y-86823000D01*
X135651000Y-86664250D01*
X135651000Y-86373690D01*
X135554327Y-86140301D01*
X135375698Y-85961673D01*
X135142309Y-85865000D01*
X134901750Y-85865000D01*
X134743000Y-86023750D01*
X134489000Y-86023750D01*
X134330250Y-85865000D01*
X134089691Y-85865000D01*
X133856302Y-85961673D01*
X133677673Y-86140301D01*
X133662577Y-86176747D01*
X133580090Y-86048559D01*
X133367890Y-85903569D01*
X133116000Y-85852560D01*
X132316000Y-85852560D01*
X132080683Y-85896838D01*
X131864559Y-86035910D01*
X131719569Y-86248110D01*
X131668560Y-86500000D01*
X131668560Y-87400000D01*
X131712838Y-87635317D01*
X131851910Y-87851441D01*
X132064110Y-87996431D01*
X132316000Y-88047440D01*
X132806681Y-88047440D01*
X132669569Y-88248110D01*
X132618560Y-88500000D01*
X132618560Y-89400000D01*
X132662838Y-89635317D01*
X132801910Y-89851441D01*
X132881000Y-89905481D01*
X132881000Y-90050000D01*
X132940755Y-90350407D01*
X133110921Y-90605079D01*
X133380842Y-90875000D01*
X132844250Y-90875000D01*
X132685500Y-91033750D01*
X132685500Y-92805500D01*
X132705500Y-92805500D01*
X132705500Y-93059500D01*
X132685500Y-93059500D01*
X132685500Y-94831250D01*
X132844250Y-94990000D01*
X133534810Y-94990000D01*
X133561357Y-94979004D01*
X133565838Y-95002817D01*
X133631020Y-95104112D01*
X132532572Y-96202560D01*
X132016000Y-96202560D01*
X131780683Y-96246838D01*
X131564559Y-96385910D01*
X131419569Y-96598110D01*
X131368560Y-96850000D01*
X131368560Y-97366572D01*
X130501000Y-98234132D01*
X130501000Y-95790868D01*
X130876928Y-95414940D01*
X130958000Y-95414940D01*
X131193317Y-95370662D01*
X131409441Y-95231590D01*
X131554431Y-95019390D01*
X131562070Y-94981666D01*
X131582190Y-94990000D01*
X132272750Y-94990000D01*
X132431500Y-94831250D01*
X132431500Y-93059500D01*
X132411500Y-93059500D01*
X132411500Y-92805500D01*
X132431500Y-92805500D01*
X132431500Y-91033750D01*
X132272750Y-90875000D01*
X131582190Y-90875000D01*
X131564920Y-90882154D01*
X131561162Y-90862183D01*
X131492378Y-90755290D01*
X131491245Y-90749593D01*
X131422717Y-90647033D01*
X131422090Y-90646059D01*
X131422046Y-90646029D01*
X131321079Y-90494921D01*
X130967291Y-90141133D01*
X131062431Y-90001890D01*
X131113440Y-89750000D01*
X131113440Y-87750000D01*
X131069162Y-87514683D01*
X130930090Y-87298559D01*
X130717890Y-87153569D01*
X130466000Y-87102560D01*
X128866000Y-87102560D01*
X128630683Y-87146838D01*
X128499093Y-87231514D01*
X127851000Y-86583420D01*
X127851000Y-85035750D01*
X128231000Y-85035750D01*
X128231000Y-85876309D01*
X128327673Y-86109698D01*
X128506301Y-86288327D01*
X128739690Y-86385000D01*
X129380250Y-86385000D01*
X129539000Y-86226250D01*
X129539000Y-84877000D01*
X129793000Y-84877000D01*
X129793000Y-86226250D01*
X129951750Y-86385000D01*
X130592310Y-86385000D01*
X130825699Y-86288327D01*
X131004327Y-86109698D01*
X131101000Y-85876309D01*
X131101000Y-85035750D01*
X130942250Y-84877000D01*
X129793000Y-84877000D01*
X129539000Y-84877000D01*
X128389750Y-84877000D01*
X128231000Y-85035750D01*
X127851000Y-85035750D01*
X127851000Y-83623691D01*
X128231000Y-83623691D01*
X128231000Y-84464250D01*
X128389750Y-84623000D01*
X129539000Y-84623000D01*
X129539000Y-83273750D01*
X129793000Y-83273750D01*
X129793000Y-84623000D01*
X130942250Y-84623000D01*
X131101000Y-84464250D01*
X131101000Y-83623691D01*
X131004327Y-83390302D01*
X130825699Y-83211673D01*
X130592310Y-83115000D01*
X129951750Y-83115000D01*
X129793000Y-83273750D01*
X129539000Y-83273750D01*
X129380250Y-83115000D01*
X128739690Y-83115000D01*
X128506301Y-83211673D01*
X128327673Y-83390302D01*
X128231000Y-83623691D01*
X127851000Y-83623691D01*
X127851000Y-76599016D01*
X144096590Y-76599016D01*
X144152271Y-76829611D01*
X144635078Y-76997622D01*
X145145428Y-76968083D01*
X145479729Y-76829611D01*
X145535410Y-76599016D01*
X144816000Y-75879605D01*
X144096590Y-76599016D01*
X127851000Y-76599016D01*
X127851000Y-76014975D01*
X127962431Y-75851890D01*
X128013440Y-75600000D01*
X128013440Y-75519078D01*
X143518378Y-75519078D01*
X143547917Y-76029428D01*
X143686389Y-76363729D01*
X143916984Y-76419410D01*
X144636395Y-75700000D01*
X143916984Y-74980590D01*
X143686389Y-75036271D01*
X143518378Y-75519078D01*
X128013440Y-75519078D01*
X128013440Y-74800984D01*
X144096590Y-74800984D01*
X144816000Y-75520395D01*
X145535410Y-74800984D01*
X145479729Y-74570389D01*
X144996922Y-74402378D01*
X144486572Y-74431917D01*
X144152271Y-74570389D01*
X144096590Y-74800984D01*
X128013440Y-74800984D01*
X128013440Y-74700000D01*
X127969162Y-74464683D01*
X127830090Y-74248559D01*
X127828452Y-74247440D01*
X128316000Y-74247440D01*
X128551317Y-74203162D01*
X128767441Y-74064090D01*
X128787317Y-74035000D01*
X135465995Y-74035000D01*
X135466000Y-74035001D01*
X135748484Y-73978810D01*
X135804675Y-73967633D01*
X136091790Y-73775790D01*
X139092547Y-70775032D01*
X139092550Y-70775030D01*
X139284393Y-70487915D01*
X139301318Y-70402830D01*
X139301517Y-70402792D01*
X139517641Y-70263720D01*
X139662631Y-70051520D01*
X139706325Y-69835750D01*
X149006000Y-69835750D01*
X149006000Y-70701310D01*
X149102673Y-70934699D01*
X149281302Y-71113327D01*
X149514691Y-71210000D01*
X151180250Y-71210000D01*
X151339000Y-71051250D01*
X151339000Y-69677000D01*
X151593000Y-69677000D01*
X151593000Y-71051250D01*
X151751750Y-71210000D01*
X153417309Y-71210000D01*
X153650698Y-71113327D01*
X153829327Y-70934699D01*
X153926000Y-70701310D01*
X153926000Y-69835750D01*
X153767250Y-69677000D01*
X151593000Y-69677000D01*
X151339000Y-69677000D01*
X149164750Y-69677000D01*
X149006000Y-69835750D01*
X139706325Y-69835750D01*
X139713640Y-69799630D01*
X139713640Y-68398690D01*
X149006000Y-68398690D01*
X149006000Y-69264250D01*
X149164750Y-69423000D01*
X151339000Y-69423000D01*
X151339000Y-68048750D01*
X151593000Y-68048750D01*
X151593000Y-69423000D01*
X153767250Y-69423000D01*
X153926000Y-69264250D01*
X153926000Y-68398690D01*
X153829327Y-68165301D01*
X153650698Y-67986673D01*
X153417309Y-67890000D01*
X151751750Y-67890000D01*
X151593000Y-68048750D01*
X151339000Y-68048750D01*
X151180250Y-67890000D01*
X149514691Y-67890000D01*
X149281302Y-67986673D01*
X149102673Y-68165301D01*
X149006000Y-68398690D01*
X139713640Y-68398690D01*
X139713640Y-68100370D01*
X139669362Y-67865053D01*
X139530290Y-67648929D01*
X139318090Y-67503939D01*
X139066200Y-67452930D01*
X137867320Y-67452930D01*
X137632003Y-67497208D01*
X137415879Y-67636280D01*
X137310681Y-67790243D01*
X137294197Y-67768432D01*
X136874673Y-67522101D01*
X136782761Y-67506905D01*
X136592240Y-67631643D01*
X136592240Y-68823000D01*
X136612240Y-68823000D01*
X136612240Y-69077000D01*
X136592240Y-69077000D01*
X136592240Y-70268357D01*
X136782761Y-70393095D01*
X136874673Y-70377899D01*
X137145603Y-70218817D01*
X135099420Y-72265000D01*
X128851760Y-72265000D01*
X128851760Y-70370462D01*
X129017641Y-70263720D01*
X129162631Y-70051520D01*
X129213640Y-69799630D01*
X129213640Y-69272613D01*
X135220495Y-69272613D01*
X135342961Y-69743443D01*
X135636283Y-70131568D01*
X136055807Y-70377899D01*
X136147719Y-70393095D01*
X136338240Y-70268357D01*
X136338240Y-69077000D01*
X135383240Y-69077000D01*
X135220495Y-69272613D01*
X129213640Y-69272613D01*
X129213640Y-68627387D01*
X135220495Y-68627387D01*
X135383240Y-68823000D01*
X136338240Y-68823000D01*
X136338240Y-67631643D01*
X136147719Y-67506905D01*
X136055807Y-67522101D01*
X135636283Y-67768432D01*
X135342961Y-68156557D01*
X135220495Y-68627387D01*
X129213640Y-68627387D01*
X129213640Y-68100370D01*
X129169362Y-67865053D01*
X129030290Y-67648929D01*
X128818090Y-67503939D01*
X128566200Y-67452930D01*
X127367320Y-67452930D01*
X127132003Y-67497208D01*
X126915879Y-67636280D01*
X126810681Y-67790243D01*
X126794197Y-67768432D01*
X126374673Y-67522101D01*
X126282761Y-67506905D01*
X126092240Y-67631643D01*
X126092240Y-68823000D01*
X126112240Y-68823000D01*
X126112240Y-69077000D01*
X126092240Y-69077000D01*
X126092240Y-69097000D01*
X125838240Y-69097000D01*
X125838240Y-69077000D01*
X124883240Y-69077000D01*
X124720495Y-69272613D01*
X124842961Y-69743443D01*
X125136283Y-70131568D01*
X125386622Y-70278559D01*
X125100180Y-70565000D01*
X120504093Y-70565000D01*
X120521001Y-70480000D01*
X120521000Y-70479995D01*
X120521000Y-70102440D01*
X121461000Y-70102440D01*
X121696317Y-70058162D01*
X121912441Y-69919090D01*
X122057431Y-69706890D01*
X122108440Y-69455000D01*
X122108440Y-68627387D01*
X124720495Y-68627387D01*
X124883240Y-68823000D01*
X125838240Y-68823000D01*
X125838240Y-67631643D01*
X125647719Y-67506905D01*
X125555807Y-67522101D01*
X125136283Y-67768432D01*
X124842961Y-68156557D01*
X124720495Y-68627387D01*
X122108440Y-68627387D01*
X122108440Y-67405000D01*
X122064162Y-67169683D01*
X121925090Y-66953559D01*
X121712890Y-66808569D01*
X121461000Y-66757560D01*
X117811000Y-66757560D01*
X117575683Y-66801838D01*
X117359559Y-66940910D01*
X117214569Y-67153110D01*
X117163560Y-67405000D01*
X117163560Y-69455000D01*
X117207838Y-69690317D01*
X117346910Y-69906441D01*
X117559110Y-70051431D01*
X117811000Y-70102440D01*
X118751000Y-70102440D01*
X118751000Y-70113421D01*
X118040210Y-70824210D01*
X118040208Y-70824213D01*
X112391834Y-76472586D01*
X111992413Y-76306732D01*
X111461914Y-76306269D01*
X110971620Y-76508854D01*
X110776000Y-76704133D01*
X110776000Y-71536067D01*
X110784980Y-71557800D01*
X111385041Y-72158909D01*
X112169459Y-72484628D01*
X113018815Y-72485370D01*
X113803800Y-72161020D01*
X114404909Y-71560959D01*
X114730628Y-70776541D01*
X114731370Y-69927185D01*
X114407020Y-69142200D01*
X113806959Y-68541091D01*
X113022541Y-68215372D01*
X112173185Y-68214630D01*
X111388200Y-68538980D01*
X110787091Y-69139041D01*
X110776000Y-69165751D01*
X110776000Y-66060000D01*
X159156000Y-66060000D01*
X159156000Y-69091091D01*
G36*
X125019569Y-72448110D02*
X124968560Y-72700000D01*
X124968560Y-73600000D01*
X125012838Y-73835317D01*
X125151910Y-74051441D01*
X125364110Y-74196431D01*
X125616000Y-74247440D01*
X126106681Y-74247440D01*
X125969569Y-74448110D01*
X125918560Y-74700000D01*
X125918560Y-75600000D01*
X125962838Y-75835317D01*
X126081000Y-76018946D01*
X126081000Y-80184132D01*
X125738440Y-79841572D01*
X125738440Y-77525000D01*
X125694162Y-77289683D01*
X125555090Y-77073559D01*
X125342890Y-76928569D01*
X125091000Y-76877560D01*
X123041000Y-76877560D01*
X122805683Y-76921838D01*
X122589559Y-77060910D01*
X122444569Y-77273110D01*
X122393560Y-77525000D01*
X122393560Y-79345000D01*
X121363440Y-79345000D01*
X121363440Y-78150000D01*
X121319162Y-77914683D01*
X121180090Y-77698559D01*
X121111994Y-77652031D01*
X121254327Y-77509698D01*
X121351000Y-77276309D01*
X121351000Y-76835750D01*
X121192250Y-76677000D01*
X120393000Y-76677000D01*
X120393000Y-76697000D01*
X120139000Y-76697000D01*
X120139000Y-76677000D01*
X119339750Y-76677000D01*
X119181000Y-76835750D01*
X119181000Y-77276309D01*
X119277673Y-77509698D01*
X119418910Y-77650936D01*
X119364559Y-77685910D01*
X119219569Y-77898110D01*
X119216149Y-77915000D01*
X118261868Y-77915000D01*
X118139367Y-77792499D01*
X118139731Y-77375914D01*
X117937146Y-76885620D01*
X117562353Y-76510173D01*
X117072413Y-76306732D01*
X116541914Y-76306269D01*
X116051620Y-76508854D01*
X115676173Y-76883647D01*
X115472732Y-77373587D01*
X115472269Y-77904086D01*
X115674854Y-78394380D01*
X116049647Y-78769827D01*
X116539587Y-78973268D01*
X116958766Y-78973634D01*
X117325566Y-79340434D01*
X117332399Y-79345000D01*
X115316666Y-79345000D01*
X115022353Y-79050173D01*
X114532413Y-78846732D01*
X114001914Y-78846269D01*
X113511620Y-79048854D01*
X113136173Y-79423647D01*
X112932732Y-79913587D01*
X112932269Y-80444086D01*
X113134854Y-80934380D01*
X113509647Y-81309827D01*
X113999587Y-81513268D01*
X114530086Y-81513731D01*
X115020380Y-81311146D01*
X115317043Y-81015000D01*
X122393560Y-81015000D01*
X122393560Y-81175000D01*
X122437838Y-81410317D01*
X122576910Y-81626441D01*
X122789110Y-81771431D01*
X123041000Y-81822440D01*
X125091000Y-81822440D01*
X125131000Y-81814913D01*
X125131000Y-82885660D01*
X125091000Y-82877560D01*
X123041000Y-82877560D01*
X122805683Y-82921838D01*
X122589559Y-83060910D01*
X122444569Y-83273110D01*
X122393560Y-83525000D01*
X122393560Y-85841572D01*
X121363440Y-86871692D01*
X121363440Y-85850000D01*
X121319162Y-85614683D01*
X121180090Y-85398559D01*
X121111994Y-85352031D01*
X121254327Y-85209698D01*
X121351000Y-84976309D01*
X121351000Y-84535750D01*
X121192250Y-84377000D01*
X120393000Y-84377000D01*
X120393000Y-84397000D01*
X120139000Y-84397000D01*
X120139000Y-84377000D01*
X119339750Y-84377000D01*
X119181000Y-84535750D01*
X119181000Y-84976309D01*
X119277673Y-85209698D01*
X119418910Y-85350936D01*
X119364559Y-85385910D01*
X119219569Y-85598110D01*
X119216149Y-85615000D01*
X118161868Y-85615000D01*
X118139367Y-85592499D01*
X118139731Y-85175914D01*
X117937146Y-84685620D01*
X117562353Y-84310173D01*
X117072413Y-84106732D01*
X116541914Y-84106269D01*
X116051620Y-84308854D01*
X115676173Y-84683647D01*
X115472732Y-85173587D01*
X115472269Y-85704086D01*
X115674854Y-86194380D01*
X116049647Y-86569827D01*
X116539587Y-86773268D01*
X116958766Y-86773634D01*
X117225566Y-87040434D01*
X117382060Y-87145000D01*
X115316666Y-87145000D01*
X115022353Y-86850173D01*
X114532413Y-86646732D01*
X114001914Y-86646269D01*
X113511620Y-86848854D01*
X113136173Y-87223647D01*
X112932732Y-87713587D01*
X112932269Y-88244086D01*
X113134854Y-88734380D01*
X113509647Y-89109827D01*
X113999587Y-89313268D01*
X114530086Y-89313731D01*
X115020380Y-89111146D01*
X115317043Y-88815000D01*
X121436000Y-88815000D01*
X121755541Y-88751439D01*
X122026434Y-88570434D01*
X122819319Y-87777549D01*
X123041000Y-87822440D01*
X123231000Y-87822440D01*
X123231000Y-87850000D01*
X123294561Y-88169541D01*
X123381731Y-88300000D01*
X123475566Y-88440434D01*
X126787692Y-91752560D01*
X126266000Y-91752560D01*
X126030683Y-91796838D01*
X125814559Y-91935910D01*
X125766866Y-92005711D01*
X125730090Y-91948559D01*
X125517890Y-91803569D01*
X125266000Y-91752560D01*
X124066000Y-91752560D01*
X123830683Y-91796838D01*
X123614559Y-91935910D01*
X123469569Y-92148110D01*
X123418560Y-92400000D01*
X123418560Y-92916572D01*
X123180132Y-93155000D01*
X121360535Y-93155000D01*
X121210415Y-92930330D01*
X121196087Y-92920757D01*
X121217317Y-92916762D01*
X121433441Y-92777690D01*
X121578431Y-92565490D01*
X121629440Y-92313600D01*
X121629440Y-90586400D01*
X121585162Y-90351083D01*
X121446090Y-90134959D01*
X121233890Y-89989969D01*
X120982000Y-89938960D01*
X118950000Y-89938960D01*
X118714683Y-89983238D01*
X118498559Y-90122310D01*
X118353569Y-90334510D01*
X118302560Y-90586400D01*
X118302560Y-91215000D01*
X116713440Y-91215000D01*
X116713440Y-91050000D01*
X116669162Y-90814683D01*
X116530090Y-90598559D01*
X116317890Y-90453569D01*
X116066000Y-90402560D01*
X114066000Y-90402560D01*
X113830683Y-90446838D01*
X113614559Y-90585910D01*
X113517090Y-90728561D01*
X113453363Y-90664722D01*
X112852648Y-90415284D01*
X112202205Y-90414716D01*
X111601057Y-90663106D01*
X111140722Y-91122637D01*
X110891284Y-91723352D01*
X110890716Y-92373795D01*
X111139106Y-92974943D01*
X111598637Y-93435278D01*
X112199352Y-93684716D01*
X112849795Y-93685284D01*
X113450943Y-93436894D01*
X113517574Y-93370379D01*
X113601910Y-93501441D01*
X113814110Y-93646431D01*
X114066000Y-93697440D01*
X116066000Y-93697440D01*
X116301317Y-93653162D01*
X116517441Y-93514090D01*
X116662431Y-93301890D01*
X116713440Y-93050000D01*
X116713440Y-92885000D01*
X118661476Y-92885000D01*
X118698110Y-92910031D01*
X118739439Y-92918400D01*
X118721585Y-92930330D01*
X118396729Y-93416511D01*
X118282655Y-93990000D01*
X118396729Y-94563489D01*
X118721585Y-95049670D01*
X119036366Y-95260000D01*
X118721585Y-95470330D01*
X118396729Y-95956511D01*
X118282655Y-96530000D01*
X118396729Y-97103489D01*
X118721585Y-97589670D01*
X119207766Y-97914526D01*
X119781255Y-98028600D01*
X120150745Y-98028600D01*
X120724234Y-97914526D01*
X121210415Y-97589670D01*
X121535271Y-97103489D01*
X121649345Y-96530000D01*
X121535271Y-95956511D01*
X121210415Y-95470330D01*
X120895634Y-95260000D01*
X121210415Y-95049670D01*
X121360535Y-94825000D01*
X123433748Y-94825000D01*
X123418560Y-94900000D01*
X123418560Y-95416572D01*
X122215566Y-96619566D01*
X122034561Y-96890459D01*
X121971000Y-97210000D01*
X121971000Y-101355465D01*
X121746330Y-101505585D01*
X121736757Y-101519913D01*
X121732762Y-101498683D01*
X121593690Y-101282559D01*
X121381490Y-101137569D01*
X121129600Y-101086560D01*
X119783428Y-101086560D01*
X116713440Y-98016572D01*
X116713440Y-97050000D01*
X116669162Y-96814683D01*
X116530090Y-96598559D01*
X116317890Y-96453569D01*
X116066000Y-96402560D01*
X114066000Y-96402560D01*
X113830683Y-96446838D01*
X113614559Y-96585910D01*
X113517090Y-96728561D01*
X113453363Y-96664722D01*
X112852648Y-96415284D01*
X112202205Y-96414716D01*
X111601057Y-96663106D01*
X111140722Y-97122637D01*
X110891284Y-97723352D01*
X110890716Y-98373795D01*
X111139106Y-98974943D01*
X111598637Y-99435278D01*
X112199352Y-99684716D01*
X112849795Y-99685284D01*
X113450943Y-99436894D01*
X113517574Y-99370379D01*
X113601910Y-99501441D01*
X113814110Y-99646431D01*
X114066000Y-99697440D01*
X116032572Y-99697440D01*
X118754960Y-102419828D01*
X118754960Y-103766000D01*
X118799238Y-104001317D01*
X118938310Y-104217441D01*
X119150510Y-104362431D01*
X119402400Y-104413440D01*
X121129600Y-104413440D01*
X121364917Y-104369162D01*
X121581041Y-104230090D01*
X121726031Y-104017890D01*
X121734400Y-103976561D01*
X121746330Y-103994415D01*
X122232511Y-104319271D01*
X122535577Y-104379555D01*
X122235566Y-104679566D01*
X122054561Y-104950459D01*
X121991000Y-105270000D01*
X121991000Y-106355465D01*
X121766330Y-106505585D01*
X121556000Y-106820366D01*
X121345670Y-106505585D01*
X120859489Y-106180729D01*
X120286000Y-106066655D01*
X119712511Y-106180729D01*
X119226330Y-106505585D01*
X118901474Y-106991766D01*
X118787400Y-107565255D01*
X118787400Y-107934745D01*
X118901474Y-108508234D01*
X119226330Y-108994415D01*
X119712511Y-109319271D01*
X120286000Y-109433345D01*
X120859489Y-109319271D01*
X121345670Y-108994415D01*
X121556000Y-108679634D01*
X121766330Y-108994415D01*
X122252511Y-109319271D01*
X122826000Y-109433345D01*
X123399489Y-109319271D01*
X123885670Y-108994415D01*
X123895243Y-108980087D01*
X123899238Y-109001317D01*
X124038310Y-109217441D01*
X124250510Y-109362431D01*
X124502400Y-109413440D01*
X126229600Y-109413440D01*
X126464917Y-109369162D01*
X126681041Y-109230090D01*
X126826031Y-109017890D01*
X126877040Y-108766000D01*
X126877040Y-106734000D01*
X126832762Y-106498683D01*
X126693690Y-106282559D01*
X126481490Y-106137569D01*
X126229600Y-106086560D01*
X124502400Y-106086560D01*
X124267083Y-106130838D01*
X124050959Y-106269910D01*
X123905969Y-106482110D01*
X123897600Y-106523439D01*
X123885670Y-106505585D01*
X123661000Y-106355465D01*
X123661000Y-105615868D01*
X124926889Y-104349979D01*
X125346000Y-104433345D01*
X125919489Y-104319271D01*
X126405670Y-103994415D01*
X126730526Y-103508234D01*
X126844600Y-102934745D01*
X126844600Y-102565255D01*
X126730526Y-101991766D01*
X126405670Y-101505585D01*
X125919489Y-101180729D01*
X125346000Y-101066655D01*
X124772511Y-101180729D01*
X124286330Y-101505585D01*
X124076000Y-101820366D01*
X123865670Y-101505585D01*
X123641000Y-101355465D01*
X123641000Y-97555868D01*
X124749428Y-96447440D01*
X125266000Y-96447440D01*
X125501317Y-96403162D01*
X125717441Y-96264090D01*
X125765134Y-96194289D01*
X125801910Y-96251441D01*
X126014110Y-96396431D01*
X126266000Y-96447440D01*
X127466000Y-96447440D01*
X127701317Y-96403162D01*
X127917441Y-96264090D01*
X128062431Y-96051890D01*
X128113440Y-95800000D01*
X128113440Y-95283428D01*
X128654368Y-94742500D01*
X129010560Y-94742500D01*
X129010560Y-94767500D01*
X129037627Y-94911346D01*
X128894561Y-95125459D01*
X128831000Y-95445000D01*
X128831000Y-107604132D01*
X127020132Y-109415000D01*
X124666000Y-109415000D01*
X124346459Y-109478561D01*
X124075566Y-109659566D01*
X122634330Y-111100802D01*
X122232511Y-111180729D01*
X121746330Y-111505585D01*
X121731500Y-111527780D01*
X121667927Y-111374302D01*
X121489299Y-111195673D01*
X121255910Y-111099000D01*
X120551750Y-111099000D01*
X120393000Y-111257750D01*
X120393000Y-112623000D01*
X120413000Y-112623000D01*
X120413000Y-112877000D01*
X120393000Y-112877000D01*
X120393000Y-114242250D01*
X120551750Y-114401000D01*
X121255910Y-114401000D01*
X121489299Y-114304327D01*
X121667927Y-114125698D01*
X121731500Y-113972220D01*
X121746330Y-113994415D01*
X122232511Y-114319271D01*
X122806000Y-114433345D01*
X123379489Y-114319271D01*
X123865670Y-113994415D01*
X124076000Y-113679634D01*
X124286330Y-113994415D01*
X124772511Y-114319271D01*
X125346000Y-114433345D01*
X125787897Y-114345446D01*
X125929407Y-114440000D01*
X110776000Y-114440000D01*
X110776000Y-113035750D01*
X118767400Y-113035750D01*
X118767400Y-113892309D01*
X118864073Y-114125698D01*
X119042701Y-114304327D01*
X119276090Y-114401000D01*
X119980250Y-114401000D01*
X120139000Y-114242250D01*
X120139000Y-112877000D01*
X118926150Y-112877000D01*
X118767400Y-113035750D01*
X110776000Y-113035750D01*
X110776000Y-111336067D01*
X110784980Y-111357800D01*
X111385041Y-111958909D01*
X112169459Y-112284628D01*
X113018815Y-112285370D01*
X113803800Y-111961020D01*
X114157746Y-111607691D01*
X118767400Y-111607691D01*
X118767400Y-112464250D01*
X118926150Y-112623000D01*
X120139000Y-112623000D01*
X120139000Y-111257750D01*
X119980250Y-111099000D01*
X119276090Y-111099000D01*
X119042701Y-111195673D01*
X118864073Y-111374302D01*
X118767400Y-111607691D01*
X114157746Y-111607691D01*
X114404909Y-111360959D01*
X114730628Y-110576541D01*
X114731370Y-109727185D01*
X114407020Y-108942200D01*
X113806959Y-108341091D01*
X113022541Y-108015372D01*
X112173185Y-108014630D01*
X111388200Y-108338980D01*
X110787091Y-108939041D01*
X110776000Y-108965751D01*
X110776000Y-86375842D01*
X110969647Y-86569827D01*
X111459587Y-86773268D01*
X111990086Y-86773731D01*
X112480380Y-86571146D01*
X112855827Y-86196353D01*
X113059268Y-85706413D01*
X113059731Y-85175914D01*
X112857146Y-84685620D01*
X112611000Y-84439044D01*
X112611000Y-83523691D01*
X119181000Y-83523691D01*
X119181000Y-83964250D01*
X119339750Y-84123000D01*
X120139000Y-84123000D01*
X120139000Y-83173750D01*
X120393000Y-83173750D01*
X120393000Y-84123000D01*
X121192250Y-84123000D01*
X121351000Y-83964250D01*
X121351000Y-83523691D01*
X121254327Y-83290302D01*
X121075699Y-83111673D01*
X120842310Y-83015000D01*
X120551750Y-83015000D01*
X120393000Y-83173750D01*
X120139000Y-83173750D01*
X119980250Y-83015000D01*
X119689690Y-83015000D01*
X119456301Y-83111673D01*
X119277673Y-83290302D01*
X119181000Y-83523691D01*
X112611000Y-83523691D01*
X112611000Y-78640754D01*
X112789405Y-78462660D01*
X112814675Y-78457633D01*
X113101790Y-78265790D01*
X115543888Y-75823691D01*
X119181000Y-75823691D01*
X119181000Y-76264250D01*
X119339750Y-76423000D01*
X120139000Y-76423000D01*
X120139000Y-75473750D01*
X120393000Y-75473750D01*
X120393000Y-76423000D01*
X121192250Y-76423000D01*
X121351000Y-76264250D01*
X121351000Y-75823691D01*
X121254327Y-75590302D01*
X121075699Y-75411673D01*
X120842310Y-75315000D01*
X120551750Y-75315000D01*
X120393000Y-75473750D01*
X120139000Y-75473750D01*
X119980250Y-75315000D01*
X119689690Y-75315000D01*
X119456301Y-75411673D01*
X119277673Y-75590302D01*
X119181000Y-75823691D01*
X115543888Y-75823691D01*
X119032579Y-72335000D01*
X125096854Y-72335000D01*
X125019569Y-72448110D01*
X125019569Y-72448110D01*
G37*
X125019569Y-72448110D02*
X124968560Y-72700000D01*
X124968560Y-73600000D01*
X125012838Y-73835317D01*
X125151910Y-74051441D01*
X125364110Y-74196431D01*
X125616000Y-74247440D01*
X126106681Y-74247440D01*
X125969569Y-74448110D01*
X125918560Y-74700000D01*
X125918560Y-75600000D01*
X125962838Y-75835317D01*
X126081000Y-76018946D01*
X126081000Y-80184132D01*
X125738440Y-79841572D01*
X125738440Y-77525000D01*
X125694162Y-77289683D01*
X125555090Y-77073559D01*
X125342890Y-76928569D01*
X125091000Y-76877560D01*
X123041000Y-76877560D01*
X122805683Y-76921838D01*
X122589559Y-77060910D01*
X122444569Y-77273110D01*
X122393560Y-77525000D01*
X122393560Y-79345000D01*
X121363440Y-79345000D01*
X121363440Y-78150000D01*
X121319162Y-77914683D01*
X121180090Y-77698559D01*
X121111994Y-77652031D01*
X121254327Y-77509698D01*
X121351000Y-77276309D01*
X121351000Y-76835750D01*
X121192250Y-76677000D01*
X120393000Y-76677000D01*
X120393000Y-76697000D01*
X120139000Y-76697000D01*
X120139000Y-76677000D01*
X119339750Y-76677000D01*
X119181000Y-76835750D01*
X119181000Y-77276309D01*
X119277673Y-77509698D01*
X119418910Y-77650936D01*
X119364559Y-77685910D01*
X119219569Y-77898110D01*
X119216149Y-77915000D01*
X118261868Y-77915000D01*
X118139367Y-77792499D01*
X118139731Y-77375914D01*
X117937146Y-76885620D01*
X117562353Y-76510173D01*
X117072413Y-76306732D01*
X116541914Y-76306269D01*
X116051620Y-76508854D01*
X115676173Y-76883647D01*
X115472732Y-77373587D01*
X115472269Y-77904086D01*
X115674854Y-78394380D01*
X116049647Y-78769827D01*
X116539587Y-78973268D01*
X116958766Y-78973634D01*
X117325566Y-79340434D01*
X117332399Y-79345000D01*
X115316666Y-79345000D01*
X115022353Y-79050173D01*
X114532413Y-78846732D01*
X114001914Y-78846269D01*
X113511620Y-79048854D01*
X113136173Y-79423647D01*
X112932732Y-79913587D01*
X112932269Y-80444086D01*
X113134854Y-80934380D01*
X113509647Y-81309827D01*
X113999587Y-81513268D01*
X114530086Y-81513731D01*
X115020380Y-81311146D01*
X115317043Y-81015000D01*
X122393560Y-81015000D01*
X122393560Y-81175000D01*
X122437838Y-81410317D01*
X122576910Y-81626441D01*
X122789110Y-81771431D01*
X123041000Y-81822440D01*
X125091000Y-81822440D01*
X125131000Y-81814913D01*
X125131000Y-82885660D01*
X125091000Y-82877560D01*
X123041000Y-82877560D01*
X122805683Y-82921838D01*
X122589559Y-83060910D01*
X122444569Y-83273110D01*
X122393560Y-83525000D01*
X122393560Y-85841572D01*
X121363440Y-86871692D01*
X121363440Y-85850000D01*
X121319162Y-85614683D01*
X121180090Y-85398559D01*
X121111994Y-85352031D01*
X121254327Y-85209698D01*
X121351000Y-84976309D01*
X121351000Y-84535750D01*
X121192250Y-84377000D01*
X120393000Y-84377000D01*
X120393000Y-84397000D01*
X120139000Y-84397000D01*
X120139000Y-84377000D01*
X119339750Y-84377000D01*
X119181000Y-84535750D01*
X119181000Y-84976309D01*
X119277673Y-85209698D01*
X119418910Y-85350936D01*
X119364559Y-85385910D01*
X119219569Y-85598110D01*
X119216149Y-85615000D01*
X118161868Y-85615000D01*
X118139367Y-85592499D01*
X118139731Y-85175914D01*
X117937146Y-84685620D01*
X117562353Y-84310173D01*
X117072413Y-84106732D01*
X116541914Y-84106269D01*
X116051620Y-84308854D01*
X115676173Y-84683647D01*
X115472732Y-85173587D01*
X115472269Y-85704086D01*
X115674854Y-86194380D01*
X116049647Y-86569827D01*
X116539587Y-86773268D01*
X116958766Y-86773634D01*
X117225566Y-87040434D01*
X117382060Y-87145000D01*
X115316666Y-87145000D01*
X115022353Y-86850173D01*
X114532413Y-86646732D01*
X114001914Y-86646269D01*
X113511620Y-86848854D01*
X113136173Y-87223647D01*
X112932732Y-87713587D01*
X112932269Y-88244086D01*
X113134854Y-88734380D01*
X113509647Y-89109827D01*
X113999587Y-89313268D01*
X114530086Y-89313731D01*
X115020380Y-89111146D01*
X115317043Y-88815000D01*
X121436000Y-88815000D01*
X121755541Y-88751439D01*
X122026434Y-88570434D01*
X122819319Y-87777549D01*
X123041000Y-87822440D01*
X123231000Y-87822440D01*
X123231000Y-87850000D01*
X123294561Y-88169541D01*
X123381731Y-88300000D01*
X123475566Y-88440434D01*
X126787692Y-91752560D01*
X126266000Y-91752560D01*
X126030683Y-91796838D01*
X125814559Y-91935910D01*
X125766866Y-92005711D01*
X125730090Y-91948559D01*
X125517890Y-91803569D01*
X125266000Y-91752560D01*
X124066000Y-91752560D01*
X123830683Y-91796838D01*
X123614559Y-91935910D01*
X123469569Y-92148110D01*
X123418560Y-92400000D01*
X123418560Y-92916572D01*
X123180132Y-93155000D01*
X121360535Y-93155000D01*
X121210415Y-92930330D01*
X121196087Y-92920757D01*
X121217317Y-92916762D01*
X121433441Y-92777690D01*
X121578431Y-92565490D01*
X121629440Y-92313600D01*
X121629440Y-90586400D01*
X121585162Y-90351083D01*
X121446090Y-90134959D01*
X121233890Y-89989969D01*
X120982000Y-89938960D01*
X118950000Y-89938960D01*
X118714683Y-89983238D01*
X118498559Y-90122310D01*
X118353569Y-90334510D01*
X118302560Y-90586400D01*
X118302560Y-91215000D01*
X116713440Y-91215000D01*
X116713440Y-91050000D01*
X116669162Y-90814683D01*
X116530090Y-90598559D01*
X116317890Y-90453569D01*
X116066000Y-90402560D01*
X114066000Y-90402560D01*
X113830683Y-90446838D01*
X113614559Y-90585910D01*
X113517090Y-90728561D01*
X113453363Y-90664722D01*
X112852648Y-90415284D01*
X112202205Y-90414716D01*
X111601057Y-90663106D01*
X111140722Y-91122637D01*
X110891284Y-91723352D01*
X110890716Y-92373795D01*
X111139106Y-92974943D01*
X111598637Y-93435278D01*
X112199352Y-93684716D01*
X112849795Y-93685284D01*
X113450943Y-93436894D01*
X113517574Y-93370379D01*
X113601910Y-93501441D01*
X113814110Y-93646431D01*
X114066000Y-93697440D01*
X116066000Y-93697440D01*
X116301317Y-93653162D01*
X116517441Y-93514090D01*
X116662431Y-93301890D01*
X116713440Y-93050000D01*
X116713440Y-92885000D01*
X118661476Y-92885000D01*
X118698110Y-92910031D01*
X118739439Y-92918400D01*
X118721585Y-92930330D01*
X118396729Y-93416511D01*
X118282655Y-93990000D01*
X118396729Y-94563489D01*
X118721585Y-95049670D01*
X119036366Y-95260000D01*
X118721585Y-95470330D01*
X118396729Y-95956511D01*
X118282655Y-96530000D01*
X118396729Y-97103489D01*
X118721585Y-97589670D01*
X119207766Y-97914526D01*
X119781255Y-98028600D01*
X120150745Y-98028600D01*
X120724234Y-97914526D01*
X121210415Y-97589670D01*
X121535271Y-97103489D01*
X121649345Y-96530000D01*
X121535271Y-95956511D01*
X121210415Y-95470330D01*
X120895634Y-95260000D01*
X121210415Y-95049670D01*
X121360535Y-94825000D01*
X123433748Y-94825000D01*
X123418560Y-94900000D01*
X123418560Y-95416572D01*
X122215566Y-96619566D01*
X122034561Y-96890459D01*
X121971000Y-97210000D01*
X121971000Y-101355465D01*
X121746330Y-101505585D01*
X121736757Y-101519913D01*
X121732762Y-101498683D01*
X121593690Y-101282559D01*
X121381490Y-101137569D01*
X121129600Y-101086560D01*
X119783428Y-101086560D01*
X116713440Y-98016572D01*
X116713440Y-97050000D01*
X116669162Y-96814683D01*
X116530090Y-96598559D01*
X116317890Y-96453569D01*
X116066000Y-96402560D01*
X114066000Y-96402560D01*
X113830683Y-96446838D01*
X113614559Y-96585910D01*
X113517090Y-96728561D01*
X113453363Y-96664722D01*
X112852648Y-96415284D01*
X112202205Y-96414716D01*
X111601057Y-96663106D01*
X111140722Y-97122637D01*
X110891284Y-97723352D01*
X110890716Y-98373795D01*
X111139106Y-98974943D01*
X111598637Y-99435278D01*
X112199352Y-99684716D01*
X112849795Y-99685284D01*
X113450943Y-99436894D01*
X113517574Y-99370379D01*
X113601910Y-99501441D01*
X113814110Y-99646431D01*
X114066000Y-99697440D01*
X116032572Y-99697440D01*
X118754960Y-102419828D01*
X118754960Y-103766000D01*
X118799238Y-104001317D01*
X118938310Y-104217441D01*
X119150510Y-104362431D01*
X119402400Y-104413440D01*
X121129600Y-104413440D01*
X121364917Y-104369162D01*
X121581041Y-104230090D01*
X121726031Y-104017890D01*
X121734400Y-103976561D01*
X121746330Y-103994415D01*
X122232511Y-104319271D01*
X122535577Y-104379555D01*
X122235566Y-104679566D01*
X122054561Y-104950459D01*
X121991000Y-105270000D01*
X121991000Y-106355465D01*
X121766330Y-106505585D01*
X121556000Y-106820366D01*
X121345670Y-106505585D01*
X120859489Y-106180729D01*
X120286000Y-106066655D01*
X119712511Y-106180729D01*
X119226330Y-106505585D01*
X118901474Y-106991766D01*
X118787400Y-107565255D01*
X118787400Y-107934745D01*
X118901474Y-108508234D01*
X119226330Y-108994415D01*
X119712511Y-109319271D01*
X120286000Y-109433345D01*
X120859489Y-109319271D01*
X121345670Y-108994415D01*
X121556000Y-108679634D01*
X121766330Y-108994415D01*
X122252511Y-109319271D01*
X122826000Y-109433345D01*
X123399489Y-109319271D01*
X123885670Y-108994415D01*
X123895243Y-108980087D01*
X123899238Y-109001317D01*
X124038310Y-109217441D01*
X124250510Y-109362431D01*
X124502400Y-109413440D01*
X126229600Y-109413440D01*
X126464917Y-109369162D01*
X126681041Y-109230090D01*
X126826031Y-109017890D01*
X126877040Y-108766000D01*
X126877040Y-106734000D01*
X126832762Y-106498683D01*
X126693690Y-106282559D01*
X126481490Y-106137569D01*
X126229600Y-106086560D01*
X124502400Y-106086560D01*
X124267083Y-106130838D01*
X124050959Y-106269910D01*
X123905969Y-106482110D01*
X123897600Y-106523439D01*
X123885670Y-106505585D01*
X123661000Y-106355465D01*
X123661000Y-105615868D01*
X124926889Y-104349979D01*
X125346000Y-104433345D01*
X125919489Y-104319271D01*
X126405670Y-103994415D01*
X126730526Y-103508234D01*
X126844600Y-102934745D01*
X126844600Y-102565255D01*
X126730526Y-101991766D01*
X126405670Y-101505585D01*
X125919489Y-101180729D01*
X125346000Y-101066655D01*
X124772511Y-101180729D01*
X124286330Y-101505585D01*
X124076000Y-101820366D01*
X123865670Y-101505585D01*
X123641000Y-101355465D01*
X123641000Y-97555868D01*
X124749428Y-96447440D01*
X125266000Y-96447440D01*
X125501317Y-96403162D01*
X125717441Y-96264090D01*
X125765134Y-96194289D01*
X125801910Y-96251441D01*
X126014110Y-96396431D01*
X126266000Y-96447440D01*
X127466000Y-96447440D01*
X127701317Y-96403162D01*
X127917441Y-96264090D01*
X128062431Y-96051890D01*
X128113440Y-95800000D01*
X128113440Y-95283428D01*
X128654368Y-94742500D01*
X129010560Y-94742500D01*
X129010560Y-94767500D01*
X129037627Y-94911346D01*
X128894561Y-95125459D01*
X128831000Y-95445000D01*
X128831000Y-107604132D01*
X127020132Y-109415000D01*
X124666000Y-109415000D01*
X124346459Y-109478561D01*
X124075566Y-109659566D01*
X122634330Y-111100802D01*
X122232511Y-111180729D01*
X121746330Y-111505585D01*
X121731500Y-111527780D01*
X121667927Y-111374302D01*
X121489299Y-111195673D01*
X121255910Y-111099000D01*
X120551750Y-111099000D01*
X120393000Y-111257750D01*
X120393000Y-112623000D01*
X120413000Y-112623000D01*
X120413000Y-112877000D01*
X120393000Y-112877000D01*
X120393000Y-114242250D01*
X120551750Y-114401000D01*
X121255910Y-114401000D01*
X121489299Y-114304327D01*
X121667927Y-114125698D01*
X121731500Y-113972220D01*
X121746330Y-113994415D01*
X122232511Y-114319271D01*
X122806000Y-114433345D01*
X123379489Y-114319271D01*
X123865670Y-113994415D01*
X124076000Y-113679634D01*
X124286330Y-113994415D01*
X124772511Y-114319271D01*
X125346000Y-114433345D01*
X125787897Y-114345446D01*
X125929407Y-114440000D01*
X110776000Y-114440000D01*
X110776000Y-113035750D01*
X118767400Y-113035750D01*
X118767400Y-113892309D01*
X118864073Y-114125698D01*
X119042701Y-114304327D01*
X119276090Y-114401000D01*
X119980250Y-114401000D01*
X120139000Y-114242250D01*
X120139000Y-112877000D01*
X118926150Y-112877000D01*
X118767400Y-113035750D01*
X110776000Y-113035750D01*
X110776000Y-111336067D01*
X110784980Y-111357800D01*
X111385041Y-111958909D01*
X112169459Y-112284628D01*
X113018815Y-112285370D01*
X113803800Y-111961020D01*
X114157746Y-111607691D01*
X118767400Y-111607691D01*
X118767400Y-112464250D01*
X118926150Y-112623000D01*
X120139000Y-112623000D01*
X120139000Y-111257750D01*
X119980250Y-111099000D01*
X119276090Y-111099000D01*
X119042701Y-111195673D01*
X118864073Y-111374302D01*
X118767400Y-111607691D01*
X114157746Y-111607691D01*
X114404909Y-111360959D01*
X114730628Y-110576541D01*
X114731370Y-109727185D01*
X114407020Y-108942200D01*
X113806959Y-108341091D01*
X113022541Y-108015372D01*
X112173185Y-108014630D01*
X111388200Y-108338980D01*
X110787091Y-108939041D01*
X110776000Y-108965751D01*
X110776000Y-86375842D01*
X110969647Y-86569827D01*
X111459587Y-86773268D01*
X111990086Y-86773731D01*
X112480380Y-86571146D01*
X112855827Y-86196353D01*
X113059268Y-85706413D01*
X113059731Y-85175914D01*
X112857146Y-84685620D01*
X112611000Y-84439044D01*
X112611000Y-83523691D01*
X119181000Y-83523691D01*
X119181000Y-83964250D01*
X119339750Y-84123000D01*
X120139000Y-84123000D01*
X120139000Y-83173750D01*
X120393000Y-83173750D01*
X120393000Y-84123000D01*
X121192250Y-84123000D01*
X121351000Y-83964250D01*
X121351000Y-83523691D01*
X121254327Y-83290302D01*
X121075699Y-83111673D01*
X120842310Y-83015000D01*
X120551750Y-83015000D01*
X120393000Y-83173750D01*
X120139000Y-83173750D01*
X119980250Y-83015000D01*
X119689690Y-83015000D01*
X119456301Y-83111673D01*
X119277673Y-83290302D01*
X119181000Y-83523691D01*
X112611000Y-83523691D01*
X112611000Y-78640754D01*
X112789405Y-78462660D01*
X112814675Y-78457633D01*
X113101790Y-78265790D01*
X115543888Y-75823691D01*
X119181000Y-75823691D01*
X119181000Y-76264250D01*
X119339750Y-76423000D01*
X120139000Y-76423000D01*
X120139000Y-75473750D01*
X120393000Y-75473750D01*
X120393000Y-76423000D01*
X121192250Y-76423000D01*
X121351000Y-76264250D01*
X121351000Y-75823691D01*
X121254327Y-75590302D01*
X121075699Y-75411673D01*
X120842310Y-75315000D01*
X120551750Y-75315000D01*
X120393000Y-75473750D01*
X120139000Y-75473750D01*
X119980250Y-75315000D01*
X119689690Y-75315000D01*
X119456301Y-75411673D01*
X119277673Y-75590302D01*
X119181000Y-75823691D01*
X115543888Y-75823691D01*
X119032579Y-72335000D01*
X125096854Y-72335000D01*
X125019569Y-72448110D01*
G36*
X145183540Y-92219119D02*
X145183540Y-94496222D01*
X144810666Y-94868446D01*
X144584168Y-95413913D01*
X144583652Y-96004536D01*
X144809198Y-96550397D01*
X144823776Y-96565000D01*
X143840669Y-96565000D01*
X143830090Y-96548559D01*
X143617890Y-96403569D01*
X143366000Y-96352560D01*
X142566000Y-96352560D01*
X142330683Y-96396838D01*
X142114559Y-96535910D01*
X142094683Y-96565000D01*
X141172822Y-96565000D01*
X141052799Y-96515162D01*
X140680833Y-96514838D01*
X140337057Y-96656883D01*
X140073808Y-96919673D01*
X139931162Y-97263201D01*
X139930838Y-97635167D01*
X140072883Y-97978943D01*
X140335673Y-98242192D01*
X140679201Y-98384838D01*
X141051167Y-98385162D01*
X141172569Y-98335000D01*
X142091331Y-98335000D01*
X142101910Y-98351441D01*
X142103548Y-98352560D01*
X141616000Y-98352560D01*
X141380683Y-98396838D01*
X141164559Y-98535910D01*
X141019569Y-98748110D01*
X140968560Y-99000000D01*
X140968560Y-99245861D01*
X140649420Y-99565000D01*
X138987192Y-99565000D01*
X138880090Y-99398559D01*
X138851000Y-99378683D01*
X138851000Y-99064018D01*
X138967441Y-98989090D01*
X139112431Y-98776890D01*
X139163440Y-98525000D01*
X139163440Y-97775000D01*
X139119162Y-97539683D01*
X138980090Y-97323559D01*
X138801000Y-97201192D01*
X138801000Y-95897440D01*
X139266000Y-95897440D01*
X139501317Y-95853162D01*
X139717441Y-95714090D01*
X139862431Y-95501890D01*
X139913440Y-95250000D01*
X139913440Y-94735750D01*
X140631000Y-94735750D01*
X140631000Y-95376310D01*
X140727673Y-95609699D01*
X140906302Y-95788327D01*
X141139691Y-95885000D01*
X141980250Y-95885000D01*
X142139000Y-95726250D01*
X142139000Y-94577000D01*
X142393000Y-94577000D01*
X142393000Y-95726250D01*
X142551750Y-95885000D01*
X143392309Y-95885000D01*
X143625698Y-95788327D01*
X143804327Y-95609699D01*
X143901000Y-95376310D01*
X143901000Y-94735750D01*
X143742250Y-94577000D01*
X142393000Y-94577000D01*
X142139000Y-94577000D01*
X140789750Y-94577000D01*
X140631000Y-94735750D01*
X139913440Y-94735750D01*
X139913440Y-93650000D01*
X139889674Y-93523690D01*
X140631000Y-93523690D01*
X140631000Y-94164250D01*
X140789750Y-94323000D01*
X142139000Y-94323000D01*
X142139000Y-93173750D01*
X142393000Y-93173750D01*
X142393000Y-94323000D01*
X143742250Y-94323000D01*
X143901000Y-94164250D01*
X143901000Y-93523690D01*
X143804327Y-93290301D01*
X143625698Y-93111673D01*
X143392309Y-93015000D01*
X142551750Y-93015000D01*
X142393000Y-93173750D01*
X142139000Y-93173750D01*
X141980250Y-93015000D01*
X141139691Y-93015000D01*
X140906302Y-93111673D01*
X140727673Y-93290301D01*
X140631000Y-93523690D01*
X139889674Y-93523690D01*
X139869162Y-93414683D01*
X139804063Y-93313517D01*
X141020139Y-92097440D01*
X141791000Y-92097440D01*
X142026317Y-92053162D01*
X142242441Y-91914090D01*
X142387431Y-91701890D01*
X142411102Y-91585000D01*
X144549420Y-91585000D01*
X145183540Y-92219119D01*
X145183540Y-92219119D01*
G37*
X145183540Y-92219119D02*
X145183540Y-94496222D01*
X144810666Y-94868446D01*
X144584168Y-95413913D01*
X144583652Y-96004536D01*
X144809198Y-96550397D01*
X144823776Y-96565000D01*
X143840669Y-96565000D01*
X143830090Y-96548559D01*
X143617890Y-96403569D01*
X143366000Y-96352560D01*
X142566000Y-96352560D01*
X142330683Y-96396838D01*
X142114559Y-96535910D01*
X142094683Y-96565000D01*
X141172822Y-96565000D01*
X141052799Y-96515162D01*
X140680833Y-96514838D01*
X140337057Y-96656883D01*
X140073808Y-96919673D01*
X139931162Y-97263201D01*
X139930838Y-97635167D01*
X140072883Y-97978943D01*
X140335673Y-98242192D01*
X140679201Y-98384838D01*
X141051167Y-98385162D01*
X141172569Y-98335000D01*
X142091331Y-98335000D01*
X142101910Y-98351441D01*
X142103548Y-98352560D01*
X141616000Y-98352560D01*
X141380683Y-98396838D01*
X141164559Y-98535910D01*
X141019569Y-98748110D01*
X140968560Y-99000000D01*
X140968560Y-99245861D01*
X140649420Y-99565000D01*
X138987192Y-99565000D01*
X138880090Y-99398559D01*
X138851000Y-99378683D01*
X138851000Y-99064018D01*
X138967441Y-98989090D01*
X139112431Y-98776890D01*
X139163440Y-98525000D01*
X139163440Y-97775000D01*
X139119162Y-97539683D01*
X138980090Y-97323559D01*
X138801000Y-97201192D01*
X138801000Y-95897440D01*
X139266000Y-95897440D01*
X139501317Y-95853162D01*
X139717441Y-95714090D01*
X139862431Y-95501890D01*
X139913440Y-95250000D01*
X139913440Y-94735750D01*
X140631000Y-94735750D01*
X140631000Y-95376310D01*
X140727673Y-95609699D01*
X140906302Y-95788327D01*
X141139691Y-95885000D01*
X141980250Y-95885000D01*
X142139000Y-95726250D01*
X142139000Y-94577000D01*
X142393000Y-94577000D01*
X142393000Y-95726250D01*
X142551750Y-95885000D01*
X143392309Y-95885000D01*
X143625698Y-95788327D01*
X143804327Y-95609699D01*
X143901000Y-95376310D01*
X143901000Y-94735750D01*
X143742250Y-94577000D01*
X142393000Y-94577000D01*
X142139000Y-94577000D01*
X140789750Y-94577000D01*
X140631000Y-94735750D01*
X139913440Y-94735750D01*
X139913440Y-93650000D01*
X139889674Y-93523690D01*
X140631000Y-93523690D01*
X140631000Y-94164250D01*
X140789750Y-94323000D01*
X142139000Y-94323000D01*
X142139000Y-93173750D01*
X142393000Y-93173750D01*
X142393000Y-94323000D01*
X143742250Y-94323000D01*
X143901000Y-94164250D01*
X143901000Y-93523690D01*
X143804327Y-93290301D01*
X143625698Y-93111673D01*
X143392309Y-93015000D01*
X142551750Y-93015000D01*
X142393000Y-93173750D01*
X142139000Y-93173750D01*
X141980250Y-93015000D01*
X141139691Y-93015000D01*
X140906302Y-93111673D01*
X140727673Y-93290301D01*
X140631000Y-93523690D01*
X139889674Y-93523690D01*
X139869162Y-93414683D01*
X139804063Y-93313517D01*
X141020139Y-92097440D01*
X141791000Y-92097440D01*
X142026317Y-92053162D01*
X142242441Y-91914090D01*
X142387431Y-91701890D01*
X142411102Y-91585000D01*
X144549420Y-91585000D01*
X145183540Y-92219119D01*
M02*
