G04 #@! TF.FileFunction,Copper,L2,Bot,Signal*
%FSLAX46Y46*%
G04 Gerber Fmt 4.6, Leading zero omitted, Abs format (unit mm)*
G04 Created by KiCad (PCBNEW 4.0.1-stable) date 24/03/2016 07:32:19*
%MOMM*%
G01*
G04 APERTURE LIST*
%ADD10C,0.100000*%
%ADD11C,3.000000*%
%ADD12R,1.727200X2.032000*%
%ADD13O,1.727200X2.032000*%
%ADD14R,2.032000X1.727200*%
%ADD15O,2.032000X1.727200*%
%ADD16R,1.300000X1.300000*%
%ADD17C,1.300000*%
%ADD18R,1.198880X1.699260*%
%ADD19O,1.198880X1.699260*%
%ADD20R,2.000000X2.000000*%
%ADD21C,2.000000*%
%ADD22C,1.699260*%
%ADD23R,1.699260X1.699260*%
%ADD24C,1.397000*%
%ADD25R,1.699260X1.198880*%
%ADD26O,1.699260X1.198880*%
%ADD27C,0.600000*%
%ADD28C,0.400000*%
%ADD29C,0.500000*%
%ADD30C,0.254000*%
G04 APERTURE END LIST*
D10*
D11*
X112596000Y-110150000D03*
X112596000Y-70350000D03*
X157396000Y-70350000D03*
X157396000Y-110150000D03*
D12*
X120266000Y-102750000D03*
D13*
X122806000Y-102750000D03*
X125346000Y-102750000D03*
D12*
X120266000Y-112750000D03*
D13*
X122806000Y-112750000D03*
X125346000Y-112750000D03*
D12*
X125366000Y-107750000D03*
D13*
X122826000Y-107750000D03*
X120286000Y-107750000D03*
D14*
X119966000Y-91450000D03*
D15*
X119966000Y-93990000D03*
X119966000Y-96530000D03*
D16*
X155566000Y-78700000D03*
D17*
X155566000Y-76200000D03*
D18*
X125316760Y-68950000D03*
D19*
X123315240Y-68950000D03*
D20*
X115066000Y-92050000D03*
D21*
X112526000Y-92050000D03*
D20*
X115066000Y-98050000D03*
D21*
X112526000Y-98050000D03*
D14*
X152566000Y-91700000D03*
D15*
X152566000Y-94240000D03*
X152566000Y-96780000D03*
D18*
X142316760Y-68950000D03*
D19*
X140315240Y-68950000D03*
D22*
X146068540Y-95710520D03*
D23*
X146068540Y-85550520D03*
D24*
X139166000Y-78850000D03*
X134166000Y-78850000D03*
X114266000Y-80180000D03*
X116806000Y-77640000D03*
X111726000Y-77640000D03*
X114266000Y-87980000D03*
X116806000Y-85440000D03*
X111726000Y-85440000D03*
D25*
X153316000Y-103700760D03*
D26*
X153316000Y-101699240D03*
D25*
X153066000Y-85950760D03*
D26*
X153066000Y-83949240D03*
D12*
X149316000Y-74200000D03*
D13*
X146776000Y-74200000D03*
X144236000Y-74200000D03*
D18*
X133816760Y-68950000D03*
D19*
X131815240Y-68950000D03*
D27*
X141666000Y-96250000D03*
X141666000Y-92750000D03*
X144566000Y-93550000D03*
X132566000Y-95050000D03*
X132566000Y-90750000D03*
X126966000Y-86950000D03*
X140866000Y-97450000D03*
D28*
X125366000Y-107750000D02*
X125966000Y-107750000D01*
X125966000Y-107750000D02*
X131366000Y-102350000D01*
X131366000Y-102350000D02*
X131366000Y-97450000D01*
X126966000Y-86950000D02*
X124666000Y-86950000D01*
X112526000Y-90590000D02*
X112526000Y-92050000D01*
X113866000Y-89250000D02*
X112526000Y-90590000D01*
X122366000Y-89250000D02*
X113866000Y-89250000D01*
X124666000Y-86950000D02*
X122366000Y-89250000D01*
X112526000Y-98050000D02*
X112526000Y-92050000D01*
D29*
X126966000Y-93050000D02*
X126966000Y-86950000D01*
X131366000Y-97450000D02*
X126966000Y-93050000D01*
X140866000Y-97450000D02*
X131366000Y-97450000D01*
D28*
X120286000Y-107750000D02*
X118966000Y-107750000D01*
X117766000Y-98730000D02*
X119966000Y-96530000D01*
X117766000Y-106550000D02*
X117766000Y-98730000D01*
X118966000Y-107750000D02*
X117766000Y-106550000D01*
D29*
X153316000Y-103700760D02*
X149816760Y-103700760D01*
X146068540Y-99952540D02*
X146068540Y-95710520D01*
X149816760Y-103700760D02*
X146068540Y-99952540D01*
X152566000Y-94240000D02*
X154026000Y-94240000D01*
X155066000Y-87950760D02*
X153066000Y-85950760D01*
X155066000Y-93200000D02*
X155066000Y-87950760D01*
X154026000Y-94240000D02*
X155066000Y-93200000D01*
X123315240Y-68950000D02*
X123315240Y-70199240D01*
X144276000Y-76700000D02*
X146776000Y-74200000D01*
X129816000Y-76700000D02*
X144276000Y-76700000D01*
X123315240Y-70199240D02*
X129816000Y-76700000D01*
X133816760Y-68950000D02*
X133816760Y-70200760D01*
X142486000Y-72450000D02*
X144236000Y-74200000D01*
X136066000Y-72450000D02*
X142486000Y-72450000D01*
X133816760Y-70200760D02*
X136066000Y-72450000D01*
D30*
G36*
X159156000Y-69091091D02*
X158606959Y-68541091D01*
X157822541Y-68215372D01*
X156973185Y-68214630D01*
X156188200Y-68538980D01*
X155587091Y-69139041D01*
X155261372Y-69923459D01*
X155260630Y-70772815D01*
X155584980Y-71557800D01*
X156185041Y-72158909D01*
X156969459Y-72484628D01*
X157818815Y-72485370D01*
X158603800Y-72161020D01*
X159156000Y-71609783D01*
X159156000Y-108891091D01*
X158606959Y-108341091D01*
X157822541Y-108015372D01*
X156973185Y-108014630D01*
X156188200Y-108338980D01*
X155587091Y-108939041D01*
X155261372Y-109723459D01*
X155260630Y-110572815D01*
X155584980Y-111357800D01*
X156185041Y-111958909D01*
X156969459Y-112284628D01*
X157818815Y-112285370D01*
X158603800Y-111961020D01*
X159156000Y-111409783D01*
X159156000Y-114440000D01*
X110776000Y-114440000D01*
X110776000Y-113035750D01*
X118767400Y-113035750D01*
X118767400Y-113892309D01*
X118864073Y-114125698D01*
X119042701Y-114304327D01*
X119276090Y-114401000D01*
X119980250Y-114401000D01*
X120139000Y-114242250D01*
X120139000Y-112877000D01*
X118926150Y-112877000D01*
X118767400Y-113035750D01*
X110776000Y-113035750D01*
X110776000Y-111336067D01*
X110784980Y-111357800D01*
X111385041Y-111958909D01*
X112169459Y-112284628D01*
X113018815Y-112285370D01*
X113803800Y-111961020D01*
X114157746Y-111607691D01*
X118767400Y-111607691D01*
X118767400Y-112464250D01*
X118926150Y-112623000D01*
X120139000Y-112623000D01*
X120139000Y-111257750D01*
X120393000Y-111257750D01*
X120393000Y-112623000D01*
X120413000Y-112623000D01*
X120413000Y-112877000D01*
X120393000Y-112877000D01*
X120393000Y-114242250D01*
X120551750Y-114401000D01*
X121255910Y-114401000D01*
X121489299Y-114304327D01*
X121667927Y-114125698D01*
X121731500Y-113972220D01*
X121746330Y-113994415D01*
X122232511Y-114319271D01*
X122806000Y-114433345D01*
X123379489Y-114319271D01*
X123865670Y-113994415D01*
X124076000Y-113679634D01*
X124286330Y-113994415D01*
X124772511Y-114319271D01*
X125346000Y-114433345D01*
X125919489Y-114319271D01*
X126405670Y-113994415D01*
X126730526Y-113508234D01*
X126844600Y-112934745D01*
X126844600Y-112565255D01*
X126730526Y-111991766D01*
X126405670Y-111505585D01*
X125919489Y-111180729D01*
X125346000Y-111066655D01*
X124772511Y-111180729D01*
X124286330Y-111505585D01*
X124076000Y-111820366D01*
X123865670Y-111505585D01*
X123379489Y-111180729D01*
X122806000Y-111066655D01*
X122232511Y-111180729D01*
X121746330Y-111505585D01*
X121731500Y-111527780D01*
X121667927Y-111374302D01*
X121489299Y-111195673D01*
X121255910Y-111099000D01*
X120551750Y-111099000D01*
X120393000Y-111257750D01*
X120139000Y-111257750D01*
X119980250Y-111099000D01*
X119276090Y-111099000D01*
X119042701Y-111195673D01*
X118864073Y-111374302D01*
X118767400Y-111607691D01*
X114157746Y-111607691D01*
X114404909Y-111360959D01*
X114730628Y-110576541D01*
X114731370Y-109727185D01*
X114407020Y-108942200D01*
X113806959Y-108341091D01*
X113022541Y-108015372D01*
X112173185Y-108014630D01*
X111388200Y-108338980D01*
X110787091Y-108939041D01*
X110776000Y-108965751D01*
X110776000Y-92373795D01*
X110890716Y-92373795D01*
X111139106Y-92974943D01*
X111598637Y-93435278D01*
X111691000Y-93473630D01*
X111691000Y-96625942D01*
X111601057Y-96663106D01*
X111140722Y-97122637D01*
X110891284Y-97723352D01*
X110890716Y-98373795D01*
X111139106Y-98974943D01*
X111598637Y-99435278D01*
X112199352Y-99684716D01*
X112849795Y-99685284D01*
X113450943Y-99436894D01*
X113517574Y-99370379D01*
X113601910Y-99501441D01*
X113814110Y-99646431D01*
X114066000Y-99697440D01*
X116066000Y-99697440D01*
X116301317Y-99653162D01*
X116517441Y-99514090D01*
X116662431Y-99301890D01*
X116713440Y-99050000D01*
X116713440Y-97050000D01*
X116669162Y-96814683D01*
X116530090Y-96598559D01*
X116317890Y-96453569D01*
X116066000Y-96402560D01*
X114066000Y-96402560D01*
X113830683Y-96446838D01*
X113614559Y-96585910D01*
X113517090Y-96728561D01*
X113453363Y-96664722D01*
X113361000Y-96626370D01*
X113361000Y-93474058D01*
X113450943Y-93436894D01*
X113517574Y-93370379D01*
X113601910Y-93501441D01*
X113814110Y-93646431D01*
X114066000Y-93697440D01*
X116066000Y-93697440D01*
X116301317Y-93653162D01*
X116517441Y-93514090D01*
X116662431Y-93301890D01*
X116713440Y-93050000D01*
X116713440Y-91050000D01*
X116669162Y-90814683D01*
X116530090Y-90598559D01*
X116317890Y-90453569D01*
X116066000Y-90402560D01*
X114066000Y-90402560D01*
X113854514Y-90442354D01*
X114211868Y-90085000D01*
X118556540Y-90085000D01*
X118498559Y-90122310D01*
X118353569Y-90334510D01*
X118302560Y-90586400D01*
X118302560Y-92313600D01*
X118346838Y-92548917D01*
X118485910Y-92765041D01*
X118698110Y-92910031D01*
X118739439Y-92918400D01*
X118721585Y-92930330D01*
X118396729Y-93416511D01*
X118282655Y-93990000D01*
X118396729Y-94563489D01*
X118721585Y-95049670D01*
X119036366Y-95260000D01*
X118721585Y-95470330D01*
X118396729Y-95956511D01*
X118282655Y-96530000D01*
X118366021Y-96949111D01*
X117175566Y-98139566D01*
X116994561Y-98410459D01*
X116931000Y-98730000D01*
X116931000Y-106550000D01*
X116994561Y-106869541D01*
X117175566Y-107140434D01*
X118375566Y-108340434D01*
X118646459Y-108521439D01*
X118950739Y-108581964D01*
X119226330Y-108994415D01*
X119712511Y-109319271D01*
X120286000Y-109433345D01*
X120859489Y-109319271D01*
X121345670Y-108994415D01*
X121556000Y-108679634D01*
X121766330Y-108994415D01*
X122252511Y-109319271D01*
X122826000Y-109433345D01*
X123399489Y-109319271D01*
X123885670Y-108994415D01*
X123895243Y-108980087D01*
X123899238Y-109001317D01*
X124038310Y-109217441D01*
X124250510Y-109362431D01*
X124502400Y-109413440D01*
X126229600Y-109413440D01*
X126464917Y-109369162D01*
X126681041Y-109230090D01*
X126826031Y-109017890D01*
X126877040Y-108766000D01*
X126877040Y-108019828D01*
X131956434Y-102940434D01*
X132035890Y-102821519D01*
X132137439Y-102669541D01*
X132201000Y-102350000D01*
X132201000Y-98335000D01*
X140559178Y-98335000D01*
X140679201Y-98384838D01*
X141051167Y-98385162D01*
X141394943Y-98243117D01*
X141658192Y-97980327D01*
X141800838Y-97636799D01*
X141801162Y-97264833D01*
X141659117Y-96921057D01*
X141396327Y-96657808D01*
X141052799Y-96515162D01*
X140680833Y-96514838D01*
X140559431Y-96565000D01*
X131732579Y-96565000D01*
X131172116Y-96004536D01*
X144583652Y-96004536D01*
X144809198Y-96550397D01*
X145183540Y-96925393D01*
X145183540Y-99952535D01*
X145183539Y-99952540D01*
X145239730Y-100235024D01*
X145250907Y-100291215D01*
X145360007Y-100454495D01*
X145442750Y-100578330D01*
X149190968Y-104326547D01*
X149190970Y-104326550D01*
X149254744Y-104369162D01*
X149478086Y-104518394D01*
X149816760Y-104585761D01*
X149816765Y-104585760D01*
X151895538Y-104585760D01*
X152002280Y-104751641D01*
X152214480Y-104896631D01*
X152466370Y-104947640D01*
X154165630Y-104947640D01*
X154400947Y-104903362D01*
X154617071Y-104764290D01*
X154762061Y-104552090D01*
X154813070Y-104300200D01*
X154813070Y-103101320D01*
X154768792Y-102866003D01*
X154629720Y-102649879D01*
X154475757Y-102544681D01*
X154497568Y-102528197D01*
X154743899Y-102108673D01*
X154759095Y-102016761D01*
X154634357Y-101826240D01*
X153443000Y-101826240D01*
X153443000Y-101846240D01*
X153189000Y-101846240D01*
X153189000Y-101826240D01*
X151997643Y-101826240D01*
X151872905Y-102016761D01*
X151888101Y-102108673D01*
X152134432Y-102528197D01*
X152157398Y-102545554D01*
X152014929Y-102637230D01*
X151892945Y-102815760D01*
X150183339Y-102815760D01*
X148749299Y-101381719D01*
X151872905Y-101381719D01*
X151997643Y-101572240D01*
X153189000Y-101572240D01*
X153189000Y-100617240D01*
X153443000Y-100617240D01*
X153443000Y-101572240D01*
X154634357Y-101572240D01*
X154759095Y-101381719D01*
X154743899Y-101289807D01*
X154497568Y-100870283D01*
X154109443Y-100576961D01*
X153638613Y-100454495D01*
X153443000Y-100617240D01*
X153189000Y-100617240D01*
X152993387Y-100454495D01*
X152522557Y-100576961D01*
X152134432Y-100870283D01*
X151888101Y-101289807D01*
X151872905Y-101381719D01*
X148749299Y-101381719D01*
X146953540Y-99585960D01*
X146953540Y-96924818D01*
X147326414Y-96552594D01*
X147552912Y-96007127D01*
X147553428Y-95416504D01*
X147327882Y-94870643D01*
X146910614Y-94452646D01*
X146398507Y-94240000D01*
X150882655Y-94240000D01*
X150996729Y-94813489D01*
X151321585Y-95299670D01*
X151636366Y-95510000D01*
X151321585Y-95720330D01*
X150996729Y-96206511D01*
X150882655Y-96780000D01*
X150996729Y-97353489D01*
X151321585Y-97839670D01*
X151807766Y-98164526D01*
X152381255Y-98278600D01*
X152750745Y-98278600D01*
X153324234Y-98164526D01*
X153810415Y-97839670D01*
X154135271Y-97353489D01*
X154249345Y-96780000D01*
X154135271Y-96206511D01*
X153810415Y-95720330D01*
X153495634Y-95510000D01*
X153810415Y-95299670D01*
X153927126Y-95125000D01*
X154025995Y-95125000D01*
X154026000Y-95125001D01*
X154308484Y-95068810D01*
X154364675Y-95057633D01*
X154651790Y-94865790D01*
X155691787Y-93825792D01*
X155691790Y-93825790D01*
X155883633Y-93538675D01*
X155904200Y-93435278D01*
X155951001Y-93200000D01*
X155951000Y-93199995D01*
X155951000Y-87950765D01*
X155951001Y-87950760D01*
X155883633Y-87612085D01*
X155691790Y-87324970D01*
X155691787Y-87324968D01*
X154563070Y-86196250D01*
X154563070Y-85351320D01*
X154518792Y-85116003D01*
X154379720Y-84899879D01*
X154225757Y-84794681D01*
X154247568Y-84778197D01*
X154493899Y-84358673D01*
X154509095Y-84266761D01*
X154384357Y-84076240D01*
X153193000Y-84076240D01*
X153193000Y-84096240D01*
X152939000Y-84096240D01*
X152939000Y-84076240D01*
X151747643Y-84076240D01*
X151622905Y-84266761D01*
X151638101Y-84358673D01*
X151884432Y-84778197D01*
X151907398Y-84795554D01*
X151764929Y-84887230D01*
X151619939Y-85099430D01*
X151568930Y-85351320D01*
X151568930Y-86550200D01*
X151613208Y-86785517D01*
X151752280Y-87001641D01*
X151964480Y-87146631D01*
X152216370Y-87197640D01*
X153061300Y-87197640D01*
X154181000Y-88317339D01*
X154181000Y-90594615D01*
X154046090Y-90384959D01*
X153833890Y-90239969D01*
X153582000Y-90188960D01*
X151550000Y-90188960D01*
X151314683Y-90233238D01*
X151098559Y-90372310D01*
X150953569Y-90584510D01*
X150902560Y-90836400D01*
X150902560Y-92563600D01*
X150946838Y-92798917D01*
X151085910Y-93015041D01*
X151298110Y-93160031D01*
X151339439Y-93168400D01*
X151321585Y-93180330D01*
X150996729Y-93666511D01*
X150882655Y-94240000D01*
X146398507Y-94240000D01*
X146365147Y-94226148D01*
X145774524Y-94225632D01*
X145228663Y-94451178D01*
X144810666Y-94868446D01*
X144584168Y-95413913D01*
X144583652Y-96004536D01*
X131172116Y-96004536D01*
X127851000Y-92683420D01*
X127851000Y-87256822D01*
X127900838Y-87136799D01*
X127901162Y-86764833D01*
X127759117Y-86421057D01*
X127496327Y-86157808D01*
X127152799Y-86015162D01*
X126780833Y-86014838D01*
X126538422Y-86115000D01*
X124666000Y-86115000D01*
X124346459Y-86178561D01*
X124180526Y-86289434D01*
X124075566Y-86359566D01*
X122020132Y-88415000D01*
X115529265Y-88415000D01*
X115599268Y-88246413D01*
X115599731Y-87715914D01*
X115397146Y-87225620D01*
X115022353Y-86850173D01*
X114532413Y-86646732D01*
X114001914Y-86646269D01*
X113511620Y-86848854D01*
X113136173Y-87223647D01*
X112932732Y-87713587D01*
X112932269Y-88244086D01*
X113134854Y-88734380D01*
X113167774Y-88767358D01*
X111935566Y-89999566D01*
X111754561Y-90270459D01*
X111691000Y-90590000D01*
X111691000Y-90625942D01*
X111601057Y-90663106D01*
X111140722Y-91122637D01*
X110891284Y-91723352D01*
X110890716Y-92373795D01*
X110776000Y-92373795D01*
X110776000Y-86375842D01*
X110969647Y-86569827D01*
X111459587Y-86773268D01*
X111990086Y-86773731D01*
X112480380Y-86571146D01*
X112855827Y-86196353D01*
X113059268Y-85706413D01*
X113059270Y-85704086D01*
X115472269Y-85704086D01*
X115674854Y-86194380D01*
X116049647Y-86569827D01*
X116539587Y-86773268D01*
X117070086Y-86773731D01*
X117560380Y-86571146D01*
X117935827Y-86196353D01*
X118139268Y-85706413D01*
X118139731Y-85175914D01*
X117943456Y-84700890D01*
X144571470Y-84700890D01*
X144571470Y-86400150D01*
X144615748Y-86635467D01*
X144754820Y-86851591D01*
X144967020Y-86996581D01*
X145218910Y-87047590D01*
X146918170Y-87047590D01*
X147153487Y-87003312D01*
X147369611Y-86864240D01*
X147514601Y-86652040D01*
X147565610Y-86400150D01*
X147565610Y-84700890D01*
X147521332Y-84465573D01*
X147382260Y-84249449D01*
X147170060Y-84104459D01*
X146918170Y-84053450D01*
X145218910Y-84053450D01*
X144983593Y-84097728D01*
X144767469Y-84236800D01*
X144622479Y-84449000D01*
X144571470Y-84700890D01*
X117943456Y-84700890D01*
X117937146Y-84685620D01*
X117562353Y-84310173D01*
X117072413Y-84106732D01*
X116541914Y-84106269D01*
X116051620Y-84308854D01*
X115676173Y-84683647D01*
X115472732Y-85173587D01*
X115472269Y-85704086D01*
X113059270Y-85704086D01*
X113059731Y-85175914D01*
X112857146Y-84685620D01*
X112482353Y-84310173D01*
X111992413Y-84106732D01*
X111461914Y-84106269D01*
X110971620Y-84308854D01*
X110776000Y-84504133D01*
X110776000Y-83631719D01*
X151622905Y-83631719D01*
X151747643Y-83822240D01*
X152939000Y-83822240D01*
X152939000Y-82867240D01*
X153193000Y-82867240D01*
X153193000Y-83822240D01*
X154384357Y-83822240D01*
X154509095Y-83631719D01*
X154493899Y-83539807D01*
X154247568Y-83120283D01*
X153859443Y-82826961D01*
X153388613Y-82704495D01*
X153193000Y-82867240D01*
X152939000Y-82867240D01*
X152743387Y-82704495D01*
X152272557Y-82826961D01*
X151884432Y-83120283D01*
X151638101Y-83539807D01*
X151622905Y-83631719D01*
X110776000Y-83631719D01*
X110776000Y-80444086D01*
X112932269Y-80444086D01*
X113134854Y-80934380D01*
X113509647Y-81309827D01*
X113999587Y-81513268D01*
X114530086Y-81513731D01*
X115020380Y-81311146D01*
X115395827Y-80936353D01*
X115599268Y-80446413D01*
X115599731Y-79915914D01*
X115397146Y-79425620D01*
X115022353Y-79050173D01*
X114532413Y-78846732D01*
X114001914Y-78846269D01*
X113511620Y-79048854D01*
X113136173Y-79423647D01*
X112932732Y-79913587D01*
X112932269Y-80444086D01*
X110776000Y-80444086D01*
X110776000Y-78575842D01*
X110969647Y-78769827D01*
X111459587Y-78973268D01*
X111990086Y-78973731D01*
X112480380Y-78771146D01*
X112855827Y-78396353D01*
X113059268Y-77906413D01*
X113059270Y-77904086D01*
X115472269Y-77904086D01*
X115674854Y-78394380D01*
X116049647Y-78769827D01*
X116539587Y-78973268D01*
X117070086Y-78973731D01*
X117560380Y-78771146D01*
X117935827Y-78396353D01*
X118139268Y-77906413D01*
X118139731Y-77375914D01*
X117937146Y-76885620D01*
X117562353Y-76510173D01*
X117072413Y-76306732D01*
X116541914Y-76306269D01*
X116051620Y-76508854D01*
X115676173Y-76883647D01*
X115472732Y-77373587D01*
X115472269Y-77904086D01*
X113059270Y-77904086D01*
X113059731Y-77375914D01*
X112857146Y-76885620D01*
X112482353Y-76510173D01*
X111992413Y-76306732D01*
X111461914Y-76306269D01*
X110971620Y-76508854D01*
X110776000Y-76704133D01*
X110776000Y-71536067D01*
X110784980Y-71557800D01*
X111385041Y-72158909D01*
X112169459Y-72484628D01*
X113018815Y-72485370D01*
X113803800Y-72161020D01*
X114404909Y-71560959D01*
X114730628Y-70776541D01*
X114731370Y-69927185D01*
X114407020Y-69142200D01*
X113936366Y-68670724D01*
X122080800Y-68670724D01*
X122080800Y-69229276D01*
X122174766Y-69701676D01*
X122430240Y-70084020D01*
X122430240Y-70199235D01*
X122430239Y-70199240D01*
X122468800Y-70393095D01*
X122497607Y-70537915D01*
X122498623Y-70539435D01*
X122689450Y-70825030D01*
X129190208Y-77325787D01*
X129190210Y-77325790D01*
X129477325Y-77517633D01*
X129533516Y-77528810D01*
X129816000Y-77585001D01*
X129816005Y-77585000D01*
X133735572Y-77585000D01*
X133411620Y-77718854D01*
X133036173Y-78093647D01*
X132832732Y-78583587D01*
X132832269Y-79114086D01*
X133034854Y-79604380D01*
X133409647Y-79979827D01*
X133899587Y-80183268D01*
X134430086Y-80183731D01*
X134920380Y-79981146D01*
X135295827Y-79606353D01*
X135499268Y-79116413D01*
X135499731Y-78585914D01*
X135297146Y-78095620D01*
X134922353Y-77720173D01*
X134596820Y-77585000D01*
X138735572Y-77585000D01*
X138411620Y-77718854D01*
X138036173Y-78093647D01*
X137832732Y-78583587D01*
X137832269Y-79114086D01*
X138034854Y-79604380D01*
X138409647Y-79979827D01*
X138899587Y-80183268D01*
X139430086Y-80183731D01*
X139920380Y-79981146D01*
X140295827Y-79606353D01*
X140499268Y-79116413D01*
X140499731Y-78585914D01*
X140297146Y-78095620D01*
X140251606Y-78050000D01*
X154268560Y-78050000D01*
X154268560Y-79350000D01*
X154312838Y-79585317D01*
X154451910Y-79801441D01*
X154664110Y-79946431D01*
X154916000Y-79997440D01*
X156216000Y-79997440D01*
X156451317Y-79953162D01*
X156667441Y-79814090D01*
X156812431Y-79601890D01*
X156863440Y-79350000D01*
X156863440Y-78050000D01*
X156819162Y-77814683D01*
X156680090Y-77598559D01*
X156467890Y-77453569D01*
X156216000Y-77402560D01*
X156053615Y-77402560D01*
X156229729Y-77329611D01*
X156285410Y-77099016D01*
X155566000Y-76379605D01*
X154846590Y-77099016D01*
X154902271Y-77329611D01*
X155111902Y-77402560D01*
X154916000Y-77402560D01*
X154680683Y-77446838D01*
X154464559Y-77585910D01*
X154319569Y-77798110D01*
X154268560Y-78050000D01*
X140251606Y-78050000D01*
X139922353Y-77720173D01*
X139596820Y-77585000D01*
X144275995Y-77585000D01*
X144276000Y-77585001D01*
X144558484Y-77528810D01*
X144614675Y-77517633D01*
X144901790Y-77325790D01*
X146208502Y-76019078D01*
X154268378Y-76019078D01*
X154297917Y-76529428D01*
X154436389Y-76863729D01*
X154666984Y-76919410D01*
X155386395Y-76200000D01*
X155745605Y-76200000D01*
X156465016Y-76919410D01*
X156695611Y-76863729D01*
X156863622Y-76380922D01*
X156834083Y-75870572D01*
X156695611Y-75536271D01*
X156465016Y-75480590D01*
X155745605Y-76200000D01*
X155386395Y-76200000D01*
X154666984Y-75480590D01*
X154436389Y-75536271D01*
X154268378Y-76019078D01*
X146208502Y-76019078D01*
X146415869Y-75811711D01*
X146776000Y-75883345D01*
X147349489Y-75769271D01*
X147835670Y-75444415D01*
X147850500Y-75422220D01*
X147914073Y-75575698D01*
X148092701Y-75754327D01*
X148326090Y-75851000D01*
X149030250Y-75851000D01*
X149189000Y-75692250D01*
X149189000Y-74327000D01*
X149443000Y-74327000D01*
X149443000Y-75692250D01*
X149601750Y-75851000D01*
X150305910Y-75851000D01*
X150539299Y-75754327D01*
X150717927Y-75575698D01*
X150814600Y-75342309D01*
X150814600Y-75300984D01*
X154846590Y-75300984D01*
X155566000Y-76020395D01*
X156285410Y-75300984D01*
X156229729Y-75070389D01*
X155746922Y-74902378D01*
X155236572Y-74931917D01*
X154902271Y-75070389D01*
X154846590Y-75300984D01*
X150814600Y-75300984D01*
X150814600Y-74485750D01*
X150655850Y-74327000D01*
X149443000Y-74327000D01*
X149189000Y-74327000D01*
X149169000Y-74327000D01*
X149169000Y-74073000D01*
X149189000Y-74073000D01*
X149189000Y-72707750D01*
X149443000Y-72707750D01*
X149443000Y-74073000D01*
X150655850Y-74073000D01*
X150814600Y-73914250D01*
X150814600Y-73057691D01*
X150717927Y-72824302D01*
X150539299Y-72645673D01*
X150305910Y-72549000D01*
X149601750Y-72549000D01*
X149443000Y-72707750D01*
X149189000Y-72707750D01*
X149030250Y-72549000D01*
X148326090Y-72549000D01*
X148092701Y-72645673D01*
X147914073Y-72824302D01*
X147850500Y-72977780D01*
X147835670Y-72955585D01*
X147349489Y-72630729D01*
X146776000Y-72516655D01*
X146202511Y-72630729D01*
X145716330Y-72955585D01*
X145506000Y-73270366D01*
X145295670Y-72955585D01*
X144809489Y-72630729D01*
X144236000Y-72516655D01*
X143875869Y-72588289D01*
X143111790Y-71824210D01*
X142824675Y-71632367D01*
X142768484Y-71621190D01*
X142486000Y-71564999D01*
X142485995Y-71565000D01*
X136432579Y-71565000D01*
X134974665Y-70107085D01*
X135012631Y-70051520D01*
X135063640Y-69799630D01*
X135063640Y-69272613D01*
X139070495Y-69272613D01*
X139192961Y-69743443D01*
X139486283Y-70131568D01*
X139905807Y-70377899D01*
X139997719Y-70393095D01*
X140188240Y-70268357D01*
X140188240Y-69077000D01*
X139233240Y-69077000D01*
X139070495Y-69272613D01*
X135063640Y-69272613D01*
X135063640Y-68627387D01*
X139070495Y-68627387D01*
X139233240Y-68823000D01*
X140188240Y-68823000D01*
X140188240Y-67631643D01*
X140442240Y-67631643D01*
X140442240Y-68823000D01*
X140462240Y-68823000D01*
X140462240Y-69077000D01*
X140442240Y-69077000D01*
X140442240Y-70268357D01*
X140632761Y-70393095D01*
X140724673Y-70377899D01*
X141144197Y-70131568D01*
X141161554Y-70108602D01*
X141253230Y-70251071D01*
X141465430Y-70396061D01*
X141717320Y-70447070D01*
X142916200Y-70447070D01*
X143151517Y-70402792D01*
X143367641Y-70263720D01*
X143512631Y-70051520D01*
X143563640Y-69799630D01*
X143563640Y-68100370D01*
X143519362Y-67865053D01*
X143380290Y-67648929D01*
X143168090Y-67503939D01*
X142916200Y-67452930D01*
X141717320Y-67452930D01*
X141482003Y-67497208D01*
X141265879Y-67636280D01*
X141160681Y-67790243D01*
X141144197Y-67768432D01*
X140724673Y-67522101D01*
X140632761Y-67506905D01*
X140442240Y-67631643D01*
X140188240Y-67631643D01*
X139997719Y-67506905D01*
X139905807Y-67522101D01*
X139486283Y-67768432D01*
X139192961Y-68156557D01*
X139070495Y-68627387D01*
X135063640Y-68627387D01*
X135063640Y-68100370D01*
X135019362Y-67865053D01*
X134880290Y-67648929D01*
X134668090Y-67503939D01*
X134416200Y-67452930D01*
X133217320Y-67452930D01*
X132982003Y-67497208D01*
X132765879Y-67636280D01*
X132660681Y-67790243D01*
X132644197Y-67768432D01*
X132224673Y-67522101D01*
X132132761Y-67506905D01*
X131942240Y-67631643D01*
X131942240Y-68823000D01*
X131962240Y-68823000D01*
X131962240Y-69077000D01*
X131942240Y-69077000D01*
X131942240Y-70268357D01*
X132132761Y-70393095D01*
X132224673Y-70377899D01*
X132644197Y-70131568D01*
X132661554Y-70108602D01*
X132753230Y-70251071D01*
X132965430Y-70396061D01*
X132970825Y-70397154D01*
X132999127Y-70539435D01*
X133155066Y-70772815D01*
X133190970Y-70826550D01*
X135440208Y-73075787D01*
X135440210Y-73075790D01*
X135727325Y-73267633D01*
X135783516Y-73278810D01*
X136066000Y-73335001D01*
X136066005Y-73335000D01*
X142119420Y-73335000D01*
X142747732Y-73963312D01*
X142737400Y-74015255D01*
X142737400Y-74384745D01*
X142851474Y-74958234D01*
X143176330Y-75444415D01*
X143662511Y-75769271D01*
X143892406Y-75815000D01*
X130182579Y-75815000D01*
X124814650Y-70447070D01*
X125916200Y-70447070D01*
X126151517Y-70402792D01*
X126367641Y-70263720D01*
X126512631Y-70051520D01*
X126563640Y-69799630D01*
X126563640Y-69272613D01*
X130570495Y-69272613D01*
X130692961Y-69743443D01*
X130986283Y-70131568D01*
X131405807Y-70377899D01*
X131497719Y-70393095D01*
X131688240Y-70268357D01*
X131688240Y-69077000D01*
X130733240Y-69077000D01*
X130570495Y-69272613D01*
X126563640Y-69272613D01*
X126563640Y-68627387D01*
X130570495Y-68627387D01*
X130733240Y-68823000D01*
X131688240Y-68823000D01*
X131688240Y-67631643D01*
X131497719Y-67506905D01*
X131405807Y-67522101D01*
X130986283Y-67768432D01*
X130692961Y-68156557D01*
X130570495Y-68627387D01*
X126563640Y-68627387D01*
X126563640Y-68100370D01*
X126519362Y-67865053D01*
X126380290Y-67648929D01*
X126168090Y-67503939D01*
X125916200Y-67452930D01*
X124717320Y-67452930D01*
X124482003Y-67497208D01*
X124265879Y-67636280D01*
X124165716Y-67782873D01*
X123787640Y-67530250D01*
X123315240Y-67436284D01*
X122842840Y-67530250D01*
X122442359Y-67797843D01*
X122174766Y-68198324D01*
X122080800Y-68670724D01*
X113936366Y-68670724D01*
X113806959Y-68541091D01*
X113022541Y-68215372D01*
X112173185Y-68214630D01*
X111388200Y-68538980D01*
X110787091Y-69139041D01*
X110776000Y-69165751D01*
X110776000Y-66060000D01*
X159156000Y-66060000D01*
X159156000Y-69091091D01*
X159156000Y-69091091D01*
G37*
X159156000Y-69091091D02*
X158606959Y-68541091D01*
X157822541Y-68215372D01*
X156973185Y-68214630D01*
X156188200Y-68538980D01*
X155587091Y-69139041D01*
X155261372Y-69923459D01*
X155260630Y-70772815D01*
X155584980Y-71557800D01*
X156185041Y-72158909D01*
X156969459Y-72484628D01*
X157818815Y-72485370D01*
X158603800Y-72161020D01*
X159156000Y-71609783D01*
X159156000Y-108891091D01*
X158606959Y-108341091D01*
X157822541Y-108015372D01*
X156973185Y-108014630D01*
X156188200Y-108338980D01*
X155587091Y-108939041D01*
X155261372Y-109723459D01*
X155260630Y-110572815D01*
X155584980Y-111357800D01*
X156185041Y-111958909D01*
X156969459Y-112284628D01*
X157818815Y-112285370D01*
X158603800Y-111961020D01*
X159156000Y-111409783D01*
X159156000Y-114440000D01*
X110776000Y-114440000D01*
X110776000Y-113035750D01*
X118767400Y-113035750D01*
X118767400Y-113892309D01*
X118864073Y-114125698D01*
X119042701Y-114304327D01*
X119276090Y-114401000D01*
X119980250Y-114401000D01*
X120139000Y-114242250D01*
X120139000Y-112877000D01*
X118926150Y-112877000D01*
X118767400Y-113035750D01*
X110776000Y-113035750D01*
X110776000Y-111336067D01*
X110784980Y-111357800D01*
X111385041Y-111958909D01*
X112169459Y-112284628D01*
X113018815Y-112285370D01*
X113803800Y-111961020D01*
X114157746Y-111607691D01*
X118767400Y-111607691D01*
X118767400Y-112464250D01*
X118926150Y-112623000D01*
X120139000Y-112623000D01*
X120139000Y-111257750D01*
X120393000Y-111257750D01*
X120393000Y-112623000D01*
X120413000Y-112623000D01*
X120413000Y-112877000D01*
X120393000Y-112877000D01*
X120393000Y-114242250D01*
X120551750Y-114401000D01*
X121255910Y-114401000D01*
X121489299Y-114304327D01*
X121667927Y-114125698D01*
X121731500Y-113972220D01*
X121746330Y-113994415D01*
X122232511Y-114319271D01*
X122806000Y-114433345D01*
X123379489Y-114319271D01*
X123865670Y-113994415D01*
X124076000Y-113679634D01*
X124286330Y-113994415D01*
X124772511Y-114319271D01*
X125346000Y-114433345D01*
X125919489Y-114319271D01*
X126405670Y-113994415D01*
X126730526Y-113508234D01*
X126844600Y-112934745D01*
X126844600Y-112565255D01*
X126730526Y-111991766D01*
X126405670Y-111505585D01*
X125919489Y-111180729D01*
X125346000Y-111066655D01*
X124772511Y-111180729D01*
X124286330Y-111505585D01*
X124076000Y-111820366D01*
X123865670Y-111505585D01*
X123379489Y-111180729D01*
X122806000Y-111066655D01*
X122232511Y-111180729D01*
X121746330Y-111505585D01*
X121731500Y-111527780D01*
X121667927Y-111374302D01*
X121489299Y-111195673D01*
X121255910Y-111099000D01*
X120551750Y-111099000D01*
X120393000Y-111257750D01*
X120139000Y-111257750D01*
X119980250Y-111099000D01*
X119276090Y-111099000D01*
X119042701Y-111195673D01*
X118864073Y-111374302D01*
X118767400Y-111607691D01*
X114157746Y-111607691D01*
X114404909Y-111360959D01*
X114730628Y-110576541D01*
X114731370Y-109727185D01*
X114407020Y-108942200D01*
X113806959Y-108341091D01*
X113022541Y-108015372D01*
X112173185Y-108014630D01*
X111388200Y-108338980D01*
X110787091Y-108939041D01*
X110776000Y-108965751D01*
X110776000Y-92373795D01*
X110890716Y-92373795D01*
X111139106Y-92974943D01*
X111598637Y-93435278D01*
X111691000Y-93473630D01*
X111691000Y-96625942D01*
X111601057Y-96663106D01*
X111140722Y-97122637D01*
X110891284Y-97723352D01*
X110890716Y-98373795D01*
X111139106Y-98974943D01*
X111598637Y-99435278D01*
X112199352Y-99684716D01*
X112849795Y-99685284D01*
X113450943Y-99436894D01*
X113517574Y-99370379D01*
X113601910Y-99501441D01*
X113814110Y-99646431D01*
X114066000Y-99697440D01*
X116066000Y-99697440D01*
X116301317Y-99653162D01*
X116517441Y-99514090D01*
X116662431Y-99301890D01*
X116713440Y-99050000D01*
X116713440Y-97050000D01*
X116669162Y-96814683D01*
X116530090Y-96598559D01*
X116317890Y-96453569D01*
X116066000Y-96402560D01*
X114066000Y-96402560D01*
X113830683Y-96446838D01*
X113614559Y-96585910D01*
X113517090Y-96728561D01*
X113453363Y-96664722D01*
X113361000Y-96626370D01*
X113361000Y-93474058D01*
X113450943Y-93436894D01*
X113517574Y-93370379D01*
X113601910Y-93501441D01*
X113814110Y-93646431D01*
X114066000Y-93697440D01*
X116066000Y-93697440D01*
X116301317Y-93653162D01*
X116517441Y-93514090D01*
X116662431Y-93301890D01*
X116713440Y-93050000D01*
X116713440Y-91050000D01*
X116669162Y-90814683D01*
X116530090Y-90598559D01*
X116317890Y-90453569D01*
X116066000Y-90402560D01*
X114066000Y-90402560D01*
X113854514Y-90442354D01*
X114211868Y-90085000D01*
X118556540Y-90085000D01*
X118498559Y-90122310D01*
X118353569Y-90334510D01*
X118302560Y-90586400D01*
X118302560Y-92313600D01*
X118346838Y-92548917D01*
X118485910Y-92765041D01*
X118698110Y-92910031D01*
X118739439Y-92918400D01*
X118721585Y-92930330D01*
X118396729Y-93416511D01*
X118282655Y-93990000D01*
X118396729Y-94563489D01*
X118721585Y-95049670D01*
X119036366Y-95260000D01*
X118721585Y-95470330D01*
X118396729Y-95956511D01*
X118282655Y-96530000D01*
X118366021Y-96949111D01*
X117175566Y-98139566D01*
X116994561Y-98410459D01*
X116931000Y-98730000D01*
X116931000Y-106550000D01*
X116994561Y-106869541D01*
X117175566Y-107140434D01*
X118375566Y-108340434D01*
X118646459Y-108521439D01*
X118950739Y-108581964D01*
X119226330Y-108994415D01*
X119712511Y-109319271D01*
X120286000Y-109433345D01*
X120859489Y-109319271D01*
X121345670Y-108994415D01*
X121556000Y-108679634D01*
X121766330Y-108994415D01*
X122252511Y-109319271D01*
X122826000Y-109433345D01*
X123399489Y-109319271D01*
X123885670Y-108994415D01*
X123895243Y-108980087D01*
X123899238Y-109001317D01*
X124038310Y-109217441D01*
X124250510Y-109362431D01*
X124502400Y-109413440D01*
X126229600Y-109413440D01*
X126464917Y-109369162D01*
X126681041Y-109230090D01*
X126826031Y-109017890D01*
X126877040Y-108766000D01*
X126877040Y-108019828D01*
X131956434Y-102940434D01*
X132035890Y-102821519D01*
X132137439Y-102669541D01*
X132201000Y-102350000D01*
X132201000Y-98335000D01*
X140559178Y-98335000D01*
X140679201Y-98384838D01*
X141051167Y-98385162D01*
X141394943Y-98243117D01*
X141658192Y-97980327D01*
X141800838Y-97636799D01*
X141801162Y-97264833D01*
X141659117Y-96921057D01*
X141396327Y-96657808D01*
X141052799Y-96515162D01*
X140680833Y-96514838D01*
X140559431Y-96565000D01*
X131732579Y-96565000D01*
X131172116Y-96004536D01*
X144583652Y-96004536D01*
X144809198Y-96550397D01*
X145183540Y-96925393D01*
X145183540Y-99952535D01*
X145183539Y-99952540D01*
X145239730Y-100235024D01*
X145250907Y-100291215D01*
X145360007Y-100454495D01*
X145442750Y-100578330D01*
X149190968Y-104326547D01*
X149190970Y-104326550D01*
X149254744Y-104369162D01*
X149478086Y-104518394D01*
X149816760Y-104585761D01*
X149816765Y-104585760D01*
X151895538Y-104585760D01*
X152002280Y-104751641D01*
X152214480Y-104896631D01*
X152466370Y-104947640D01*
X154165630Y-104947640D01*
X154400947Y-104903362D01*
X154617071Y-104764290D01*
X154762061Y-104552090D01*
X154813070Y-104300200D01*
X154813070Y-103101320D01*
X154768792Y-102866003D01*
X154629720Y-102649879D01*
X154475757Y-102544681D01*
X154497568Y-102528197D01*
X154743899Y-102108673D01*
X154759095Y-102016761D01*
X154634357Y-101826240D01*
X153443000Y-101826240D01*
X153443000Y-101846240D01*
X153189000Y-101846240D01*
X153189000Y-101826240D01*
X151997643Y-101826240D01*
X151872905Y-102016761D01*
X151888101Y-102108673D01*
X152134432Y-102528197D01*
X152157398Y-102545554D01*
X152014929Y-102637230D01*
X151892945Y-102815760D01*
X150183339Y-102815760D01*
X148749299Y-101381719D01*
X151872905Y-101381719D01*
X151997643Y-101572240D01*
X153189000Y-101572240D01*
X153189000Y-100617240D01*
X153443000Y-100617240D01*
X153443000Y-101572240D01*
X154634357Y-101572240D01*
X154759095Y-101381719D01*
X154743899Y-101289807D01*
X154497568Y-100870283D01*
X154109443Y-100576961D01*
X153638613Y-100454495D01*
X153443000Y-100617240D01*
X153189000Y-100617240D01*
X152993387Y-100454495D01*
X152522557Y-100576961D01*
X152134432Y-100870283D01*
X151888101Y-101289807D01*
X151872905Y-101381719D01*
X148749299Y-101381719D01*
X146953540Y-99585960D01*
X146953540Y-96924818D01*
X147326414Y-96552594D01*
X147552912Y-96007127D01*
X147553428Y-95416504D01*
X147327882Y-94870643D01*
X146910614Y-94452646D01*
X146398507Y-94240000D01*
X150882655Y-94240000D01*
X150996729Y-94813489D01*
X151321585Y-95299670D01*
X151636366Y-95510000D01*
X151321585Y-95720330D01*
X150996729Y-96206511D01*
X150882655Y-96780000D01*
X150996729Y-97353489D01*
X151321585Y-97839670D01*
X151807766Y-98164526D01*
X152381255Y-98278600D01*
X152750745Y-98278600D01*
X153324234Y-98164526D01*
X153810415Y-97839670D01*
X154135271Y-97353489D01*
X154249345Y-96780000D01*
X154135271Y-96206511D01*
X153810415Y-95720330D01*
X153495634Y-95510000D01*
X153810415Y-95299670D01*
X153927126Y-95125000D01*
X154025995Y-95125000D01*
X154026000Y-95125001D01*
X154308484Y-95068810D01*
X154364675Y-95057633D01*
X154651790Y-94865790D01*
X155691787Y-93825792D01*
X155691790Y-93825790D01*
X155883633Y-93538675D01*
X155904200Y-93435278D01*
X155951001Y-93200000D01*
X155951000Y-93199995D01*
X155951000Y-87950765D01*
X155951001Y-87950760D01*
X155883633Y-87612085D01*
X155691790Y-87324970D01*
X155691787Y-87324968D01*
X154563070Y-86196250D01*
X154563070Y-85351320D01*
X154518792Y-85116003D01*
X154379720Y-84899879D01*
X154225757Y-84794681D01*
X154247568Y-84778197D01*
X154493899Y-84358673D01*
X154509095Y-84266761D01*
X154384357Y-84076240D01*
X153193000Y-84076240D01*
X153193000Y-84096240D01*
X152939000Y-84096240D01*
X152939000Y-84076240D01*
X151747643Y-84076240D01*
X151622905Y-84266761D01*
X151638101Y-84358673D01*
X151884432Y-84778197D01*
X151907398Y-84795554D01*
X151764929Y-84887230D01*
X151619939Y-85099430D01*
X151568930Y-85351320D01*
X151568930Y-86550200D01*
X151613208Y-86785517D01*
X151752280Y-87001641D01*
X151964480Y-87146631D01*
X152216370Y-87197640D01*
X153061300Y-87197640D01*
X154181000Y-88317339D01*
X154181000Y-90594615D01*
X154046090Y-90384959D01*
X153833890Y-90239969D01*
X153582000Y-90188960D01*
X151550000Y-90188960D01*
X151314683Y-90233238D01*
X151098559Y-90372310D01*
X150953569Y-90584510D01*
X150902560Y-90836400D01*
X150902560Y-92563600D01*
X150946838Y-92798917D01*
X151085910Y-93015041D01*
X151298110Y-93160031D01*
X151339439Y-93168400D01*
X151321585Y-93180330D01*
X150996729Y-93666511D01*
X150882655Y-94240000D01*
X146398507Y-94240000D01*
X146365147Y-94226148D01*
X145774524Y-94225632D01*
X145228663Y-94451178D01*
X144810666Y-94868446D01*
X144584168Y-95413913D01*
X144583652Y-96004536D01*
X131172116Y-96004536D01*
X127851000Y-92683420D01*
X127851000Y-87256822D01*
X127900838Y-87136799D01*
X127901162Y-86764833D01*
X127759117Y-86421057D01*
X127496327Y-86157808D01*
X127152799Y-86015162D01*
X126780833Y-86014838D01*
X126538422Y-86115000D01*
X124666000Y-86115000D01*
X124346459Y-86178561D01*
X124180526Y-86289434D01*
X124075566Y-86359566D01*
X122020132Y-88415000D01*
X115529265Y-88415000D01*
X115599268Y-88246413D01*
X115599731Y-87715914D01*
X115397146Y-87225620D01*
X115022353Y-86850173D01*
X114532413Y-86646732D01*
X114001914Y-86646269D01*
X113511620Y-86848854D01*
X113136173Y-87223647D01*
X112932732Y-87713587D01*
X112932269Y-88244086D01*
X113134854Y-88734380D01*
X113167774Y-88767358D01*
X111935566Y-89999566D01*
X111754561Y-90270459D01*
X111691000Y-90590000D01*
X111691000Y-90625942D01*
X111601057Y-90663106D01*
X111140722Y-91122637D01*
X110891284Y-91723352D01*
X110890716Y-92373795D01*
X110776000Y-92373795D01*
X110776000Y-86375842D01*
X110969647Y-86569827D01*
X111459587Y-86773268D01*
X111990086Y-86773731D01*
X112480380Y-86571146D01*
X112855827Y-86196353D01*
X113059268Y-85706413D01*
X113059270Y-85704086D01*
X115472269Y-85704086D01*
X115674854Y-86194380D01*
X116049647Y-86569827D01*
X116539587Y-86773268D01*
X117070086Y-86773731D01*
X117560380Y-86571146D01*
X117935827Y-86196353D01*
X118139268Y-85706413D01*
X118139731Y-85175914D01*
X117943456Y-84700890D01*
X144571470Y-84700890D01*
X144571470Y-86400150D01*
X144615748Y-86635467D01*
X144754820Y-86851591D01*
X144967020Y-86996581D01*
X145218910Y-87047590D01*
X146918170Y-87047590D01*
X147153487Y-87003312D01*
X147369611Y-86864240D01*
X147514601Y-86652040D01*
X147565610Y-86400150D01*
X147565610Y-84700890D01*
X147521332Y-84465573D01*
X147382260Y-84249449D01*
X147170060Y-84104459D01*
X146918170Y-84053450D01*
X145218910Y-84053450D01*
X144983593Y-84097728D01*
X144767469Y-84236800D01*
X144622479Y-84449000D01*
X144571470Y-84700890D01*
X117943456Y-84700890D01*
X117937146Y-84685620D01*
X117562353Y-84310173D01*
X117072413Y-84106732D01*
X116541914Y-84106269D01*
X116051620Y-84308854D01*
X115676173Y-84683647D01*
X115472732Y-85173587D01*
X115472269Y-85704086D01*
X113059270Y-85704086D01*
X113059731Y-85175914D01*
X112857146Y-84685620D01*
X112482353Y-84310173D01*
X111992413Y-84106732D01*
X111461914Y-84106269D01*
X110971620Y-84308854D01*
X110776000Y-84504133D01*
X110776000Y-83631719D01*
X151622905Y-83631719D01*
X151747643Y-83822240D01*
X152939000Y-83822240D01*
X152939000Y-82867240D01*
X153193000Y-82867240D01*
X153193000Y-83822240D01*
X154384357Y-83822240D01*
X154509095Y-83631719D01*
X154493899Y-83539807D01*
X154247568Y-83120283D01*
X153859443Y-82826961D01*
X153388613Y-82704495D01*
X153193000Y-82867240D01*
X152939000Y-82867240D01*
X152743387Y-82704495D01*
X152272557Y-82826961D01*
X151884432Y-83120283D01*
X151638101Y-83539807D01*
X151622905Y-83631719D01*
X110776000Y-83631719D01*
X110776000Y-80444086D01*
X112932269Y-80444086D01*
X113134854Y-80934380D01*
X113509647Y-81309827D01*
X113999587Y-81513268D01*
X114530086Y-81513731D01*
X115020380Y-81311146D01*
X115395827Y-80936353D01*
X115599268Y-80446413D01*
X115599731Y-79915914D01*
X115397146Y-79425620D01*
X115022353Y-79050173D01*
X114532413Y-78846732D01*
X114001914Y-78846269D01*
X113511620Y-79048854D01*
X113136173Y-79423647D01*
X112932732Y-79913587D01*
X112932269Y-80444086D01*
X110776000Y-80444086D01*
X110776000Y-78575842D01*
X110969647Y-78769827D01*
X111459587Y-78973268D01*
X111990086Y-78973731D01*
X112480380Y-78771146D01*
X112855827Y-78396353D01*
X113059268Y-77906413D01*
X113059270Y-77904086D01*
X115472269Y-77904086D01*
X115674854Y-78394380D01*
X116049647Y-78769827D01*
X116539587Y-78973268D01*
X117070086Y-78973731D01*
X117560380Y-78771146D01*
X117935827Y-78396353D01*
X118139268Y-77906413D01*
X118139731Y-77375914D01*
X117937146Y-76885620D01*
X117562353Y-76510173D01*
X117072413Y-76306732D01*
X116541914Y-76306269D01*
X116051620Y-76508854D01*
X115676173Y-76883647D01*
X115472732Y-77373587D01*
X115472269Y-77904086D01*
X113059270Y-77904086D01*
X113059731Y-77375914D01*
X112857146Y-76885620D01*
X112482353Y-76510173D01*
X111992413Y-76306732D01*
X111461914Y-76306269D01*
X110971620Y-76508854D01*
X110776000Y-76704133D01*
X110776000Y-71536067D01*
X110784980Y-71557800D01*
X111385041Y-72158909D01*
X112169459Y-72484628D01*
X113018815Y-72485370D01*
X113803800Y-72161020D01*
X114404909Y-71560959D01*
X114730628Y-70776541D01*
X114731370Y-69927185D01*
X114407020Y-69142200D01*
X113936366Y-68670724D01*
X122080800Y-68670724D01*
X122080800Y-69229276D01*
X122174766Y-69701676D01*
X122430240Y-70084020D01*
X122430240Y-70199235D01*
X122430239Y-70199240D01*
X122468800Y-70393095D01*
X122497607Y-70537915D01*
X122498623Y-70539435D01*
X122689450Y-70825030D01*
X129190208Y-77325787D01*
X129190210Y-77325790D01*
X129477325Y-77517633D01*
X129533516Y-77528810D01*
X129816000Y-77585001D01*
X129816005Y-77585000D01*
X133735572Y-77585000D01*
X133411620Y-77718854D01*
X133036173Y-78093647D01*
X132832732Y-78583587D01*
X132832269Y-79114086D01*
X133034854Y-79604380D01*
X133409647Y-79979827D01*
X133899587Y-80183268D01*
X134430086Y-80183731D01*
X134920380Y-79981146D01*
X135295827Y-79606353D01*
X135499268Y-79116413D01*
X135499731Y-78585914D01*
X135297146Y-78095620D01*
X134922353Y-77720173D01*
X134596820Y-77585000D01*
X138735572Y-77585000D01*
X138411620Y-77718854D01*
X138036173Y-78093647D01*
X137832732Y-78583587D01*
X137832269Y-79114086D01*
X138034854Y-79604380D01*
X138409647Y-79979827D01*
X138899587Y-80183268D01*
X139430086Y-80183731D01*
X139920380Y-79981146D01*
X140295827Y-79606353D01*
X140499268Y-79116413D01*
X140499731Y-78585914D01*
X140297146Y-78095620D01*
X140251606Y-78050000D01*
X154268560Y-78050000D01*
X154268560Y-79350000D01*
X154312838Y-79585317D01*
X154451910Y-79801441D01*
X154664110Y-79946431D01*
X154916000Y-79997440D01*
X156216000Y-79997440D01*
X156451317Y-79953162D01*
X156667441Y-79814090D01*
X156812431Y-79601890D01*
X156863440Y-79350000D01*
X156863440Y-78050000D01*
X156819162Y-77814683D01*
X156680090Y-77598559D01*
X156467890Y-77453569D01*
X156216000Y-77402560D01*
X156053615Y-77402560D01*
X156229729Y-77329611D01*
X156285410Y-77099016D01*
X155566000Y-76379605D01*
X154846590Y-77099016D01*
X154902271Y-77329611D01*
X155111902Y-77402560D01*
X154916000Y-77402560D01*
X154680683Y-77446838D01*
X154464559Y-77585910D01*
X154319569Y-77798110D01*
X154268560Y-78050000D01*
X140251606Y-78050000D01*
X139922353Y-77720173D01*
X139596820Y-77585000D01*
X144275995Y-77585000D01*
X144276000Y-77585001D01*
X144558484Y-77528810D01*
X144614675Y-77517633D01*
X144901790Y-77325790D01*
X146208502Y-76019078D01*
X154268378Y-76019078D01*
X154297917Y-76529428D01*
X154436389Y-76863729D01*
X154666984Y-76919410D01*
X155386395Y-76200000D01*
X155745605Y-76200000D01*
X156465016Y-76919410D01*
X156695611Y-76863729D01*
X156863622Y-76380922D01*
X156834083Y-75870572D01*
X156695611Y-75536271D01*
X156465016Y-75480590D01*
X155745605Y-76200000D01*
X155386395Y-76200000D01*
X154666984Y-75480590D01*
X154436389Y-75536271D01*
X154268378Y-76019078D01*
X146208502Y-76019078D01*
X146415869Y-75811711D01*
X146776000Y-75883345D01*
X147349489Y-75769271D01*
X147835670Y-75444415D01*
X147850500Y-75422220D01*
X147914073Y-75575698D01*
X148092701Y-75754327D01*
X148326090Y-75851000D01*
X149030250Y-75851000D01*
X149189000Y-75692250D01*
X149189000Y-74327000D01*
X149443000Y-74327000D01*
X149443000Y-75692250D01*
X149601750Y-75851000D01*
X150305910Y-75851000D01*
X150539299Y-75754327D01*
X150717927Y-75575698D01*
X150814600Y-75342309D01*
X150814600Y-75300984D01*
X154846590Y-75300984D01*
X155566000Y-76020395D01*
X156285410Y-75300984D01*
X156229729Y-75070389D01*
X155746922Y-74902378D01*
X155236572Y-74931917D01*
X154902271Y-75070389D01*
X154846590Y-75300984D01*
X150814600Y-75300984D01*
X150814600Y-74485750D01*
X150655850Y-74327000D01*
X149443000Y-74327000D01*
X149189000Y-74327000D01*
X149169000Y-74327000D01*
X149169000Y-74073000D01*
X149189000Y-74073000D01*
X149189000Y-72707750D01*
X149443000Y-72707750D01*
X149443000Y-74073000D01*
X150655850Y-74073000D01*
X150814600Y-73914250D01*
X150814600Y-73057691D01*
X150717927Y-72824302D01*
X150539299Y-72645673D01*
X150305910Y-72549000D01*
X149601750Y-72549000D01*
X149443000Y-72707750D01*
X149189000Y-72707750D01*
X149030250Y-72549000D01*
X148326090Y-72549000D01*
X148092701Y-72645673D01*
X147914073Y-72824302D01*
X147850500Y-72977780D01*
X147835670Y-72955585D01*
X147349489Y-72630729D01*
X146776000Y-72516655D01*
X146202511Y-72630729D01*
X145716330Y-72955585D01*
X145506000Y-73270366D01*
X145295670Y-72955585D01*
X144809489Y-72630729D01*
X144236000Y-72516655D01*
X143875869Y-72588289D01*
X143111790Y-71824210D01*
X142824675Y-71632367D01*
X142768484Y-71621190D01*
X142486000Y-71564999D01*
X142485995Y-71565000D01*
X136432579Y-71565000D01*
X134974665Y-70107085D01*
X135012631Y-70051520D01*
X135063640Y-69799630D01*
X135063640Y-69272613D01*
X139070495Y-69272613D01*
X139192961Y-69743443D01*
X139486283Y-70131568D01*
X139905807Y-70377899D01*
X139997719Y-70393095D01*
X140188240Y-70268357D01*
X140188240Y-69077000D01*
X139233240Y-69077000D01*
X139070495Y-69272613D01*
X135063640Y-69272613D01*
X135063640Y-68627387D01*
X139070495Y-68627387D01*
X139233240Y-68823000D01*
X140188240Y-68823000D01*
X140188240Y-67631643D01*
X140442240Y-67631643D01*
X140442240Y-68823000D01*
X140462240Y-68823000D01*
X140462240Y-69077000D01*
X140442240Y-69077000D01*
X140442240Y-70268357D01*
X140632761Y-70393095D01*
X140724673Y-70377899D01*
X141144197Y-70131568D01*
X141161554Y-70108602D01*
X141253230Y-70251071D01*
X141465430Y-70396061D01*
X141717320Y-70447070D01*
X142916200Y-70447070D01*
X143151517Y-70402792D01*
X143367641Y-70263720D01*
X143512631Y-70051520D01*
X143563640Y-69799630D01*
X143563640Y-68100370D01*
X143519362Y-67865053D01*
X143380290Y-67648929D01*
X143168090Y-67503939D01*
X142916200Y-67452930D01*
X141717320Y-67452930D01*
X141482003Y-67497208D01*
X141265879Y-67636280D01*
X141160681Y-67790243D01*
X141144197Y-67768432D01*
X140724673Y-67522101D01*
X140632761Y-67506905D01*
X140442240Y-67631643D01*
X140188240Y-67631643D01*
X139997719Y-67506905D01*
X139905807Y-67522101D01*
X139486283Y-67768432D01*
X139192961Y-68156557D01*
X139070495Y-68627387D01*
X135063640Y-68627387D01*
X135063640Y-68100370D01*
X135019362Y-67865053D01*
X134880290Y-67648929D01*
X134668090Y-67503939D01*
X134416200Y-67452930D01*
X133217320Y-67452930D01*
X132982003Y-67497208D01*
X132765879Y-67636280D01*
X132660681Y-67790243D01*
X132644197Y-67768432D01*
X132224673Y-67522101D01*
X132132761Y-67506905D01*
X131942240Y-67631643D01*
X131942240Y-68823000D01*
X131962240Y-68823000D01*
X131962240Y-69077000D01*
X131942240Y-69077000D01*
X131942240Y-70268357D01*
X132132761Y-70393095D01*
X132224673Y-70377899D01*
X132644197Y-70131568D01*
X132661554Y-70108602D01*
X132753230Y-70251071D01*
X132965430Y-70396061D01*
X132970825Y-70397154D01*
X132999127Y-70539435D01*
X133155066Y-70772815D01*
X133190970Y-70826550D01*
X135440208Y-73075787D01*
X135440210Y-73075790D01*
X135727325Y-73267633D01*
X135783516Y-73278810D01*
X136066000Y-73335001D01*
X136066005Y-73335000D01*
X142119420Y-73335000D01*
X142747732Y-73963312D01*
X142737400Y-74015255D01*
X142737400Y-74384745D01*
X142851474Y-74958234D01*
X143176330Y-75444415D01*
X143662511Y-75769271D01*
X143892406Y-75815000D01*
X130182579Y-75815000D01*
X124814650Y-70447070D01*
X125916200Y-70447070D01*
X126151517Y-70402792D01*
X126367641Y-70263720D01*
X126512631Y-70051520D01*
X126563640Y-69799630D01*
X126563640Y-69272613D01*
X130570495Y-69272613D01*
X130692961Y-69743443D01*
X130986283Y-70131568D01*
X131405807Y-70377899D01*
X131497719Y-70393095D01*
X131688240Y-70268357D01*
X131688240Y-69077000D01*
X130733240Y-69077000D01*
X130570495Y-69272613D01*
X126563640Y-69272613D01*
X126563640Y-68627387D01*
X130570495Y-68627387D01*
X130733240Y-68823000D01*
X131688240Y-68823000D01*
X131688240Y-67631643D01*
X131497719Y-67506905D01*
X131405807Y-67522101D01*
X130986283Y-67768432D01*
X130692961Y-68156557D01*
X130570495Y-68627387D01*
X126563640Y-68627387D01*
X126563640Y-68100370D01*
X126519362Y-67865053D01*
X126380290Y-67648929D01*
X126168090Y-67503939D01*
X125916200Y-67452930D01*
X124717320Y-67452930D01*
X124482003Y-67497208D01*
X124265879Y-67636280D01*
X124165716Y-67782873D01*
X123787640Y-67530250D01*
X123315240Y-67436284D01*
X122842840Y-67530250D01*
X122442359Y-67797843D01*
X122174766Y-68198324D01*
X122080800Y-68670724D01*
X113936366Y-68670724D01*
X113806959Y-68541091D01*
X113022541Y-68215372D01*
X112173185Y-68214630D01*
X111388200Y-68538980D01*
X110787091Y-69139041D01*
X110776000Y-69165751D01*
X110776000Y-66060000D01*
X159156000Y-66060000D01*
X159156000Y-69091091D01*
M02*
