G04 #@! TF.FileFunction,Soldermask,Top*
%FSLAX46Y46*%
G04 Gerber Fmt 4.6, Leading zero omitted, Abs format (unit mm)*
G04 Created by KiCad (PCBNEW 4.0.1-stable) date 22/03/2016 00:02:26*
%MOMM*%
G01*
G04 APERTURE LIST*
%ADD10C,0.100000*%
%ADD11C,3.110000*%
%ADD12R,1.837200X2.142000*%
%ADD13O,1.837200X2.142000*%
%ADD14R,1.310000X1.010000*%
%ADD15R,0.860000X1.310000*%
%ADD16R,1.010000X1.310000*%
%ADD17R,2.142000X1.837200*%
%ADD18O,2.142000X1.837200*%
%ADD19R,1.310000X0.860000*%
%ADD20R,1.410000X1.410000*%
%ADD21C,1.410000*%
%ADD22R,2.110000X1.710000*%
%ADD23R,1.710000X2.110000*%
%ADD24R,1.308880X1.809260*%
%ADD25O,1.308880X1.809260*%
%ADD26R,1.360000X1.610000*%
%ADD27R,2.110000X2.110000*%
%ADD28C,2.110000*%
%ADD29C,1.809260*%
%ADD30R,1.809260X1.809260*%
%ADD31R,0.910000X1.010000*%
%ADD32R,2.160000X3.760000*%
%ADD33R,3.760000X2.160000*%
%ADD34R,1.410000X0.530000*%
%ADD35R,1.810000X2.955000*%
%ADD36C,1.507000*%
%ADD37R,1.809260X1.308880*%
%ADD38O,1.809260X1.308880*%
G04 APERTURE END LIST*
D10*
D11*
X112596000Y-110150000D03*
X112596000Y-70350000D03*
X157396000Y-70350000D03*
X157396000Y-110150000D03*
D12*
X120266000Y-102750000D03*
D13*
X122806000Y-102750000D03*
X125346000Y-102750000D03*
D14*
X126866000Y-92850000D03*
X124666000Y-92850000D03*
X126866000Y-95350000D03*
X124666000Y-95350000D03*
D15*
X137666000Y-90800000D03*
X137666000Y-88900000D03*
D12*
X120266000Y-112750000D03*
D13*
X122806000Y-112750000D03*
X125346000Y-112750000D03*
D12*
X125366000Y-107750000D03*
D13*
X122826000Y-107750000D03*
X120286000Y-107750000D03*
D16*
X137966000Y-100450000D03*
X137966000Y-102650000D03*
X135166000Y-100450000D03*
X135166000Y-102650000D03*
X132466000Y-99650000D03*
X132466000Y-97450000D03*
D17*
X119966000Y-91450000D03*
D18*
X119966000Y-93990000D03*
X119966000Y-96530000D03*
D19*
X137916000Y-98150000D03*
X136016000Y-98150000D03*
D20*
X147316000Y-75700000D03*
D21*
X144816000Y-75700000D03*
D22*
X138266000Y-94450000D03*
X142266000Y-94450000D03*
D15*
X129166000Y-113700000D03*
X129166000Y-111800000D03*
D23*
X129666000Y-84750000D03*
X129666000Y-88750000D03*
D24*
X127966760Y-68950000D03*
D25*
X125965240Y-68950000D03*
D26*
X141166000Y-88200000D03*
X141166000Y-90700000D03*
D27*
X115066000Y-92050000D03*
D28*
X112526000Y-92050000D03*
D27*
X115066000Y-98050000D03*
D28*
X112526000Y-98050000D03*
D17*
X152566000Y-91700000D03*
D18*
X152566000Y-94240000D03*
X152566000Y-96780000D03*
D24*
X138466760Y-68950000D03*
D25*
X136465240Y-68950000D03*
D16*
X120266000Y-86450000D03*
X120266000Y-84250000D03*
X120266000Y-78750000D03*
X120266000Y-76550000D03*
D29*
X146068540Y-95710520D03*
D30*
X146068540Y-85550520D03*
D31*
X142966000Y-97450000D03*
X142016000Y-99450000D03*
X143916000Y-99450000D03*
X133666000Y-88950000D03*
X134616000Y-86950000D03*
X132716000Y-86950000D03*
X126966000Y-75150000D03*
X127916000Y-73150000D03*
X126016000Y-73150000D03*
D32*
X152316000Y-85700000D03*
D33*
X151466000Y-69550000D03*
D32*
X124066000Y-85350000D03*
D33*
X144966000Y-82000000D03*
D32*
X132566000Y-103850000D03*
X124066000Y-79350000D03*
D34*
X130308000Y-94557500D03*
X130308000Y-93907500D03*
X130308000Y-93257500D03*
X130308000Y-92607500D03*
X130308000Y-91957500D03*
X130308000Y-91307500D03*
X134819000Y-91307500D03*
X134819000Y-91957500D03*
X134819000Y-92607500D03*
X134819000Y-93257500D03*
X134819000Y-93907500D03*
X134819000Y-94557500D03*
D35*
X132558500Y-92932500D03*
D36*
X139166000Y-78850000D03*
X134166000Y-78850000D03*
X114266000Y-80180000D03*
X116806000Y-77640000D03*
X111726000Y-77640000D03*
X114266000Y-87980000D03*
X116806000Y-85440000D03*
X111726000Y-85440000D03*
D33*
X119636000Y-68430000D03*
D37*
X153316000Y-103700760D03*
D38*
X153316000Y-101699240D03*
D37*
X153316000Y-77200760D03*
D38*
X153316000Y-75199240D03*
M02*
